<?xml version="1.0" encoding="UTF-8"?>
<!-- Generator: https://ezgif.com/webp-to-svg -->
<svg version="1.1" xmlns="http://www.w3.org/2000/svg" width="50" height="50">
<path d="M0 0 C-0.27 0.89 -0.54 1.77 -0.81 2.69 C-1.37 6.14 -1.37 6.14 1.12 8.75 C3.82 11.08 3.82 11.08 6.75 12.06 C7.49 12.37 8.23 12.68 9 13 C9.69 15.06 9.69 15.06 10 17 C10.66 17.33 11.32 17.66 12 18 C12 17.26 12 16.52 12 15.75 C13.2 12.44 13.94 12.24 17 10.75 C17.72 10.44 18.44 10.12 19.19 9.8 C20.98 9.14 20.98 9.14 22 8 C22.07 6.65 22.08 5.29 22.06 3.94 C22.04 2.64 22.02 1.34 22 0 C24.87 1.28 27.15 2.42 29 5 C29.25 8.1 29.4 10.2 28 13 C27.8 16.67 27.65 20.33 27.57 24 C27.24 32.26 25.21 38.32 19.62 44.56 C18.87 45.43 18.12 46.3 17.35 47.19 C16.58 47.79 15.8 48.39 15 49 C12.4 48.65 12.4 48.65 10 48 C9.01 48.66 8.02 49.32 7 50 C5.37 47.94 3.74 45.88 2.12 43.81 C1.66 43.23 1.2 42.66 0.73 42.06 C-3.83 36.21 -5.26 31.32 -6 24 C-2.84 25.37 -2.01 25.99 0 29 C0 27.02 0 25.04 0 23 C2 23 2 23 3.5 24.44 C3.99 24.95 4.49 25.47 5 26 C5.66 26.33 6.32 26.66 7 27 C5.67 22.81 4.11 20.93 0.56 18.38 C-5.17 14.2 -5.17 14.2 -7 12 C-7.5 8.62 -7.5 8.62 -7 5 C-2.96 0 -2.96 0 0 0 Z M16.28 21.52 C14.57 23.18 14.57 23.18 15 27 C17.49 25.8 19.68 24.55 22 23 C22.25 20.42 22.25 20.42 22 18 C19.71 18 18.03 20.18 16.28 21.52 Z M1 30 C1.41 34.83 3.46 36.83 7 40 C7.5 37.71 7.5 37.71 7 35 C5.16 33.01 3.21 31.61 1 30 Z M17.44 32.19 C14.76 34.74 14.76 34.74 14.69 37.81 C14.79 38.53 14.89 39.26 15 40 C18.48 36.98 19.79 34.43 21 30 C19.57 29.89 19.57 29.89 17.44 32.19 Z " fill="#E30A12" transform="translate(14,0)"/>
</svg>
