<?xml version="1.0" encoding="UTF-8"?>
<!-- Generator: https://ezgif.com/webp-to-svg -->
<svg version="1.1" xmlns="http://www.w3.org/2000/svg" width="50" height="50">
<path d="M0 0 C5.43 5.03 9.56 9.72 10.34 17.27 C10.43 26.03 10.06 31.76 3.91 38.19 C-3.4 45 -8.57 46.49 -18.55 46.31 C-25.88 45.65 -30.62 42.15 -35.52 36.83 C-41.05 29.99 -40.85 22.49 -40 14 C-38.25 6.84 -32.75 2.24 -27 -2 C-18.92 -6.31 -7.43 -5.18 0 0 Z " fill="#EAEAEA" transform="translate(40,4)"/>
<path d="M0 0 C2.62 2.31 2.62 2.31 4 4 C3.67 4.66 3.34 5.32 3 6 C2.26 5.15 1.52 4.31 0.75 3.44 C-0.61 2.23 -0.61 2.23 -2 1 C-4.28 1.04 -4.28 1.04 -6 2 C-6.42 4.69 -6.36 6.45 -4.85 8.76 C-4.15 9.71 -4.15 9.71 -3.44 10.69 C-0.52 14.97 -0.8 18.1 -1.61 23.09 C-1.74 23.72 -1.87 24.35 -2 25 C-2.66 25 -3.32 25 -4 25 C-4.19 25.6 -4.37 26.2 -4.56 26.81 C-6.77 30.17 -9.23 30.82 -13 32 C-18.44 31.9 -21.85 30.49 -26 27 C-29.29 22.43 -29.14 19.08 -28.32 13.76 C-28.22 13.18 -28.11 12.6 -28 12 C-29.32 12.33 -30.64 12.66 -32 13 C-32.66 11.68 -33.32 10.36 -34 9 C-32.35 8.67 -30.7 8.34 -29 8 C-28.67 8.99 -28.34 9.98 -28 11 C-27.34 11 -26.68 11 -26 11 C-25.77 10.4 -25.55 9.8 -25.31 9.19 C-23.66 6.44 -21.8 5.48 -19 4 C-19.33 2.68 -19.66 1.36 -20 0 C-20.66 1.32 -21.32 2.64 -22 4 C-22.99 3.67 -23.98 3.34 -25 3 C-25 2.01 -25 1.02 -25 0 C-28.15 1.84 -31.12 3.76 -34 6 C-32.11 0.9 -27.99 -2.05 -23.25 -4.31 C-14.24 -6.22 -7.78 -5.01 0 0 Z " fill="#DCDCDC" transform="translate(40,7)"/>
<path d="M0 0 C5.43 5.03 9.56 9.72 10.34 17.27 C10.43 26.03 10.06 31.76 3.91 38.19 C-3.4 45 -8.57 46.49 -18.55 46.31 C-25.88 45.65 -30.62 42.15 -35.52 36.83 C-41.05 29.99 -40.85 22.49 -40 14 C-38.25 6.84 -32.75 2.24 -27 -2 C-18.92 -6.31 -7.43 -5.18 0 0 Z M-34.59 7.9 C-38.64 13.93 -38.72 19.94 -38 27 C-36.23 33.64 -31.55 38.17 -26 42 C-20.1 44.85 -13.76 45.07 -7.46 43.28 C-2.7 41.31 0.74 39 4 35 C4 34.34 4 33.68 4 33 C4.66 33 5.32 33 6 33 C8.31 26.36 9.18 19.68 7 12.88 C6.51 11.95 6.51 11.95 6 11 C5.34 11 4.68 11 4 11 C3.96 10.28 3.92 9.56 3.88 8.81 C2.3 3.75 -1.84 1.64 -6.25 -0.81 C-17.75 -4.45 -26.97 -1.16 -34.59 7.9 Z " fill="#FAFAFA" transform="translate(40,4)"/>
<path d="M0 0 C2.62 2.31 2.62 2.31 4 4 C3.67 4.66 3.34 5.32 3 6 C2.26 5.15 1.52 4.31 0.75 3.44 C-0.61 2.23 -0.61 2.23 -2 1 C-4.28 1.04 -4.28 1.04 -6 2 C-6.2 5.63 -5.86 7.87 -4 11 C-4.74 10.34 -5.48 9.68 -6.25 9 C-10.95 5.78 -16.56 6.68 -22 7 C-21.5 6.55 -21 6.1 -20.48 5.64 C-19.99 5.1 -19.5 4.56 -19 4 C-19.23 1.84 -19.23 1.84 -20 0 C-20.66 1.32 -21.32 2.64 -22 4 C-22.99 3.67 -23.98 3.34 -25 3 C-25 2.01 -25 1.02 -25 0 C-28.15 1.84 -31.12 3.76 -34 6 C-32.11 0.9 -27.99 -2.05 -23.25 -4.31 C-14.24 -6.22 -7.78 -5.01 0 0 Z " fill="#A7A7A7" transform="translate(40,7)"/>
<path d="M0 0 C2.36 2.36 2.49 3.78 3 7 C1.21 7.98 -0.58 8.95 -2.37 9.93 C-4.17 10.91 -4.17 10.91 -5 13 C-5.66 13 -6.32 13 -7 13 C-7.33 12.34 -7.66 11.68 -8 11 C-9.32 11 -10.64 11 -12 11 C-11.67 11.99 -11.34 12.98 -11 14 C-9.68 14 -8.36 14 -7 14 C-7.38 16.94 -7.38 16.94 -8 20 C-8.66 20.33 -9.32 20.66 -10 21 C-10.66 20.34 -11.32 19.68 -12 19 C-12.99 19.33 -13.98 19.66 -15 20 C-15.51 12.54 -13.89 9.33 -8.94 3.62 C-7 2 -7 2 -4 2 C-4 2.99 -4 3.98 -4 5 C-3.01 5 -2.02 5 -1 5 C-0.67 3.35 -0.34 1.7 0 0 Z " fill="#FAFAFA" transform="translate(19,5)"/>
<path d="M0 0 C0.66 0 1.32 0 2 0 C2 0.66 2 1.32 2 2 C2.99 2.33 3.98 2.66 5 3 C5 3.66 5 4.32 5 5 C5.66 5 6.32 5 7 5 C7 5.66 7 6.32 7 7 C8.32 7.66 9.64 8.32 11 9 C10.34 9.66 9.68 10.32 9 11 C9.33 11.99 9.66 12.98 10 14 C6.61 13.41 4.79 12.23 2.25 9.94 C1.64 9.39 1.02 8.84 0.39 8.28 C-0.07 7.86 -0.53 7.43 -1 7 C-0.67 6.34 -0.34 5.68 0 5 C0.99 5 1.98 5 3 5 C2.26 4.32 2.26 4.32 1.5 3.62 C0 2 0 2 0 0 Z " fill="#CACACA" transform="translate(7,32)"/>
<path d="M0 0 C1.67 0.04 3.34 0.15 5 0.31 C6.36 0.43 6.36 0.43 7.75 0.55 C8.49 0.7 9.23 0.85 10 1 C10.33 1.66 10.66 2.32 11 3 C10.34 3 9.68 3 9 3 C8.67 3.99 8.34 4.98 8 6 C7.67 4.68 7.34 3.36 7 2 C6.34 2 5.68 2 5 2 C5 3.98 5 5.96 5 8 C3.35 8 1.7 8 0 8 C-0.38 5.67 -0.71 3.34 -1 1 C-0.67 0.67 -0.34 0.34 0 0 Z " fill="#DEDEDE" transform="translate(23,3)"/>
<path d="M0 0 C0.76 0.37 1.53 0.74 2.31 1.12 C3.64 1.56 3.64 1.56 5 2 C5.99 1.34 6.98 0.68 8 0 C8 3.33 8 6.67 8 10 C7.24 9.63 6.47 9.26 5.69 8.88 C4.8 8.59 3.91 8.3 3 8 C1.52 8.99 1.52 8.99 0 10 C0 6.67 0 3.33 0 0 Z " fill="#070707" transform="translate(21,18)"/>
<path d="M0 0 C0.66 0.66 1.32 1.32 2 2 C1.34 2.66 0.68 3.32 0 4 C1.32 4.33 2.64 4.66 4 5 C-1.89 8.14 -7.34 8.85 -14 8 C-14.66 7.34 -15.32 6.68 -16 6 C-11.38 6 -6.76 6 -2 6 C-2 5.34 -2 4.68 -2 4 C-3.32 4 -4.64 4 -6 4 C-6 3.34 -6 2.68 -6 2 C-4.02 1.34 -2.04 0.68 0 0 Z " fill="#B7B7B7" transform="translate(33,40)"/>
<path d="M0 0 C0.99 0 1.98 0 3 0 C3.33 0.66 3.66 1.32 4 2 C4.66 1.67 5.32 1.34 6 1 C6 2.32 6 3.64 6 5 C5.34 5 4.68 5 4 5 C3.34 6.32 2.68 7.64 2 9 C1.67 8.01 1.34 7.02 1 6 C-0.98 6.66 -2.96 7.32 -5 8 C-3.98 4.95 -3.23 4.13 -1 2 C-0.67 1.34 -0.34 0.68 0 0 Z " fill="#CCCCCC" transform="translate(40,32)"/>
<path d="M0 0 C2.14 3.2 2.23 4.02 2.12 7.69 C2.11 8.5 2.09 9.3 2.07 10.14 C2.04 11.06 2.04 11.06 2 12 C1.67 12 1.34 12 1 12 C1 10.35 1 8.7 1 7 C-0.65 7 -2.3 7 -4 7 C-3.67 7.99 -3.34 8.98 -3 10 C-3.66 10.66 -4.32 11.32 -5 12 C-5.33 9.03 -5.66 6.06 -6 3 C-5.2 2.88 -4.39 2.75 -3.56 2.62 C-2.72 2.42 -1.87 2.21 -1 2 C-0.67 1.34 -0.34 0.68 0 0 Z " fill="#FDFDFD" transform="translate(44,16)"/>
<path d="M0 0 C1.65 0 3.3 0 5 0 C5 1.65 5 3.3 5 5 C3.35 5 1.7 5 0 5 C0 3.35 0 1.7 0 0 Z " fill="#CBCBCB" transform="translate(40,23)"/>
<path d="M0 0 C1.65 0.33 3.3 0.66 5 1 C4.34 2.32 3.68 3.64 3 5 C1.68 4.34 0.36 3.68 -1 3 C-0.67 2.01 -0.34 1.02 0 0 Z " fill="#CECECE" transform="translate(39,15)"/>
</svg>
