<?xml version="1.0" encoding="UTF-8"?>
<!-- Generator: https://ezgif.com/webp-to-svg -->
<svg version="1.1" xmlns="http://www.w3.org/2000/svg" width="100" height="100">
<path d="M0 0 C6.28 3.96 11.83 8.34 17.32 13.34 C19.89 15.27 19.89 15.27 22.9 14.91 C26.31 13.91 29.58 12.75 32.88 11.44 C34.03 10.98 35.18 10.53 36.37 10.06 C37.24 9.71 38.1 9.36 39 9 C38.28 12.75 36.67 15.86 34.94 19.25 C34.39 20.33 33.84 21.41 33.28 22.52 C32.86 23.34 32.43 24.16 32 25 C36.81 29.33 41.66 33.33 47 37 C46.84 40.87 46.04 41.97 43.18 44.69 C41.95 45.66 40.7 46.62 39.44 47.56 C38.44 48.34 38.44 48.34 37.42 49.12 C35.29 50.76 33.15 52.38 31 54 C30.3 54.53 29.59 55.06 28.87 55.61 C25.46 58.18 22.05 60.74 18.62 63.28 C14.88 66.06 11.26 68.98 7.7 71.99 C7.14 72.32 6.58 72.66 6 73 C5.01 72.67 4.02 72.34 3 72 C3.61 68.43 4.62 65.34 6 62 C4.48 62.66 4.48 62.66 2.92 63.34 C-34.26 79.53 -34.26 79.53 -51 86 C-50.38 81.04 -48.2 77.06 -45.94 72.69 C-45.56 71.95 -45.18 71.21 -44.79 70.44 C-43.87 68.63 -42.94 66.81 -42 65 C-42.54 65.22 -43.09 65.43 -43.64 65.66 C-44.36 65.93 -45.08 66.21 -45.81 66.5 C-46.52 66.78 -47.23 67.06 -47.96 67.34 C-50 68 -50 68 -53 68 C-52.37 63.64 -50.73 60.02 -48.76 56.12 C-48.44 55.48 -48.12 54.83 -47.79 54.16 C-47.11 52.8 -46.42 51.44 -45.74 50.08 C-44.69 48.01 -43.66 45.94 -42.63 43.86 C-41.97 42.53 -41.3 41.2 -40.64 39.88 C-40.33 39.26 -40.03 38.65 -39.71 38.01 C-36.74 32.15 -34.1 28.04 -27.93 25.46 C-26.95 25.05 -25.97 24.63 -24.96 24.2 C-23.94 23.78 -22.92 23.37 -21.88 22.94 C-20.38 22.31 -20.38 22.31 -18.86 21.66 C-15.91 20.42 -12.96 19.21 -10 18 C-8.58 17.41 -8.58 17.41 -7.13 16.8 C-6.25 16.44 -5.36 16.07 -4.45 15.69 C-3.66 15.36 -2.87 15.04 -2.06 14.7 C0 14 0 14 3 14 C2.7 13.32 2.4 12.65 2.09 11.95 C1.71 11.06 1.33 10.17 0.94 9.25 C0.55 8.37 0.17 7.49 -0.22 6.58 C-1.05 3.85 -0.98 2.63 0 0 Z " fill="#F7F7F7" transform="translate(53,7)"/>
<path d="M0 0 C-2.77 7.29 -6.39 14.24 -9.83 21.23 C-10.69 22.99 -11.54 24.75 -12.39 26.51 C-13.62 29.08 -14.87 31.63 -16.13 34.18 C-16.5 34.96 -16.87 35.74 -17.25 36.54 C-21.11 44.23 -26.94 49.59 -34.88 53 C-35.8 53.41 -36.73 53.83 -37.68 54.25 C-40 55 -40 55 -42 54 C-38.7 47.4 -35.4 40.8 -32 34 C-35.96 35.32 -39.92 36.64 -44 38 C-36.03 14.09 -36.03 14.09 -27.38 9.69 C-25.6 9.07 -23.81 8.52 -22 8 C-19.92 7.24 -17.86 6.44 -15.79 5.64 C-13.72 4.85 -11.63 4.09 -9.54 3.33 C-6.15 2.13 -6.15 2.13 -3.65 0.82 C-2 0 -2 0 0 0 Z " fill="#040404" transform="translate(55,27)"/>
<path d="M0 0 C-4.15 8.73 -9.3 15.15 -16 22 C-12.31 21.09 -8.66 20.05 -5 19 C-6.16 22.93 -7.23 25.96 -10 29 C-12.64 30.37 -12.64 30.37 -15.76 31.58 C-16.88 32.02 -18 32.45 -19.15 32.91 C-20.32 33.35 -21.48 33.79 -22.69 34.25 C-24.46 34.94 -24.46 34.94 -26.26 35.64 C-29.17 36.77 -32.08 37.89 -35 39 C-35.33 38.34 -35.66 37.68 -36 37 C-32.44 28.78 -26.12 22.36 -20 16 C-22.97 16.66 -25.94 17.32 -29 18 C-27.7 12.91 -25.99 10.39 -22 7 C-18.88 5.3 -15.66 3.95 -12.38 2.62 C-11.52 2.26 -10.66 1.89 -9.77 1.51 C-3.39 -1.13 -3.39 -1.13 0 0 Z " fill="#080808" transform="translate(81,28)"/>
<path d="M0 0 C3.94 1.67 6.79 4.23 10 7 C7.33 9.67 4.67 12.33 2 15 C1.34 14.67 0.68 14.34 0 14 C0.35 13.51 0.7 13.01 1.06 12.5 C2.47 8.73 1.7 5.95 1 2 C0.67 1.34 0.34 0.68 0 0 Z " fill="#0F0F0F" transform="translate(84,39)"/>
<path d="M0 0 C1 2 1 2 0.44 4 C-1.57 6.8 -3.74 7.15 -7 8 C-6.31 5.12 -6.31 5.12 -5 2 C-2.38 0.62 -2.38 0.62 0 0 Z " fill="#D5D5D5" transform="translate(34,43)"/>
</svg>
