<?xml version="1.0" encoding="UTF-8"?>
<!-- Generator: https://ezgif.com/webp-to-svg -->
<svg version="1.1" xmlns="http://www.w3.org/2000/svg" width="50" height="50">
<path d="M0 0 C0.66 0 1.32 0 2 0 C3.74 3.62 5.47 7.25 7.18 10.89 C7.77 12.12 8.36 13.36 8.95 14.59 C9.8 16.36 10.64 18.14 11.47 19.92 C12.23 21.52 12.23 21.52 13.01 23.16 C14 26 14 26 14.04 28.13 C12.37 31.13 9.88 32.27 6.95 34 C6.04 34.55 6.04 34.55 5.11 35.11 C3.16 36.27 1.21 37.42 -0.75 38.56 C-2.05 39.34 -3.35 40.11 -4.66 40.89 C-7.06 42.32 -9.47 43.75 -11.88 45.16 C-13.86 46.33 -15.83 47.52 -17.79 48.74 C-20 50 -20 50 -22 50 C-20.64 45.68 -18.99 41.65 -17.06 37.56 C-14.56 32.2 -12.14 26.82 -9.92 21.34 C-6.94 14.04 -3.61 7 0 0 Z M0 13 C-1.67 16.62 -3.34 20.25 -5 23.88 C-5.48 24.91 -5.95 25.94 -6.45 27 C-7.12 28.48 -7.12 28.48 -7.81 29.99 C-8.23 30.9 -8.65 31.81 -9.08 32.75 C-10.13 34.9 -10.13 34.9 -10 37 C-5.96 35.51 -2.39 33.57 1.31 31.38 C2.38 30.74 3.45 30.11 4.55 29.46 C5.36 28.98 6.17 28.5 7 28 C6.46 24.04 5.64 20.74 3.94 17.12 C3.58 16.34 3.21 15.56 2.84 14.76 C2.56 14.18 2.29 13.6 2 13 C1.34 13 0.68 13 0 13 Z " fill="#919CAA" transform="translate(24,0)"/>
<path d="M0 0 C0.66 0 1.32 0 2 0 C3.5 3.16 4.97 6.33 6.44 9.5 C7.07 10.83 7.07 10.83 7.71 12.19 C10.18 17.56 11.62 22.09 12 28 C9.67 27.83 9.67 27.83 7 27 C5.45 24.64 5.45 24.64 4.25 21.69 C3.84 20.72 3.44 19.76 3.02 18.76 C2 16 2 16 1.48 13.71 C1.32 13.14 1.16 12.58 1 12 C0.34 11.67 -0.32 11.34 -1 11 C-1.16 11.59 -1.32 12.18 -1.48 12.79 C-3.08 18.22 -4.65 21.36 -9 25 C-8 23 -7 21 -6 19 C-6.66 19 -7.32 19 -8 19 C-6.21 12.05 -3.74 6.13 0 0 Z " fill="#AEB6C0" transform="translate(24,0)"/>
<path d="M0 0 C1.36 2.47 2.55 4.87 3.69 7.44 C4.01 8.13 4.33 8.83 4.66 9.54 C7 14.7 7 14.7 7 17 C2.24 16.31 -1.88 14.53 -6.25 12.62 C-7.35 12.17 -7.35 12.17 -8.47 11.7 C-10.35 10.89 -12.18 9.95 -14 9 C-14.33 8.01 -14.66 7.02 -15 6 C-13.07 4.8 -11.13 3.62 -9.19 2.44 C-7.57 1.45 -7.57 1.45 -5.92 0.43 C-3 -1 -3 -1 0 0 Z " fill="#A1ADBC" transform="translate(41,33)"/>
<path d="M0 0 C0.66 0 1.32 0 2 0 C2.99 3.08 2.92 4.92 2 8 C2 8.66 2 9.32 2 10 C1.56 10.43 1.11 10.86 0.66 11.31 C-1.97 13.99 -3.17 17.34 -4.72 20.72 C-6 23 -6 23 -9 25 C-8 23 -7 21 -6 19 C-6.66 19 -7.32 19 -8 19 C-6.21 12.05 -3.74 6.13 0 0 Z " fill="#3E444C" transform="translate(24,0)"/>
<path d="M0 0 C0.99 0.33 1.98 0.66 3 1 C2.01 1.5 2.01 1.5 1 2 C0.2 3.91 0.2 3.91 -0.44 6.19 C-3.66 16.21 -3.66 16.21 -8.19 18.88 C-9.12 19.25 -10.04 19.62 -11 20 C-11.94 17.46 -12.17 16.39 -11.07 13.86 C-10.62 13.16 -10.16 12.47 -9.69 11.75 C-9.24 11.04 -8.79 10.34 -8.32 9.61 C-7.89 9.08 -7.45 8.55 -7 8 C-6.34 8 -5.68 8 -5 8 C-5.33 9.32 -5.66 10.64 -6 12 C-4.02 8.04 -2.04 4.08 0 0 Z " fill="#B3BCC7" transform="translate(23,11)"/>
<path d="M0 0 C0.33 0 0.66 0 1 0 C1.33 1.98 1.66 3.96 2 6 C3.32 6.33 4.64 6.66 6 7 C4.64 7.87 4.64 7.87 3.25 8.75 C0.03 10.84 0.03 10.84 -2.25 13.25 C-2.83 13.83 -3.41 14.41 -4 15 C-4.66 15 -5.32 15 -6 15 C-4.4 9.8 -2.26 4.93 0 0 Z " fill="#D4DAE2" transform="translate(8,35)"/>
<path d="M0 0 C3.92 3.36 6.08 7.28 8 12 C8 12.66 8 13.32 8 14 C3.61 13.34 0.02 11.81 -4 10 C-4 9.67 -4 9.34 -4 9 C-1.69 9.33 0.62 9.66 3 10 C2.51 8.91 2.01 7.81 1.5 6.69 C0 3 0 3 0 0 Z " fill="#B0BAC6" transform="translate(40,36)"/>
<path d="M0 0 C0.66 0 1.32 0 2 0 C3.46 2.65 4 3.89 4 7 C1.11 9.11 -0.38 10 -4 10 C-2.89 6.51 -1.74 3.23 0 0 Z " fill="#A3ADBB" transform="translate(24,20)"/>
<path d="M0 0 C0.66 0 1.32 0 2 0 C2.97 3.59 3.55 5.75 2.02 9.21 C-1.35 14.67 -1.35 14.67 -4 16 C-3 14 -2 12 -1 10 C-1.66 10 -2.32 10 -3 10 C-2.01 6.7 -1.02 3.4 0 0 Z " fill="#525A62" transform="translate(19,9)"/>
<path d="M0 0 C0.99 0 1.98 0 3 0 C3.99 2.97 4.98 5.94 6 9 C5.01 9.99 4.02 10.98 3 12 C2.3 10.57 1.62 9.13 0.94 7.69 C0.55 6.89 0.17 6.09 -0.22 5.26 C-1 3 -1 3 0 0 Z " fill="#3F454C" transform="translate(28,11)"/>
<path d="M0 0 C0.99 0.33 1.98 0.66 3 1 C4.19 4.56 4.19 4.56 5 8 C3.68 8.99 2.36 9.98 1 11 C0.34 9.68 -0.32 8.36 -1 7 C-0.34 7 0.32 7 1 7 C0.67 4.69 0.34 2.38 0 0 Z " fill="#86909C" transform="translate(25,3)"/>
<path d="M0 0 C0.99 0.33 1.98 0.66 3 1 C3.81 2.81 3.81 2.81 4 5 C3.06 7.25 3.06 7.25 2 9 C0.68 7.35 -0.64 5.7 -2 4 C-3.32 4.33 -4.64 4.66 -6 5 C-4.07 2.98 -2.37 1.58 0 0 Z " fill="#828B94" transform="translate(38,32)"/>
<path d="M0 0 C0 0.99 0 1.98 0 3 C1.94 4.71 1.94 4.71 4 6 C2.38 6.69 2.38 6.69 0 7 C-3.25 5.56 -3.25 5.56 -6 4 C-6 3.34 -6 2.68 -6 2 C-2.25 0 -2.25 0 0 0 Z " fill="#6D7886" transform="translate(32,37)"/>
<path d="M0 0 C0 0.99 0 1.98 0 3 C-1.79 4.03 -3.58 5.05 -5.38 6.06 C-6.87 6.92 -6.87 6.92 -8.4 7.79 C-9.26 8.19 -10.12 8.59 -11 9 C-11.66 8.67 -12.32 8.34 -13 8 C-8.71 5.36 -4.42 2.72 0 0 Z " fill="#4F5660" transform="translate(31,27)"/>
<path d="M0 0 C0.33 0 0.66 0 1 0 C1.09 3.2 0.91 5.93 0 9 C-1.32 9.33 -2.64 9.66 -4 10 C-2.89 6.51 -1.74 3.23 0 0 Z " fill="#808996" transform="translate(6,40)"/>
<path d="M0 0 C0.66 0 1.32 0 2 0 C2.33 0.99 2.66 1.98 3 3 C2.34 3 1.68 3 1 3 C0.67 4.32 0.34 5.64 0 7 C-0.99 7 -1.98 7 -3 7 C-2.01 4.69 -1.02 2.38 0 0 Z " fill="#6F7781" transform="translate(24,20)"/>
<path d="M0 0 C1.12 1.69 1.12 1.69 2 4 C1.12 6.75 1.12 6.75 0 9 C-0.33 9 -0.66 9 -1 9 C-1.12 2.25 -1.12 2.25 0 0 Z " fill="#646E7A" transform="translate(10,31)"/>
<path d="M0 0 C0.66 0 1.32 0 2 0 C1.25 2.88 1.25 2.88 0 6 C-1.98 6.99 -1.98 6.99 -4 8 C-2.68 5.36 -1.36 2.72 0 0 Z " fill="#99A3B0" transform="translate(16,19)"/>
</svg>
