<?xml version="1.0" encoding="UTF-8"?>
<svg version="1.1" xmlns="http://www.w3.org/2000/svg" width="50" height="50">
<path d="M0 0 C4.62354724 3.56920563 7.83532961 7.52465724 10 13 C10 13.66 10 14.32 10 15 C4.97276265 15.70557717 4.97276265 15.70557717 2 15 C-0.17349574 13.08295154 -1.82287138 11.0698281 -3.5546875 8.75 C-4.27011719 7.88375 -4.27011719 7.88375 -5 7 C-5.66 7 -6.32 7 -7 7 C-4.03 12.61 -1.06 18.22 2 24 C2.66 23.34 3.32 22.68 4 22 C7.125 21.875 7.125 21.875 10 22 C11 24 11 24 10.46875 26.3203125 C8.17512165 32.9607365 5.61350975 38.5614109 0 43 C-2.9379641 44.38477289 -5.83013794 45.309962 -9 46 C-8.88637738 44.5199159 -8.75877092 43.04089926 -8.625 41.5625 C-8.55539063 40.73878906 -8.48578125 39.91507813 -8.4140625 39.06640625 C-8.27742188 38.38449219 -8.14078125 37.70257813 -8 37 C-7.01 36.505 -7.01 36.505 -6 36 C-8.31 35.01 -10.62 34.02 -13 33 C-13 32.34 -13 31.68 -13 31 C-9.535 30.505 -9.535 30.505 -6 30 C-7.11852219 28.01716521 -8.24501325 26.03882377 -9.375 24.0625 C-10.00148438 22.96035156 -10.62796875 21.85820312 -11.2734375 20.72265625 C-12.71898614 17.92556953 -12.71898614 17.92556953 -15 17 C-15.226875 17.66 -15.45375 18.32 -15.6875 19 C-17.40571358 22.92734533 -19.66774607 26.41260178 -22 30 C-18.535 30.495 -18.535 30.495 -15 31 C-15 31.66 -15 32.32 -15 33 C-17.31 33.66 -19.62 34.32 -22 35 C-22 35.66 -22 36.32 -22 37 C-21.01 37 -20.02 37 -19 37 C-19 39.97 -19 42.94 -19 46 C-26.62634795 44.12274512 -30.56783508 41.51011758 -35 35 C-37.50333797 30.74165284 -38.36302209 26.96130189 -38 22 C-32.375 21.75 -32.375 21.75 -29 24 C-28.61714844 22.71222656 -28.61714844 22.71222656 -28.2265625 21.3984375 C-26.94321828 17.84267486 -25.31784652 14.86307753 -23.375 11.625 C-22.74335938 10.56539062 -22.11171875 9.50578125 -21.4609375 8.4140625 C-20.73777344 7.21910156 -20.73777344 7.21910156 -20 6 C-23.35225175 7.85431866 -25.03365819 9.04517284 -27.375 12.1875 C-30 15 -30 15 -33.8125 15.375 C-34.864375 15.25125 -35.91625 15.1275 -37 15 C-36.86354125 9.5416498 -34.6085927 6.6733158 -31.0390625 2.83203125 C-21.89119869 -5.38702646 -10.56795031 -5.78438372 0 0 Z " fill="#323232" transform="translate(39,4)"/>
<path d="M0 0 C4.62354724 3.56920563 7.83532961 7.52465724 10 13 C10 13.66 10 14.32 10 15 C6.92245691 15.43193587 4.97287243 15.68966461 2 15 C-0.08441419 13.17992939 -1.6480425 11.21999729 -3.33203125 9.02734375 C-5.0552224 6.73020838 -5.0552224 6.73020838 -8.3125 4.8125 C-11.32872971 2.77829857 -12.04186621 1.44928165 -13 -2 C-13.66 -2 -14.32 -2 -15 -2 C-15.165 -1.113125 -15.33 -0.22625 -15.5 0.6875 C-17.34947715 4.77176205 -19.18141311 5.59938188 -22.984375 7.69921875 C-25.08204361 9.05294675 -26.13964208 10.28729889 -27.5625 12.3125 C-30 15 -30 15 -33.8125 15.375 C-34.864375 15.25125 -35.91625 15.1275 -37 15 C-36.86354125 9.5416498 -34.6085927 6.6733158 -31.0390625 2.83203125 C-21.89119869 -5.38702646 -10.56795031 -5.78438372 0 0 Z " fill="#B2B2B2" transform="translate(39,4)"/>
<path d="M0 0 C2.875 -0.125 2.875 -0.125 6 0 C8 2 8 2 8.875 5.375 C10.05630786 9.18143644 10.89222351 10.60257242 14 13 C16.63222962 14.25436187 16.63222962 14.25436187 19 15 C19 17.97 19 20.94 19 24 C11.37365205 22.12274512 7.43216492 19.51011758 3 13 C0.49666203 8.74165284 -0.36302209 4.96130189 0 0 Z " fill="#B3B3B3" transform="translate(1,26)"/>
<path d="M0 0 C1.4540625 0.0309375 1.4540625 0.0309375 2.9375 0.0625 C3.9375 2.0625 3.9375 2.0625 3.40625 4.3828125 C1.11262165 11.0232365 -1.44899025 16.6239109 -7.0625 21.0625 C-10.0004641 22.44727289 -12.89263794 23.372462 -16.0625 24.0625 C-16.10927399 20.93532463 -15.96799563 18.06853492 -15.0625 15.0625 C-11.75 13.125 -11.75 13.125 -9.84765625 12.296875 C-6.70653819 10.1248984 -5.96867389 6.7099642 -4.7890625 3.20703125 C-3.67512142 -0.08089162 -3.65159384 0.07452232 0 0 Z " fill="#B2B2B2" transform="translate(46.0625,25.9375)"/>
<path d="M0 0 C1.65 0.33 3.3 0.66 5 1 C4.6875 2.9375 4.6875 2.9375 4 5 C3.01 5.33 2.02 5.66 1 6 C0.34 5.67 -0.32 5.34 -1 5 C-0.67 3.35 -0.34 1.7 0 0 Z " fill="#B3B3B3" transform="translate(23,27)"/>
</svg>
