<?xml version="1.0" encoding="UTF-8"?>
<svg version="1.1" xmlns="http://www.w3.org/2000/svg" width="50" height="50">
<path d="M0 0 C3.21064995 0.27519857 4.99729041 0.9981726 7.6875 2.8125 C10.23548254 6.32458404 10.37437771 7.91189381 10.8125 12.125 C11.19104601 16.28834426 11.19104601 16.28834426 13.6484375 19.375 C15.7679455 20.15458915 17.77669035 20.61281681 20 21 C21.33686065 21.38375174 22.6705969 21.77866116 24 22.1875 C24.99 22.455625 25.98 22.72375 27 23 C26.72480143 26.21064995 26.0018274 27.99729041 24.1875 30.6875 C20.67541596 33.23548254 19.08810619 33.37437771 14.875 33.8125 C10.71165574 34.19104601 10.71165574 34.19104601 7.625 36.6484375 C6.84541085 38.7679455 6.38718319 40.77669035 6 43 C5.61624826 44.33686065 5.22133884 45.6705969 4.8125 47 C4.544375 47.99 4.27625 48.98 4 50 C0.78935005 49.72480143 -0.99729041 49.0018274 -3.6875 47.1875 C-6.23548254 43.67541596 -6.37437771 42.08810619 -6.8125 37.875 C-7.19104601 33.71165574 -7.19104601 33.71165574 -9.6484375 30.625 C-11.7679455 29.84541085 -13.77669035 29.38718319 -16 29 C-17.33686065 28.61624826 -18.6705969 28.22133884 -20 27.8125 C-20.99 27.544375 -21.98 27.27625 -23 27 C-22.72480143 23.78935005 -22.0018274 22.00270959 -20.1875 19.3125 C-16.67541596 16.76451746 -15.08810619 16.62562229 -10.875 16.1875 C-6.71165574 15.80895399 -6.71165574 15.80895399 -3.625 13.3515625 C-2.84541085 11.2320545 -2.38718319 9.22330965 -2 7 C-1.61624826 5.66313935 -1.22133884 4.3294031 -0.8125 3 C-0.544375 2.01 -0.27625 1.02 0 0 Z M-0.625 22.375 C-2.21531408 23.89968321 -2.21531408 23.89968321 -2 26 C-0.66666667 27.66666667 -0.66666667 27.66666667 1 29 C3.10031679 29.21531408 3.10031679 29.21531408 4.625 27.625 C6.21531408 26.10031679 6.21531408 26.10031679 6 24 C4.66666667 22.33333333 4.66666667 22.33333333 3 21 C0.89968321 20.78468592 0.89968321 20.78468592 -0.625 22.375 Z " fill="#FE0000" transform="translate(23,0)"/>
</svg>
