<?xml version="1.0" encoding="UTF-8"?>
<svg version="1.1" xmlns="http://www.w3.org/2000/svg" width="100" height="100">
<path d="M0 0 C9.9 0 19.8 0 30 0 C30.33 3.3 30.66 6.6 31 10 C31.95712891 9.24203125 31.95712891 9.24203125 32.93359375 8.46875 C33.75988281 7.8190625 34.58617187 7.169375 35.4375 6.5 C36.26121094 5.8503125 37.08492187 5.200625 37.93359375 4.53125 C40 3 40 3 41 3 C41.63321447 6.82742966 41.86381369 10.19717523 41 14 C38.80859375 15.84375 38.80859375 15.84375 36.0625 17.5 C32.25308974 20.03487823 32.25308974 20.03487823 30.54101562 24.11474609 C30.28749752 27.50384695 30.26060621 30.81817388 30.46313477 34.2109375 C30.68077314 40.23448881 30.68077314 40.23448881 28.49365234 42.69384766 C23.99668044 46 23.99668044 46 21 46 C21 40.39 21 34.78 21 29 C13.36043494 33.58556816 13.36043494 33.58556816 7.98046875 40.37890625 C7.66316164 42.768767 7.66316164 42.768767 8 46 C5.36 46 2.72 46 0 46 C0 30.82 0 15.64 0 0 Z M8 9 C8 14.94 8 20.88 8 27 C15.72513972 22.91057727 15.72513972 22.91057727 22 17 C22.58873191 14.08787967 22.36208679 12.0001477 22 9 C17.38 9 12.76 9 8 9 Z " fill="#D3BA82" transform="translate(35,0)"/>
<path d="M0 0 C0.99 0.33 1.98 0.66 3 1 C3.24313422 4.55405019 3.09811255 7.59560584 2 11 C-0.2578125 12.30859375 -0.2578125 12.30859375 -3 13.5 C-5.84277451 15.35791817 -7.64666131 16.73510983 -8.58111572 20.08029175 C-9.46784516 26.49897606 -9.24844386 32.97532048 -9.125 39.4375 C-9.12305688 41.42903721 -9.12561402 43.42058422 -9.1328125 45.41210938 C-9.14061773 50.27639774 -9.08688752 55.13651878 -9 60 C-11.64 60 -14.28 60 -17 60 C-17.33 48.78 -17.66 37.56 -18 26 C-20.31 27.32 -22.62 28.64 -25 30 C-26.65 28.68 -28.3 27.36 -30 26 C-30.33 37.22 -30.66 48.44 -31 60 C-33.64 60 -36.28 60 -39 60 C-39 44.82 -39 29.64 -39 14 C-28.875 14 -28.875 14 -24 18 C-20.93623843 15.75171391 -17.87421888 13.50106683 -14.8125 11.25 C-13.51602539 10.29867187 -13.51602539 10.29867187 -12.19335938 9.328125 C-11.35224609 8.709375 -10.51113281 8.090625 -9.64453125 7.453125 C-8.42564209 6.55883789 -8.42564209 6.55883789 -7.18212891 5.64648438 C-5.42890348 4.32362106 -3.73958048 2.9162748 -2.07421875 1.484375 C-1.38972656 0.99453125 -0.70523438 0.5046875 0 0 Z " fill="#D3BA82" transform="translate(74,40)"/>
</svg>
