<?xml version="1.0" encoding="UTF-8"?>
<svg version="1.1" xmlns="http://www.w3.org/2000/svg" width="50" height="50">
<path d="M0 0 C-1.55095581 3.62169141 -3.76865052 6.12518019 -6.4375 9 C-11.61360076 13.83459313 -11.61360076 13.83459313 -14.109375 20.03515625 C-13.99078125 20.70417969 -13.8721875 21.37320312 -13.75 22.0625 C-13.64171875 22.73410156 -13.5334375 23.40570313 -13.421875 24.09765625 C-12.98858955 26.20645087 -12.98858955 26.20645087 -12 29 C-11.96045766 31.33299825 -11.95598268 33.66708189 -12 36 C-16.33304076 35.35534798 -19.86672065 33.81074878 -23.8125 31.9375 C-24.97394531 31.38964844 -26.13539062 30.84179688 -27.33203125 30.27734375 C-28.21246094 29.85582031 -29.09289062 29.43429688 -30 29 C-30 28.34 -30 27.68 -30 27 C-26.7 27.33 -23.4 27.66 -20 28 C-20.495 26.96875 -20.99 25.9375 -21.5 24.875 C-22.96650544 21.30531114 -23.87178622 18.88341136 -23 15 C-21.08260694 12.72895444 -19.04536548 10.73440668 -16.84765625 8.734375 C-14.91716283 7.12270627 -14.91716283 7.12270627 -14 5 C-16.64 5 -19.28 5 -22 5 C-22 4.01 -22 3.02 -22 2 C-19.08483516 1.46915208 -16.16839443 0.95000945 -13.25 0.4375 C-12.425 0.28603516 -11.6 0.13457031 -10.75 -0.02148438 C-9.95078125 -0.16005859 -9.1515625 -0.29863281 -8.328125 -0.44140625 C-7.5949707 -0.57232666 -6.86181641 -0.70324707 -6.10644531 -0.83813477 C-3.83766713 -1.01247412 -2.16221421 -0.66874807 0 0 Z " fill="#FEFFFF" transform="translate(50,10)"/>
<path d="M0 0 C0.66 0 1.32 0 2 0 C2 2.97 2 5.94 2 9 C3.98 9 5.96 9 8 9 C7.67 7.02 7.34 5.04 7 3 C12.75 4.75 12.75 4.75 15 7 C15 7.99 15 8.98 15 10 C11.04634027 11.53318781 7.08639947 13.04943425 3.125 14.5625 C1.43310547 15.21895508 1.43310547 15.21895508 -0.29296875 15.88867188 C-1.36933594 16.29794922 -2.44570312 16.70722656 -3.5546875 17.12890625 C-4.54968262 17.51119385 -5.54467773 17.89348145 -6.56982422 18.28735352 C-9 19 -9 19 -11 18 C-9.4785114 13.60918236 -7.14060361 9.97124031 -4.5 6.1875 C-3.89478516 5.2912793 -3.89478516 5.2912793 -3.27734375 4.37695312 C-2.23960218 2.87856389 -1.12524203 1.43384386 0 0 Z " fill="#FEFFFF" transform="translate(11,23)"/>
<path d="M0 0 C4.19596947 1.39366129 6.79298574 3.35840221 10 6.375 C12.54874315 8.75648188 15.04642112 11.03571848 17.8125 13.1640625 C18.534375 13.76992188 19.25625 14.37578125 20 15 C20 15.66 20 16.32 20 17 C16.37 16.67 12.74 16.34 9 16 C8.34 19.3 7.68 22.6 7 26 C6.34 26 5.68 26 5 26 C4.15483469 22.79466559 3.32602027 19.58531662 2.5 16.375 C2.14228516 15.01955078 2.14228516 15.01955078 1.77734375 13.63671875 C0.59037942 8.99060123 -0.3215738 4.83968572 0 0 Z " fill="#FEFFFF" transform="translate(10,4)"/>
</svg>
