<?xml version="1.0" encoding="UTF-8"?>
<!-- Generator: https://ezgif.com/webp-to-svg -->
<svg version="1.1" xmlns="http://www.w3.org/2000/svg" width="50" height="50">
<path d="M0 0 C1.43 0.15 1.43 0.15 2.88 0.3 C5.44 0.69 5.44 0.69 8.44 1.69 C7.44 4.68 6.69 5.64 4.44 7.69 C4.98 9.26 4.98 9.26 5.53 10.86 C6 12.24 6.47 13.62 6.94 15 C7.18 15.69 7.41 16.38 7.66 17.09 C8.67 20.08 9.44 22.51 9.44 25.69 C13.4 24.04 17.36 22.39 21.44 20.69 C20.68 28.6 17.99 31.71 11.95 36.74 C11.12 37.38 10.29 38.03 9.44 38.69 C8.42 39.56 8.42 39.56 7.38 40.46 C5.01 41.96 3.99 41.92 1.25 41.5 C0.47 41.38 -0.3 41.27 -1.1 41.15 C-4.95 40.43 -8.76 39.61 -12.56 38.69 C-12.92 39.82 -12.92 39.82 -13.28 40.98 C-14.78 44.15 -16.13 45.15 -19.06 47 C-19.86 47.51 -20.65 48.02 -21.47 48.55 C-23.56 49.69 -23.56 49.69 -25.56 49.69 C-26.1 47.63 -26.61 45.56 -27.12 43.5 C-27.42 42.35 -27.71 41.2 -28 40.02 C-28.77 35.46 -28.53 33.06 -25.86 29.27 C-25.16 28.5 -24.47 27.73 -23.75 26.94 C-23.06 26.16 -22.38 25.38 -21.67 24.58 C-19.54 22.67 -18.36 22.06 -15.56 21.69 C-15.31 20.43 -15.07 19.17 -14.81 17.88 C-13.96 14.09 -12.92 10.43 -11.69 6.75 C-11.38 5.83 -11.07 4.92 -10.76 3.97 C-9.56 1.69 -9.56 1.69 -7.78 0.35 C-4.99 -0.48 -2.88 -0.33 0 0 Z M-4.56 15.69 C-5.82 18.59 -6.56 20.48 -6.56 23.69 C-7.55 24.02 -8.54 24.35 -9.56 24.69 C-6.26 25.02 -2.96 25.35 0.44 25.69 C-0.55 22.39 -1.54 19.09 -2.56 15.69 C-3.22 15.69 -3.88 15.69 -4.56 15.69 Z M-23.56 36.69 C-23.56 38.34 -23.56 39.99 -23.56 41.69 C-21.38 39.01 -21.38 39.01 -21.56 36.69 C-22.22 36.69 -22.88 36.69 -23.56 36.69 Z " fill="#0EC6BB" transform="translate(28.5625,0.3125)"/>
<path d="M0 0 C0.67 1.96 1.34 3.92 2 5.88 C2.56 7.51 2.56 7.51 3.12 9.18 C4 12 4 12 4 14 C-0.62 12.68 -4.1 10.79 -8 8 C-7.66 4.82 -6.98 3.98 -4.56 1.75 C-2 0 -2 0 0 0 Z " fill="#0EC7BB" transform="translate(43,36)"/>
</svg>
