<?xml version="1.0" encoding="UTF-8"?>
<!-- Generator: https://ezgif.com/webp-to-svg -->
<svg version="1.1" xmlns="http://www.w3.org/2000/svg" width="50" height="50">
<path d="M0 0 C3.71 -0.67 7.49 -0.46 11.25 -0.44 C12.81 -0.47 12.81 -0.47 14.39 -0.5 C21.91 -0.49 25.53 0.53 30.88 5.88 C32.42 8.79 32.41 10.75 32 14 C30.5 16.37 30.5 16.37 29 18 C29.76 18.54 30.53 19.07 31.31 19.62 C34.94 22.83 36.71 25.55 37.29 30.43 C37.46 35.42 37.36 39.08 34 43 C28.4 48.23 24.28 50.26 16.64 50.23 C15.44 50.23 14.25 50.23 13.01 50.22 C11.77 50.21 10.53 50.2 9.25 50.19 C7.99 50.19 6.74 50.19 5.44 50.19 C-3.86 50.14 -3.86 50.14 -5 49 C-5.63 39.93 -4.64 30.76 -3.83 21.73 C-3.62 19.41 -3.43 17.09 -3.24 14.76 C-3.11 13.28 -2.98 11.79 -2.85 10.31 C-2.8 9.62 -2.74 8.93 -2.68 8.22 C-2.36 4.71 -2 3 0 0 Z M6.25 6.25 C3.78 8.66 3.78 8.66 4.04 10.93 C5.41 13.89 7.37 15 10.06 16.81 C23.66 26.38 23.66 26.38 24.69 31.25 C24 34 24 34 23 35.81 C19.83 37.7 16.62 38.1 13 38 C9.56 37 9.56 37 7 35 C6.12 31.31 6.12 31.31 6 28 C7.32 28.33 8.64 28.66 10 29 C9.67 26.36 9.34 23.72 9 21 C5.18 22.5 3.25 24.59 1 28 C-0.25 31.84 -0.08 33.72 1.06 37.62 C3.34 41.59 4.89 43.02 9 45 C13.64 46.22 17.12 46.25 21.75 44.94 C25.57 42.66 27.65 40.78 30 37 C30.78 33.21 30.36 29.96 29 26.31 C26.57 23.51 23.96 21.92 20.74 20.11 C19 19 19 19 18 17 C19.18 16.57 19.18 16.57 20.38 16.12 C23.1 15.15 23.1 15.15 25 13 C25.42 10.54 25.42 10.54 25 8 C23.6 6.19 23.6 6.19 22 5 C21.01 5.5 21.01 5.5 20 6 C20.33 7.32 20.66 8.64 21 10 C19.35 11.32 17.7 12.64 16 14 C13.08 12.93 11.22 12.22 9 10 C9.37 7.07 9.86 6.14 12 4 C8.79 3.68 8.79 3.68 6.25 6.25 Z " fill="#FEFFFF" transform="translate(9,0)"/>
</svg>
