<?xml version="1.0" encoding="UTF-8"?>
<!-- Generator: https://ezgif.com/webp-to-svg -->
<svg version="1.1" xmlns="http://www.w3.org/2000/svg" width="50" height="50">
<path d="M0 0 C1.9 -0.06 1.9 -0.06 3.84 -0.12 C4.91 -0.15 4.91 -0.15 6.01 -0.18 C8 0 8 0 10.5 1.88 C12 4 12 4 12 6 C13.28 5.73 14.56 5.46 15.88 5.19 C21.85 4.52 26.12 6.7 31 10 C35.09 14.19 36.15 17.55 36.25 23.31 C36.17 28.02 35.95 31.16 33 35 C28.44 39.01 23.58 42.03 17.41 42.37 C11.72 41.49 6.07 38.31 2.24 34.04 C-0.22 30 -0.12 26.15 -0.1 21.48 C-0.09 20.23 -0.09 18.98 -0.09 17.7 C-0.08 16.39 -0.07 15.09 -0.06 13.75 C-0.06 12.43 -0.05 11.12 -0.05 9.76 C-0.04 6.51 -0.02 3.25 0 0 Z M8 18 C6.94 20.75 6.65 23.07 7 26 C9.04 30.07 10.77 32.35 15 34 C18.12 34.21 20.99 33.87 24 33 C26.76 30.38 27.8 28.6 29 25 C25.63 24.75 25.63 24.75 22 25 C20.33 26.5 20.33 26.5 19 28 C16.03 27.73 15.15 27.15 13 25 C13.32 21.71 14.55 20.13 17 18 C19.47 19.15 21.05 20.05 23 22 C26.08 22.17 26.08 22.17 29 22 C27.65 17.58 26.01 15.35 22 13 C15.6 12.09 12.39 12.86 8 18 Z " fill="#22EE87" transform="translate(7,0)"/>
<path d="M0 0 C0.66 0 1.32 0 2 0 C2.63 10.15 2.63 10.15 0 13.69 C-0.66 14.12 -1.32 14.55 -2 15 C-1.01 15.33 -0.02 15.66 1 16 C1 16.66 1 17.32 1 18 C-3.98 20.49 -8.08 21.34 -13.62 21.75 C-16.6 22.06 -19.22 22.9 -22 24 C-21.9 21.74 -21.9 21.74 -21 19 C-18.13 16.98 -18.13 16.98 -14.56 15.19 C-13.96 14.88 -13.36 14.56 -12.75 14.24 C-8.34 12 -8.34 12 -6 12 C-5.75 11.32 -5.5 10.64 -5.25 9.94 C-3.76 6.43 -1.93 3.28 0 0 Z " fill="#21EE88" transform="translate(48,26)"/>
<path d="M0 0 C0.66 0 1.32 0 2 0 C3.51 2.12 3.51 2.12 5.12 4.88 C5.66 5.78 6.2 6.68 6.76 7.62 C8 10 8 10 8 12 C8.8 12.23 9.61 12.45 10.44 12.69 C13.36 13.76 16.04 14.91 18.81 16.31 C19.58 16.7 20.35 17.09 21.14 17.49 C23.56 19.46 23.69 20.97 24 24 C23.15 23.69 22.29 23.38 21.41 23.06 C16.99 21.69 12.6 21.16 8.02 20.56 C5.29 20.05 3.38 19.39 1 18 C1 17.34 1 16.68 1 16 C1.99 15.67 2.98 15.34 4 15 C3.34 14.57 2.68 14.13 2 13.69 C-1.13 9.48 -0.31 5.07 0 0 Z " fill="#22EF88" transform="translate(0,26)"/>
</svg>
