<?xml version="1.0" encoding="UTF-8"?>
<!-- Generator: https://ezgif.com/webp-to-svg -->
<svg version="1.1" xmlns="http://www.w3.org/2000/svg" width="50" height="50">
<path d="M0 0 C4 -0.25 8 -0.43 12.01 -0.55 C13.37 -0.6 14.72 -0.67 16.08 -0.75 C27.35 -1.46 27.35 -1.46 31.5 2.2 C36 8.51 36 8.51 36 12 C34.39 13.44 32.71 14.8 31 16.12 C29.61 17.21 29.61 17.21 28.19 18.32 C27.47 18.87 26.74 19.43 26 20 C27.98 22.97 27.98 22.97 30 26 C28.45 30.31 25.15 32.53 21.62 35.19 C21 35.66 20.38 36.14 19.74 36.63 C18.46 37.61 17.18 38.58 15.89 39.55 C14.09 40.93 12.32 42.34 10.55 43.75 C9.49 44.59 8.43 45.42 7.38 46.25 C5.96 47.37 5.96 47.37 4.52 48.52 C2 50 2 50 -0.12 49.98 C-2.58 48.7 -3.8 47.3 -5.44 45.06 C-5.99 44.35 -6.55 43.64 -7.12 42.91 C-8.54 38.2 -6.68 34.49 -5 30 C-4.66 29.08 -4.31 28.16 -3.96 27.21 C-2.51 23.39 -1.04 19.57 0.48 15.77 C0.83 14.84 1.19 13.91 1.55 12.95 C1.88 12.12 2.2 11.29 2.54 10.43 C3.13 7.32 2.36 5.81 1 3 C0.67 2.01 0.34 1.02 0 0 Z M13 12 C11.12 15.87 11.12 15.87 12 20 C13.5 18.86 15 17.71 16.5 16.56 C17.34 15.92 18.17 15.29 19.03 14.63 C19.68 14.09 20.33 13.55 21 13 C21 12.67 21 12.34 21 12 C18.36 12 15.72 12 13 12 Z M10 22 C7.72 24.82 7.72 24.82 8 28 C11.37 26.56 13.51 24.67 16 22 C13.08 21.75 13.08 21.75 10 22 Z " fill="#FEFFFF" transform="translate(11,0)"/>
</svg>
