<?xml version="1.0" encoding="UTF-8"?>
<!-- Generator: https://ezgif.com/webp-to-svg -->
<svg version="1.1" xmlns="http://www.w3.org/2000/svg" width="50" height="50">
<path d="M0 0 C0.05 2.4 0.09 4.79 0.12 7.19 C0.14 7.86 0.16 8.53 0.18 9.23 C0.22 13.29 -0.2 16.35 -2 20 C-1.34 20.33 -0.68 20.66 0 21 C0 26.28 0 31.56 0 37 C-7.92 38.32 -15.84 39.64 -24 41 C-24 28.79 -24 16.58 -24 4 C-20.78 3.34 -17.56 2.68 -14.25 2 C-13.24 1.79 -12.23 1.58 -11.2 1.37 C-10.39 1.2 -9.59 1.04 -8.77 0.88 C-7.95 0.71 -7.13 0.54 -6.29 0.37 C-4 0 -4 0 0 0 Z M-9 9 C-11.31 9.66 -13.62 10.32 -16 11 C-16 17.6 -16 24.2 -16 31 C-12.04 30.51 -12.04 30.51 -8 30 C-7.67 27.67 -7.67 27.67 -8 25 C-9.77 22.64 -9.77 22.64 -12 21 C-12.66 21 -13.32 21 -14 21 C-10.25 14.25 -10.25 14.25 -8 12 C-8.33 11.01 -8.66 10.02 -9 9 Z " fill="#FE4655" transform="translate(24,7)"/>
<path d="M0 0 C0.05 2.58 0.09 5.17 0.12 7.75 C0.14 8.48 0.16 9.21 0.18 9.96 C0.21 13.8 0.17 16.75 -2 20 C-1.34 20.66 -0.68 21.32 0 22 C0.14 24.58 0.19 27.05 0.12 29.62 C0.12 30.33 0.11 31.04 0.1 31.77 C0.07 33.51 0.04 35.26 0 37 C-3.25 37.67 -6.5 38.34 -9.75 39 C-10.67 39.19 -11.59 39.38 -12.54 39.58 C-13.43 39.76 -14.32 39.94 -15.23 40.12 C-16.46 40.38 -16.46 40.38 -17.71 40.63 C-20 41 -20 41 -24 41 C-24 28.79 -24 16.58 -24 4 C-20.41 3.34 -16.82 2.68 -13.12 2 C-11.99 1.79 -10.86 1.58 -9.7 1.37 C-8.81 1.2 -7.92 1.04 -7.01 0.88 C-6.1 0.71 -5.19 0.54 -4.25 0.37 C-2 0 -2 0 0 0 Z M-16 11 C-16 17.93 -16 24.86 -16 32 C-9.6 31.8 -9.6 31.8 -8 30 C-7.5 27.63 -7.5 27.63 -8 25 C-10.4 22.66 -10.4 22.66 -13 21 C-12.42 17.11 -10.44 14.99 -8 12 C-8 11.34 -8 10.68 -8 10 C-12.04 9.84 -12.04 9.84 -16 11 Z " fill="#FE4655" transform="translate(50,2)"/>
</svg>
