<?xml version="1.0" encoding="UTF-8"?>
<!-- Generator: https://ezgif.com/webp-to-svg -->
<svg version="1.1" xmlns="http://www.w3.org/2000/svg" width="50" height="50">
<path d="M0 0 C2 0.05 2 0.05 4.44 0.31 C5.64 0.43 5.64 0.43 6.87 0.55 C9 1 9 1 11 3 C11.52 2.48 12.03 1.97 12.56 1.44 C15.97 -0.57 18.23 0.2 22 1 C22 4.63 22 8.26 22 12 C22.66 11.67 23.32 11.34 24 11 C23.67 10.67 23.34 10.34 23 10 C22.54 3.79 22.54 3.79 24.12 1.06 C26.86 -0.49 28.91 -0.32 32 0 C32.99 0.66 33.98 1.32 35 2 C35.99 1.34 36.98 0.68 38 0 C41.06 -0.25 41.06 -0.25 44 0 C46 2 46 2 46.12 4.62 C46.08 5.41 46.04 6.19 46 7 C45.01 7.33 44.02 7.66 43 8 C43.66 8.66 44.32 9.32 45 10 C45.17 12.77 44.77 15.34 44 18 C42.31 19.56 42.31 19.56 40 20 C36.94 19.62 36.94 19.62 34 19 C30.91 18.91 30.91 18.91 27.56 19.62 C23.82 20.02 23.13 19.62 20 18 C19.38 18.31 18.76 18.62 18.12 18.94 C15.15 20.42 13.19 19.68 10 19 C7.06 19 4.23 19.22 1.31 19.5 C0.32 19.59 -0.68 19.69 -1.7 19.78 C-2.46 19.85 -3.22 19.93 -4 20 C-2.62 2.62 -2.62 2.62 0 0 Z M28 4 C29 6 29 6 29 6 Z M16 5 C17 7 17 7 17 7 Z M9 7 C8.67 7.99 8.34 8.98 8 10 C8.66 10.66 9.32 11.32 10 12 C10 10.35 10 8.7 10 7 C9.67 7 9.34 7 9 7 Z M30 7 C30.99 8.65 31.98 10.3 33 12 C34.32 11.67 35.64 11.34 37 11 C35.77 8.92 35.77 8.92 34 7 C32.68 7 31.36 7 30 7 Z M15 10 C16 13 16 13 16 13 Z M38 14 C39 16 39 16 39 16 Z " fill="#AD8B25" transform="translate(4,15)"/>
</svg>
