<?xml version="1.0" encoding="UTF-8"?>
<!-- Generator: https://ezgif.com/webp-to-svg -->
<svg version="1.1" xmlns="http://www.w3.org/2000/svg" width="50" height="50">
<path d="M0 0 C0 5.94 0 11.88 0 18 C1.44 17.34 2.89 16.68 4.38 16 C8.75 14 8.75 14 11 14 C11 25.55 11 37.1 11 49 C5 48 5 48 -7 43 C-7 29.47 -7 15.94 -7 2 C-3 0 -3 0 0 0 Z M0 25 C0 29.29 0 33.58 0 38 C1.32 38.33 2.64 38.66 4 39 C4 34.05 4 29.1 4 24 C2.63 23.95 2.63 23.95 0 25 Z " fill="#FEFFFF" transform="translate(13,1)"/>
<path d="M0 0 C5 1 5 1 7 2 C7 15.53 7 29.06 7 43 C4.69 43.66 2.38 44.32 0 45 C0 38.4 0 31.8 0 25 C-0.99 25 -1.98 25 -3 25 C-3.33 32.26 -3.66 39.52 -4 47 C-8 49 -8 49 -11 49 C-11 37.45 -11 25.9 -11 14 C-2 17 -2 17 0 18 C0 12.06 0 6.12 0 0 Z " fill="#FFFFFF" transform="translate(37,1)"/>
<path d="M0 0 C5 1 5 1 7.94 2.25 C11.97 3.24 13.49 2.03 17 0 C17.99 0 18.98 0 20 0 C20 5.28 20 10.56 20 16 C18.02 15.34 16.04 14.68 14 14 C8.87 12.61 6.58 13.4 2 16 C1.34 16 0.68 16 0 16 C0 10.72 0 5.44 0 0 Z " fill="#FFD800" transform="translate(15,0)"/>
</svg>
