<?xml version="1.0" encoding="utf-8"?>
<svg xmlns="http://www.w3.org/2000/svg" xmlns:xlink="http://www.w3.org/1999/xlink" version="1.1" id="Layer_1" x="0px" y="0px" viewBox="0 0 800 800" style="enable-background:new 0 0 800 800;">
<path d="M317.5,343.5l-103.9-55.4C210.4,353.3,301,345.4,317.5,343.5"/>
<path d="M537.6,341.9C537.6,341.9,537.6,341.9,537.6,341.9c2.4-0.5,4.8-1.1,7.2-1.7c7.1-2,13.9-4.7,19.9-8.5c0,0,0,0,0,0.1&#xA;	c2.5-1.6,4.9-3.3,7.1-5.3c1.5-1.3,2.8-2.7,4.1-4.2c2.6-3,4.7-6.3,6.4-10.1c0.9-1.9,1.6-3.9,2.2-6c1.5-5.3,2.2-11.3,1.8-18&#xA;	l-103.9,55.4C490.3,344.4,514.5,346.6,537.6,341.9"/>
<path d="M722.1,539.5c-0.7-1.7-1.4-3.7-2.3-5.9c-0.3-0.7-0.6-1.5-0.9-2.3c-0.3-0.8-0.6-1.6-0.9-2.5c0,0,0,0,0.1,0&#xA;	c-3.1-8.6-6.9-20.1-11-34.1c-1.4-4.7-2.7-9.6-4.1-14.9c-0.7-2.6-1.4-5.3-2.1-8.1c-0.7-2.8-1.4-5.6-2.1-8.5c-0.7-2.9-1.4-5.8-2-8.9&#xA;	c-0.7-3-1.4-6.1-2-9.2c-0.7-3.1-1.3-6.4-2-9.6c-1.9-9.8-3.8-20.2-5.4-31.1c-2.2-14.5-4.2-30-5.7-46.4c-0.4-4.1-0.7-8.2-1.1-12.4&#xA;	c-0.3-4.2-0.6-8.4-0.9-12.7c-0.8-12.9-1.3-26.2-1.4-40c-0.1-9.2,0-18.6,0.2-28.1c0.5-19.1,1.6-38.9,3.6-59.4&#xA;	c0.5-5.1,1.1-10.3,1.7-15.5c0,0-14.8-3.5-39.1-8.3c-1.7-0.3-3.5-0.7-5.2-1c0-1.1,0.1-2.1,0.1-3.2c0-93.3-107.2-169-239.5-169&#xA;	c-132.2,0-239.4,75.7-239.4,169c0,1.1,0,2.2,0,3.2c-17.2,3.3-30.2,6.2-37.5,7.8c-0.6,0.1-1.1,0.2-1.6,0.3c-0.5,0.1-0.9,0.2-1.4,0.3&#xA;	c-0.4,0.1-0.8,0.2-1.2,0.3c-0.7,0.2-1.3,0.3-1.7,0.4c-0.3,0.1-0.6,0.1-0.7,0.2c-0.2,0-0.2,0.1-0.2,0.1c1.4,12,2.5,23.7,3.4,35.3&#xA;	c0.4,5.8,0.8,11.5,1.1,17.1c0.3,5.7,0.5,11.3,0.7,16.8c0.3,11.1,0.5,21.9,0.3,32.5c0,2.6-0.1,5.3-0.1,7.9&#xA;	c-0.1,7.8-0.4,15.6-0.8,23.1c-0.5,10.1-1.2,19.9-2,29.4c-0.4,4.8-0.9,9.5-1.3,14.1c-1,9.2-2,18.2-3.2,26.8c-0.3,2.2-0.6,4.3-0.9,6.4&#xA;	c-4.4,29.7-9.9,55.7-15.5,77.2c-0.4,1.5-0.8,3-1.2,4.5c-0.8,3-1.6,5.9-2.4,8.7c-0.4,1.4-0.8,2.8-1.2,4.1&#xA;	c-5.1,17.6-9.8,31.2-13.2,40.3c-0.3,0.7-0.5,1.4-0.8,2c-0.2,0.6-0.5,1.3-0.7,1.9c-0.5,1.2-0.9,2.3-1.3,3.2c-0.4,1-0.7,1.8-1,2.6&#xA;	c5.2,2.9,10.9,6.5,16.8,10.4c9.8,6.5,20.2,13.9,29.5,20.8c1.1,0.8,2.1,1.5,3.2,2.3c1,0.8,2.1,1.5,3.1,2.3c2,1.5,3.9,2.9,5.8,4.3&#xA;	c0.9,0.7,1.8,1.4,2.7,2c5.2,4,9.4,7.3,12.2,9.6c2.3,1.9,3.6,2.9,3.6,2.9l64.3-117.1L176,617.6c5.5,4.8,11.1,9.9,16.7,15.3&#xA;	c5.6,5.4,11.2,11,16.8,16.8c11.2,11.8,22.3,24.5,32.9,38.4l0,0c0,0,0.1,0.2,0.3,0.4c8.6,11.2,16.9,23.2,24.7,35.8&#xA;	c2.6,4.2,5.2,8.5,7.6,12.9c4.8,7.8,9.9,16.4,15.1,25.6c2.6,4.6,5.2,9.3,7.8,14.2c1.3,2.4,2.6,4.9,3.9,7.4c1.3,2.5,2.6,5,3.9,7.6&#xA;	V517.1v-6v0h0l-0.1-122.9l-114.5-45.3l-30.2-106.6l196.7,106.6v0v173.5v0l42.5,37.2l42.5-37.2V342.9l73.8-40c0,0,0,0,0-0.1l4.5-2.4&#xA;	l-50.2-110l69.7,99.5l8.7-4.7c0,0,0,0,0,0.1l90.2-48.9l-30.2,106.6l-32.9,13c0,0,0,0,0,0l-0.5,0.2l0,0l59.4,176.5l-82.7-167.3&#xA;	l0.1-0.1l-0.8,0.3c0,0,0,0,0,0l-57,22.5L494,777.7l0.2,14.3l24.1-42.4c0.5-0.8,1-1.6,1.4-2.4c3.1-5.5,6.2-11.1,9.2-16.6&#xA;	c6.7-11.2,13.7-21.8,21-32c2.4-3.4,4.9-6.7,7.4-9.9c0.1-0.1,0.2-0.2,0.2-0.3c0.1-0.1,0.1-0.1,0.1-0.1l0,0&#xA;	c8-10.4,16.2-20.2,24.6-29.4c6.3-6.9,12.6-13.5,18.9-19.7c2.1-2.1,4.2-4.1,6.3-6.1L578,532.3l44.5,86.7l31.3-26.1&#xA;	c1.4-1.1,2.9-2.3,4.7-3.7c0.9-0.7,1.8-1.4,2.7-2.1c0.9-0.7,1.9-1.5,2.9-2.2c2-1.5,4.1-3.1,6.4-4.8c2.2-1.7,4.6-3.4,7-5.1&#xA;	c9.3-6.9,19.6-14.3,29.5-20.8c3.9-2.6,7.8-5.1,11.5-7.3c1.8-1.1,3.6-2.2,5.4-3.1C723.3,542.7,722.7,541.2,722.1,539.5"/>
</svg>