<?xml version="1.0" encoding="UTF-8"?>
<svg version="1.1" xmlns="http://www.w3.org/2000/svg" width="50" height="50">
<path d="M0 0 C1.66666667 0 3.33333333 0 5 0 C4.67 1.32 4.34 2.64 4 4 C4.9075 4.226875 5.815 4.45375 6.75 4.6875 C10.6465524 6.2611077 11.96688822 7.32475948 14 11 C14.54349953 14.10571162 14.58439926 16.89863361 14 20 C12.1875 22.5625 12.1875 22.5625 10 24 C9.01 24 8.02 24 7 24 C6.505 25.485 6.505 25.485 6 27 C0.70769231 28.35384615 0.70769231 28.35384615 -2.5 26.75 C-3.325 26.1725 -4.15 25.595 -5 25 C-6.03125 24.505 -7.0625 24.01 -8.125 23.5 C-10.67001965 22.17216366 -12.06503318 21.03171516 -14 19 C-14.66 19 -15.32 19 -16 19 C-16.556875 19.78375 -17.11375 20.5675 -17.6875 21.375 C-20.64107849 24.72771072 -22.6008232 25.39321699 -27 26 C-30.64246266 24.66910018 -33.68321954 23.14276306 -36 20 C-36.36328125 16.71484375 -36.36328125 16.71484375 -36.3125 12.9375 C-36.30863281 11.68839844 -36.30476563 10.43929688 -36.30078125 9.15234375 C-36 6 -36 6 -34 4 C-25.35853871 3.56356256 -19.00434439 6.33043707 -12 11 C-11.67 10.01 -11.34 9.02 -11 8 C-8.9375 7.3125 -8.9375 7.3125 -7 7 C-6.67 5.68 -6.34 4.36 -6 3 C-5.34 3 -4.68 3 -4 3 C-3.67 2.34 -3.34 1.68 -3 1 C-2.34 1 -1.68 1 -1 1 C-0.67 0.67 -0.34 0.34 0 0 Z M1 10 C0.67 10.99 0.34 11.98 0 13 C-7.42857143 13.14285714 -7.42857143 13.14285714 -11 12 C-6.74657565 16.74019856 -6.74657565 16.74019856 -0.875 18.0625 C0.548125 18.0315625 0.548125 18.0315625 2 18 C2.66 16.35 3.32 14.7 4 13 C3.01 12.01 2.02 11.02 1 10 Z M-28 12 C-28.66 13.32 -29.32 14.64 -30 16 C-26.52674819 17.1577506 -23.63932552 17.06866652 -20 17 C-19.67 17.66 -19.34 18.32 -19 19 C-18.34 18.01 -17.68 17.02 -17 16 C-20.42346555 12.85041169 -23.44262737 12.43820891 -28 12 Z M-24 18 C-24 18.66 -24 19.32 -24 20 C-22.68 19.67 -21.36 19.34 -20 19 C-21.32 18.67 -22.64 18.34 -24 18 Z M9 18 C8.67 19.32 8.34 20.64 8 22 C8.66 21.67 9.32 21.34 10 21 C9.67 20.01 9.34 19.02 9 18 Z M1 24 C0.67 24.66 0.34 25.32 0 26 C0.66 26 1.32 26 2 26 C1.67 25.34 1.34 24.68 1 24 Z " fill="#9C8E6B" transform="translate(36,11)"/>
<path d="M0 0 C0.66 0.66 1.32 1.32 2 2 C-2.43076923 7.78461538 -2.43076923 7.78461538 -5.3125 8.875 C-5.869375 8.91625 -6.42625 8.9575 -7 9 C-5.44499019 5.18315774 -2.96404505 2.80804268 0 0 Z " fill="#B7A685" transform="translate(19,27)"/>
</svg>
