<?xml version="1.0" encoding="UTF-8"?>
<!-- Generator: https://ezgif.com/webp-to-svg -->
<svg version="1.1" xmlns="http://www.w3.org/2000/svg" width="50" height="50">
<path d="M0 0 C1.16 0.01 1.16 0.01 2.35 0.03 C4.23 0.05 6.12 0.09 8 0.12 C3.79 2.53 -0.85 3.47 -5.51 4.62 C-10.48 5.84 -10.48 5.84 -15 8.12 C-15.33 9.12 -15.66 10.11 -16 11.12 C-15.35 11.11 -14.7 11.09 -14.03 11.08 C-11.08 11.02 -8.13 10.98 -5.19 10.94 C-4.16 10.91 -3.14 10.89 -2.08 10.86 C-0.61 10.85 -0.61 10.85 0.89 10.83 C2.25 10.81 2.25 10.81 3.64 10.78 C6 11.12 6 11.12 7.8 12.42 C9.81 15.26 9.36 17.78 9 21.12 C7.93 22.82 7.93 22.82 6 24.12 C2.77 24.51 2.77 24.51 -1.19 24.52 C-1.89 24.53 -2.59 24.53 -3.31 24.53 C-4.78 24.53 -6.26 24.53 -7.73 24.52 C-9.99 24.5 -12.25 24.52 -14.51 24.54 C-15.94 24.53 -17.38 24.53 -18.81 24.52 C-20.12 24.52 -21.42 24.52 -22.77 24.51 C-26 24.12 -26 24.12 -27.93 22.73 C-29.33 20.63 -29.37 19.27 -29.31 16.75 C-29.31 16 -29.3 15.25 -29.3 14.48 C-28.94 11.67 -28.34 9.63 -27 7.12 C-24.9 5.61 -24.9 5.61 -22.38 4.44 C-21.15 3.84 -21.15 3.84 -19.9 3.24 C-13.11 0.63 -7.19 -0.16 0 0 Z " fill="#FEFFFF" transform="translate(35,-0.125)"/>
<path d="M0 0 C0.7 -0 1.4 -0.01 2.12 -0.01 C3.59 -0.01 5.07 -0.01 6.55 0.01 C8.8 0.02 11.06 0.01 13.32 -0.01 C14.76 -0.01 16.19 -0.01 17.62 0 C18.93 0 20.24 0.01 21.58 0.01 C24.81 0.4 24.81 0.4 26.74 1.7 C28.56 4.58 28.16 7.11 27.81 10.4 C26.61 12.1 26.61 12.1 24.81 13.4 C22.45 13.74 22.45 13.74 19.71 13.69 C18.72 13.68 17.74 13.67 16.73 13.66 C15.7 13.64 14.68 13.61 13.62 13.59 C12.07 13.57 12.07 13.57 10.49 13.54 C7.93 13.51 5.37 13.46 2.81 13.4 C3.47 16.47 3.47 16.47 5.64 17.46 C12.56 20.14 19.55 21.9 26.81 23.4 C26.81 23.73 26.81 24.06 26.81 24.4 C14.3 24.94 2.62 24.67 -8.19 17.4 C-10.71 13.31 -11 8.09 -10.19 3.4 C-7.59 -0.49 -4.38 0.01 0 0 Z " fill="#FEFFFF" transform="translate(16.1875,25.6015625)"/>
</svg>
