<?xml version="1.0" encoding="UTF-8"?>
<!-- Generator: https://ezgif.com/webp-to-svg -->
<svg version="1.1" xmlns="http://www.w3.org/2000/svg" width="50" height="50">
<path d="M0 0 C1.48 0 2.95 0.01 4.43 0.02 C5.2 0.02 5.98 0.02 6.78 0.02 C9.26 0.03 11.75 0.04 14.24 0.05 C15.92 0.06 17.6 0.06 19.28 0.06 C23.41 0.08 27.54 0.09 31.67 0.11 C28.05 6.86 28.05 6.86 24.67 9.11 C21.95 9.34 21.95 9.34 18.69 9.31 C16.95 9.3 16.95 9.3 15.17 9.29 C13.95 9.27 12.74 9.26 11.49 9.24 C10.26 9.23 9.03 9.22 7.77 9.21 C4.74 9.19 1.71 9.15 -1.33 9.11 C-2.32 12.08 -3.31 15.05 -4.33 18.11 C-1.36 18.44 1.61 18.77 4.67 19.11 C4.34 20.43 4.01 21.75 3.67 23.11 C0.61 24.65 -2.59 24.22 -5.95 24.18 C-6.66 24.17 -7.36 24.17 -8.09 24.16 C-9.84 24.15 -11.58 24.13 -13.33 24.11 C-12.66 18.97 -10.45 14.54 -8.33 9.86 C-7.77 8.62 -7.77 8.62 -7.21 7.36 C-3.97 0.14 -3.97 0.14 0 0 Z " fill="#FFFFFF" transform="translate(18.326416015625,6.886474609375)"/>
<path d="M0 0 C6.6 0 13.2 0 20 0 C17.67 7 17.67 7 13 10 C10.81 10.81 10.81 10.81 9 11 C8.34 10.67 7.68 10.34 7 10 C7.33 8.35 7.66 6.7 8 5 C4.7 4.67 1.4 4.34 -2 4 C-1.34 2.68 -0.68 1.36 0 0 Z " fill="#FEFFFF" transform="translate(19,19)"/>
<path d="M0 0 C1.58 0.01 3.16 0.02 4.75 0.04 C5.55 0.04 6.36 0.04 7.19 0.05 C9.19 0.06 11.19 0.08 13.18 0.1 C12.87 2.47 12.87 2.47 12.18 5.1 C8.39 7.63 5.37 7.32 1 7.22 C0.25 7.21 -0.5 7.2 -1.28 7.2 C-3.12 7.17 -4.97 7.14 -6.82 7.1 C-4.59 0.12 -4.59 0.12 0 0 Z " fill="#FEFFFF" transform="translate(6.81640625,33.90234375)"/>
</svg>
