<?xml version="1.0" encoding="UTF-8"?>
<!-- Generator: https://ezgif.com/webp-to-svg -->
<svg version="1.1" xmlns="http://www.w3.org/2000/svg" width="50" height="50">
<path d="M0 0 C0.99 0.33 1.98 0.66 3 1 C5.02 1 7.02 0.41 9 0 C8.57 0.8 8.57 0.8 8.12 1.61 C7.75 2.32 7.38 3.02 7 3.75 C6.63 4.45 6.26 5.14 5.88 5.86 C4.75 8.23 4.75 8.23 5 12 C5.34 11.45 5.68 10.89 6.02 10.32 C6.47 9.6 6.92 8.87 7.38 8.12 C7.82 7.41 8.26 6.69 8.71 5.95 C10.46 3.31 11.51 2.15 14.56 1.19 C19.18 0.94 22.75 2.33 27 4 C27 5.32 27 6.64 27 8 C25.35 8.33 23.7 8.66 22 9 C22 10.65 22 12.3 22 14 C22.94 14.51 22.94 14.51 23.9 15.02 C24.72 15.47 25.53 15.92 26.38 16.38 C27.19 16.82 28 17.26 28.84 17.71 C31 19 31 19 33 21 C34.42 28.09 31.84 33.19 28 39 C27.34 39 26.68 39 26 39 C25.86 37.87 25.71 36.73 25.56 35.56 C25.39 32.19 25.39 32.19 24 31 C24.11 31.59 24.21 32.18 24.32 32.79 C24.88 36.46 25.27 39.2 24.06 42.75 C20.23 46.93 16.38 49.82 10.62 50.25 C5.46 48.47 1.12 45.59 -3 42 C-3 41.34 -3 40.68 -3 40 C-3.66 40 -4.32 40 -5 40 C-4.67 39.01 -4.34 38.02 -4 37 C-2.02 37.66 -0.04 38.32 2 39 C1.46 38.65 0.91 38.3 0.36 37.93 C-7.12 32.77 -7.12 32.77 -8.67 28.32 C-9.81 20.31 -9.16 12 -5 5 C-2.31 2.12 -2.31 2.12 0 0 Z M-1 5 C0 7 0 7 0 7 Z M-3 11 C-2 14 -2 14 -2 14 Z M-2 15 C-1 17 -1 17 -1 17 Z M29 25 C30 27 30 27 30 27 Z M30 27 C31 29 31 29 31 29 Z M-2 28 C-0.31 30.04 0.64 30.92 3.26 31.51 C4.06 31.57 4.86 31.63 5.69 31.69 C6.5 31.75 7.3 31.82 8.14 31.89 C8.75 31.92 9.37 31.96 10 32 C7.28 30.54 4.75 29.58 1.75 28.88 C0.51 28.59 -0.72 28.3 -2 28 Z " fill="#00BF6E" transform="translate(13,0)"/>
</svg>
