<?xml version="1.0" encoding="UTF-8"?>
<svg version="1.1" xmlns="http://www.w3.org/2000/svg" width="50" height="50">
<path d="M0 0 C0.99 0 1.98 0 3 0 C3 0.66 3 1.32 3 2 C3.66 2 4.32 2 5 2 C5.66 3.32 6.32 4.64 7 6 C7.78375 5.835 8.5675 5.67 9.375 5.5 C16.33049504 4.54062137 23.09647953 4.79938774 30 6 C30.33 5.01 30.66 4.02 31 3 C31.66 3 32.32 3 33 3 C33.33 2.01 33.66 1.02 34 0 C34.66 0.33 35.32 0.66 36 1 C36 1.66 36 2.32 36 3 C36.99 2.67 37.98 2.34 39 2 C43.16020077 8.36266 43.18479654 12.16164148 41.67578125 19.55859375 C41 22 41 22 40 23 C39.814375 24.5778125 39.814375 24.5778125 39.625 26.1875 C38.98996716 30.06120035 37.85986996 32.57783927 36 36 C35.67 36.928125 35.34 37.85625 35 38.8125 C34.505 39.8953125 34.505 39.8953125 34 41 C33.01 41.33 32.02 41.66 31 42 C31.99 42.66 32.98 43.32 34 44 C34 44.66 34 45.32 34 46 C30.85098621 47.86608225 28.63642849 48.19139097 25 48 C24.34 48 23.68 48 23 48 C18.66666667 48 14.33333333 48 10 48 C9.175 48.04125 8.35 48.0825 7.5 48.125 C5 48 5 48 2 46 C2 45.01 2 44.02 2 43 C2.99 42.505 2.99 42.505 4 42 C3.54882812 41.59523437 3.09765625 41.19046875 2.6328125 40.7734375 C0.82948017 38.81479425 -0.06879397 37.06175879 -1.125 34.625 C-1.45757813 33.87476563 -1.79015625 33.12453125 -2.1328125 32.3515625 C-3.03711446 29.89935628 -3.52466735 27.56832963 -4 25 C-4.26039062 23.9584375 -4.52078125 22.916875 -4.7890625 21.84375 C-5.06492187 20.7403125 -5.34078125 19.636875 -5.625 18.5 C-5.90601563 17.3965625 -6.18703125 16.293125 -6.4765625 15.15625 C-7.30401579 10.16683015 -5.95758327 6.56769431 -4 2 C-2.68 2 -1.36 2 0 2 C0 1.34 0 0.68 0 0 Z " fill="#CBB050" transform="translate(7,1)"/>
<path d="M0 0 C0.99 0 1.98 0 3 0 C3 0.66 3 1.32 3 2 C3.66 2 4.32 2 5 2 C5.66 3.32 6.32 4.64 7 6 C8.98 6 10.96 6 13 6 C10 8 10 8 8 9 C7.59270772 11.32156597 7.25561323 13.6568787 7 16 C7.66 15.67 8.32 15.34 9 15 C11.97 15 14.94 15 18 15 C18 23.58 18 32.16 18 41 C16.35 41 14.7 41 13 41 C13 42.65 13 44.3 13 46 C16.3 46.33 19.6 46.66 23 47 C23 47.33 23 47.66 23 48 C18.66666667 48 14.33333333 48 10 48 C9.175 48.04125 8.35 48.0825 7.5 48.125 C5 48 5 48 2 46 C2 45.01 2 44.02 2 43 C2.99 42.505 2.99 42.505 4 42 C3.54882812 41.59523437 3.09765625 41.19046875 2.6328125 40.7734375 C0.82948017 38.81479425 -0.06879397 37.06175879 -1.125 34.625 C-1.45757813 33.87476563 -1.79015625 33.12453125 -2.1328125 32.3515625 C-3.03711446 29.89935628 -3.52466735 27.56832963 -4 25 C-4.26039062 23.9584375 -4.52078125 22.916875 -4.7890625 21.84375 C-5.06492187 20.7403125 -5.34078125 19.636875 -5.625 18.5 C-5.90601563 17.3965625 -6.18703125 16.293125 -6.4765625 15.15625 C-7.30401579 10.16683015 -5.95758327 6.56769431 -4 2 C-2.68 2 -1.36 2 0 2 C0 1.34 0 0.68 0 0 Z " fill="#C5A128" transform="translate(7,1)"/>
<path d="M0 0 C0.92039062 0.47566406 0.92039062 0.47566406 1.859375 0.9609375 C3.90994021 1.95628485 5.77922017 2.52411861 8 3 C6.35 3.66 4.7 4.32 3 5 C2.67 7.31 2.34 9.62 2 12 C2.66 11.67 3.32 11.34 4 11 C6.97 11 9.94 11 13 11 C13 19.58 13 28.16 13 37 C10.69 36.67 8.38 36.34 6 36 C6 35.34 6 34.68 6 34 C5.04843018 33.62476196 5.04843018 33.62476196 4.07763672 33.24194336 C2 32 2 32 1.17626953 30.26000977 C-0.0946423 23.78755389 -0.23299172 17.52084114 -0.125 10.9375 C-0.11597656 9.88111328 -0.10695313 8.82472656 -0.09765625 7.73632812 C-0.0743167 5.15730747 -0.04157775 2.5787801 0 0 Z " fill="#122B52" transform="translate(12,5)"/>
<path d="M0 0 C7.875 0 7.875 0 11 1 C11.16240455 4.06463399 11.28104814 7.12064274 11.375 10.1875 C11.45041016 11.48397461 11.45041016 11.48397461 11.52734375 12.80664062 C11.67069755 19.04253095 11.67069755 19.04253095 9.81347656 21.69384766 C6.59233832 24.56109403 4.28868458 25.14226308 0 26 C0 17.42 0 8.84 0 0 Z " fill="#F8F9FA" transform="translate(25,16)"/>
<path d="M0 0 C1.32 0.33 2.64 0.66 4 1 C4.70132913 7.70019789 5.11044961 14.26257354 5 21 C4.34 21.33 3.68 21.66 3 22 C2.01 21.67 1.02 21.34 0 21 C0 22.98 0 24.96 0 27 C0.66 27.33 1.32 27.66 2 28 C0.35 28 -1.3 28 -3 28 C-3.19456705 26.04235617 -3.38044247 24.08384679 -3.5625 22.125 C-3.71912109 20.48917969 -3.71912109 20.48917969 -3.87890625 18.8203125 C-4 16 -4 16 -3 14 C-3.99 14 -4.98 14 -6 14 C-6.17835515 9.45194365 -5.99785435 6.1205746 -4 2 C-2.68 2 -1.36 2 0 2 C0 1.34 0 0.68 0 0 Z " fill="#9F832F" transform="translate(8,2)"/>
<path d="M0 0 C0.66 0.33 1.32 0.66 2 1 C2 1.66 2 2.32 2 3 C2.99 2.67 3.98 2.34 5 2 C9.16020077 8.36266 9.18479654 12.16164148 7.67578125 19.55859375 C7 22 7 22 6 23 C5.87625 24.051875 5.7525 25.10375 5.625 26.1875 C4.99329012 30.04093028 3.98742507 32.66112589 2 36 C1.01 36.495 1.01 36.495 0 37 C-0.33 36.01 -0.66 35.02 -1 34 C-0.01 34 0.98 34 2 34 C1.34 32.35 0.68 30.7 0 29 C1.32 29 2.64 29 4 29 C4 25.37 4 21.74 4 18 C2.02 17.01 0.04 16.02 -2 15 C-2 14.34 -2 13.68 -2 13 C-1.34 13 -0.68 13 0 13 C0 11.02 0 9.04 0 7 C-0.86625 7.5259375 -0.86625 7.5259375 -1.75 8.0625 C-4.51289928 9.21370803 -5.16217592 8.77748605 -8 8 C-10.24715161 7.62818868 -12.49749604 7.27537559 -14.75 6.9375 C-15.92046875 6.76089844 -17.0909375 6.58429687 -18.296875 6.40234375 C-19.18890625 6.26957031 -20.0809375 6.13679687 -21 6 C-21 5.67 -21 5.34 -21 5 C-15.21408489 4.89522488 -9.70690634 5.00749455 -4 6 C-3.67 5.01 -3.34 4.02 -3 3 C-2.34 3 -1.68 3 -1 3 C-0.67 2.01 -0.34 1.02 0 0 Z " fill="#AF902D" transform="translate(41,1)"/>
<path d="M0 0 C1.65407264 0.70314829 3.26648122 1.50293057 4.8671875 2.3203125 C4.8671875 4.3003125 4.8671875 6.2803125 4.8671875 8.3203125 C-6.0228125 8.8153125 -6.0228125 8.8153125 -17.1328125 9.3203125 C-17.1328125 7.0103125 -17.1328125 4.7003125 -17.1328125 2.3203125 C-11.60224592 -1.08311309 -6.22254502 -1.98300885 0 0 Z " fill="#E1B927" transform="translate(31.1328125,7.6796875)"/>
<path d="M0 0 C3 2 3 2 5 4 C5 5.32 5 6.64 5 8 C4.01 8.33 3.02 8.66 2 9 C2.99 9.66 3.98 10.32 5 11 C5 11.66 5 12.32 5 13 C1.87703962 14.85064319 -0.37940768 15.29356154 -4 15 C-4.33 14.67 -4.66 14.34 -5 14 C-6.99750448 14 -8.99555281 14.00355875 -10.9921875 14.0625 C-13 14 -13 14 -16 13 C-16.33 12.01 -16.66 11.02 -17 10 C-16.67 9.34 -16.34 8.68 -16 8 C-13.890625 7.5078125 -13.890625 7.5078125 -11.25 7.125 C-6.84686856 6.33130249 -4.1897188 5.29261295 -1 2 C-0.67 1.34 -0.34 0.68 0 0 Z " fill="#836E31" transform="translate(36,34)"/>
<path d="M0 0 C0.99 0.495 0.99 0.495 2 1 C2 1.66 2 2.32 2 3 C2.66 3 3.32 3 4 3 C4 3.66 4 4.32 4 5 C5.98 4.01 7.96 3.02 10 2 C10 2.66 10 3.32 10 4 C11.32 4.33 12.64 4.66 14 5 C13.34 5 12.68 5 12 5 C12 6.65 12 8.3 12 10 C15.3 10.33 18.6 10.66 22 11 C22 11.33 22 11.66 22 12 C17.66666667 12 13.33333333 12 9 12 C7.7625 12.061875 7.7625 12.061875 6.5 12.125 C4 12 4 12 1 10 C1 9.01 1 8.02 1 7 C1.66 6.67 2.32 6.34 3 6 C2.505 5.566875 2.01 5.13375 1.5 4.6875 C0 3 0 3 0 0 Z " fill="#806A33" transform="translate(8,37)"/>
<path d="M0 0 C4.55737263 0.43820891 7.57653445 0.85041169 11 4 C10.67 5.65 10.34 7.3 10 9 C8.68 8.67 7.36 8.34 6 8 C6 9.98 6 11.96 6 14 C6.66 14.33 7.32 14.66 8 15 C6.35 15 4.7 15 3 15 C2.80543295 13.04235617 2.61955753 11.08384679 2.4375 9.125 C2.33308594 8.03445312 2.22867187 6.94390625 2.12109375 5.8203125 C2 3 2 3 3 1 C2.01 0.67 1.02 0.34 0 0 Z " fill="#C8A428" transform="translate(2,15)"/>
<path d="M0 0 C0.99 0.33 1.98 0.66 3 1 C2.34 1 1.68 1 1 1 C1 1.66 1 2.32 1 3 C-0.32 3 -1.64 3 -3 3 C-3.66 6.96 -4.32 10.92 -5 15 C-4.01 15 -3.02 15 -2 15 C-2 19.62 -2 24.24 -2 29 C-0.35 29 1.3 29 3 29 C2.34 29.66 1.68 30.32 1 31 C0.83312552 33.58354218 0.83312552 33.58354218 1 36 C-1.83560586 34.58219707 -1.99358679 32.95214542 -3 30 C-3.336095 28.33388805 -3.66895699 26.66712309 -4 25 C-4.26039062 23.9584375 -4.52078125 22.916875 -4.7890625 21.84375 C-5.06492187 20.7403125 -5.34078125 19.636875 -5.625 18.5 C-5.90601563 17.3965625 -6.18703125 16.293125 -6.4765625 15.15625 C-7.30401579 10.16683015 -5.95758327 6.56769431 -4 2 C-2.68 2 -1.36 2 0 2 C0 1.34 0 0.68 0 0 Z " fill="#423B39" transform="translate(7,1)"/>
<path d="M0 0 C0.66 0.33 1.32 0.66 2 1 C2 1.66 2 2.32 2 3 C2.99 2.67 3.98 2.34 5 2 C5.69965443 3.26418246 6.38434763 4.53665402 7.0625 5.8125 C7.44535156 6.52019531 7.82820313 7.22789063 8.22265625 7.95703125 C9 10 9 10 8 13 C6.515 8.545 6.515 8.545 5 4 C4.39671875 4.37253906 3.7934375 4.74507813 3.171875 5.12890625 C2.37265625 5.60199219 1.5734375 6.07507813 0.75 6.5625 C-0.03890625 7.03816406 -0.8278125 7.51382812 -1.640625 8.00390625 C-4.45374656 9.19156519 -5.16925233 8.95745877 -8 8 C-10.24715161 7.62818868 -12.49749604 7.27537559 -14.75 6.9375 C-15.92046875 6.76089844 -17.0909375 6.58429687 -18.296875 6.40234375 C-19.18890625 6.26957031 -20.0809375 6.13679687 -21 6 C-21 5.67 -21 5.34 -21 5 C-15.21408489 4.89522488 -9.70690634 5.00749455 -4 6 C-3.67 5.01 -3.34 4.02 -3 3 C-2.34 3 -1.68 3 -1 3 C-0.67 2.01 -0.34 1.02 0 0 Z " fill="#514635" transform="translate(41,1)"/>
<path d="M0 0 C1.98 0 3.96 0 6 0 C5.01 0.66 4.02 1.32 3 2 C3.33 2.99 3.66 3.98 4 5 C4 4.34 4 3.68 4 3 C4.66 3 5.32 3 6 3 C6 3.99 6 4.98 6 6 C6.66 5.67 7.32 5.34 8 5 C8.65213292 2.97536745 8.65213292 2.97536745 9 1 C11.97 1.495 11.97 1.495 15 2 C15 3.98 15 5.96 15 8 C8.07 7.505 8.07 7.505 1 7 C0.67 4.69 0.34 2.38 0 0 Z " fill="#F3C411" transform="translate(21,8)"/>
<path d="M0 0 C0.33 2.31 0.66 4.62 1 7 C0.01 6.67 -0.98 6.34 -2 6 C0.12780579 8.34058637 2.11562221 9.70700306 5 11 C4.67 12.32 4.34 13.64 4 15 C4 14.34 4 13.68 4 13 C1.69 13.33 -0.62 13.66 -3 14 C-3.33 9.71 -3.66 5.42 -4 1 C-2 0 -2 0 0 0 Z " fill="#D6AE21" transform="translate(41,8)"/>
<path d="M0 0 C0.33 0 0.66 0 1 0 C1 3.96 1 7.92 1 12 C2.98 11.67 4.96 11.34 7 11 C7 11.66 7 12.32 7 13 C6.34 13 5.68 13 5 13 C5.33 14.98 5.66 16.96 6 19 C4.02 19.66 2.04 20.32 0 21 C0 14.07 0 7.14 0 0 Z " fill="#8D752E" transform="translate(37,10)"/>
<path d="M0 0 C0.76183594 -0.01417969 1.52367187 -0.02835937 2.30859375 -0.04296875 C4.79597315 0.21137334 6.41058106 0.94732804 8.5625 2.1875 C7.5725 2.1875 6.5825 2.1875 5.5625 2.1875 C5.2325 3.8375 4.9025 5.4875 4.5625 7.1875 C3.9025 7.1875 3.2425 7.1875 2.5625 7.1875 C2.5625 6.1975 2.5625 5.2075 2.5625 4.1875 C1.9025 4.1875 1.2425 4.1875 0.5625 4.1875 C0.8925 5.1775 1.2225 6.1675 1.5625 7.1875 C0.5725 6.8575 -0.4175 6.5275 -1.4375 6.1875 C-1.1075 4.8675 -0.7775 3.5475 -0.4375 2.1875 C-1.0975 2.1875 -1.7575 2.1875 -2.4375 2.1875 C-2.7675 3.8375 -3.0975 5.4875 -3.4375 7.1875 C-3.7675 7.1875 -4.0975 7.1875 -4.4375 7.1875 C-4.4375 5.5375 -4.4375 3.8875 -4.4375 2.1875 C-5.4275 1.8575 -6.4175 1.5275 -7.4375 1.1875 C-4.66697819 0.26399273 -2.87061242 0.02420415 0 0 Z " fill="#A28734" transform="translate(24.4375,6.8125)"/>
<path d="M0 0 C3.3 0 6.6 0 10 0 C9.34 1.32 8.68 2.64 8 4 C8.66 4 9.32 4 10 4 C10 4.66 10 5.32 10 6 C3.375 6.125 3.375 6.125 0 5 C-0.33 4.01 -0.66 3.02 -1 2 C-0.67 1.34 -0.34 0.68 0 0 Z " fill="#C5A023" transform="translate(20,42)"/>
<path d="M0 0 C1.48717691 3.86665996 0.34016247 6.20287302 -1 10 C-1.144375 11.155 -1.28875 12.31 -1.4375 13.5 C-2.03340024 17.20782371 -3.08605112 19.78456588 -5 23 C-5.66 23.33 -6.32 23.66 -7 24 C-7.33 23.01 -7.66 22.02 -8 21 C-7.01 21 -6.02 21 -5 21 C-5.66 19.35 -6.32 17.7 -7 16 C-5.68 16 -4.36 16 -3 16 C-3 11.71 -3 7.42 -3 3 C-2.01 3 -1.02 3 0 3 C0 2.01 0 1.02 0 0 Z " fill="#7D6834" transform="translate(48,14)"/>
<path d="M0 0 C6.625 0.75 6.625 0.75 10 3 C9.67 4.32 9.34 5.64 9 7 C6.69 7 4.38 7 2 7 C2.33 5.02 2.66 3.04 3 1 C2.01 0.67 1.02 0.34 0 0 Z " fill="#F3C514" transform="translate(2,15)"/>
<path d="M0 0 C0.66 0.33 1.32 0.66 2 1 C2 4.63 2 8.26 2 12 C1.67 11.01 1.34 10.02 1 9 C0.34 9 -0.32 9 -1 9 C-3 6 -3 6 -4 4 C-2.68 2.68 -1.36 1.36 0 0 Z " fill="#083575" transform="translate(23,19)"/>
<path d="M0 0 C0.33 0.66 0.66 1.32 1 2 C1.66 2 2.32 2 3 2 C3 3.32 3 4.64 3 6 C3.33 5.01 3.66 4.02 4 3 C4.66 3 5.32 3 6 3 C6.33 5.31 6.66 7.62 7 10 C3.7 9.01 0.4 8.02 -3 7 C-2.34 6.01 -1.68 5.02 -1 4 C-0.67 4.33 -0.34 4.66 0 5 C0.33 4.34 0.66 3.68 1 3 C0.34 2.67 -0.32 2.34 -1 2 C-0.67 1.34 -0.34 0.68 0 0 Z " fill="#9C8232" transform="translate(5,8)"/>
<path d="M0 0 C0.99 2.97 1.98 5.94 3 9 C1.68 8.67 0.36 8.34 -1 8 C-1.33 8.66 -1.66 9.32 -2 10 C-2.144375 9.2575 -2.28875 8.515 -2.4375 7.75 C-2.90187492 5.47972261 -3.41863569 3.24240521 -4 1 C-2 0 -2 0 0 0 Z " fill="#D3AC23" transform="translate(46,5)"/>
<path d="M0 0 C1.32 0.66 2.64 1.32 4 2 C4 2.66 4 3.32 4 4 C4.66 4.33 5.32 4.66 6 5 C5.67 7.31 5.34 9.62 5 12 C4.67 12 4.34 12 4 12 C4 10.02 4 8.04 4 6 C3.34 6 2.68 6 2 6 C1.67 7.32 1.34 8.64 1 10 C0.67 9.34 0.34 8.68 0 8 C0.33 7.01 0.66 6.02 1 5 C0.34 5 -0.32 5 -1 5 C-0.67 3.35 -0.34 1.7 0 0 Z " fill="#E1B71C" transform="translate(7,5)"/>
<path d="M0 0 C1.98 0.66 3.96 1.32 6 2 C5.67 3.32 5.34 4.64 5 6 C5 5.34 5 4.68 5 4 C2.69 4.33 0.38 4.66 -2 5 C-1.125 1.125 -1.125 1.125 0 0 Z " fill="#F2C415" transform="translate(40,17)"/>
<path d="M0 0 C0.66 0 1.32 0 2 0 C2 2.31 2 4.62 2 7 C3.65 7 5.3 7 7 7 C6.34 7.66 5.68 8.32 5 9 C4.83312552 11.58354218 4.83312552 11.58354218 5 14 C2.16439414 12.58219707 2.00641321 10.95214542 1 8 C0.3324171 5.1961518 0 2.89122346 0 0 Z " fill="#51463A" transform="translate(3,23)"/>
<path d="M0 0 C3 2 3 2 5 4 C5 5.32 5 6.64 5 8 C4.34 7.67 3.68 7.34 3 7 C3.33 6.34 3.66 5.68 4 5 C1.69 5 -0.62 5 -3 5 C-2.01 3.35 -1.02 1.7 0 0 Z " fill="#847137" transform="translate(36,34)"/>
<path d="M0 0 C2.31 0 4.62 0 7 0 C6.67 0.99 6.34 1.98 6 3 C4.35 2.67 2.7 2.34 1 2 C1 2.99 1 3.98 1 5 C0.34 5 -0.32 5 -1 5 C-0.67 3.35 -0.34 1.7 0 0 Z " fill="#D0AA23" transform="translate(33,39)"/>
<path d="M0 0 C1.32 0 2.64 0 4 0 C3.67 1.65 3.34 3.3 3 5 C0.03 4.505 0.03 4.505 -3 4 C-2.34 3.67 -1.68 3.34 -1 3 C-0.67 2.01 -0.34 1.02 0 0 Z " fill="#EABE19" transform="translate(23,43)"/>
<path d="M0 0 C1.32 0 2.64 0 4 0 C4 1.32 4 2.64 4 4 C4.99 4 5.98 4 7 4 C7.33 3.34 7.66 2.68 8 2 C8 2.99 8 3.98 8 5 C4.28400809 5.20086443 3.22791555 5.1519437 0 3 C0 2.01 0 1.02 0 0 Z " fill="#4A443A" transform="translate(9,44)"/>
<path d="M0 0 C2.97 0.495 2.97 0.495 6 1 C6 1.66 6 2.32 6 3 C4.68 3.33 3.36 3.66 2 4 C2.66 4 3.32 4 4 4 C4 4.99 4 5.98 4 7 C3.01 7 2.02 7 1 7 C0.67 4.69 0.34 2.38 0 0 Z " fill="#987F37" transform="translate(7,22)"/>
<path d="M0 0 C0.33 0 0.66 0 1 0 C0.979375 0.7425 0.95875 1.485 0.9375 2.25 C0.99328688 4.70462279 1.3069904 6.66109261 2 9 C0.66666667 9 -0.66666667 9 -2 9 C-1.125 2.25 -1.125 2.25 0 0 Z " fill="#DDB420" transform="translate(4,5)"/>
<path d="M0 0 C1.24546405 2.49092811 0.7767578 3.41080733 0 6 C-1.32 6.33 -2.64 6.66 -4 7 C-4 5.68 -4 4.36 -4 3 C-2 1.25 -2 1.25 0 0 Z " fill="#9F883C" transform="translate(32,39)"/>
<path d="M0 0 C0.33 0.66 0.66 1.32 1 2 C3.52733235 2.65555119 3.52733235 2.65555119 6 3 C5.34 4.32 4.68 5.64 4 7 C3.01 6.67 2.02 6.34 1 6 C0.67 4.02 0.34 2.04 0 0 Z " fill="#C7A221" transform="translate(37,31)"/>
<path d="M0 0 C2.31 0.33 4.62 0.66 7 1 C7.33 1.99 7.66 2.98 8 4 C6.02 4 4.04 4 2 4 C2.33 3.01 2.66 2.02 3 1 C2.01 0.67 1.02 0.34 0 0 Z " fill="#D7AF23" transform="translate(2,15)"/>
<path d="M0 0 C1.32 0.66 2.64 1.32 4 2 C3.67 3.65 3.34 5.3 3 7 C1.68 7.33 0.36 7.66 -1 8 C-0.34 7.67 0.32 7.34 1 7 C1.65555119 4.47266765 1.65555119 4.47266765 2 2 C1.34 2 0.68 2 0 2 C0 1.34 0 0.68 0 0 Z " fill="#B99830" transform="translate(9,24)"/>
</svg>
