<?xml version="1.0" encoding="UTF-8"?>
<!-- Generator: https://ezgif.com/webp-to-svg -->
<svg version="1.1" xmlns="http://www.w3.org/2000/svg" width="50" height="50">
<path d="M0 0 C16.5 0 33 0 50 0 C47.41 5.18 47.41 5.18 44 7 C41.33 7.21 38.91 7.29 36.25 7.19 C35.55 7.17 34.86 7.16 34.14 7.15 C32.42 7.11 30.71 7.06 29 7 C29 9.97 29 12.94 29 16 C34.61 16 40.22 16 46 16 C44.15 19.7 43.21 21.55 40 24 C38.21 24.09 38.21 24.09 36.38 24.19 C30.87 24.54 27.84 28.36 24.1 32.07 C22 34 22 34 20 34 C20.33 28.39 20.66 22.78 21 17 C18.36 17 15.72 17 13 17 C10.21 14.67 8.96 12.13 7 9 C11.62 9 16.24 9 21 9 C21 8.34 21 7.68 21 7 C19.9 7.06 18.81 7.12 17.68 7.18 C16.22 7.22 14.77 7.27 13.31 7.31 C12.59 7.35 11.87 7.4 11.13 7.44 C6.89 7.54 5.44 7.35 1.98 4.61 C-0 2 -0 2 0 0 Z " fill="#E4002A" transform="translate(0,13)"/>
<path d="M0 0 C0.33 0.66 0.66 1.32 1 2 C1.99 2.33 2.98 2.66 4 3 C3.67 3.99 3.34 4.98 3 6 C1.35 6 -0.3 6 -2 6 C-2.33 4.68 -2.66 3.36 -3 2 C-2.01 1.34 -1.02 0.68 0 0 Z " fill="#FFFFFF" transform="translate(12,3)"/>
<path d="M0 0 C0.33 0.66 0.66 1.32 1 2 C1.99 2 2.98 2 4 2 C3.67 3.32 3.34 4.64 3 6 C1.35 6 -0.3 6 -2 6 C-2.33 4.68 -2.66 3.36 -3 2 C-2.01 2 -1.02 2 0 2 C0 1.34 0 0.68 0 0 Z " fill="#FFFFFF" transform="translate(37,3)"/>
<path d="M0 0 C1.32 0.66 2.64 1.32 4 2 C3.67 3.32 3.34 4.64 3 6 C1.35 6 -0.3 6 -2 6 C-2 4.68 -2 3.36 -2 2 C-1.34 2 -0.68 2 0 2 C0 1.34 0 0.68 0 0 Z " fill="#FFFFFF" transform="translate(20,3)"/>
<path d="M0 0 C0 1.32 0 2.64 0 4 C-1.65 4 -3.3 4 -5 4 C-5.33 2.68 -5.66 1.36 -6 0 C-3.51 -1.25 -2.59 -0.78 0 0 Z " fill="#FFFFFF" transform="translate(32,5)"/>
</svg>
