<?xml version="1.0" encoding="UTF-8"?>
<!-- Generator: https://ezgif.com/webp-to-svg -->
<svg version="1.1" xmlns="http://www.w3.org/2000/svg" width="50" height="50">
<path d="M0 0 C0.66 0.66 1.32 1.32 2 2 C1.86 3.98 1.86 3.98 1 6 C-0.67 7.28 -0.67 7.28 -2.82 8.36 C-3.58 8.75 -4.34 9.15 -5.13 9.55 C-6.33 10.14 -6.33 10.14 -7.56 10.75 C-8.77 11.37 -8.77 11.37 -10.01 12 C-12 13.01 -14 14.01 -16 15 C-11.55 14.5 -11.55 14.5 -7 14 C-6.67 15.32 -6.34 16.64 -6 18 C-7.94 20.25 -7.94 20.25 -10 22 C-9.34 22.66 -8.68 23.32 -8 24 C-7.59 23.47 -7.17 22.93 -6.75 22.38 C-4.87 19.96 -3 17.54 -1.12 15.12 C-0.15 13.86 -0.15 13.86 0.85 12.57 C1.47 11.77 2.1 10.96 2.74 10.13 C3.32 9.39 3.89 8.65 4.49 7.88 C6 6 6 6 8 4 C11.12 4.38 11.12 4.38 14 5 C14.17 12.83 9.13 16.62 4 22 C2.58 23.58 1.18 25.18 -0.19 26.81 C-0.78 27.5 -1.37 28.19 -1.98 28.89 C-3.3 31.03 -3.3 31.03 -2.28 33.6 C-1.01 36.07 -1.01 36.07 0.69 38.56 C2 41 2 41 1.69 43.31 C1.46 43.87 1.23 44.43 1 45 C-3 45 -3 45 -5.62 42.62 C-6.41 41.76 -7.19 40.89 -8 40 C-8.66 39.34 -9.32 38.68 -10 38 C-10.54 38.58 -11.09 39.16 -11.64 39.75 C-12.36 40.49 -13.08 41.23 -13.81 42 C-14.87 43.11 -14.87 43.11 -15.96 44.25 C-18 46 -18 46 -21 46 C-20.39 42.53 -19.03 40.56 -16.88 37.81 C-14.42 34.29 -13.61 32.23 -14.12 27.94 C-14.38 26.62 -14.66 25.3 -15 24 C-16.96 24.09 -16.96 24.09 -19 25 C-20.3 27.37 -20.3 27.37 -21.14 30.35 C-21.49 31.43 -21.84 32.51 -22.2 33.62 C-22.54 34.76 -22.89 35.89 -23.25 37.06 C-23.61 38.2 -23.98 39.34 -24.35 40.52 C-25.25 43.34 -26.13 46.17 -27 49 C-27.99 49 -28.98 49 -30 49 C-29.41 41.66 -28.76 34.33 -28 27 C-30.31 27.33 -32.62 27.66 -35 28 C-35.33 27.01 -35.66 26.02 -36 25 C-35.29 24.66 -34.58 24.32 -33.85 23.98 C-32.93 23.53 -32.01 23.08 -31.06 22.62 C-30.15 22.18 -29.23 21.74 -28.29 21.29 C-25.87 20.21 -25.87 20.21 -25 18 C-25.74 18.33 -26.48 18.66 -27.25 19 C-30 20 -30 20 -34 20 C-34.32 17.71 -34.32 17.71 -34 15 C-31.77 13.19 -31.77 13.19 -28.81 11.56 C-24.1 8.8 -21.26 6.31 -18 2 C-17.34 2 -16.68 2 -16 2 C-15.67 2.66 -15.34 3.32 -15 4 C-14.25 3.63 -13.5 3.25 -12.73 2.87 C-11.75 2.4 -10.76 1.92 -9.75 1.44 C-8.78 0.96 -7.8 0.49 -6.8 -0 C-3.87 -1.05 -2.8 -1.23 0 0 Z " fill="#FEFFFF" transform="translate(36,1)"/>
</svg>
