<?xml version="1.0" encoding="UTF-8"?>
<!-- Generator: https://ezgif.com/webp-to-svg -->
<svg version="1.1" xmlns="http://www.w3.org/2000/svg" width="50" height="50">
<path d="M0 0 C3.02 1.95 5.46 4.47 8 7 C9.12 8.1 10.24 9.19 11.37 10.29 C21.71 20.47 21.71 20.47 22.5 24.62 C21.73 29.85 18.64 32.34 15 36 C13.9 37.12 12.81 38.24 11.71 39.37 C1.53 49.71 1.53 49.71 -2.62 50.5 C-7.85 49.73 -10.34 46.64 -14 43 C-15.12 41.9 -16.24 40.81 -17.37 39.71 C-27.71 29.53 -27.71 29.53 -28.5 25.38 C-27.73 20.15 -24.64 17.66 -21 14 C-19.9 12.88 -18.81 11.76 -17.71 10.63 C-6.32 -0.94 -6.32 -0.94 0 0 Z M-7.56 6.75 C-8.25 7.39 -8.93 8.03 -9.63 8.69 C-10.8 9.83 -10.8 9.83 -12 11 C-12.98 11.93 -13.95 12.85 -14.93 13.78 C-20.13 18.43 -20.13 18.43 -23.99 24.11 C-24 26.79 -23.08 27.62 -21.25 29.56 C-20.61 30.25 -19.97 30.93 -19.31 31.63 C-18.55 32.41 -17.78 33.2 -17 34 C-16.07 34.98 -15.15 35.95 -14.22 36.93 C-9.57 42.13 -9.57 42.13 -3.89 45.99 C-1.21 46 -0.38 45.08 1.56 43.25 C2.25 42.61 2.93 41.97 3.63 41.31 C4.41 40.55 5.2 39.78 6 39 C6.98 38.07 7.95 37.15 8.93 36.22 C14.13 31.57 14.13 31.57 17.99 25.89 C18 23.21 17.08 22.38 15.25 20.44 C14.61 19.75 13.97 19.07 13.31 18.37 C12.55 17.59 11.78 16.8 11 16 C10.07 15.02 9.15 14.05 8.22 13.07 C3.57 7.87 3.57 7.87 -2.11 4.01 C-4.79 4 -5.62 4.92 -7.56 6.75 Z " fill="#FEC01A" transform="translate(28,0)"/>
<path d="M0 0 C2.95 1.37 5.44 2.99 8 5 C9.32 4.34 10.64 3.68 12 3 C12.99 3.66 13.98 4.32 15 5 C17.91 5.17 17.91 5.17 21.06 5 C24.29 4.88 24.29 4.88 27 5 C29 7 29 7 29 9.25 C27.55 13.22 25.11 15.16 22 18 C18.17 16.44 15.75 14.05 13 11 C12.67 10.01 12.34 9.02 12 8 C11.34 8 10.68 8 10 8 C9.57 8.72 9.13 9.44 8.69 10.19 C6.82 13.3 4.63 15.52 2 18 C-1.84 16.44 -4.39 14.2 -7 11 C-7.19 8.56 -7.19 8.56 -6 6 C-4.12 3.82 -2.14 1.95 0 0 Z " fill="#FEC01A" transform="translate(14,16)"/>
<path d="M0 0 C3.84 1.56 6.39 3.8 9 7 C8.81 11.19 8.81 11.19 7 13 C5.02 13.13 3.04 13.18 1.06 13.19 C-0.02 13.2 -1.1 13.22 -2.21 13.23 C-5 13 -5 13 -7 11 C-7 7.13 -5.56 5.31 -2.94 2.69 C-1.97 1.8 -1 0.91 0 0 Z " fill="#FEC01A" transform="translate(24,6)"/>
<path d="M0 0 C1.65 0.33 3.3 0.66 5 1 C5.33 1.99 5.66 2.98 6 4 C8 5.21 8 5.21 10 6 C9.12 10.88 9.12 10.88 8 12 C6.02 12.13 4.04 12.18 2.06 12.19 C0.98 12.2 -0.1 12.22 -1.21 12.23 C-4 12 -4 12 -6 10 C-5.62 7.38 -5.62 7.38 -5 5 C-4.01 4.67 -3.02 4.34 -2 4 C-0.79 2 -0.79 2 0 0 Z " fill="#FEC01A" transform="translate(23,27)"/>
<path d="M0 0 C1.32 0.66 2.64 1.32 4 2 C4 2.66 4 3.32 4 4 C0.25 5.12 0.25 5.12 -2 4 C-1.34 2.68 -0.68 1.36 0 0 Z " fill="#FEC017" transform="translate(24,39)"/>
</svg>
