<?xml version="1.0" encoding="UTF-8"?>
<!-- Generator: https://ezgif.com/webp-to-svg -->
<svg version="1.1" xmlns="http://www.w3.org/2000/svg" width="50" height="50">
<path d="M0 0 C0.66 0 1.32 0 2 0 C2.33 1.32 2.66 2.64 3 4 C4.65 4 6.3 4 8 4 C8 4.66 8 5.32 8 6 C7.01 6.66 6.02 7.32 5 8 C8.3 8.33 11.6 8.66 15 9 C15.2 13.33 15.33 17.66 15.44 22 C15.5 23.22 15.55 24.44 15.62 25.7 C15.73 31.75 15.78 35.96 11.69 40.66 C10.48 41.8 9.26 42.92 8 44 C6.85 45.16 5.7 46.33 4.56 47.5 C3.72 48.33 2.87 49.15 2 50 C-1.85 48.42 -4.29 45.95 -7.19 43 C-8.07 42.11 -8.95 41.23 -9.86 40.31 C-13.2 36.71 -13.12 34.74 -13.1 29.9 C-13.09 28.69 -13.09 27.48 -13.09 26.23 C-13.08 24.96 -13.07 23.68 -13.06 22.38 C-13.06 21.1 -13.05 19.82 -13.05 18.5 C-13.04 15.33 -13.02 12.17 -13 9 C-9.7 9 -6.4 9 -3 9 C-3.99 8.01 -4.98 7.02 -6 6 C-6 5.34 -6 4.68 -6 4 C-4.35 4 -2.7 4 -1 4 C-0.67 2.68 -0.34 1.36 0 0 Z " fill="#0D0D0D" transform="translate(24,0)"/>
<path d="M0 0 C7.92 0 15.84 0 24 0 C24.94 16.07 24.94 16.07 20.81 20.75 C19.02 22.42 19.02 22.42 17 24 C15.35 25.32 13.7 26.64 12 28 C12 20.41 12 12.82 12 5 C9.69 5 7.38 5 5 5 C5 5.66 5 6.32 5 7 C6.65 7 8.3 7 10 7 C10 8.65 10 10.3 10 12 C8.35 12 6.7 12 5 12 C5 14.64 5 17.28 5 20 C1.12 18.25 1.12 18.25 0 16 C-0.07 13.28 -0.09 10.59 -0.06 7.88 C-0.04 5.28 -0.02 2.68 0 0 Z " fill="#EAEAEA" transform="translate(13,19)"/>
<path d="M0 0 C7.92 0 15.84 0 24 0 C24 1.65 24 3.3 24 5 C16.08 5 8.16 5 0 5 C0 3.35 0 1.7 0 0 Z " fill="#EBEBEB" transform="translate(13,12)"/>
<path d="M0 0 C0.66 0 1.32 0 2 0 C2.33 1.32 2.66 2.64 3 4 C4.65 4 6.3 4 8 4 C8 6 8 6 6.38 8.12 C4 10 4 10 1 10.5 C-2.62 9.9 -3.8 8.88 -6 6 C-6 5.34 -6 4.68 -6 4 C-4.35 4 -2.7 4 -1 4 C-0.67 2.68 -0.34 1.36 0 0 Z " fill="#0A0001" transform="translate(24,0)"/>
<path d="M0 0 C-0.33 1.32 -0.66 2.64 -1 4 C-2.32 4.33 -3.64 4.66 -5 5 C-5.33 3.35 -5.66 1.7 -6 0 C-3.51 -1.25 -2.59 -0.78 0 0 Z " fill="#B9122A" transform="translate(28,5)"/>
</svg>
