<?xml version="1.0" encoding="UTF-8"?>
<!-- Generator: https://ezgif.com/webp-to-svg -->
<svg version="1.1" xmlns="http://www.w3.org/2000/svg" width="50" height="50">
<path d="M0 0 C3.08 5.42 3.08 5.42 2.69 8.38 C2.46 8.91 2.23 9.45 2 10 C0.35 9.67 -1.3 9.34 -3 9 C-4.76 12.53 -4.23 16.55 -4.25 20.44 C-4.27 21.31 -4.29 22.18 -4.31 23.08 C-4.32 23.92 -4.32 24.76 -4.33 25.62 C-4.34 26.39 -4.35 27.16 -4.36 27.95 C-4.12 30.45 -4.12 30.45 -1 33 C-1 29.37 -1 25.74 -1 22 C-1.66 21.67 -2.32 21.34 -3 21 C-3 19.68 -3 18.36 -3 17 C2.75 17.88 2.75 17.88 5 19 C5 27.25 5 35.5 5 44 C-1.07 40.97 -6.78 37.13 -10 31 C-11.82 23.44 -11.92 13.96 -8.07 7.04 C-3.27 0 -3.27 0 0 0 Z " fill="#F1F1F1" transform="translate(19,6)"/>
<path d="M0 0 C3.23 1.08 4 1.84 6.12 4.38 C6.64 4.98 7.16 5.59 7.7 6.21 C11.92 12.01 11.3 21.65 10.62 28.47 C8.92 35.39 2.59 40.07 -3 44 C-3.66 44 -4.32 44 -5 44 C-5 35.75 -5 27.5 -5 19 C-1 17 -1 17 3 17 C3 18.32 3 19.64 3 21 C2.34 21.33 1.68 21.66 1 22 C1 25.63 1 29.26 1 33 C4.12 30.45 4.12 30.45 4.37 27.95 C4.37 27.18 4.37 26.41 4.36 25.62 C4.36 24.78 4.36 23.94 4.36 23.08 C4.35 22.21 4.33 21.34 4.31 20.44 C4.32 19.56 4.32 18.69 4.32 17.78 C4.55 12.87 4.55 12.87 2 9 C-0.6 9.32 -0.6 9.32 -3 10 C-2.49 6.28 -1.88 3.27 0 0 Z " fill="#ECECEC" transform="translate(31,6)"/>
<path d="M0 0 C1.88 0.81 1.88 0.81 3.88 2.81 C3.56 7.39 2.06 10.82 -0.12 14.81 C-0.79 14.81 -1.45 14.81 -2.12 14.81 C-2.8 13.38 -3.46 11.94 -4.12 10.5 C-4.5 9.7 -4.87 8.9 -5.25 8.07 C-6.12 5.81 -6.12 5.81 -6.12 2.81 C-4.04 0.73 -2.99 -0.26 0 0 Z " fill="#8B805E" transform="translate(26.125,0.1875)"/>
<path d="M0 0 C1.32 0.99 2.64 1.98 4 3 C3.46 7.56 2.21 10.97 0 15 C-0.66 14.67 -1.32 14.34 -2 14 C-1.67 12.35 -1.34 10.7 -1 9 C-0.34 9 0.32 9 1 9 C0.67 6.03 0.34 3.06 0 0 Z " fill="#776B4B" transform="translate(26,0)"/>
<path d="M0 0 C0 2.31 0 4.62 0 7 C-1.88 6.81 -1.88 6.81 -4 6 C-5.25 3.44 -5.25 3.44 -6 1 C-3 0 -3 0 0 0 Z " fill="#E0E0E0" transform="translate(23,41)"/>
<path d="M0 0 C0.33 1.65 0.66 3.3 1 5 C-0.98 5.99 -0.98 5.99 -3 7 C-3.99 6.34 -4.98 5.68 -6 5 C-6 4.34 -6 3.68 -6 3 C-2.54 -0 -2.54 -0 0 0 Z " fill="#B1A37A" transform="translate(26,0)"/>
</svg>
