<?xml version="1.0" encoding="UTF-8"?>
<!-- Generator: https://ezgif.com/webp-to-svg -->
<svg version="1.1" xmlns="http://www.w3.org/2000/svg" width="50" height="50">
<path d="M0 0 C4.13 1.74 6.77 4.11 9 8 C9.67 12.52 9.5 16.55 8 20.88 C4.66 24.43 0.84 26.73 -4.09 27.2 C-9.44 26.84 -12.34 24.83 -16 21 C-18.45 17.16 -18.22 13.53 -17.61 9.15 C-15.25 0.87 -7.42 -0.84 0 0 Z M-10 9 C-11.34 11.85 -11.34 11.85 -11 15 C-9.08 18.08 -9.08 18.08 -6 20 C-2.25 19.93 -0.67 19.67 2 17 C2.51 12.32 2.51 12.32 0.75 8.12 C-3.56 5.35 -6 5.65 -10 9 Z " fill="#75428E" transform="translate(29,8)"/>
<path d="M0 0 C1.45 -0.06 1.45 -0.06 2.92 -0.11 C10.03 -0.2 10.03 -0.2 13.36 2.7 C15.06 6.13 14.86 7.77 13.69 11.38 C12.51 13.04 12.51 13.04 10.69 14.38 C7.8 14.7 7.8 14.7 4.56 14.62 C3.49 14.61 2.41 14.59 1.3 14.58 C-1.31 14.38 -1.31 14.38 -2.31 13.38 C-2.35 11.71 -2.36 10.04 -2.31 8.38 C-4.95 7.72 -7.59 7.05 -10.31 6.38 C-10.69 4.72 -11.03 3.05 -11.31 1.38 C-8.94 -1 -3.18 0.05 0 0 Z " fill="#6A4E96" transform="translate(24.3125,35.625)"/>
<path d="M0 0 C4.13 1.74 6.77 4.11 9 8 C9.65 12.99 9.83 16.75 7 21 C5.35 20.34 3.7 19.68 2 19 C1.67 15.37 1.34 11.74 1 8 C-2.66 7.25 -5.42 6.76 -9 8 C-9.66 7.01 -10.32 6.02 -11 5 C-11.99 4.34 -12.98 3.68 -14 3 C-9.52 -0.47 -5.45 -0.72 0 0 Z " fill="#3F62A6" transform="translate(29,8)"/>
<path d="M0 0 C3.11 0.07 5.29 0.42 7.73 2.41 C10.57 5.48 11.91 7.21 12.38 11.44 C12.25 12.28 12.13 13.13 12 14 C10 14 10 14 8.38 12.43 C0 2.68 0 2.68 0 0 Z " fill="#086CAC" transform="translate(26,8)"/>
<path d="M0 0 C2.75 -0.31 2.75 -0.31 6 0 C8.44 2.12 8.44 2.12 10 5 C9.75 8.31 9.75 8.31 9 11 C2.4 7.58 2.4 7.58 0.56 4.94 C0 3 0 3 0 0 Z " fill="#3565A8" transform="translate(29,36)"/>
<path d="M0 0 C3.76 1.5 3.76 1.5 4.94 3.94 C6.39 6.75 8.26 7.47 11 9 C12.68 10.31 14.36 11.64 16 13 C9.73 12.68 6.42 11.84 2 7 C0.98 4.64 0.5 2.55 0 0 Z " fill="#8B2C86" transform="translate(11,22)"/>
<path d="M0 0 C1.67 -0.04 3.33 -0.04 5 0 C6 1 6 1 6.06 4.56 C6.04 5.7 6.02 6.83 6 8 C3.63 8.62 3.63 8.62 1 9 C0.34 8.34 -0.32 7.68 -1 7 C-0.62 3.38 -0.62 3.38 0 0 Z " fill="#5A5098" transform="translate(32,0)"/>
<path d="M0 0 C1.98 0 3.96 0 6 0 C7.32 2.31 8.64 4.62 10 7 C8.74 7.04 7.48 7.08 6.19 7.12 C5.48 7.15 4.77 7.17 4.04 7.2 C2 7 2 7 -1 5 C-0.67 3.35 -0.34 1.7 0 0 Z " fill="#813989" transform="translate(14,36)"/>
<path d="M0 0 C1.32 0 2.64 0 4 0 C4.34 1.67 4.34 1.67 4.69 3.38 C5.61 7.16 5.61 7.16 8.62 8.44 C9.41 8.62 10.19 8.81 11 9 C11 10.32 11 11.64 11 13 C9.06 12.19 9.06 12.19 7 11 C6.67 10.01 6.34 9.02 6 8 C3.98 7.27 3.98 7.27 2 7 C2 6.01 2 5.02 2 4 C1.05 1.85 1.05 1.85 0 0 Z " fill="#555AA2" transform="translate(25,36)"/>
<path d="M0 0 C3.26 0.35 4.02 1.02 6.25 3.56 C6.83 4.37 7.41 5.17 8 6 C5.67 6.04 3.33 6.04 1 6 C0 5 0 5 -0.06 2.44 C-0.04 1.63 -0.02 0.83 0 0 Z " fill="#7E3685" transform="translate(22,44)"/>
<path d="M0 0 C2.12 1.87 2.12 1.87 4 4 C4 4.66 4 5.32 4 6 C2.68 6.33 1.36 6.66 0 7 C-0.66 6.01 -1.32 5.02 -2 4 C-2.99 3.34 -3.98 2.68 -5 2 C-2 0 -2 0 0 0 Z " fill="#5659A0" transform="translate(20,9)"/>
<path d="M0 0 C3.15 0.34 4.61 0.58 6.81 2.94 C8 5 8 5 8 7 C4.2 5.51 2.39 3.24 0 0 Z " fill="#026FB0" transform="translate(31,36)"/>
</svg>
