<?xml version="1.0" encoding="UTF-8"?>
<!-- Generator: https://ezgif.com/webp-to-svg -->
<svg version="1.1" xmlns="http://www.w3.org/2000/svg" width="50" height="50">
<path d="M0 0 C2.75 2.38 2.75 2.38 5 5 C5.58 5.66 6.16 6.32 6.75 7 C8.23 9.37 8.5 11.25 9 14 C10.2 18.85 11.32 21.89 15.69 24.56 C17.53 25.72 17.53 25.72 19 27 C19.69 30.56 19.69 30.56 19 34 C15.89 38.09 13.02 38.7 8.06 39.5 C2.78 40.36 0.04 41.52 -4 45 C-6.56 45 -6.56 45 -9 44 C-9.59 43.34 -10.18 42.68 -10.79 42 C-13.54 39.52 -15.23 39.37 -18.88 39 C-24.02 38.26 -27.33 37.77 -31 34 C-31.81 30.56 -31.81 30.56 -31 27 C-29.3 25.93 -27.6 24.87 -25.88 23.84 C-22.75 20.77 -21.9 16.65 -20.77 12.52 C-19.33 7.35 -17.42 3.83 -13.11 0.57 C-8.13 -2.04 -5.32 -2.51 0 0 Z " fill="#01CA9A" transform="translate(31,3)"/>
<path d="M0 0 C2.75 2.38 2.75 2.38 5 5 C5.58 5.66 6.16 6.32 6.75 7 C8.23 9.37 8.5 11.25 9 14 C10.2 18.85 11.32 21.89 15.69 24.56 C17.53 25.72 17.53 25.72 19 27 C19.69 30.56 19.69 30.56 19 34 C15.89 38.09 13.02 38.7 8.06 39.5 C2.78 40.36 0.04 41.52 -4 45 C-6.56 45 -6.56 45 -9 44 C-9.59 43.34 -10.18 42.68 -10.79 42 C-13.54 39.52 -15.23 39.37 -18.88 39 C-24.02 38.26 -27.33 37.77 -31 34 C-31.81 30.56 -31.81 30.56 -31 27 C-29.3 25.93 -27.6 24.87 -25.88 23.84 C-22.75 20.77 -21.9 16.65 -20.77 12.52 C-19.33 7.35 -17.42 3.83 -13.11 0.57 C-8.13 -2.04 -5.32 -2.51 0 0 Z M-18.2 8.9 C-19.16 11.42 -19.33 13.7 -19.56 16.38 C-20.12 19.9 -20.42 21.49 -23.13 23.88 C-25.62 25.38 -25.62 25.38 -28.1 26.59 C-30.28 27.87 -30.28 27.87 -30.42 30.52 C-30.21 33.24 -30.21 33.24 -27.69 35.25 C-24.63 37.09 -21.96 37.26 -18.44 37.44 C-14.22 37.66 -13.32 37.73 -9.94 40.56 C-9.3 41.37 -8.66 42.17 -8 43 C-7.34 43 -6.68 43 -6 43 C-6.5 39.31 -7.1 37.4 -10 35 C-9.01 35 -8.02 35 -7 35 C-7 34.34 -7 33.68 -7 33 C-6.34 33 -5.68 33 -5 33 C-5 33.66 -5 34.32 -5 35 C-0.9 34.94 -0.9 34.94 3 34 C4.59 31.41 5.27 29.84 6 27 C6.21 26.33 6.43 25.66 6.65 24.97 C7.9 20.74 8.43 17.3 7 13 C4.45 11.13 3.19 11 0 11 C-1.32 11 -2.64 11 -4 11 C-4 11.66 -4 12.32 -4 13 C-3.24 13.06 -2.47 13.12 -1.69 13.19 C1 14 1 14 2.94 15.94 C4.51 20.46 3.56 24.53 2 29 C1.34 29.33 0.68 29.66 0 30 C0 30.66 0 31.32 0 32 C-0.66 32 -1.32 32 -2 32 C-1.63 31.55 -1.25 31.11 -0.87 30.64 C2.24 26.83 2.24 26.83 2.94 22.12 C2.2 19.83 2.2 19.83 0 19 C0.33 18.01 0.66 17.02 1 16 C0.4 16.1 -0.21 16.19 -0.83 16.29 C-1.63 16.4 -2.43 16.51 -3.25 16.62 C-4.43 16.8 -4.43 16.8 -5.64 16.98 C-8.32 17 -9.73 16.37 -12 15 C-12 14.34 -12 13.68 -12 13 C-10.02 13 -8.04 13 -6 13 C-4.5 9.63 -4 7.8 -4 4 C-0.38 5.73 2.88 7.48 6 10 C3.99 5.47 1.11 2.71 -3 0 C-9.49 -1.79 -14.89 3.65 -18.2 8.9 Z " fill="#0A1410" transform="translate(31,3)"/>
<path d="M0 0 C1.64 0.25 1.64 0.25 3.31 0.5 C6.88 1.07 6.88 1.07 10 1 C12 4 12 4 11.75 7.25 C10.66 12.71 9.18 17.87 7 23 C3.04 23.49 3.04 23.49 -1 24 C-1 23.34 -1 22.68 -1 22 C-1.66 22 -2.32 22 -3 22 C-3 22.66 -3 23.32 -3 24 C-7.35 22.55 -9.76 19.98 -12 16 C-12.49 12.6 -12.37 9.41 -12 6 C-9.07 5.22 -7.08 4.99 -4.06 5.5 C-0.75 6.04 1.74 5.7 5 5 C4.67 5.99 4.34 6.98 4 8 C4.66 8.33 5.32 8.66 6 9 C6.94 11.12 6.94 11.12 7 14 C5.58 16.54 3.86 18.77 2 21 C2.66 21 3.32 21 4 21 C4 20.34 4 19.68 4 19 C4.48 18.56 4.95 18.11 5.45 17.65 C8.21 14.71 8.11 10.9 8 7 C7.07 4.42 7.07 4.42 5 3 C2.4 2.2 2.4 2.2 0 2 C0 1.34 0 0.68 0 0 Z " fill="#073B2C" transform="translate(27,14)"/>
<path d="M0 0 C1.98 1.32 3.96 2.64 6 4 C5.67 5.65 5.34 7.3 5 9 C4.17 9.18 3.34 9.36 2.48 9.55 C1.39 9.8 0.31 10.05 -0.81 10.31 C-1.89 10.56 -2.97 10.8 -4.08 11.05 C-6.94 11.98 -8.15 12.69 -10 15 C-9.34 15.33 -8.68 15.66 -8 16 C-12.24 20 -12.24 20 -15.56 20 C-18 19 -18 19 -19.77 17.01 C-22.57 14.49 -24.42 14.3 -28.12 13.88 C-33.81 13.19 -33.81 13.19 -36 11 C-33.77 11.06 -31.54 11.15 -29.31 11.25 C-28.07 11.3 -26.83 11.34 -25.55 11.39 C-21.56 12.08 -19.81 13.14 -17 16 C-17 16.66 -17 17.32 -17 18 C-16.34 18 -15.68 18 -15 18 C-16.31 14.06 -17.92 11.77 -21 9 C-18.52 9.5 -18.52 9.5 -16 10 C-16 9.34 -16 8.68 -16 8 C-15.34 8 -14.68 8 -14 8 C-14 8.66 -14 9.32 -14 10 C-11.36 9.34 -8.72 8.68 -6 8 C-5.67 6.68 -5.34 5.36 -5 4 C-4.34 3.34 -3.68 2.68 -3 2 C-3 2.99 -3 3.98 -3 5 C-2.34 5 -1.68 5 -1 5 C-0.67 3.35 -0.34 1.7 0 0 Z " fill="#090A0A" transform="translate(40,28)"/>
<path d="M0 0 C2.34 0.3 4.67 0.63 7 1 C7.66 1 8.32 1 9 1 C9.81 3.12 9.81 3.12 10 6 C7.42 10.19 6.2 11.61 1.5 13.12 C-2 13 -2 13 -4.88 11.38 C-7.93 7.96 -8 5.45 -8 1 C-6.87 1.02 -5.73 1.04 -4.56 1.06 C-1.18 1.42 -1.18 1.42 0 0 Z " fill="#00D09F" transform="translate(24,22)"/>
<path d="M0 0 C3.15 0.35 4.82 0.87 7.38 2.81 C7.91 3.53 8.45 4.26 9 5 C8.67 6.32 8.34 7.64 8 9 C5.36 8.34 2.72 7.68 0 7 C0 7.66 0 8.32 0 9 C0.74 8.88 1.48 8.75 2.25 8.62 C5 9 5 9 7.44 11.38 C9.6 16.39 8.49 19.89 7 25 C6.01 25.33 5.02 25.66 4 26 C4 26.66 4 27.32 4 28 C3.34 28 2.68 28 2 28 C3.2 25.51 4.45 23.32 6 21 C5.67 20.34 5.34 19.68 5 19 C5.33 18.01 5.66 17.02 6 16 C5.01 15.67 4.02 15.34 3 15 C3.66 14.01 4.32 13.02 5 12 C4.41 12.17 3.82 12.34 3.21 12.51 C-4.64 14.53 -4.64 14.53 -9 12 C-8.67 11.01 -8.34 10.02 -8 9 C-6.02 8.67 -4.04 8.34 -2 8 C-1.34 5.36 -0.68 2.72 0 0 Z " fill="#070A09" transform="translate(27,7)"/>
<path d="M0 0 C2.97 1.98 5.94 3.96 9 6 C8.88 9.31 8.88 9.31 8 13 C3.94 16.04 0 16.3 -4.88 16.68 C-7.73 17.11 -9.71 18.3 -12 20 C-10.99 17.06 -10.1 16.06 -7.44 14.38 C-3.35 12.74 0.69 11.81 5 11 C4.73 8.56 4.73 8.56 4 6 C3.01 5.34 2.02 4.68 1 4 C0.34 5.32 -0.32 6.64 -1 8 C-1.66 8 -2.32 8 -3 8 C-2.45 4.63 -1.95 2.92 0 0 Z " fill="#059C77" transform="translate(40,25)"/>
<path d="M0 0 C1.64 0.25 1.64 0.25 3.31 0.5 C6.88 1.07 6.88 1.07 10 1 C12 4 12 4 11.75 7.25 C9.69 17.53 9.69 17.53 6.88 19.44 C6.26 19.62 5.64 19.81 5 20 C5.47 19.15 5.47 19.15 5.95 18.28 C7.63 14.64 8.05 10.99 8 7 C7.07 4.42 7.07 4.42 5 3 C2.4 2.2 2.4 2.2 0 2 C0 1.34 0 0.68 0 0 Z " fill="#069B76" transform="translate(27,14)"/>
<path d="M0 0 C3.33 -0.58 5.34 -0.44 8.18 1.45 C10.27 3.23 12.23 4.9 14 7 C14 7.99 14 8.98 14 10 C12.54 8.73 11.07 7.46 9.61 6.19 C7.89 4.79 7.89 4.79 5 4 C4.86 5.3 4.71 6.6 4.56 7.94 C4.12 11.88 4.12 11.88 3 13 C1.33 13.04 -0.33 13.04 -2 13 C-0.68 12.67 0.64 12.34 2 12 C2 8.37 2 4.74 2 1 C1.34 0.67 0.68 0.34 0 0 Z " fill="#059C77" transform="translate(22,3)"/>
<path d="M0 0 C1.2 0.19 2.39 0.37 3.62 0.56 C7.28 1.03 10.38 0.81 14 0 C13.67 1.65 13.34 3.3 13 5 C8.67 5 4.33 5 0 5 C0 3.35 0 1.7 0 0 Z " fill="#5F6E6A" transform="translate(18,19)"/>
<path d="M0 0 C1.48 0.99 1.48 0.99 3 2 C2.67 3.32 2.34 4.64 2 6 C3.32 5.67 4.64 5.34 6 5 C5.67 5.99 5.34 6.98 5 8 C4.01 8.5 4.01 8.5 3 9 C2.53 11.13 2.53 11.13 2.38 13.56 C2.3 14.39 2.23 15.22 2.15 16.07 C2.1 16.7 2.05 17.34 2 18 C1.67 18 1.34 18 1 18 C0.94 17.43 0.88 16.86 0.82 16.28 C0.41 12.52 -0.03 8.8 -0.62 5.06 C-1 2 -1 2 0 0 Z " fill="#04A17B" transform="translate(13,11)"/>
<path d="M0 0 C0.66 0 1.32 0 2 0 C2 0.99 2 1.98 2 3 C2.66 3.33 3.32 3.66 4 4 C2.68 4 1.36 4 0 4 C1.34 10.54 1.34 10.54 5 16 C1.84 14.63 1.01 14.01 -1 11 C-1.23 8.55 -1.23 8.55 -1.19 5.88 C-1.18 4.99 -1.17 4.1 -1.17 3.18 C-1 1 -1 1 0 0 Z " fill="#07120F" transform="translate(16,19)"/>
<path d="M0 0 C7.12 0.97 7.12 0.97 10 3 C10.75 5.13 10.75 5.13 11 7 C9.12 6.69 9.12 6.69 7 6 C6.34 5.01 5.68 4.02 5 3 C2.44 2.27 2.44 2.27 0 2 C0 1.34 0 0.68 0 0 Z " fill="#06644C" transform="translate(27,14)"/>
<path d="M0 0 C0.99 0 1.98 0 3 0 C4.08 2.65 5.09 5.28 6 8 C1.12 6.12 1.12 6.12 0 5 C-0.04 3.33 -0.04 1.67 0 0 Z " fill="#05926F" transform="translate(1,31)"/>
<path d="M0 0 C0.62 2.38 0.62 2.38 1 5 C0.34 5.66 -0.32 6.32 -1 7 C-3.72 5.64 -4.67 3.66 -6 1 C-3.92 0.45 -2.16 0 0 0 Z " fill="#04A67F" transform="translate(33,23)"/>
<path d="M0 0 C2.31 0.33 4.62 0.66 7 1 C7 1.66 7 2.32 7 3 C5.35 2.67 3.7 2.34 2 2 C2.21 2.62 2.41 3.24 2.62 3.88 C2.75 4.58 2.87 5.28 3 6 C2.34 6.66 1.68 7.32 1 8 C0.4 5.24 0 2.84 0 0 Z " fill="#05A37D" transform="translate(16,23)"/>
<path d="M0 0 C1.32 0.33 2.64 0.66 4 1 C3.67 1.99 3.34 2.98 3 4 C0.69 4 -1.62 4 -4 4 C-2.68 3.34 -1.36 2.68 0 2 C0 1.34 0 0.68 0 0 Z " fill="#07694F" transform="translate(31,33)"/>
</svg>
