<?xml version="1.0" encoding="UTF-8"?>
<!-- Generator: https://ezgif.com/webp-to-svg -->
<svg version="1.1" xmlns="http://www.w3.org/2000/svg" width="50" height="50">
<path d="M0 0 C0.49 0.99 0.49 0.99 1 2 C3.31 2 5.62 2 8 2 C7.8 2.68 7.59 3.35 7.38 4.05 C7.11 4.94 6.84 5.83 6.56 6.75 C6.3 7.63 6.03 8.51 5.75 9.42 C5.12 11.6 4.55 13.8 4 16 C8.62 15.67 13.24 15.34 18 15 C16.23 19.43 14.66 22.94 11 26 C8.24 26.91 6.07 27.45 3.25 27.81 C2.19 27.98 2.19 27.98 1.11 28.15 C-0.92 28.46 -2.96 28.74 -5 29 C-6.01 29.13 -7.01 29.26 -8.05 29.4 C-10.03 29.63 -12.01 29.82 -14 30 C-13.67 28.68 -13.34 27.36 -13 26 C-13.88 26.11 -14.76 26.21 -15.67 26.32 C-16.83 26.44 -17.99 26.56 -19.19 26.69 C-20.91 26.88 -20.91 26.88 -22.67 27.07 C-26.69 26.98 -29.15 25.85 -32 23 C-32.87 17.95 -32.47 13.96 -29.56 9.69 C-22.39 1.34 -10.51 0 0 0 Z " fill="#D9DFE5" transform="translate(32,10)"/>
<path d="M0 0 C0.33 0.66 0.66 1.32 1 2 C0.67 2.99 0.34 3.98 0 5 C-0.74 5.04 -1.47 5.07 -2.23 5.11 C-9.73 5.38 -9.73 5.38 -16 9 C-16 10.65 -16 12.3 -16 14 C-12.37 14 -8.74 14 -5 14 C-5 13.01 -5 12.02 -5 11 C-7.64 11.33 -10.28 11.66 -13 12 C-11.86 10.05 -11.86 10.05 -10 8 C-7.3 7.39 -7.3 7.39 -4.31 7.25 C-2.82 7.16 -2.82 7.16 -1.3 7.08 C-0.16 7.04 -0.16 7.04 1 7 C0.77 8.46 0.52 9.92 0.25 11.38 C0.11 12.19 -0.03 13 -0.17 13.84 C-1 16 -1 16 -2.88 17.25 C-8.45 19.22 -15.12 19.71 -21 19 C-21.66 18.34 -22.32 17.68 -23 17 C-22.91 12.16 -21.92 8.88 -18.57 5.29 C-13.32 0.99 -6.54 0.44 0 0 Z " fill="#171B2B" transform="translate(26,14)"/>
<path d="M0 0 C0.49 0.99 0.49 0.99 1 2 C3.31 2 5.62 2 8 2 C7.8 2.68 7.59 3.35 7.38 4.05 C7.11 4.94 6.84 5.83 6.56 6.75 C6.3 7.63 6.03 8.51 5.75 9.42 C5.12 11.6 4.55 13.8 4 16 C8.62 15.67 13.24 15.34 18 15 C16.23 19.43 14.66 22.94 11 26 C8.24 26.91 6.07 27.45 3.25 27.81 C2.19 27.98 2.19 27.98 1.11 28.15 C-0.92 28.46 -2.96 28.74 -5 29 C-6.01 29.13 -7.01 29.26 -8.05 29.4 C-10.03 29.63 -12.01 29.82 -14 30 C-13.67 28.68 -13.34 27.36 -13 26 C-13.88 26.11 -14.76 26.21 -15.67 26.32 C-16.83 26.44 -17.99 26.56 -19.19 26.69 C-20.91 26.88 -20.91 26.88 -22.67 27.07 C-26.69 26.98 -29.15 25.85 -32 23 C-32.87 17.95 -32.47 13.96 -29.56 9.69 C-22.39 1.34 -10.51 0 0 0 Z M-26.68 9.57 C-29.7 12.67 -30.91 14.37 -31.56 18.75 C-30.97 22.2 -30.69 22.96 -28 25 C-25.99 25.4 -25.99 25.4 -23.81 25.25 C-23.03 25.22 -22.24 25.2 -21.43 25.17 C-17.92 24.92 -14.48 24.51 -11 24 C-11 24.99 -11 25.98 -11 27 C0.67 27.65 0.67 27.65 11.03 23.34 C13.77 20.53 13.77 20.53 15 17 C10.17 16.92 5.76 17.05 1 18 C1.43 16.86 1.43 16.86 1.88 15.7 C2.25 14.71 2.62 13.71 3 12.69 C3.37 11.7 3.74 10.72 4.12 9.7 C5.15 7 5.15 7 5 4 C2.69 4 0.38 4 -2 4 C-2 3.34 -2 2.68 -2 2 C-11.42 2 -19.68 3.02 -26.68 9.57 Z " fill="#2F97D3" transform="translate(32,10)"/>
<path d="M0 0 C1.65 0 3.3 0 5 0 C3.68 4.62 2.36 9.24 1 14 C6.94 13.5 6.94 13.5 13 13 C12.34 14.32 11.68 15.64 11 17 C8.36 17.83 8.36 17.83 5.19 18.25 C4.15 18.4 3.11 18.55 2.04 18.7 C-0.67 18.97 -3.28 19.06 -6 19 C-6 18.34 -6 17.68 -6 17 C-5.34 17 -4.68 17 -4 17 C-2.99 12.68 -2 8.4 -1.44 4 C-1 1 -1 1 0 0 Z " fill="#1B1F2C" transform="translate(30,16)"/>
<path d="M0 0 C0.33 0.66 0.66 1.32 1 2 C0.67 2.99 0.34 3.98 0 5 C-1.65 5 -3.3 5 -5 5 C-5.33 4.34 -5.66 3.68 -6 3 C-6.99 2.34 -7.98 1.68 -9 1 C-4.55 0.5 -4.55 0.5 0 0 Z " fill="#2D2F3A" transform="translate(26,14)"/>
<path d="M0 0 C0.66 0 1.32 0 2 0 C2.19 4.82 1.76 8.5 0 13 C-1.65 12.67 -3.3 12.34 -5 12 C-4.01 11.34 -3.02 10.68 -2 10 C-1.2 7.85 -1.2 7.85 -0.81 5.44 C-0.65 4.63 -0.5 3.83 -0.33 3 C0.03 1.17 0.03 1.17 0 0 Z " fill="#C2C2C4" transform="translate(26,20)"/>
<path d="M0 0 C1.96 -0.05 3.92 -0.09 5.88 -0.12 C7.51 -0.16 7.51 -0.16 9.18 -0.2 C12 0 12 0 14 2 C12.23 2.2 10.46 2.38 8.69 2.56 C7.7 2.67 6.72 2.77 5.7 2.88 C3 3 3 3 0 2 C0 1.34 0 0.68 0 0 Z " fill="#BEC7D0" transform="translate(23,34)"/>
<path d="M0 0 C2.97 0 5.94 0 9 0 C9 0.99 9 1.98 9 3 C5.33 4.18 1.83 4.07 -2 4 C-0.68 3.67 0.64 3.34 2 3 C2 2.34 2 1.68 2 1 C1.34 0.67 0.68 0.34 0 0 Z " fill="#080A15" transform="translate(9,29)"/>
<path d="M0 0 C1.19 1.56 1.19 1.56 2 4 C0.62 7.75 0.62 7.75 -1 11 C-0.34 11.33 0.32 11.66 1 12 C-0.32 11.67 -1.64 11.34 -3 11 C-2.33 7.19 -1.27 3.65 0 0 Z " fill="#C1CDDA" transform="translate(34,17)"/>
</svg>
