<?xml version="1.0" encoding="UTF-8"?>
<!-- Generator: https://ezgif.com/webp-to-svg -->
<svg version="1.1" xmlns="http://www.w3.org/2000/svg" width="50" height="50">
<path d="M0 0 C0.99 0 1.98 0 3 0 C3.33 1.32 3.66 2.64 4 4 C5.32 3.67 6.64 3.34 8 3 C8.49 3.99 8.49 3.99 9 5 C10.32 4.67 11.64 4.34 13 4 C12.67 5.65 12.34 7.3 12 9 C12.93 9.41 13.86 9.82 14.81 10.25 C17.89 11.94 19.26 13.01 21 16 C21 16.66 21 17.32 21 18 C21.99 18.33 22.98 18.66 24 19 C24.24 20.64 24.48 22.28 24.7 23.93 C24.9 25.32 25.14 26.7 25.43 28.07 C26.14 31.88 26.31 33.53 24.12 36.81 C23.42 37.53 22.72 38.26 22 39 C21.67 39.99 21.34 40.98 21 42 C20.34 42.31 19.68 42.62 19 42.94 C16.79 43.82 16.79 43.82 16.25 46.12 C16.17 46.74 16.09 47.36 16 48 C14.74 48.04 13.48 48.08 12.19 48.12 C11.48 48.15 10.77 48.17 10.04 48.2 C8 48 8 48 5 46 C4.67 45.01 4.34 44.02 4 43 C3.38 43.19 2.76 43.37 2.12 43.56 C0 44 0 44 -2 43 C-2.19 43.62 -2.37 44.24 -2.56 44.88 C-4 47 -4 47 -7.38 48.38 C-11 49 -11 49 -13.44 48.12 C-13.95 47.75 -14.47 47.38 -15 47 C-15 45.68 -15 44.36 -15 43 C-15.93 42.91 -15.93 42.91 -16.88 42.81 C-19 42 -19 42 -20.06 39.62 C-20.37 38.76 -20.68 37.89 -21 37 C-21.78 36.33 -21.78 36.33 -22.57 35.64 C-24 34 -24 34 -24.11 31.66 C-23.99 30.8 -23.87 29.95 -23.75 29.06 C-23.64 28.21 -23.53 27.35 -23.42 26.47 C-22.57 21.45 -21.7 19.59 -18 16 C-17.53 15.13 -17.05 14.27 -16.56 13.38 C-14.69 10.53 -13.21 9.96 -10 9 C-10 7.35 -10 5.7 -10 4 C-7.67 3.62 -5.34 3.29 -3 3 C-2.67 3.33 -2.34 3.66 -2 4 C-1.34 2.68 -0.68 1.36 0 0 Z " fill="#6C6C6C" transform="translate(24,1)"/>
<path d="M0 0 C0.99 0 1.98 0 3 0 C3.33 1.32 3.66 2.64 4 4 C5.32 3.67 6.64 3.34 8 3 C8.49 3.99 8.49 3.99 9 5 C10.32 4.67 11.64 4.34 13 4 C12.62 5.94 12.62 5.94 12 8 C11.34 8.33 10.68 8.66 10 9 C9.35 11.02 9.35 11.02 9 13 C9.66 13.33 10.32 13.66 11 14 C11 13.01 11 12.02 11 11 C13.47 11.5 13.47 11.5 16 12 C15.72 12.87 15.72 12.87 15.44 13.75 C14.96 16.21 15.24 17.64 16 20 C14.02 19.34 12.04 18.68 10 18 C10.66 18.99 11.32 19.98 12 21 C11.62 23.19 11.62 23.19 11 25 C11 24.01 11 23.02 11 22 C9.04 21.95 7.08 21.91 5.12 21.88 C4.03 21.85 2.94 21.83 1.82 21.8 C-1.14 21.7 -1.14 21.7 -3 24 C-3 23.01 -3 22.02 -3 21 C-4.97 21.03 -4.97 21.03 -7 22 C-8.3 25 -8.3 25 -9 28 C-10.65 26.68 -12.3 25.36 -14 24 C-14.33 26.64 -14.66 29.28 -15 32 C-15.99 31.01 -16.98 30.02 -18 29 C-17.69 28.13 -17.38 27.27 -17.06 26.38 C-16.08 23.24 -15.46 20.25 -15 17 C-15.45 17.5 -15.91 17.99 -16.38 18.5 C-18 20 -18 20 -20 20 C-20.06 20.78 -20.12 21.56 -20.18 22.37 C-20.27 23.38 -20.35 24.39 -20.44 25.44 C-20.52 26.45 -20.6 27.46 -20.68 28.5 C-21 31 -21 31 -22 32 C-21.01 32.33 -20.02 32.66 -19 33 C-19 33.99 -19 34.98 -19 36 C-17.35 36.66 -15.7 37.32 -14 38 C-14.33 38.66 -14.66 39.32 -15 40 C-9.42 40.12 -9.42 40.12 -4 39 C-6.31 41.5 -6.31 41.5 -9 44 C-9.99 44 -10.98 44 -12 44 C-12.33 44.99 -12.66 45.98 -13 47 C-10.36 46.34 -7.72 45.68 -5 45 C-5 44.01 -5 43.02 -5 42 C-3.02 41.51 -3.02 41.51 -1 41 C-0.67 41.66 -0.34 42.32 0 43 C-0.66 43 -1.32 43 -2 43 C-2.19 43.62 -2.37 44.24 -2.56 44.88 C-4 47 -4 47 -7.38 48.38 C-11 49 -11 49 -13.44 48.12 C-13.95 47.75 -14.47 47.38 -15 47 C-15 45.68 -15 44.36 -15 43 C-15.93 42.91 -15.93 42.91 -16.88 42.81 C-19 42 -19 42 -20.06 39.62 C-20.37 38.76 -20.68 37.89 -21 37 C-21.78 36.33 -21.78 36.33 -22.57 35.64 C-24 34 -24 34 -24.11 31.66 C-23.99 30.8 -23.87 29.95 -23.75 29.06 C-23.64 28.21 -23.53 27.35 -23.42 26.47 C-22.57 21.45 -21.7 19.59 -18 16 C-17.53 15.13 -17.05 14.27 -16.56 13.38 C-14.69 10.53 -13.21 9.96 -10 9 C-10 7.35 -10 5.7 -10 4 C-7.67 3.62 -5.34 3.29 -3 3 C-2.67 3.33 -2.34 3.66 -2 4 C-1.34 2.68 -0.68 1.36 0 0 Z " fill="#9C9C9C" transform="translate(24,1)"/>
<path d="M0 0 C0.66 0 1.32 0 2 0 C2.05 1.44 2.09 2.87 2.12 4.31 C2.15 5.11 2.17 5.91 2.2 6.74 C2 9 2 9 0 12 C0.33 12.33 0.66 12.66 1 13 C1.66 11.02 2.32 9.04 3 7 C4.32 7.66 5.64 8.32 7 9 C7.99 7.35 8.98 5.7 10 4 C10.72 4.19 11.44 4.37 12.19 4.56 C15.19 5.03 17.06 4.65 20 4 C25.56 3.78 25.56 3.78 28 5 C27.25 12.75 27.25 12.75 25 15 C23.04 15.03 21.07 15.06 19.11 15 C16.34 15 13.71 15.46 11 16 C12.58 17.58 14.38 17.35 16.56 17.56 C17.39 17.65 18.22 17.73 19.07 17.82 C20.02 17.91 20.02 17.91 21 18 C21 18.66 21 19.32 21 20 C19.35 20.33 17.7 20.66 16 21 C18.97 20.67 21.94 20.34 25 20 C22.75 22.5 22.75 22.5 20 25 C18.68 25 17.36 25 16 25 C14.66 25.3 13.32 25.62 12 26 C12 26.99 12 27.98 12 29 C9.29 30.35 6.99 30.07 4 30 C4.33 28.68 4.66 27.36 5 26 C5.6 25.88 6.2 25.75 6.81 25.62 C9.26 25.05 9.26 25.05 12 23 C10.76 23.19 9.52 23.37 8.25 23.56 C5.24 23.95 2.9 24.09 0 23 C0.66 22.67 1.32 22.34 2 22 C0.35 21.01 -1.3 20.02 -3 19 C-2.67 18.01 -2.34 17.02 -2 16 C-3.32 15.67 -4.64 15.34 -6 15 C-5.67 14.67 -5.34 14.34 -5 14 C-4.61 12.15 -4.26 10.3 -3.94 8.44 C-3.76 7.43 -3.58 6.41 -3.4 5.37 C-3.2 4.2 -3.2 4.2 -3 3 C-2.34 3 -1.68 3 -1 3 C-0.67 2.01 -0.34 1.02 0 0 Z " fill="#AEAEAE" transform="translate(7,18)"/>
<path d="M0 0 C1.11 0.25 1.11 0.25 2.25 0.5 C5.25 1.04 7.05 0.65 10 0 C15.56 -0.22 15.56 -0.22 18 1 C17.25 8.75 17.25 8.75 15 11 C11.74 11.2 11.74 11.2 7.88 11.12 C5.95 11.1 5.95 11.1 3.99 11.07 C2.51 11.04 2.51 11.04 1 11 C0.67 10.34 0.34 9.68 0 9 C-0.66 9 -1.32 9 -2 9 C-1.12 1.12 -1.12 1.12 0 0 Z " fill="#BEBEBE" transform="translate(17,22)"/>
<path d="M0 0 C0.33 0 0.66 0 1 0 C1.06 0.61 1.12 1.23 1.18 1.86 C1.27 2.67 1.35 3.48 1.44 4.31 C1.52 5.11 1.6 5.91 1.68 6.74 C1.95 9.16 1.95 9.16 3 12 C2.01 12.33 1.02 12.66 0 13 C0 13.99 0 14.98 0 16 C-1.65 16.66 -3.3 17.32 -5 18 C-4.34 18.66 -3.68 19.32 -3 20 C-5.97 20 -8.94 20 -12 20 C-12 19.01 -12 18.02 -12 17 C-11.17 16.3 -10.35 15.6 -9.5 14.88 C-6.36 11.27 -6.56 9.39 -6.82 4.79 C-6.88 4.2 -6.94 3.61 -7 3 C-4.69 3 -2.38 3 0 3 C0 2.01 0 1.02 0 0 Z " fill="#ACACAC" transform="translate(46,22)"/>
<path d="M0 0 C0.99 0 1.98 0 3 0 C3.33 1.32 3.66 2.64 4 4 C5.32 3.67 6.64 3.34 8 3 C8.33 3.66 8.66 4.32 9 5 C10.32 4.67 11.64 4.34 13 4 C12.67 5.32 12.34 6.64 12 8 C9.56 7.62 9.56 7.62 7 7 C6.67 6.34 6.34 5.68 6 5 C5.34 6.98 4.68 8.96 4 11 C4.66 11.33 5.32 11.66 6 12 C5.01 12 4.02 12 3 12 C2.34 10.68 1.68 9.36 1 8 C0.01 9.65 -0.98 11.3 -2 13 C-2.33 12.01 -2.66 11.02 -3 10 C-3.99 10 -4.98 10 -6 10 C-5.34 11.32 -4.68 12.64 -4 14 C-5.98 14 -7.96 14 -10 14 C-9.67 13.34 -9.34 12.68 -9 12 C-9.99 11.34 -10.98 10.68 -12 10 C-11.34 9.34 -10.68 8.68 -10 8 C-10 6.68 -10 5.36 -10 4 C-7.67 3.62 -5.34 3.29 -3 3 C-2.67 3.33 -2.34 3.66 -2 4 C-1.34 2.68 -0.68 1.36 0 0 Z " fill="#171717" transform="translate(24,1)"/>
<path d="M0 0 C0.99 0.33 1.98 0.66 3 1 C2.01 1.66 1.02 2.32 0 3 C-1.06 4.97 -2.07 6.97 -3 9 C-3.66 9 -4.32 9 -5 9 C-5.06 9.78 -5.12 10.56 -5.18 11.37 C-5.27 12.38 -5.35 13.39 -5.44 14.44 C-5.52 15.45 -5.6 16.46 -5.68 17.5 C-6 20 -6 20 -7 21 C-6.01 21.33 -5.02 21.66 -4 22 C-4 22.99 -4 23.98 -4 25 C-1.52 25.99 -1.52 25.99 1 27 C0.67 27.66 0.34 28.32 0 29 C5.58 29.12 5.58 29.12 11 28 C8.69 30.5 8.69 30.5 6 33 C5.01 33 4.02 33 3 33 C2.67 33.99 2.34 34.98 2 36 C4.64 35.34 7.28 34.68 10 34 C10 33.01 10 32.02 10 31 C11.32 30.67 12.64 30.34 14 30 C14.33 30.66 14.66 31.32 15 32 C14.34 32 13.68 32 13 32 C12.81 32.62 12.63 33.24 12.44 33.88 C11 36 11 36 7.62 37.38 C4 38 4 38 1.56 37.12 C1.05 36.75 0.53 36.38 0 36 C0 34.68 0 33.36 0 32 C-0.93 31.91 -0.93 31.91 -1.88 31.81 C-4 31 -4 31 -5.06 28.62 C-5.37 27.76 -5.68 26.89 -6 26 C-6.78 25.33 -6.78 25.33 -7.57 24.64 C-9 23 -9 23 -9.11 20.66 C-8.99 19.8 -8.87 18.95 -8.75 18.06 C-8.64 17.21 -8.53 16.35 -8.42 15.47 C-7.57 10.45 -6.7 8.59 -3 5 C-1.96 3.36 -0.94 1.7 0 0 Z " fill="#111111" transform="translate(9,12)"/>
<path d="M0 0 C8.84 3.95 8.84 3.95 11 8 C11 8.66 11 9.32 11 10 C11.99 10.33 12.98 10.66 14 11 C14.63 15.04 15.12 18.91 15 23 C14.34 22.67 13.68 22.34 13 22 C12.38 18.94 12.38 18.94 12 16 C11.07 16.21 10.14 16.41 9.19 16.62 C6 17 6 17 3 15 C3 14.01 3 13.02 3 12 C3.99 12 4.98 12 6 12 C5.65 11.4 5.3 10.8 4.94 10.19 C4 8 4 8 5 5 C3.85 3.7 3.85 3.7 1 3 C1 3.99 1 4.98 1 6 C-0.32 5.67 -1.64 5.34 -3 5 C-2.34 5 -1.68 5 -1 5 C-0.67 3.35 -0.34 1.7 0 0 Z " fill="#8C8C8C" transform="translate(34,9)"/>
<path d="M0 0 C4.75 0.75 4.75 0.75 7 3 C6.34 3 5.68 3 5 3 C5.35 3.76 5.7 4.53 6.06 5.31 C7 8 7 8 6 11 C5.34 11 4.68 11 4 11 C3.9 11.62 3.79 12.24 3.69 12.88 C3 15 3 15 0 17 C0.33 17.66 0.66 18.32 1 19 C-2.28 21.49 -3.61 22.03 -7.81 21.69 C-9.39 21.35 -9.39 21.35 -11 21 C-11 20.67 -11 20.34 -11 20 C-8.69 20 -6.38 20 -4 20 C-4 19.34 -4 18.68 -4 18 C-4.94 18.05 -4.94 18.05 -5.9 18.11 C-6.72 18.13 -7.53 18.16 -8.38 18.19 C-9.19 18.22 -10 18.26 -10.84 18.29 C-11.55 18.2 -12.26 18.1 -13 18 C-13.66 17.01 -14.32 16.02 -15 15 C-9.93 14.29 -5.12 13.89 0 14 C1.99 10.66 3.04 8.68 2.81 4.75 C2.2 1.89 2.2 1.89 0 0 Z " fill="#090909" transform="translate(32,18)"/>
<path d="M0 0 C0.66 0 1.32 0 2 0 C2.05 1.44 2.09 2.87 2.12 4.31 C2.15 5.11 2.17 5.91 2.2 6.74 C2 9 2 9 0 12 C0.33 12.33 0.66 12.66 1 13 C1.66 11.02 2.32 9.04 3 7 C3.66 7 4.32 7 5 7 C4.53 11.06 4.12 14.47 2 18 C-0.64 17.34 -3.28 16.68 -6 16 C-5.01 11.71 -4.02 7.42 -3 3 C-2.34 3 -1.68 3 -1 3 C-0.67 2.01 -0.34 1.02 0 0 Z " fill="#C0C0C0" transform="translate(7,18)"/>
<path d="M0 0 C1.14 0.25 1.14 0.25 2.31 0.5 C5.01 1 6.44 0.85 9 0 C8.49 3.72 7.88 6.73 6 10 C5.34 9.67 4.68 9.34 4 9 C3.01 9.66 2.02 10.32 1 11 C0.67 10.34 0.34 9.68 0 9 C-0.66 9 -1.32 9 -2 9 C-1.12 1.12 -1.12 1.12 0 0 Z " fill="#D8D8D8" transform="translate(17,22)"/>
<path d="M0 0 C1.65 0 3.3 0 5 0 C5 0.33 5 0.66 5 1 C7.31 1.66 9.62 2.32 12 3 C12 3.33 12 3.66 12 4 C10.84 4.07 10.84 4.07 9.66 4.15 C8.66 4.22 7.66 4.3 6.62 4.38 C5.63 4.44 4.63 4.51 3.6 4.59 C0.84 4.76 0.84 4.76 -1 7 C-1 6.01 -1 5.02 -1 4 C-2.97 4.03 -2.97 4.03 -5 5 C-6.3 8 -6.3 8 -7 11 C-8.65 9.35 -10.3 7.7 -12 6 C-11.34 5.67 -10.68 5.34 -10 5 C-9.67 4.01 -9.34 3.02 -9 2 C-8.34 2.33 -7.68 2.66 -7 3 C-4.66 3 -2.3 2.39 0 2 C0 1.34 0 0.68 0 0 Z " fill="#0E0E0E" transform="translate(22,18)"/>
<path d="M0 0 C0.33 0 0.66 0 1 0 C1 2.64 1 5.28 1 8 C1.66 8.33 2.32 8.66 3 9 C1.02 9.66 -0.96 10.32 -3 11 C-2.67 11.99 -2.34 12.98 -2 14 C-2.99 14.5 -2.99 14.5 -4 15 C-3.01 15.33 -2.02 15.66 -1 16 C-1.33 16.99 -1.66 17.98 -2 19 C-3.98 17.68 -5.96 16.36 -8 15 C-7.81 14.38 -7.63 13.76 -7.44 13.12 C-6.76 10.96 -6.76 10.96 -8 9 C-7.2 8.75 -6.39 8.51 -5.56 8.25 C-2.83 7.28 -2.83 7.28 -2.19 4.88 C-2.13 4.26 -2.06 3.64 -2 3 C-1.34 3 -0.68 3 0 3 C0 2.01 0 1.02 0 0 Z " fill="#535353" transform="translate(38,26)"/>
<path d="M0 0 C8.84 3.95 8.84 3.95 11 8 C11 8.66 11 9.32 11 10 C11.99 10.33 12.98 10.66 14 11 C14.63 15.04 15.12 18.91 15 23 C14.34 22.67 13.68 22.34 13 22 C13 18.7 13 15.4 13 12 C11.68 11.34 10.36 10.68 9 10 C8.53 9.18 8.05 8.35 7.56 7.5 C5.7 4.52 4.3 3.98 1 3 C1 3.99 1 4.98 1 6 C-0.32 5.67 -1.64 5.34 -3 5 C-2.34 5 -1.68 5 -1 5 C-0.67 3.35 -0.34 1.7 0 0 Z " fill="#171717" transform="translate(34,9)"/>
<path d="M0 0 C1.5 1.38 1.5 1.38 3 3 C3 3.66 3 4.32 3 5 C3.66 5 4.32 5 5 5 C5.33 4.34 5.66 3.68 6 3 C6.25 8.62 6.25 8.62 4 12 C4.66 12.33 5.32 12.66 6 13 C5.01 13.33 4.02 13.66 3 14 C2.34 13.34 1.68 12.68 1 12 C1 11.34 1 10.68 1 10 C0.34 9.34 -0.32 8.68 -1 8 C-0.97 5.27 -0.44 2.7 0 0 Z " fill="#686868" transform="translate(12,26)"/>
<path d="M0 0 C0.33 0.99 0.66 1.98 1 3 C-0.28 4.71 -1.62 6.37 -3 8 C-3.33 8.99 -3.66 9.98 -4 11 C-5.33 11.67 -6.67 12.33 -8 13 C-8.33 13.99 -8.66 14.98 -9 16 C-9.66 14.35 -10.32 12.7 -11 11 C-10.01 10.34 -9.02 9.68 -8 9 C-8.33 8.34 -8.66 7.68 -9 7 C-7.02 6.34 -5.04 5.68 -3 5 C-3 4.01 -3 3.02 -3 2 C-2.01 2 -1.02 2 0 2 C0 1.34 0 0.68 0 0 Z " fill="#242424" transform="translate(49,32)"/>
<path d="M0 0 C0.99 0 1.98 0 3 0 C3.33 1.32 3.66 2.64 4 4 C5.32 3.67 6.64 3.34 8 3 C8.33 3.66 8.66 4.32 9 5 C10.32 4.67 11.64 4.34 13 4 C12.67 5.32 12.34 6.64 12 8 C9.56 7.62 9.56 7.62 7 7 C6.67 6.34 6.34 5.68 6 5 C5.34 6.98 4.68 8.96 4 11 C4.66 11.33 5.32 11.66 6 12 C5.01 12 4.02 12 3 12 C1.82 8.33 1.93 4.83 2 1 C1.34 0.67 0.68 0.34 0 0 Z " fill="#0B0B0B" transform="translate(24,1)"/>
<path d="M0 0 C1.98 0.99 3.96 1.98 6 3 C6 3.66 6 4.32 6 5 C6.99 5.33 7.98 5.66 9 6 C9.33 7.98 9.66 9.96 10 12 C9.67 11.01 9.34 10.02 9 9 C8.34 8.67 7.68 8.34 7 8 C7 7.67 7 7.34 7 7 C5.89 6.92 4.77 6.84 3.62 6.75 C0 6 0 6 -1.44 3.94 C-1.72 2.98 -1.72 2.98 -2 2 C-1.34 1.34 -0.68 0.68 0 0 Z " fill="#6C6C6C" transform="translate(26,14)"/>
<path d="M0 0 C0.99 0 1.98 0 3 0 C2.53 4.78 1.76 8.04 -1 12 C-2.43 9.65 -3.09 8.52 -2.62 5.75 C-2.42 5.17 -2.21 4.59 -2 4 C-1.34 4.33 -0.68 4.66 0 5 C0 3.35 0 1.7 0 0 Z " fill="#525252" transform="translate(23,2)"/>
<path d="M0 0 C1.65 0.33 3.3 0.66 5 1 C4.67 1.66 4.34 2.32 4 3 C3.34 3 2.68 3 2 3 C2.39 3.7 2.78 4.4 3.19 5.12 C4 8 4 8 2.69 11.06 C1.85 12.52 1.85 12.52 1 14 C0.31 16.24 0.31 16.24 0 18 C-1.12 16.31 -1.12 16.31 -2 14 C-1.33 12.33 -0.67 10.67 0 9 C0.18 5.99 0.12 3.01 0 0 Z " fill="#888888" transform="translate(8,15)"/>
<path d="M0 0 C0 3 0 3 -1 6 C-1.99 6 -2.98 6 -4 6 C-4.33 6.99 -4.66 7.98 -5 9 C-5.33 7.68 -5.66 6.36 -6 5 C-5.34 4.67 -4.68 4.34 -4 4 C-4.99 4 -5.98 4 -7 4 C-6.62 2.06 -6.62 2.06 -6 0 C-3.51 -1.25 -2.59 -0.78 0 0 Z " fill="#C2C2C2" transform="translate(16,13)"/>
<path d="M0 0 C0.33 0 0.66 0 1 0 C1 1.98 1 3.96 1 6 C-2.88 7 -2.88 7 -4 7 C-4.33 7.99 -4.66 8.98 -5 10 C-7 8 -7 8 -7.12 5.38 C-7.08 4.59 -7.04 3.81 -7 3 C-4.69 3 -2.38 3 0 3 C0 2.01 0 1.02 0 0 Z " fill="#CCCCCC" transform="translate(46,22)"/>
<path d="M0 0 C0.99 0.66 1.98 1.32 3 2 C2.67 2.33 2.34 2.66 2 3 C2.66 3 3.32 3 4 3 C4 3.66 4 4.32 4 5 C4.66 5.33 5.32 5.66 6 6 C3.36 6.99 0.72 7.98 -2 9 C-2.67 7.67 -3.33 6.33 -4 5 C-3.01 5 -2.02 5 -1 5 C-0.67 3.35 -0.34 1.7 0 0 Z " fill="#6A6A6A" transform="translate(16,14)"/>
<path d="M0 0 C0 0.66 0 1.32 0 2 C0.66 2.33 1.32 2.66 2 3 C-1.44 5.29 -2.99 5.18 -7 5 C-6.67 3.68 -6.34 2.36 -6 1 C-3.92 0.45 -2.16 0 0 0 Z " fill="#C8C8C8" transform="translate(18,43)"/>
<path d="M0 0 C2.48 0.49 2.48 0.49 5 1 C4.81 1.58 4.63 2.16 4.44 2.75 C3.96 5.21 4.24 6.64 5 9 C2.52 8.01 2.52 8.01 0 7 C0.28 6.1 0.28 6.1 0.56 5.19 C1.22 2.84 1.22 2.84 0 0 Z " fill="#CBCBCB" transform="translate(35,12)"/>
<path d="M0 0 C3.63 0.33 7.26 0.66 11 1 C11 1.66 11 2.32 11 3 C2.43 4.29 2.43 4.29 -1 3 C-0.67 2.01 -0.34 1.02 0 0 Z " fill="#9B9B9B" transform="translate(17,35)"/>
<path d="M0 0 C0.66 0 1.32 0 2 0 C2 2.97 2 5.94 2 9 C-0.48 8.01 -0.48 8.01 -3 7 C-3 5.68 -3 4.36 -3 3 C-2.34 3 -1.68 3 -1 3 C-0.67 2.01 -0.34 1.02 0 0 Z " fill="#CDCDCD" transform="translate(7,18)"/>
<path d="M0 0 C-2.97 2.48 -2.97 2.48 -6 5 C-9.88 3.25 -9.88 3.25 -11 1 C-9.54 0.64 -8.08 0.29 -6.62 -0.06 C-5.41 -0.36 -5.41 -0.36 -4.16 -0.66 C-2 -1 -2 -1 0 0 Z " fill="#D4D4D4" transform="translate(32,39)"/>
<path d="M0 0 C1.32 0 2.64 0 4 0 C4 0.99 4 1.98 4 3 C6.48 3.99 6.48 3.99 9 5 C8.01 5.99 7.02 6.98 6 8 C1.12 3.38 1.12 3.38 0 0 Z " fill="#2A2A2A" transform="translate(1,34)"/>
<path d="M0 0 C3.88 1.75 3.88 1.75 5 4 C5.66 4.33 6.32 4.66 7 5 C4.03 6.98 4.03 6.98 1 9 C0.34 8.67 -0.32 8.34 -1 8 C-0.01 7.01 0.98 6.02 2 5 C1.34 3.35 0.68 1.7 0 0 Z " fill="#B8B8B8" transform="translate(17,9)"/>
<path d="M0 0 C1.32 0.66 2.64 1.32 4 2 C0.72 4.49 -0.61 5.03 -4.81 4.69 C-6.39 4.35 -6.39 4.35 -8 4 C-8 3.67 -8 3.34 -8 3 C-5.69 3 -3.38 3 -1 3 C-0.67 2.01 -0.34 1.02 0 0 Z " fill="#2D2D2D" transform="translate(29,35)"/>
<path d="M0 0 C0.99 0.66 1.98 1.32 3 2 C3.19 4.62 3.19 4.62 3 7 C2.01 6.34 1.02 5.68 0 5 C-0.33 5.66 -0.66 6.32 -1 7 C-1.66 7 -2.32 7 -3 7 C-1.12 1.12 -1.12 1.12 0 0 Z " fill="#ADADAD" transform="translate(31,24)"/>
<path d="M0 0 C0.66 0.33 1.32 0.66 2 1 C1.67 1.99 1.34 2.98 1 4 C-0.33 4.67 -1.67 5.33 -3 6 C-3.33 6.99 -3.66 7.98 -4 9 C-4.66 7.35 -5.32 5.7 -6 4 C-5 3 -5 3 -2.44 2.94 C-1.23 2.97 -1.23 2.97 0 3 C0 2.01 0 1.02 0 0 Z " fill="#000000" transform="translate(44,39)"/>
<path d="M0 0 C0.66 0.33 1.32 0.66 2 1 C1.34 2.65 0.68 4.3 0 6 C-1.98 6 -3.96 6 -6 6 C-4.62 4.5 -4.62 4.5 -3 3 C-2.34 3 -1.68 3 -1 3 C-0.67 2.01 -0.34 1.02 0 0 Z " fill="#8E8E8E" transform="translate(36,30)"/>
<path d="M0 0 C0.99 0.33 1.98 0.66 3 1 C0.69 3.06 0.69 3.06 -2 5 C-2.99 4.67 -3.98 4.34 -5 4 C-5.33 3.01 -5.66 2.02 -6 1 C-4.79 1.03 -4.79 1.03 -3.56 1.06 C-1.07 1.3 -1.07 1.3 0 0 Z " fill="#2F2F2F" transform="translate(17,40)"/>
<path d="M0 0 C0.33 0.99 0.66 1.98 1 3 C1.66 3.33 2.32 3.66 3 4 C1.62 5.5 1.62 5.5 0 7 C-0.66 7 -1.32 7 -2 7 C-1.12 1.12 -1.12 1.12 0 0 Z " fill="#5C5C5C" transform="translate(30,5)"/>
<path d="M0 0 C2.01 0.29 4.01 0.62 6 1 C5.67 2.32 5.34 3.64 5 5 C2.53 3.85 0.95 2.95 -1 1 C-0.67 0.67 -0.34 0.34 0 0 Z " fill="#D4D4D4" transform="translate(29,22)"/>
<path d="M0 0 C1.98 0 3.96 0 6 0 C6.66 1.32 7.32 2.64 8 4 C6.02 4 4.04 4 2 4 C2.33 3.34 2.66 2.68 3 2 C2.01 1.34 1.02 0.68 0 0 Z " fill="#2D2D2D" transform="translate(12,11)"/>
</svg>
