<?xml version="1.0" encoding="UTF-8"?>
<!-- Generator: https://ezgif.com/webp-to-svg -->
<svg version="1.1" xmlns="http://www.w3.org/2000/svg" width="50" height="50">
<path d="M0 0 C6.25 1.82 11.76 4.89 17.46 7.99 C18.61 8.59 18.61 8.59 19.79 9.2 C20.47 9.57 21.16 9.94 21.88 10.32 C25.4 11.45 28 10.45 31.28 8.97 C32.42 8.35 32.42 8.35 33.57 7.71 C34.41 7.27 35.24 6.82 36.1 6.36 C37.38 5.65 37.38 5.65 38.69 4.94 C40.4 4.01 42.11 3.08 43.82 2.15 C44.58 1.74 45.33 1.33 46.11 0.9 C48 0 48 0 50 0 C48.42 21.19 48.42 21.19 44.56 26.12 C42.74 27.46 40.88 28.75 39 30 C38.88 30.94 38.76 31.88 38.64 32.85 C37.79 37.03 36.19 38.01 32.75 40.44 C31.8 41.14 30.84 41.84 29.86 42.56 C27 44 27 44 24.43 43.92 C18.64 41.73 13.92 37.98 11.31 32.38 C10.88 31.26 10.45 30.15 10 29 C9.03 28.31 8.06 27.63 7.07 26.92 C2.78 23.51 2.44 19.11 1.62 13.94 C1.46 13.04 1.3 12.14 1.13 11.22 C0.45 7.38 0 3.91 0 0 Z " fill="#A71C2F" transform="translate(0,3)"/>
<path d="M0 0 C5.75 1.88 5.75 1.88 8 3 C8 4.65 8 6.3 8 8 C8.64 7.81 9.28 7.63 9.94 7.44 C10.62 7.29 11.3 7.15 12 7 C12.33 7.33 12.66 7.66 13 8 C13.04 7.24 13.08 6.47 13.12 5.69 C14 3 14 3 16.94 1.19 C20 0 20 0 22 0 C22.62 19.64 22.62 19.64 18.6 24.8 C16.49 26.63 14.87 28 12 28 C11.63 20.53 11.63 20.53 13.38 18 C15 17 15 17 17 17 C17 16.01 17 15.02 17 14 C16.28 14.54 15.56 15.07 14.81 15.62 C12 17 12 17 9.31 16.25 C8.55 15.84 7.79 15.43 7 15 C6.34 14.67 5.68 14.34 5 14 C5.82 14.82 6.65 15.65 7.5 16.5 C9.76 19.16 10.34 20.88 10.31 24.38 C10.16 26.17 10.16 26.17 10 28 C7.04 26.63 4.44 25.18 2 23 C1.07 20.16 0.82 17.43 0.68 14.45 C0.64 13.61 0.6 12.76 0.56 11.89 C0.52 11.02 0.48 10.15 0.44 9.25 C0.39 8.36 0.35 7.47 0.31 6.56 C0.2 4.37 0.1 2.19 0 0 Z " fill="#EEEEEE" transform="translate(14,14)"/>
<path d="M0 0 C5.67 1.65 10.4 4.34 15.43 7.34 C18.35 8.98 20.55 10 23.92 10.02 C28.14 8.62 31.88 6.61 35.75 4.44 C37.26 3.6 38.78 2.76 40.3 1.93 C41.29 1.38 41.29 1.38 42.31 0.81 C44 0 44 0 46 0 C46 0.66 46 1.32 46 2 C45.34 2.33 44.68 2.66 44 3 C43.53 4.9 43.53 4.9 43.38 7.06 C43.19 9.01 43.19 9.01 43 11 C42.01 11.33 41.02 11.66 40 12 C40.66 12.33 41.32 12.66 42 13 C41.63 19.37 41.63 19.37 38.56 22.44 C36 24 36 24 34 24 C34 18.72 34 13.44 34 8 C32.02 8.99 30.04 9.98 28 11 C27.34 11 26.68 11 26 11 C26 12.98 26 14.96 26 17 C24.02 16.67 22.04 16.34 20 16 C20 14.35 20 12.7 20 11 C19.05 10.69 18.1 10.38 17.12 10.06 C14 9 14 9 12 8 C12.08 8.74 12.17 9.47 12.25 10.23 C12.36 11.21 12.46 12.18 12.56 13.19 C12.72 14.63 12.72 14.63 12.88 16.11 C13 18.94 12.68 21.25 12 24 C8.62 22.55 6.27 20.92 4 18 C3.81 15.06 3.81 15.06 4 12 C3.71 10.33 3.39 8.65 3 7 C2.34 7 1.68 7 1 7 C0.67 4.69 0.34 2.38 0 0 Z " fill="#2C2626" transform="translate(2,6)"/>
<path d="M0 0 C0.33 0 0.66 0 1 0 C1.6 13.81 1.6 13.81 -2.4 18.71 C-4.45 20.44 -6.6 21.8 -9 23 C-9.19 24.05 -9.37 25.1 -9.56 26.19 C-10.74 30.77 -13.85 32.57 -17.61 35.13 C-20 36 -20 36 -22.56 35.29 C-29.25 31.75 -29.25 31.75 -32 29 C-32.14 28.03 -32.29 27.06 -32.44 26.06 C-32.64 22.94 -32.64 22.94 -34.79 21.74 C-35.52 21.31 -36.25 20.88 -37 20.44 C-40.14 18.36 -40.89 17.48 -41.75 13.73 C-41.98 10.47 -42.08 7.27 -42 4 C-41.71 4.62 -41.42 5.24 -41.12 5.88 C-40.06 8.13 -40.06 8.13 -38 10 C-38.66 10 -39.32 10 -40 10 C-39.12 14.57 -38.61 16.52 -34.88 19.44 C-33.93 19.95 -32.98 20.47 -32 21 C-32 19.35 -32 17.7 -32 16 C-31.67 16 -31.34 16 -31 16 C-30.94 16.81 -30.87 17.62 -30.81 18.45 C-30.28 24.66 -30.28 24.66 -27.31 29.91 C-25.2 31.43 -25.2 31.43 -22 33 C-22.21 27.29 -22.21 27.29 -25.06 22.62 C-25.7 22.09 -26.34 21.55 -27 21 C-27 20.34 -27 19.68 -27 19 C-25.95 19.37 -24.9 19.74 -23.81 20.12 C-19.81 21.04 -18.51 20.91 -15 19 C-15 19.99 -15 20.98 -15 22 C-15.64 22.39 -16.28 22.78 -16.94 23.19 C-20.14 26 -19.73 28.83 -20 33 C-14.76 30.25 -14.76 30.25 -12.09 25.22 C-11.61 22.48 -11.24 19.77 -11 17 C-10.67 18.32 -10.34 19.64 -10 21 C-5.3 18.49 -5.3 18.49 -3.06 13.88 C-2.78 11.06 -2.78 11.06 -4 9 C-3.34 8.67 -2.68 8.34 -2 8 C-1.32 6.11 -1.32 6.11 -0.88 3.94 C-0.71 3.2 -0.54 2.47 -0.37 1.71 C-0.19 0.87 -0.19 0.87 0 0 Z " fill="#1B1012" transform="translate(46,9)"/>
<path d="M0 0 C4.63 1.39 8.65 3.3 12.88 5.62 C14.03 6.26 15.18 6.89 16.37 7.54 C17.67 8.26 17.67 8.26 19 9 C18.67 9.66 18.34 10.32 18 11 C16.02 10.01 14.04 9.02 12 8 C12.08 8.74 12.17 9.47 12.25 10.23 C12.36 11.21 12.46 12.18 12.56 13.19 C12.72 14.63 12.72 14.63 12.88 16.11 C13 18.94 12.68 21.25 12 24 C8.62 22.55 6.27 20.92 4 18 C3.81 15.06 3.81 15.06 4 12 C3.71 10.33 3.39 8.65 3 7 C2.34 7 1.68 7 1 7 C0.67 4.69 0.34 2.38 0 0 Z " fill="#190E0F" transform="translate(2,6)"/>
<path d="M0 0 C3.77 0.52 6.45 1.08 9 4 C9.34 6.75 9.18 9.21 9 12 C6.03 10.88 3.67 9.78 1 8 C0.3 5.34 0.22 2.76 0 0 Z " fill="#DCDCDC" transform="translate(4,9)"/>
<path d="M0 0 C-0.26 5.33 -0.26 5.33 -1 8 C-3.43 9.99 -4.84 11 -8 11 C-8 8.36 -8 5.72 -8 3 C-2.25 0 -2.25 0 0 0 Z " fill="#EBEBEB" transform="translate(46,9)"/>
<path d="M0 0 C-0.49 6.49 -0.49 6.49 -2.94 8.94 C-5 10 -5 10 -7 10 C-7.38 7.25 -7.38 7.25 -7 4 C-2.05 0 -2.05 0 0 0 Z " fill="#E5E5E5" transform="translate(44,19)"/>
<path d="M0 0 C0.66 0.33 1.32 0.66 2 1 C-2.75 4 -2.75 4 -5 4 C-5 5.98 -5 7.96 -5 10 C-7.97 9.5 -7.97 9.5 -11 9 C-11.33 7.02 -11.66 5.04 -12 3 C-10.7 3.09 -10.7 3.09 -9.38 3.19 C-5.56 2.98 -3.35 1.75 0 0 Z " fill="#100F0F" transform="translate(33,13)"/>
<path d="M0 0 C4.88 1.88 4.88 1.88 6 3 C6.04 5 6.04 7 6 9 C1.12 7.12 1.12 7.12 0 6 C-0.04 4 -0.04 2 0 0 Z " fill="#EBEBEB" transform="translate(7,20)"/>
<path d="M0 0 C2.97 0.33 5.94 0.66 9 1 C8.67 4.3 8.34 7.6 8 11 C7.34 10.67 6.68 10.34 6 10 C6.15 8.61 6.15 8.61 6.31 7.19 C6.21 6.14 6.11 5.08 6 4 C3.61 2.06 3.61 2.06 1 1 C0.67 2.32 0.34 3.64 0 5 C0 3.35 0 1.7 0 0 Z " fill="#4E4E4E" transform="translate(6,19)"/>
</svg>
