<?xml version="1.0" encoding="UTF-8"?>
<!-- Generator: https://ezgif.com/webp-to-svg -->
<svg version="1.1" xmlns="http://www.w3.org/2000/svg" width="50" height="50">
<path d="M0 0 C8.6 2.87 13.08 9.17 17 17 C17.8 25.72 18.18 33.51 12.93 40.94 C7.89 46.32 2.03 50.08 -5.36 50.39 C-13.58 50.56 -19.71 49.88 -26 44 C-32.57 35.95 -33.91 29.16 -33.26 18.99 C-32.48 13.05 -29.19 8.79 -24.67 5.1 C-16.76 -0.34 -9.46 -1.24 0 0 Z M-8 3 C-7 5 -7 5 -7 5 Z M-20 4 C-19 6 -19 6 -19 6 Z M-22.31 13.5 C-26.03 19.01 -26.98 23.36 -26 30 C-23.88 35.14 -20.65 38.94 -16 42 C-11.16 43.61 -5.81 43.98 -0.93 42.28 C4.32 39.46 7.67 35.4 10 30 C10.83 24.86 10.58 20.27 8 15.69 C4.52 10.88 0.43 7.61 -5.49 6.56 C-12.73 6.22 -17.33 8.12 -22.31 13.5 Z M3 44 C4 46 4 46 4 46 Z M-9 45 C-8 47 -8 47 -8 47 Z " fill="#FEFFFF" transform="translate(33,0)"/>
<path d="M0 0 C1.07 0.16 2.14 0.33 3.25 0.5 C6.69 0.96 8.69 0.66 12 0 C14 2 14 2 14 6 C13.01 6.33 12.02 6.66 11 7 C11.33 5.68 11.66 4.36 12 3 C11.01 3 10.02 3 9 3 C9 5.97 9 8.94 9 12 C11.97 12 14.94 12 18 12 C18 11.01 18 10.02 18 9 C16.68 9.33 15.36 9.66 14 10 C14.33 9.01 14.66 8.02 15 7 C17.48 7.5 17.48 7.5 20 8 C20.62 10.37 20.62 10.37 21 13 C20.34 13.66 19.68 14.32 19 15 C19.66 15.66 20.32 16.32 21 17 C20.62 19.63 20.62 19.63 20 22 C18.35 22.33 16.7 22.66 15 23 C14.67 22.01 14.34 21.02 14 20 C15.32 20.33 16.64 20.66 18 21 C18 20.01 18 19.02 18 18 C15.03 18 12.06 18 9 18 C9 20.97 9 23.94 9 27 C9.99 27 10.98 27 12 27 C11.67 25.68 11.34 24.36 11 23 C11.99 23.33 12.98 23.66 14 24 C13.67 25.65 13.34 27.3 13 29 C9.71 29.8 8.29 30.1 5 29 C4.15 29.19 3.31 29.37 2.44 29.56 C1.63 29.71 0.83 29.85 0 30 C-0.66 29.34 -1.32 28.68 -2 28 C-2 26.68 -2 25.36 -2 24 C-1.01 23.67 -0.02 23.34 1 23 C0.67 24.32 0.34 25.64 0 27 C0.99 27 1.98 27 3 27 C3 24.03 3 21.06 3 18 C0.03 18 -2.94 18 -6 18 C-6 18.99 -6 19.98 -6 21 C-4.68 20.67 -3.36 20.34 -2 20 C-2.33 20.99 -2.66 21.98 -3 23 C-4.65 22.67 -6.3 22.34 -8 22 C-9.1 17.07 -9.1 12.93 -8 8 C-6.35 7.67 -4.7 7.34 -3 7 C-2.67 7.99 -2.34 8.98 -2 10 C-3.32 9.67 -4.64 9.34 -6 9 C-6 9.99 -6 10.98 -6 12 C-3.03 12 -0.06 12 3 12 C3 9.03 3 6.06 3 3 C2.01 3 1.02 3 0 3 C0.33 4.32 0.66 5.64 1 7 C0.01 6.67 -0.98 6.34 -2 6 C-1.12 1.12 -1.12 1.12 0 0 Z " fill="#FEFFFF" transform="translate(19,10)"/>
</svg>
