<?xml version="1.0" encoding="UTF-8"?>
<!-- Generator: https://ezgif.com/webp-to-svg -->
<svg version="1.1" xmlns="http://www.w3.org/2000/svg" width="50" height="50">
<path d="M0 0 C0.99 0.66 1.98 1.32 3 2 C3.41 4.71 3.13 7.24 3 10 C4.32 10.33 5.64 10.66 7 11 C7.33 9.02 7.66 7.04 8 5 C13.75 6.75 13.75 6.75 16 9 C16.15 11.74 16.19 14.38 16.12 17.12 C16.12 17.88 16.11 18.63 16.1 19.41 C16.07 21.27 16.04 23.14 16 25 C9.61 24.38 5.43 22.27 -0.04 19.08 C-3.86 17.69 -5.35 18.34 -9 20 C-11.55 21.26 -14.04 22.61 -16.54 23.98 C-19.22 25.09 -21.12 25.19 -24 25 C-24.16 22.41 -24.28 19.84 -24.38 17.25 C-24.43 16.52 -24.48 15.79 -24.53 15.04 C-24.59 12.89 -24.59 12.89 -24 9 C-19.39 5 -19.39 5 -16 5 C-15.67 6.98 -15.34 8.96 -15 11 C-13.68 10.67 -12.36 10.34 -11 10 C-11.1 8.74 -11.21 7.48 -11.31 6.19 C-11.31 3.98 -11.31 3.98 -11 2 C-7.43 -1.46 -4.63 -1.31 0 0 Z " fill="#00D270" transform="translate(29,1)"/>
<path d="M0 0 C3.88 1.7 7.34 3.86 11 6 C11 10.29 11 14.58 11 19 C-1.23 25.66 -1.23 25.66 -7 24 C-10.45 22.52 -13.67 20.75 -17 19 C-17 14.71 -17 10.42 -17 6 C-5.56 -0.7 -5.56 -0.7 0 0 Z " fill="#00D36F" transform="translate(28,24)"/>
<path d="M0 0 C0 5.61 0 11.22 0 17 C-2.37 18.32 -4.74 19.64 -7.19 21 C-7.93 21.42 -8.66 21.84 -9.42 22.27 C-13.08 24.26 -15.72 25.53 -20 25 C-20.16 22.41 -20.28 19.84 -20.38 17.25 C-20.43 16.52 -20.48 15.79 -20.53 15.04 C-20.59 12.89 -20.59 12.89 -20 9 C-15.39 5 -15.39 5 -12 5 C-11.67 6.98 -11.34 8.96 -11 11 C-9.68 10.67 -8.36 10.34 -7 10 C-7.06 8.72 -7.12 7.44 -7.19 6.12 C-7.29 3.95 -7.29 3.95 -7 2 C-4 0 -4 0 0 0 Z " fill="#01FD85" transform="translate(25,1)"/>
<path d="M0 0 C0 8.25 0 16.5 0 25 C-5.11 23.3 -9.27 21.45 -14 19 C-14 14.71 -14 10.42 -14 6 C-3.38 0 -3.38 0 0 0 Z " fill="#01FE85" transform="translate(25,24)"/>
</svg>
