<?xml version="1.0" encoding="UTF-8"?>
<!-- Generator: https://ezgif.com/webp-to-svg -->
<svg version="1.1" xmlns="http://www.w3.org/2000/svg" width="50" height="50">
<path d="M0 0 C7.16 -0.35 13.18 0.93 18.61 5.84 C22.53 10.18 24.48 13.97 25.29 19.81 C25.56 23.31 25.56 23.31 27.79 26.19 C27.6 29.25 27.6 29.25 26.79 32.19 C23.79 34.19 23.79 34.19 19.79 34.19 C19.46 35.18 19.13 36.17 18.79 37.19 C11.85 42.31 6.23 42.86 -2.21 42.19 C-5.84 40.69 -5.84 40.69 -8.21 39.19 C-8.87 39.19 -9.53 39.19 -10.21 39.19 C-10.54 39.85 -10.87 40.51 -11.21 41.19 C-9.89 41.19 -8.57 41.19 -7.21 41.19 C-7.21 41.85 -7.21 42.51 -7.21 43.19 C-14.62 44.52 -14.62 44.52 -17.21 43.06 C-18.53 40.59 -18.57 38.95 -18.21 36.19 C-17.55 35.53 -16.89 34.87 -16.21 34.19 C-16.53 31.58 -16.53 31.58 -17.21 29.19 C-18.53 29.19 -19.85 29.19 -21.21 29.19 C-22.21 28.19 -22.21 28.19 -22.27 25.62 C-22.25 24.82 -22.23 24.02 -22.21 23.19 C-20.56 22.53 -18.91 21.87 -17.21 21.19 C-17.07 20.01 -16.92 18.84 -16.77 17.62 C-16.62 16.53 -16.62 16.53 -16.47 15.41 C-16.15 12.95 -16.15 12.95 -16.15 9.5 C-15.1 5.78 -14.56 5.34 -11.46 3.31 C-7.54 1.2 -4.42 0.38 0 0 Z " fill="#8EB2B7" transform="translate(22.2109375,2.8125)"/>
<path d="M0 0 C6.16 0.37 8.8 1.7 13 6 C14.64 8.97 15.03 11.25 15.5 14.62 C15.77 18.12 15.77 18.12 18 21 C17.81 24.06 17.81 24.06 17 27 C14 29 14 29 10 29 C9.67 29.99 9.34 30.98 9 32 C3.75 35.88 0.28 37.13 -6.19 37.06 C-7.82 37.05 -7.82 37.05 -9.48 37.04 C-10.31 37.02 -11.14 37.01 -12 37 C-12 36.34 -12 35.68 -12 35 C-12.99 34.67 -13.98 34.34 -15 34 C-15 33.01 -15 32.02 -15 31 C-15.99 30.67 -16.98 30.34 -18 30 C-17.36 29.48 -16.72 28.97 -16.06 28.44 C-13.44 25.34 -13.31 22.98 -13 19 C-13.99 21.31 -14.98 23.62 -16 26 C-16.33 26 -16.66 26 -17 26 C-17 24.35 -17 22.7 -17 21 C-18.32 21.33 -19.64 21.66 -21 22 C-20.67 21.01 -20.34 20.02 -20 19 C-16.94 17.81 -16.94 17.81 -14 17 C-14 15.02 -14 13.04 -14 11 C-11.69 10.34 -9.38 9.68 -7 9 C-7 8.34 -7 7.68 -7 7 C-7.66 6.67 -8.32 6.34 -9 6 C-8.67 5.01 -8.34 4.02 -8 3 C-7.01 2.67 -6.02 2.34 -5 2 C-4.2 5.29 -3.9 6.71 -5 10 C0.94 9.5 0.94 9.5 7 9 C7.96 12.84 7.92 14.32 7 18 C7.99 18 8.98 18 10 18 C9.15 11.44 8.38 7.33 3 3 C2 2 1 1 0 0 Z " fill="#C7D4D7" transform="translate(32,8)"/>
<path d="M0 0 C0.66 0.66 1.32 1.32 2 2 C1.62 5.13 1.62 5.13 1 8 C3.64 8.33 6.28 8.66 9 9 C8.67 9.66 8.34 10.32 8 11 C6.93 11.29 5.86 11.58 4.75 11.88 C0.94 13.02 -1.09 14.36 -4 17 C-3.34 17.66 -2.68 18.32 -2 19 C-2.99 19 -3.98 19 -5 19 C-4.67 20.98 -4.34 22.96 -4 25 C-2.35 25 -0.7 25 1 25 C0.79 24.38 0.59 23.76 0.38 23.12 C0.25 22.42 0.13 21.72 0 21 C0.66 20.34 1.32 19.68 2 19 C2 20.65 2 22.3 2 24 C5.96 23.51 5.96 23.51 10 23 C10 22.34 10 21.68 10 21 C14.33 18.77 17.28 19.08 22 20 C21.51 22.48 21.51 22.48 21 25 C19.02 25 17.04 25 15 25 C15.33 24.01 15.66 23.02 16 22 C13.5 22.99 11.01 24 8.54 25.07 C3.82 27.08 0.22 28.4 -5 28 C-5.33 28.33 -5.66 28.66 -6 29 C0.96 29.34 6.43 28.3 13 26 C12.11 29.3 11.34 30.75 8.56 32.81 C3.72 34.43 -0.93 34.61 -6 34 C-6.99 33.34 -7.98 32.68 -9 32 C-9 31.01 -9 30.02 -9 29 C-9.99 28.67 -10.98 28.34 -12 28 C-11.36 27.48 -10.72 26.97 -10.06 26.44 C-7.44 23.34 -7.31 20.98 -7 17 C-7.99 19.31 -8.98 21.62 -10 24 C-10.33 24 -10.66 24 -11 24 C-11 22.35 -11 20.7 -11 19 C-12.32 19.33 -13.64 19.66 -15 20 C-14.67 19.01 -14.34 18.02 -14 17 C-10.94 15.81 -10.94 15.81 -8 15 C-8 13.02 -8 11.04 -8 9 C-5.69 8.34 -3.38 7.68 -1 7 C-1 6.34 -1 5.68 -1 5 C-1.66 4.67 -2.32 4.34 -3 4 C-2.67 3.01 -2.34 2.02 -2 1 C-1.34 0.67 -0.68 0.34 0 0 Z " fill="#2E464E" transform="translate(26,10)"/>
<path d="M0 0 C2.56 2.25 2.56 2.25 4 4 C3.67 4.66 3.34 5.32 3 6 C2.4 5.51 1.8 5.01 1.19 4.5 C-0.97 2.72 -0.97 2.72 -4 3 C-3.22 3.74 -2.43 4.48 -1.62 5.25 C1.96 9 2.95 10.53 3.12 15.75 C3.08 16.82 3.04 17.89 3 19 C2.01 19 1.02 19 0 19 C0 16.03 0 13.06 0 10 C-0.99 10.5 -0.99 10.5 -2 11 C-3.71 11.07 -5.42 11.08 -7.12 11.06 C-8.04 11.05 -8.95 11.04 -9.88 11.04 C-10.58 11.02 -11.28 11.01 -12 11 C-11.98 9.93 -11.96 8.86 -11.94 7.75 C-11.99 4.82 -12.19 2.75 -13 0 C-13 -0.66 -13 -1.32 -13 -2 C-18.26 -1.03 -22.48 -0.01 -27 3 C-27.66 3 -28.32 3 -29 3 C-29.33 4.32 -29.66 5.64 -30 7 C-30.66 6.01 -31.32 5.02 -32 4 C-30.77 0.32 -29.15 -0.38 -25.82 -2.15 C-17.42 -6.09 -7.73 -4.66 0 0 Z " fill="#DEE1E2" transform="translate(39,7)"/>
<path d="M0 0 C0.99 0.33 1.98 0.66 3 1 C2.67 2.65 2.34 4.3 2 6 C1.34 6 0.68 6 0 6 C-0.33 7.32 -0.66 8.64 -1 10 C-0.4 9.67 0.2 9.34 0.81 9 C3 8 3 8 6 8 C6.33 8.99 6.66 9.98 7 11 C5.56 11.51 4.13 12 2.69 12.5 C1.89 12.78 1.09 13.06 0.26 13.34 C-2 14 -2 14 -5 14 C-5 14.66 -5 15.32 -5 16 C-1.37 16.15 -1.37 16.15 2 15 C2.8 18.29 3.1 19.71 2 23 C6.15 21.49 6.15 21.49 9 18.28 C9.69 16.53 10.35 14.76 11 13 C11.66 12.67 12.32 12.34 13 12 C12.29 20.57 12.29 20.57 9 24 C10.15 26.47 11.05 28.05 13 30 C10.24 29.48 7.67 28.89 5 28 C4.67 28.66 4.34 29.32 4 30 C5.32 30 6.64 30 8 30 C8 30.66 8 31.32 8 32 C0.6 33.34 0.6 33.34 -2 31.88 C-3.32 29.4 -3.35 27.76 -3 25 C-2.34 24.34 -1.68 23.68 -1 23 C-1.32 20.4 -1.32 20.4 -2 18 C-3.32 18 -4.64 18 -6 18 C-7 17 -7 17 -7.06 14.44 C-7.04 13.63 -7.02 12.83 -7 12 C-5.35 11.34 -3.7 10.68 -2 10 C-1.86 8.72 -1.71 7.44 -1.56 6.12 C-1.29 3.74 -1.08 2.16 0 0 Z " fill="#D4DBDE" transform="translate(7,14)"/>
<path d="M0 0 C0.66 0.66 1.32 1.32 2 2 C1.67 2.66 1.34 3.32 1 4 C1.66 4 2.32 4 3 4 C3.33 4.66 3.66 5.32 4 6 C4.66 6 5.32 6 6 6 C6.62 8.38 6.62 8.38 7 11 C4.64 13.36 3.22 13.49 0 14 C0.99 14.33 1.98 14.66 3 15 C3 16.98 3 18.96 3 21 C0.69 21.99 -1.62 22.98 -4 24 C-3.67 21.69 -3.34 19.38 -3 17 C-3.66 17.33 -4.32 17.66 -5 18 C-5 17.34 -5 16.68 -5 16 C-6.65 16 -8.3 16 -10 16 C-10 15.34 -10 14.68 -10 14 C-9.29 13.82 -8.58 13.64 -7.85 13.45 C-6.93 13.2 -6.01 12.95 -5.06 12.69 C-4.15 12.44 -3.23 12.2 -2.29 11.95 C-1.15 11.48 -1.15 11.48 0 11 C0.33 10.01 0.66 9.02 1 8 C-1.31 8.66 -3.62 9.32 -6 10 C-5.67 7.69 -5.34 5.38 -5 3 C-4.34 4.32 -3.68 5.64 -3 7 C-2.34 7 -1.68 7 -1 7 C-0.67 4.69 -0.34 2.38 0 0 Z " fill="#7397A1" transform="translate(12,14)"/>
<path d="M0 0 C6.12 0.24 6.12 0.24 8.54 2.33 C11.97 6.47 13.13 8.86 13.06 14.12 C13.05 15.04 13.04 15.95 13.04 16.88 C13.02 17.58 13.01 18.28 13 19 C11.74 19.29 10.48 19.58 9.19 19.88 C6.15 20.57 4.69 21.2 2 23 C1.01 23 0.02 23 -1 23 C-0.67 21.68 -0.34 20.36 0 19 C3.75 17.88 3.75 17.88 6 19 C5.34 18.01 4.68 17.02 4 16 C3.05 16.47 2.1 16.95 1.12 17.44 C-0.58 18.29 -2.29 19.15 -4 20 C-4 18.68 -4 17.36 -4 16 C-2.73 15.49 -1.46 15 -0.19 14.5 C0.52 14.22 1.23 13.94 1.96 13.66 C4 13 4 13 7 13 C7 14.65 7 16.3 7 18 C7.99 18 8.98 18 10 18 C9.15 11.44 8.38 7.33 3 3 C2 2 1 1 0 0 Z " fill="#2B464F" transform="translate(32,8)"/>
<path d="M0 0 C0.66 0.66 1.32 1.32 2 2 C1.62 5.12 1.62 5.12 1 8 C3.64 8.33 6.28 8.66 9 9 C8.67 9.66 8.34 10.32 8 11 C6.89 11.31 5.77 11.62 4.62 11.94 C1.3 12.91 0.05 13.35 -2 16 C-2.66 15.67 -3.32 15.34 -4 15 C-4.14 14.36 -4.29 13.72 -4.44 13.06 C-4.86 10.62 -4.86 10.62 -8 9 C-5.69 8.34 -3.38 7.68 -1 7 C-1 6.34 -1 5.68 -1 5 C-1.66 4.67 -2.32 4.34 -3 4 C-2.67 3.01 -2.34 2.02 -2 1 C-1.34 0.67 -0.68 0.34 0 0 Z " fill="#6BA8B7" transform="translate(26,10)"/>
<path d="M0 0 C0 3 0 3 -1.81 5.12 C-5.24 8.07 -8.13 8.16 -12.5 8.19 C-13.94 8.21 -13.94 8.21 -15.41 8.23 C-18 8 -18 8 -21 6 C-21 5.34 -21 4.68 -21 4 C-18.52 4.49 -18.52 4.49 -16 5 C-16 4.67 -16 4.34 -16 4 C-15.18 3.88 -14.36 3.76 -13.52 3.63 C-12.44 3.47 -11.36 3.3 -10.25 3.12 C-8.65 2.88 -8.65 2.88 -7.02 2.63 C-4.32 2.07 -2.36 1.37 0 0 Z " fill="#3A5D68" transform="translate(38,36)"/>
<path d="M0 0 C1.11 0.34 1.11 0.34 2.25 0.69 C2.58 1.68 2.91 2.67 3.25 3.69 C3.91 4.35 4.57 5.01 5.25 5.69 C2.49 5.16 -0.08 4.58 -2.75 3.69 C-3.08 4.35 -3.41 5.01 -3.75 5.69 C-2.43 5.69 -1.11 5.69 0.25 5.69 C0.25 6.35 0.25 7.01 0.25 7.69 C-5.8 8.66 -5.8 8.66 -7.75 8.69 C-9.75 6.69 -9.75 6.69 -9.88 4.06 C-9.83 3.28 -9.79 2.49 -9.75 1.69 C-9.09 1.36 -8.43 1.03 -7.75 0.69 C-7.42 1.35 -7.09 2.01 -6.75 2.69 C-6.19 2.17 -5.64 1.66 -5.06 1.12 C-2.75 -0.31 -2.75 -0.31 0 0 Z " fill="#ACBDC1" transform="translate(14.75,38.3125)"/>
<path d="M0 0 C-1.94 1.15 -3.87 2.29 -5.81 3.44 C-6.89 4.08 -7.97 4.71 -9.08 5.37 C-12.83 7.47 -15.46 8.12 -19.69 8.06 C-20.9 8.05 -20.9 8.05 -22.14 8.04 C-23.06 8.02 -23.06 8.02 -24 8 C-24.33 6.68 -24.66 5.36 -25 4 C-24.01 4.49 -24.01 4.49 -23 5 C-16.56 5.19 -11.75 3.16 -6.26 -0.04 C-3.66 -1.15 -2.6 -0.99 0 0 Z " fill="#C5D7DC" transform="translate(44,32)"/>
<path d="M0 0 C0 0.66 0 1.32 0 2 C1.65 2 3.3 2 5 2 C5 2.33 5 2.66 5 3 C3.02 3 1.04 3 -1 3 C-1 3.66 -1 4.32 -1 5 C-2.98 5.99 -2.98 5.99 -5 7 C-5.66 6.01 -6.32 5.02 -7 4 C-7.99 3.67 -8.98 3.34 -10 3 C-10 3.66 -10 4.32 -10 5 C-10.99 5 -11.98 5 -13 5 C-13.33 5.66 -13.66 6.32 -14 7 C-14.99 7.5 -14.99 7.5 -16 8 C-16 7.01 -16 6.02 -16 5 C-5.63 -0.74 -5.63 -0.74 0 0 Z " fill="#6B5E42" transform="translate(26,5)"/>
<path d="M0 0 C2.31 0.33 4.62 0.66 7 1 C7 2.32 7 3.64 7 5 C2.05 6.48 2.05 6.48 -3 8 C-3 7.01 -3 6.02 -3 5 C-2.01 5 -1.02 5 0 5 C-0.66 4.67 -1.32 4.34 -2 4 C-1.34 2.68 -0.68 1.36 0 0 Z " fill="#EDF3F4" transform="translate(18,13)"/>
<path d="M0 0 C6.12 0.24 6.12 0.24 8.54 2.33 C11.79 6.25 13.13 8.63 13.06 13.62 C13.05 14.44 13.04 15.26 13.04 16.1 C13.02 16.73 13.01 17.35 13 18 C12.67 18 12.34 18 12 18 C11.34 14.7 10.68 11.4 10 8 C9.01 7.67 8.02 7.34 7 7 C5.62 5.71 4.29 4.37 3 3 C2.42 2.42 1.84 1.85 1.25 1.25 C0.84 0.84 0.42 0.43 0 0 Z " fill="#4A7985" transform="translate(32,8)"/>
<path d="M0 0 C0.66 0.66 1.32 1.32 2 2 C1.67 2.66 1.34 3.32 1 4 C1.66 4 2.32 4 3 4 C3.33 4.66 3.66 5.32 4 6 C4.66 6 5.32 6 6 6 C6.33 7.32 6.66 8.64 7 10 C6.4 9.92 5.79 9.83 5.17 9.75 C4.37 9.64 3.57 9.54 2.75 9.44 C1.96 9.33 1.17 9.23 0.36 9.12 C-2.01 9 -3.75 9.3 -6 10 C-5.67 7.69 -5.34 5.38 -5 3 C-4.34 4.32 -3.68 5.64 -3 7 C-2.34 7 -1.68 7 -1 7 C-0.67 4.69 -0.34 2.38 0 0 Z " fill="#5D757C" transform="translate(12,14)"/>
<path d="M0 0 C2.61 1.74 4.81 3.76 7 6 C6.67 6.66 6.34 7.32 6 8 C5.51 7.53 5.01 7.05 4.5 6.56 C1.96 4.97 0.89 4.75 -2 4.5 C-5.48 4.19 -7.41 3.48 -10 1 C-6.29 -0.24 -3.9 -0.46 0 0 Z " fill="#B7C5C9" transform="translate(36,5)"/>
<path d="M0 0 C0.99 0 1.98 0 3 0 C3 0.66 3 1.32 3 2 C3.64 2.12 4.28 2.25 4.94 2.38 C5.62 2.58 6.3 2.79 7 3 C7.33 3.66 7.66 4.32 8 5 C7.01 5 6.02 5 5 5 C5 5.99 5 6.98 5 8 C3.35 8 1.7 8 0 8 C0 5.36 0 2.72 0 0 Z " fill="#8AB5C0" transform="translate(27,10)"/>
<path d="M0 0 C1.65 0 3.3 0 5 0 C5.33 0.99 5.66 1.98 6 3 C6.99 2.67 7.98 2.34 9 2 C9.33 1.34 9.66 0.68 10 0 C10 3 10 3 8.44 4.69 C5.19 6.43 2.63 6.21 -1 6 C-1.33 4.68 -1.66 3.36 -2 2 C-1.34 2 -0.68 2 0 2 C0 1.34 0 0.68 0 0 Z " fill="#C2B680" transform="translate(16,8)"/>
<path d="M0 0 C0.66 0.33 1.32 0.66 2 1 C2 1.99 2 2.98 2 4 C0.86 3.88 0.86 3.88 -0.31 3.75 C-3.15 3.71 -3.15 3.71 -4.81 6 C-5.2 6.66 -5.6 7.32 -6 8 C-6 7.34 -6 6.68 -6 6 C-6.99 6 -7.98 6 -9 6 C-9.33 7.65 -9.66 9.3 -10 11 C-11.03 8.21 -11.05 7.13 -10.06 4.25 C-9.71 3.51 -9.36 2.77 -9 2 C-8.34 2.66 -7.68 3.32 -7 4 C-6.4 3.53 -5.8 3.05 -5.19 2.56 C-3 1 -3 1 0 0 Z " fill="#A2C5CD" transform="translate(36,23)"/>
<path d="M0 0 C2.31 0.33 4.62 0.66 7 1 C6.67 2.65 6.34 4.3 6 6 C4.02 6 2.04 6 0 6 C0.19 5.38 0.37 4.76 0.56 4.12 C1.24 1.96 1.24 1.96 0 0 Z " fill="#3E6B77" transform="translate(41,29)"/>
<path d="M0 0 C0.33 1.32 0.66 2.64 1 4 C0.13 4.19 0.13 4.19 -0.75 4.38 C-3.04 4.92 -3.04 4.92 -5.06 6.12 C-7 7 -7 7 -10 6 C-10.33 5.34 -10.66 4.68 -11 4 C-9.02 3.67 -7.04 3.34 -5 3 C-5.66 2.34 -6.32 1.68 -7 1 C-2.25 0 -2.25 0 0 0 Z " fill="#97B8C0" transform="translate(39,17)"/>
<path d="M0 0 C2.97 0.33 5.94 0.66 9 1 C8.67 1.66 8.34 2.32 8 3 C5.68 3.72 3.35 4.38 1 5 C0.01 5.5 0.01 5.5 -1 6 C-0.67 4.02 -0.34 2.04 0 0 Z " fill="#2A414A" transform="translate(26,18)"/>
<path d="M0 0 C0.33 0.99 0.66 1.98 1 3 C-1.64 3.66 -4.28 4.32 -7 5 C-7 4.01 -7 3.02 -7 2 C-4.35 0.54 -3.11 0 0 0 Z " fill="#F3F4F4" transform="translate(13,22)"/>
<path d="M0 0 C0.66 0.66 1.32 1.32 2 2 C1.55 7.45 1.55 7.45 -1 10 C-1 8.35 -1 6.7 -1 5 C-1.66 4.67 -2.32 4.34 -3 4 C-2.67 3.01 -2.34 2.02 -2 1 C-1.34 0.67 -0.68 0.34 0 0 Z " fill="#4B8290" transform="translate(26,10)"/>
<path d="M0 0 C3.38 0.31 3.38 0.31 7 1 C9 4 9 4 8.62 6.19 C8.42 6.79 8.21 7.38 8 8 C5.33 5.33 2.67 2.67 0 0 Z " fill="#3C5C65" transform="translate(32,8)"/>
<path d="M0 0 C1.32 0 2.64 0 4 0 C4 0.66 4 1.32 4 2 C5.65 2 7.3 2 9 2 C9 2.33 9 2.66 9 3 C7.02 3 5.04 3 3 3 C3 3.66 3 4.32 3 5 C2.01 4.67 1.02 4.34 0 4 C0 2.68 0 1.36 0 0 Z " fill="#494A34" transform="translate(22,5)"/>
<path d="M0 0 C1.32 0.33 2.64 0.66 4 1 C4.33 2.32 4.66 3.64 5 5 C4.01 5 3.02 5 2 5 C1.34 4.34 0.68 3.68 0 3 C0 2.01 0 1.02 0 0 Z " fill="#1D303A" transform="translate(18,20)"/>
<path d="M0 0 C1.65 0 3.3 0 5 0 C4.67 2.31 4.34 4.62 4 7 C3.67 7 3.34 7 3 7 C3 5.35 3 3.7 3 2 C1.68 2.33 0.36 2.66 -1 3 C-0.67 2.01 -0.34 1.02 0 0 Z " fill="#203C46" transform="translate(12,27)"/>
<path d="M0 0 C0.66 0 1.32 0 2 0 C1.67 0.99 1.34 1.98 1 3 C1.66 3.66 2.32 4.32 3 5 C0.69 5.66 -1.62 6.32 -4 7 C-4 6.01 -4 5.02 -4 4 C-3.01 4 -2.02 4 -1 4 C-0.67 2.68 -0.34 1.36 0 0 Z " fill="#C5D5DB" transform="translate(19,14)"/>
<path d="M0 0 C0.66 0 1.32 0 2 0 C2 0.66 2 1.32 2 2 C2.99 2 3.98 2 5 2 C5 2.66 5 3.32 5 4 C3.35 4.33 1.7 4.66 0 5 C0 3.35 0 1.7 0 0 Z " fill="#E1E5E7" transform="translate(28,29)"/>
</svg>
