<?xml version="1.0" encoding="UTF-8"?>
<!-- Generator: https://ezgif.com/webp-to-svg -->
<svg version="1.1" xmlns="http://www.w3.org/2000/svg" width="50" height="50">
<path d="M0 0 C3.7 1.97 7.37 3.96 11.02 6.04 C11.75 6.45 12.48 6.86 13.23 7.28 C18.63 10.33 18.63 10.33 19.77 11.47 C19.84 13.49 19.85 15.51 19.83 17.54 C19.82 18.64 19.81 19.74 19.8 20.88 C19.79 21.74 19.78 22.59 19.77 23.47 C15.7 22.89 12.92 21.58 9.45 19.41 C8.57 18.86 7.69 18.31 6.78 17.75 C5.78 17.12 5.78 17.12 4.77 16.47 C4.73 18.35 4.73 18.35 5.77 20.47 C8.11 22.06 10.34 23.41 12.83 24.72 C13.49 25.09 14.15 25.45 14.84 25.82 C16.47 26.72 18.12 27.6 19.77 28.47 C19.9 31.84 19.9 31.84 19.77 35.47 C17.58 37.54 17.58 37.54 14.77 38.47 C10.01 37.03 5.75 34.3 1.45 31.85 C0.71 31.43 -0.03 31.01 -0.79 30.57 C-2.61 29.54 -4.42 28.51 -6.23 27.47 C-6.35 23.37 -6.42 19.27 -6.48 15.16 C-6.52 13.99 -6.55 12.83 -6.59 11.62 C-6.6 10.5 -6.61 9.39 -6.62 8.23 C-6.65 7.2 -6.67 6.17 -6.69 5.11 C-6.23 2.47 -6.23 2.47 -4.35 0.58 C-2.23 -0.53 -2.23 -0.53 0 0 Z " fill="#FF3454" transform="translate(26.234375,1.52734375)"/>
<path d="M0 0 C0 2.31 0 4.62 0 7 C0.66 7.23 1.33 7.47 2.01 7.71 C5.83 9.36 9.27 11.46 12.81 13.62 C13.51 14.05 14.2 14.47 14.91 14.9 C16.61 15.93 18.31 16.96 20 18 C16.92 21.24 14.07 23.1 10 25 C5.13 23.65 0.59 20.77 -3.81 18.31 C-4.6 17.9 -5.39 17.49 -6.2 17.07 C-8.37 15.85 -10.2 14.72 -12 13 C-12.82 9.38 -12.82 9.38 -12 6 C-9.88 4 -9.88 4 -7.12 2.56 C-5.77 1.82 -5.77 1.82 -4.38 1.07 C-2 0 -2 0 0 0 Z " fill="#FE3555" transform="translate(16,24)"/>
<path d="M0 0 C0 4.29 0 8.58 0 13 C-3.96 14.98 -7.92 16.96 -12 19 C-12.88 10.4 -12.88 10.4 -12 6 C-8.84 2.78 -4.65 0 0 0 Z " fill="#FF3454" transform="translate(16,7)"/>
</svg>
