<?xml version="1.0" encoding="UTF-8"?>
<!-- Generator: https://ezgif.com/webp-to-svg -->
<svg version="1.1" xmlns="http://www.w3.org/2000/svg" width="50" height="50">
<path d="M0 0 C1 1 1 1 1.13 2.89 C1.12 7.05 1.05 10.94 0 15 C3.3 14.67 6.6 14.34 10 14 C7.61 23.57 7.61 23.57 5.06 25.38 C3 26 3 26 0 26 C-0.33 27.65 -0.66 29.3 -1 31 C-18.86 37.36 -18.86 37.36 -28 37 C-28.33 35.68 -28.66 34.36 -29 33 C-32.63 33.66 -36.26 34.32 -40 35 C-39.34 33.35 -38.68 31.7 -38 30 C-38.3 27.27 -38.3 27.27 -39 25 C-37.02 24.34 -35.04 23.68 -33 23 C-33.66 20.69 -34.32 18.38 -35 16 C-35.66 16 -36.32 16 -37 16 C-37 15.34 -37 14.68 -37 14 C-35.35 14.33 -33.7 14.66 -32 15 C-32.14 14.42 -32.29 13.84 -32.44 13.24 C-33.51 8.73 -34.24 4.67 -34 0 C-24.74 -5.55 -9.42 -4.51 0 0 Z " fill="#103F99" transform="translate(40,8)"/>
<path d="M0 0 C0.66 0.33 1.32 0.66 2 1 C1.67 1.99 1.34 2.98 1 4 C4.58 5 4.58 5 8 4 C11.83 5.6 13.67 6.5 16 10 C15.48 9.84 14.97 9.67 14.44 9.5 C11.27 8.85 8.23 8.94 5 9 C5 10.65 5 12.3 5 14 C5.76 14.27 6.53 14.54 7.31 14.81 C9.87 15.94 11.2 16.91 13 19 C12.67 19.66 12.34 20.32 12 21 C13.65 20.67 15.3 20.34 17 20 C14.63 17.38 12.02 15.8 9 14 C9 13.67 9 13.34 9 13 C17.95 12.54 17.95 12.54 22 16 C23.31 18.69 23.31 18.69 24 21 C23.3 21.09 22.6 21.17 21.88 21.26 C19.16 21.68 16.62 22.14 14 23 C12.47 25.45 12.47 25.45 12 28 C11.01 28.33 10.02 28.66 9 29 C9.33 27.35 9.66 25.7 10 24 C9.34 24 8.68 24 8 24 C7.67 24.66 7.34 25.32 7 26 C3 24.67 2.16 22.5 0 19 C0.37 20.07 0.74 21.14 1.12 22.25 C2 26 2 26 1.12 28.44 C0.75 28.95 0.38 29.47 0 30 C0.99 30.33 1.98 30.66 3 31 C1.68 31 0.36 31 -1 31 C-1 31.66 -1 32.32 -1 33 C2.65 31.75 3.78 31.33 6 28 C4.68 27.67 3.36 27.34 2 27 C3.65 27 5.3 27 7 27 C7 28.32 7 29.64 7 31 C8.32 31 9.64 31 11 31 C10.67 31.99 10.34 32.98 10 34 C9.67 33.34 9.34 32.68 9 32 C7.52 32.49 7.52 32.49 6 33 C5.27 35.02 5.27 35.02 5 37 C5.64 36.8 6.28 36.59 6.94 36.38 C14.87 33.91 14.87 33.91 19.06 33.44 C20.03 33.29 21 33.15 22 33 C22.33 32.34 22.66 31.68 23 31 C24.98 31.33 26.96 31.66 29 32 C25.38 34.41 21.8 35.17 17.62 36.12 C16.87 36.31 16.11 36.49 15.34 36.68 C11.49 37.57 7.98 38.24 4 38 C3.67 36.68 3.34 35.36 3 34 C-0.63 34.66 -4.26 35.32 -8 36 C-7.34 34.35 -6.68 32.7 -6 31 C-6.3 28.27 -6.3 28.27 -7 26 C-5.02 25.34 -3.04 24.68 -1 24 C-1.66 21.69 -2.32 19.38 -3 17 C-3.66 17 -4.32 17 -5 17 C-5 16.34 -5 15.68 -5 15 C-3.35 15.33 -1.7 15.66 0 16 C-0.14 15.42 -0.29 14.84 -0.44 14.24 C-1.51 9.73 -2.24 5.67 -2 1 C-1.34 0.67 -0.68 0.34 0 0 Z " fill="#292B30" transform="translate(8,7)"/>
<path d="M0 0 C4.37 0.03 6.93 1.23 10.81 3.25 C13.8 3.78 16.78 4.05 19.81 4.25 C19.81 4.91 19.81 5.57 19.81 6.25 C19.15 6.25 18.49 6.25 17.81 6.25 C18.43 7.73 19.06 9.21 19.69 10.69 C20.04 11.51 20.38 12.33 20.74 13.18 C21.64 15.41 21.64 15.41 23.81 16.25 C23.81 16.91 23.81 17.57 23.81 18.25 C21.5 18.91 19.19 19.57 16.81 20.25 C16.38 19.45 15.95 18.64 15.5 17.81 C14.01 14.97 14.01 14.97 10.81 14.25 C8.48 14.21 6.15 14.21 3.81 14.25 C7.77 16.73 7.77 16.73 11.81 19.25 C11.48 19.91 11.15 20.57 10.81 21.25 C9.16 21.63 7.49 21.96 5.81 22.25 C5.15 22.58 4.49 22.91 3.81 23.25 C4.47 21.6 5.13 19.95 5.81 18.25 C4.68 17.69 3.54 17.14 2.38 16.56 C-1.05 14.63 -1.05 14.63 -2.19 11.56 C-2.19 9.25 -2.19 9.25 -1.19 8.25 C1.15 8.21 3.48 8.21 5.81 8.25 C6.47 8.25 7.13 8.25 7.81 8.25 C5.85 7.18 3.84 6.18 1.81 5.25 C0.82 5.75 0.82 5.75 -0.19 6.25 C-2.81 5.31 -2.81 5.31 -5.19 4.25 C-5.52 4.91 -5.85 5.57 -6.19 6.25 C-5.08 0.1 -5.08 0.1 0 0 Z " fill="#D3D3D3" transform="translate(14.1875,6.75)"/>
<path d="M0 0 C1.71 1.62 3.37 3.29 5 5 C5 5.66 5 6.32 5 7 C6.98 6.67 8.96 6.34 11 6 C10.67 7.65 10.34 9.3 10 11 C13.33 8.78 13.75 7.65 15 4 C18.3 3.67 21.6 3.34 25 3 C24.67 4.98 24.34 6.96 24 9 C26.31 9 28.62 9 31 9 C30.67 10.65 30.34 12.3 30 14 C29.07 13.96 28.14 13.92 27.19 13.88 C23.84 13.73 23.84 13.73 21 16 C18.43 16.61 15.9 17.15 13.31 17.62 C12.61 17.76 11.91 17.89 11.19 18.03 C9.46 18.36 7.73 18.68 6 19 C6.33 17.35 6.66 15.7 7 14 C8.32 14.33 9.64 14.66 11 15 C11.33 14.34 11.66 13.68 12 13 C10.68 13 9.36 13 8 13 C8 11.68 8 10.36 8 9 C7.61 9.8 7.22 10.61 6.81 11.44 C5 14 5 14 2.31 14.81 C1.55 14.87 0.79 14.94 0 15 C0.17 14.42 0.34 13.84 0.51 13.24 C1.84 8.15 2.29 4.96 0 0 Z " fill="#848484" transform="translate(7,25)"/>
<path d="M0 0 C0.49 0.19 0.99 0.37 1.5 0.56 C5.15 1.2 8.34 0.55 12 0 C11.69 1.34 11.35 2.67 11 4 C10.73 5.03 10.46 6.06 10.19 7.12 C9 10 9 10 7.06 11.38 C5 12 5 12 2 12 C1.67 13.65 1.34 15.3 1 17 C0.34 16.67 -0.32 16.34 -1 16 C-0.67 14.68 -0.34 13.36 0 12 C-2.31 12 -4.62 12 -7 12 C-6.67 9.36 -6.34 6.72 -6 4 C-5.01 4 -4.02 4 -3 4 C-2.67 3.34 -2.34 2.68 -2 2 C-1.34 2.33 -0.68 2.66 0 3 C0 2.01 0 1.02 0 0 Z " fill="#2D2D2D" transform="translate(38,22)"/>
<path d="M0 0 C-0.66 0 -1.32 0 -2 0 C-2.14 0.95 -2.29 1.9 -2.44 2.88 C-3 6 -3 6 -4 8 C-2.68 7.01 -1.36 6.02 0 5 C0 5.66 0 6.32 0 7 C3.65 5.75 4.78 5.33 7 2 C5.68 1.67 4.36 1.34 3 1 C4.65 1 6.3 1 8 1 C8 2.32 8 3.64 8 5 C9.32 5 10.64 5 12 5 C11.67 5.99 11.34 6.98 11 8 C10.67 7.34 10.34 6.68 10 6 C9.01 6.33 8.02 6.66 7 7 C6.27 9.02 6.27 9.02 6 11 C6.64 10.8 7.28 10.59 7.94 10.38 C15.87 7.91 15.87 7.91 20.06 7.44 C21.03 7.29 22 7.15 23 7 C23.33 6.34 23.66 5.68 24 5 C25.98 5.33 27.96 5.66 30 6 C26.38 8.41 22.8 9.17 18.62 10.12 C17.87 10.31 17.11 10.49 16.34 10.68 C12.49 11.57 8.98 12.24 5 12 C4.67 10.68 4.34 9.36 4 8 C-1.45 8.99 -1.45 8.99 -7 10 C-6.34 8.35 -5.68 6.7 -5 5 C-5.3 2.27 -5.3 2.27 -6 0 C-3.51 -1.25 -2.59 -0.78 0 0 Z " fill="#060606" transform="translate(7,33)"/>
<path d="M0 0 C4.09 0.27 6.39 1.05 9.81 3.25 C10.14 4.24 10.47 5.23 10.81 6.25 C7.84 6.25 4.87 6.25 1.81 6.25 C5.77 8.73 5.77 8.73 9.81 11.25 C9.48 11.91 9.15 12.57 8.81 13.25 C7.16 13.63 5.49 13.96 3.81 14.25 C2.82 14.75 2.82 14.75 1.81 15.25 C2.47 13.6 3.13 11.95 3.81 10.25 C2.68 9.69 1.54 9.14 0.38 8.56 C-3.05 6.63 -3.05 6.63 -4.19 3.56 C-4.19 -0.05 -3.67 0.29 0 0 Z " fill="#A9A9A8" transform="translate(16.1875,14.75)"/>
<path d="M0 0 C0.79 -0.03 1.58 -0.05 2.4 -0.08 C5.15 0.33 5.87 1.15 7.62 3.25 C8.45 4.03 9.27 4.82 10.12 5.62 C12.44 8.05 14.03 10.32 15.62 13.25 C14.64 13.58 13.64 13.91 12.62 14.25 C12.25 13.77 11.87 13.29 11.49 12.79 C7.46 7.74 7.46 7.74 1.62 5.25 C0.63 5.75 0.63 5.75 -0.38 6.25 C-3 5.31 -3 5.31 -5.38 4.25 C-5.71 4.91 -6.04 5.57 -6.38 6.25 C-5.27 0.1 -5.27 0.1 0 0 Z " fill="#E7E7E7" transform="translate(14.375,6.75)"/>
<path d="M0 0 C1 1 1 1 1.13 2.93 C1.13 3.71 1.13 4.5 1.12 5.31 C1.13 6.48 1.13 6.48 1.13 7.68 C1 9.91 0.62 11.85 0 14 C-0.66 14 -1.32 14 -2 14 C-1.67 10.04 -1.34 6.08 -1 2 C-6.84 0.2 -11.92 -0.12 -18.01 -0 C-22.08 0 -25.97 -0.46 -30 -1 C-30 -1.33 -30 -1.66 -30 -2 C-20.09 -3.89 -9.28 -4.45 0 0 Z " fill="#000001" transform="translate(40,8)"/>
<path d="M0 0 C1.71 1.62 3.37 3.29 5 5 C5 5.66 5 6.32 5 7 C6.98 6.67 8.96 6.34 11 6 C10.67 7.65 10.34 9.3 10 11 C13.12 9.37 13.12 9.37 13.69 6.88 C13.84 5.95 13.84 5.95 14 5 C14.66 5 15.32 5 16 5 C15.34 7.31 14.68 9.62 14 12 C12.02 12.33 10.04 12.66 8 13 C8 11.68 8 10.36 8 9 C7.61 9.8 7.22 10.61 6.81 11.44 C5 14 5 14 2.31 14.81 C1.55 14.87 0.79 14.94 0 15 C0.17 14.42 0.34 13.84 0.51 13.24 C1.84 8.15 2.29 4.96 0 0 Z " fill="#CECECE" transform="translate(7,25)"/>
<path d="M0 0 C3.3 1.65 6.6 3.3 10 5 C10 8 10 8 8.75 9.75 C7 11 7 11 5 11.06 C1.92 9.43 1.24 7.17 0 4 C0 2.68 0 1.36 0 0 Z " fill="#0148C2" transform="translate(10,19)"/>
<path d="M0 0 C8.95 -0.46 8.95 -0.46 13 3 C14.31 5.69 14.31 5.69 15 8 C11.61 8.39 10.32 8.23 7.5 6.19 C6.68 5.47 5.85 4.74 5 4 C4.07 3.44 3.14 2.89 2.19 2.31 C1.47 1.88 0.74 1.45 0 1 C0 0.67 0 0.34 0 0 Z " fill="#020202" transform="translate(17,20)"/>
<path d="M0 0 C0.93 0.28 0.93 0.28 1.88 0.56 C4.04 1.24 4.04 1.24 6 0 C9.83 1.6 11.67 2.5 14 6 C13.48 5.84 12.97 5.67 12.44 5.5 C9.26 4.85 6.24 4.94 3 5 C2.01 5 1.02 5 0 5 C0 3.35 0 1.7 0 0 Z " fill="#090909" transform="translate(10,11)"/>
<path d="M0 0 C1.32 0 2.64 0 4 0 C4.17 4.92 4.25 8.5 2 13 C1.34 12.67 0.68 12.34 0 12 C0 8 0 4 0 0 Z " fill="#093C97" transform="translate(35,10)"/>
<path d="M0 0 C1.24 0.02 1.24 0.02 2.5 0.04 C3.32 0.04 4.15 0.05 5 0.06 C5.64 0.07 6.28 0.09 6.93 0.1 C5.94 0.76 4.95 1.42 3.93 2.1 C4.92 2.1 5.91 2.1 6.93 2.1 C6.93 3.09 6.93 4.08 6.93 5.1 C2.88 6.26 0.72 5.93 -3.07 4.1 C-3.4 4.76 -3.73 5.42 -4.07 6.1 C-3 0.14 -3 0.14 0 0 Z " fill="#BBBBBB" transform="translate(12.06640625,6.90234375)"/>
<path d="M0 0 C-0.33 2.31 -0.66 4.62 -1 7 C-3.48 6.01 -3.48 6.01 -6 5 C-6 5.99 -6 6.98 -6 8 C-6.66 8 -7.32 8 -8 8 C-7.4 5.65 -6.73 3.31 -6 1 C-4 0 -4 0 0 0 Z " fill="#C9C9C9" transform="translate(31,28)"/>
<path d="M0 0 C-0.66 1.98 -1.32 3.96 -2 6 C-3.65 6.33 -5.3 6.66 -7 7 C-7.67 5 -8.33 3 -9 1 C-5.93 0.09 -3.2 -0.09 0 0 Z " fill="#D4D4D4" transform="translate(47,25)"/>
<path d="M0 0 C1.65 0 3.3 0 5 0 C5 1.32 5 2.64 5 4 C6.32 4 7.64 4 9 4 C8.67 4.99 8.34 5.98 8 7 C7.67 6.34 7.34 5.68 7 5 C3.72 5.75 3.72 5.75 2 9 C1.67 8.01 1.34 7.02 1 6 C2.44 3.31 2.44 3.31 4 1 C2.68 0.67 1.36 0.34 0 0 Z " fill="#2B2B2B" transform="translate(10,34)"/>
<path d="M0 0 C3.62 0.38 3.62 0.38 7 1 C6.34 1.66 5.68 2.32 5 3 C4.01 3 3.02 3 2 3 C1.67 4.65 1.34 6.3 1 8 C0.34 7.67 -0.32 7.34 -1 7 C-0.67 5.68 -0.34 4.36 0 3 C-0.66 2.67 -1.32 2.34 -2 2 C-1.34 1.34 -0.68 0.68 0 0 Z " fill="#0F0F0F" transform="translate(38,31)"/>
<path d="M0 0 C0.33 0 0.66 0 1 0 C1 1.65 1 3.3 1 5 C2.32 4.34 3.64 3.68 5 3 C4.34 4.32 3.68 5.64 3 7 C1.35 7 -0.3 7 -2 7 C-1.34 4.69 -0.68 2.38 0 0 Z " fill="#CFCFCF" transform="translate(33,27)"/>
<path d="M0 0 C0.99 0.66 1.98 1.32 3 2 C3.19 5.13 3.19 5.13 3 8 C2.01 8.33 1.02 8.66 0 9 C-0.66 7.35 -1.32 5.7 -2 4 C-1.34 4 -0.68 4 0 4 C0 2.68 0 1.36 0 0 Z " fill="#A3A3A3" transform="translate(30,17)"/>
<path d="M0 0 C0.99 0.33 1.98 0.66 3 1 C2.67 3.64 2.34 6.28 2 9 C1.34 9 0.68 9 0 9 C-0.33 9.66 -0.66 10.32 -1 11 C-1 10.34 -1 9.68 -1 9 C-1.66 8.67 -2.32 8.34 -3 8 C-2.34 8 -1.68 8 -1 8 C-0.67 5.36 -0.34 2.72 0 0 Z " fill="#3D3D3D" transform="translate(22,29)"/>
<path d="M0 0 C0.99 0.33 1.98 0.66 3 1 C3 1.66 3 2.32 3 3 C5.48 3.99 5.48 3.99 8 5 C8 5.66 8 6.32 8 7 C4.28 6.5 2.43 5.89 0 3 C-0.66 2.34 -1.32 1.68 -2 1 C-1.34 0.67 -0.68 0.34 0 0 Z " fill="#A5A5A5" transform="translate(22,9)"/>
<path d="M0 0 C0.99 0 1.98 0 3 0 C3 2.31 3 4.62 3 7 C2.01 7 1.02 7 0 7 C0.28 6.1 0.28 6.1 0.56 5.19 C1.22 2.84 1.22 2.84 0 0 Z " fill="#0051D3" transform="translate(35,10)"/>
<path d="M0 0 C0.99 0.66 1.98 1.32 3 2 C2.34 3.98 1.68 5.96 1 8 C-2 4.25 -2 4.25 -2 2 C-1.34 2 -0.68 2 0 2 C0 1.34 0 0.68 0 0 Z " fill="#2C354B" transform="translate(34,11)"/>
</svg>
