<?xml version="1.0" encoding="UTF-8"?>
<!-- Generator: https://ezgif.com/webp-to-svg -->
<svg version="1.1" xmlns="http://www.w3.org/2000/svg" width="50" height="50">
<path d="M0 0 C0.49 1.48 0.49 1.48 1 3 C-0.17 5.29 -1.36 7.35 -2.75 9.5 C-3.11 10.08 -3.47 10.66 -3.84 11.26 C-8.39 18.46 -8.39 18.46 -13 20 C-17.56 20.21 -22.12 20.19 -26.68 20.19 C-28.93 20.19 -31.17 20.21 -33.42 20.22 C-34.85 20.23 -36.28 20.23 -37.71 20.23 C-39.67 20.24 -39.67 20.24 -41.66 20.24 C-44.75 20.02 -46.43 19.64 -49 18 C-49.3 12.06 -48.22 8.25 -44.9 3.32 C-38.3 -1.95 -28.6 -0.38 -20.56 -0.19 C-18.57 -0.18 -16.58 -0.18 -14.59 -0.18 C-9.72 -0.18 -4.86 -0.11 0 0 Z " fill="#090000" transform="translate(49,15)"/>
<path d="M0 0 C0.49 1.48 0.49 1.48 1 3 C-0.17 5.29 -1.36 7.35 -2.75 9.5 C-3.11 10.08 -3.47 10.66 -3.84 11.26 C-8.39 18.46 -8.39 18.46 -13 20 C-17.56 20.21 -22.12 20.19 -26.68 20.19 C-28.93 20.19 -31.17 20.21 -33.42 20.22 C-34.85 20.23 -36.28 20.23 -37.71 20.23 C-39.67 20.24 -39.67 20.24 -41.66 20.24 C-44.75 20.02 -46.43 19.64 -49 18 C-49.3 12.06 -48.22 8.25 -44.9 3.32 C-38.3 -1.95 -28.6 -0.38 -20.56 -0.19 C-18.57 -0.18 -16.58 -0.18 -14.59 -0.18 C-9.72 -0.18 -4.86 -0.11 0 0 Z M-41 2 C-41.66 3.98 -42.32 5.96 -43 8 C-42.34 8 -41.68 8 -41 8 C-40.67 7.01 -40.34 6.02 -40 5 C-37.94 4.31 -37.94 4.31 -36 4 C-36.9 5.82 -37.82 7.63 -38.75 9.44 C-39.52 10.95 -39.52 10.95 -40.3 12.5 C-42 15 -42 15 -44.2 15.85 C-45.09 15.92 -45.09 15.92 -46 16 C-46.33 15.01 -46.66 14.02 -47 13 C-46.67 14.65 -46.34 16.3 -46 18 C-41.23 18.07 -36.46 18.13 -31.69 18.16 C-30.07 18.18 -28.45 18.2 -26.83 18.23 C-24.49 18.26 -22.16 18.28 -19.83 18.29 C-19.11 18.31 -18.38 18.32 -17.64 18.34 C-13.46 18.34 -11.03 17.97 -8 15 C-8.49 14.01 -8.49 14.01 -9 13 C-10.65 13.99 -12.3 14.98 -14 16 C-12.67 12.67 -11.33 9.33 -10 6 C-11.65 6 -13.3 6 -15 6 C-15 5.34 -15 4.68 -15 4 C-11.37 3.67 -7.74 3.34 -4 3 C-4.33 4.65 -4.66 6.3 -5 8 C-4.34 8 -3.68 8 -3 8 C-2.67 6.02 -2.34 4.04 -2 2 C-14.87 2 -27.74 2 -41 2 Z " fill="#E40523" transform="translate(49,15)"/>
<path d="M0 0 C12.87 0 25.74 0 39 0 C38.67 1.98 38.34 3.96 38 6 C37.34 6 36.68 6 36 6 C36.33 4.35 36.66 2.7 37 1 C35.19 1.11 33.37 1.24 31.56 1.38 C30.55 1.44 29.54 1.51 28.5 1.59 C27.68 1.72 26.85 1.86 26 2 C25.67 2.66 25.34 3.32 25 4 C19.47 8 19.47 8 17 8 C17 7.01 17 6.02 17 5 C12.35 4.68 10.62 5.23 7 8 C4.75 7.69 4.75 7.69 3 7 C3.66 5.35 4.32 3.7 5 2 C3.02 2.27 3.02 2.27 1 3 C0.67 3.99 0.34 4.98 0 6 C-0.66 6 -1.32 6 -2 6 C-1.34 4.02 -0.68 2.04 0 0 Z " fill="#6C010B" transform="translate(8,17)"/>
<path d="M0 0 C0.7 0.19 1.4 0.37 2.12 0.56 C5.34 1.05 7.84 0.66 11 0 C10.67 0.99 10.34 1.98 10 3 C13.63 3 17.26 3 21 3 C20.67 3.99 20.34 4.98 20 6 C17.27 6.03 14.54 6.05 11.81 6.06 C11.04 6.07 10.27 6.08 9.48 6.09 C5.51 6.1 1.87 5.99 -2 5 C-1.34 3.35 -0.68 1.7 0 0 Z " fill="#CD051E" transform="translate(11,26)"/>
<path d="M0 0 C1.21 0.25 1.21 0.25 2.44 0.5 C4.98 1.27 4.98 1.27 7 0 C8.54 -0.07 10.08 -0.08 11.62 -0.06 C12.85 -0.05 12.85 -0.05 14.1 -0.04 C15.04 -0.02 15.04 -0.02 16 0 C15.24 3.78 15.24 3.78 13.06 5.75 C11 7 11 7 9 7 C9 6.01 9 5.02 9 4 C6.08 3.83 6.08 3.83 3 4 C2.34 4.66 1.68 5.32 1 6 C-0.32 6 -1.64 6 -3 6 C-1.12 1.12 -1.12 1.12 0 0 Z " fill="#D70520" transform="translate(16,18)"/>
<path d="M0 0 C0.33 0.66 0.66 1.32 1 2 C0.34 3.32 -0.32 4.64 -1 6 C6.92 6.33 14.84 6.66 23 7 C23.33 6.34 23.66 5.68 24 5 C25.32 5 26.64 5 28 5 C28.99 4.34 29.98 3.68 31 3 C29.25 6.88 29.25 6.88 27 8 C24.45 8.09 21.92 8.12 19.37 8.1 C18.24 8.1 18.24 8.1 17.09 8.09 C14.68 8.09 12.28 8.08 9.88 8.06 C8.25 8.06 6.62 8.05 4.99 8.05 C0.99 8.04 -3 8.02 -7 8 C-7.33 6.35 -7.66 4.7 -8 3 C-7.67 3.99 -7.34 4.98 -7 6 C-5.09 5.88 -5.09 5.88 -3 5 C-1.23 2.52 -1.23 2.52 0 0 Z " fill="#65010A" transform="translate(10,25)"/>
<path d="M0 0 C0.99 0 1.98 0 3 0 C2.67 1.65 2.34 3.3 2 5 C0.68 5 -0.64 5 -2 5 C-1.34 3.35 -0.68 1.7 0 0 Z " fill="#E30622" transform="translate(11,26)"/>
</svg>
