<?xml version="1.0" encoding="UTF-8"?>
<!-- Generator: https://ezgif.com/webp-to-svg -->
<svg version="1.1" xmlns="http://www.w3.org/2000/svg" width="50" height="50">
<path d="M0 0 C2.34 1.42 4.53 2.85 6.75 4.44 C7.34 4.85 7.93 5.25 8.54 5.67 C12.86 8.72 12.86 8.72 14 11 C17.03 30.91 17.03 30.91 13.23 38.55 C9.45 42.37 6.34 44.25 1 45 C2.56 26.96 2.56 26.96 7 20 C5.58 20.99 5.58 20.99 4.12 22 C1 24 1 24 -1 24 C-0.67 26.64 -0.34 29.28 0 32 C-1.65 32.66 -3.3 33.32 -5 34 C-5.66 33.34 -6.32 32.68 -7 32 C-6.9 30.91 -6.79 29.81 -6.69 28.69 C-6.6 25.07 -6.6 25.07 -8.55 23.43 C-10.33 22.18 -12.1 21.05 -14 20 C-12.48 24.3 -12.48 24.3 -10 28 C-9.76 30.86 -9.58 33.7 -9.44 36.56 C-9.39 37.37 -9.35 38.18 -9.31 39.01 C-9.2 41 -9.1 43 -9 45 C-12.45 43.76 -15.04 42.41 -17.81 40 C-18.42 39.48 -19.02 38.97 -19.64 38.44 C-21 37 -21 37 -21 35 C-21.66 35 -22.32 35 -23 35 C-22.84 34.03 -22.67 33.06 -22.5 32.06 C-22.09 29.22 -21.96 26.5 -22 23.62 C-22.08 11.53 -22.08 11.53 -19.18 7.41 C-16.87 5.62 -14.62 4.3 -12 3 C-11.02 2.35 -11.02 2.35 -10.02 1.68 C-6.24 -0.84 -4.28 -1.37 0 0 Z " fill="#5B2981" transform="translate(35,3)"/>
<path d="M0 0 C0 11.55 0 23.1 0 35 C-0.99 34.34 -1.98 33.68 -3 33 C-2.92 31.91 -2.84 30.81 -2.75 29.69 C-2.59 26.07 -2.59 26.07 -4.55 24.43 C-6.32 23.19 -8.1 22.05 -10 21 C-8.48 25.3 -8.48 25.3 -6 29 C-5.76 31.86 -5.58 34.7 -5.44 37.56 C-5.39 38.37 -5.35 39.18 -5.31 40.01 C-5.2 42 -5.1 44 -5 46 C-8.45 44.76 -11.04 43.41 -13.81 41 C-14.42 40.48 -15.02 39.97 -15.64 39.44 C-17 38 -17 38 -17 36 C-17.66 36 -18.32 36 -19 36 C-18.84 35.03 -18.67 34.06 -18.5 33.06 C-18.09 30.22 -17.96 27.5 -18 24.62 C-18.08 12.53 -18.08 12.53 -15.18 8.41 C-12.87 6.62 -10.63 5.29 -8 4 C-6.67 3.19 -5.33 2.38 -4 1.56 C-1 0 -1 0 0 0 Z " fill="#390A65" transform="translate(31,2)"/>
<path d="M0 0 C2.69 0.88 2.69 0.88 5 2 C5.19 4.37 5.19 4.37 5 7 C4.01 7.66 3.02 8.32 2 9 C2.99 9.66 3.98 10.32 5 11 C5 11.99 5 12.98 5 14 C4.01 14.5 4.01 14.5 3 15 C3.66 15.33 4.32 15.66 5 16 C4.12 19.88 4.12 19.88 3 21 C3.66 21.33 4.32 21.66 5 22 C4.69 23.88 4.69 23.88 4 26 C1 28 1 28 -3 28 C-3 27.01 -3 26.02 -3 25 C-2.34 25 -1.68 25 -1 25 C-1 24.34 -1 23.68 -1 23 C-1.66 23 -2.32 23 -3 23 C-3 22.01 -3 21.02 -3 20 C-3.99 20 -4.98 20 -6 20 C-6 18.68 -6 17.36 -6 16 C-5.01 16 -4.02 16 -3 16 C-3 15.01 -3 14.02 -3 13 C-2.34 13 -1.68 13 -1 13 C-1 12.34 -1 11.68 -1 11 C-1.66 11 -2.32 11 -3 11 C-3.08 9.54 -3.14 8.08 -3.19 6.62 C-3.22 5.81 -3.26 5 -3.29 4.16 C-3.2 3.45 -3.1 2.74 -3 2 C-2.01 1.34 -1.02 0.68 0 0 Z " fill="#660099" transform="translate(6,12)"/>
</svg>
