<?xml version="1.0" encoding="UTF-8"?>
<!-- Generator: https://ezgif.com/webp-to-svg -->
<svg version="1.1" xmlns="http://www.w3.org/2000/svg" width="50" height="50">
<path d="M0 0 C0.66 0 1.32 0 2 0 C2.33 2.64 2.66 5.28 3 8 C3.99 5.36 4.98 2.72 6 0 C16.89 0 27.78 0 39 0 C39 1.65 39 3.3 39 5 C38.01 5.33 37.02 5.66 36 6 C36.49 8.48 36.49 8.48 37 11 C36.34 11.33 35.68 11.66 35 12 C36.32 12.33 37.64 12.66 39 13 C38.12 17.75 38.12 17.75 37 20 C35.35 20 33.7 20 32 20 C31.34 21.98 30.68 23.96 30 26 C30.99 26 31.98 26 33 26 C33 26.66 33 27.32 33 28 C29.04 28.49 29.04 28.49 25 29 C27.64 29.33 30.28 29.66 33 30 C33 30.66 33 31.32 33 32 C18.48 32 3.96 32 -11 32 C-10.29 27 -9.69 23.63 -7.97 19.1 C-7.57 18.05 -7.17 16.99 -6.76 15.9 C-6.35 14.82 -5.93 13.74 -5.5 12.62 C-5.08 11.52 -4.67 10.42 -4.24 9.28 C-1.15 1.15 -1.15 1.15 0 0 Z M22 3 C23 5 23 5 23 5 Z M10 6 C9.34 7.65 8.68 9.3 8 11 C11.46 10.5 11.46 10.5 15 10 C15.33 8.68 15.66 7.36 16 6 C14.02 6 12.04 6 10 6 Z M28 6 C25.92 11.3 24.29 16.46 23 22 C23.66 22 24.32 22 25 22 C25.41 20.89 25.83 19.77 26.25 18.62 C27.36 16.01 27.75 15.17 30.19 13.56 C30.79 13.38 31.38 13.19 32 13 C31.34 12.67 30.68 12.34 30 12 C30.33 10.02 30.66 8.04 31 6 C30.01 6 29.02 6 28 6 Z M21 7 C22 9 22 9 22 9 Z M33 7 C34 9 34 9 34 9 Z M20 10 C21 12 21 12 21 12 Z M1 11 C2 13 2 13 2 13 Z M0 14 C1 16 1 16 1 16 Z M6 16 C4.68 19.63 3.36 23.26 2 27 C6.95 27 11.9 27 17 27 C17.33 24.03 17.66 21.06 18 18 C14.26 19.74 14.26 19.74 12.31 23.12 C12.16 24.05 12.16 24.05 12 25 C11.01 25.5 11.01 25.5 10 26 C10.99 22.7 11.98 19.4 13 16 C10.69 16 8.38 16 6 16 Z M-1 17 C0 19 0 19 0 19 Z M-2 19 C-1 22 -1 22 -1 22 Z M-3 22 C-3.33 23.65 -3.66 25.3 -4 27 C-2.68 27 -1.36 27 0 27 C-0.66 25.35 -1.32 23.7 -2 22 C-2.33 22 -2.66 22 -3 22 Z " fill="#FCFCFC" transform="translate(11,9)"/>
</svg>
