<?xml version="1.0" encoding="UTF-8"?>
<!-- Generator: https://ezgif.com/webp-to-svg -->
<svg version="1.1" xmlns="http://www.w3.org/2000/svg" width="50" height="50">
<path d="M0 0 C2.5 1.44 2.5 1.44 4.38 3.56 C7.37 6.21 9.62 5.65 13.5 5.44 C14.16 5.77 14.82 6.1 15.5 6.44 C16.77 13.62 16.77 13.62 15.5 17.44 C16.4 17.53 16.4 17.53 17.31 17.62 C20.37 18.76 21.05 20.61 22.5 23.44 C17.36 30.01 17.36 30.01 13.5 31.44 C14.49 31.93 14.49 31.93 15.5 32.44 C14.35 34.91 13.45 36.49 11.5 38.44 C8.88 38.56 8.88 38.56 6.5 38.44 C6.27 38.99 6.05 39.55 5.81 40.12 C4.14 43.07 1.95 45.12 -0.5 47.44 C-4.81 45.68 -8.4 42.63 -10.5 38.44 C-11.28 38.29 -12.07 38.15 -12.88 38 C-15.76 37.38 -16.74 36.76 -18.5 34.44 C-18.5 33.78 -18.5 33.12 -18.5 32.44 C-17.51 31.94 -17.51 31.94 -16.5 31.44 C-17.43 30.88 -18.36 30.32 -19.31 29.75 C-22.44 27.48 -23.8 25.84 -25.5 22.44 C-23.28 19.53 -21.57 17.48 -18.5 15.44 C-18.83 15.11 -19.16 14.78 -19.5 14.44 C-19.45 12.62 -19.45 12.62 -19.19 10.44 C-19.07 9.35 -19.07 9.35 -18.95 8.25 C-18.73 7.35 -18.73 7.35 -18.5 6.44 C-15.51 4.94 -12.79 5.32 -9.5 5.44 C-8.84 5.77 -8.18 6.1 -7.5 6.44 C-7.42 5.84 -7.34 5.24 -7.25 4.62 C-5.96 0.86 -4 -0.9 0 0 Z M-2.5 6.44 C-3.16 7.1 -3.82 7.76 -4.5 8.44 C-2.57 10.88 -0.7 13.24 1.5 15.44 C1.73 10.65 1.73 10.65 -0.5 6.44 C-1.16 6.44 -1.82 6.44 -2.5 6.44 Z M6.5 8.44 C7.5 10.44 7.5 10.44 7.5 10.44 Z M-13.5 11.44 C-13.83 12.43 -14.16 13.42 -14.5 14.44 C-11.53 14.77 -8.56 15.1 -5.5 15.44 C-6.66 13.34 -6.66 13.34 -8.5 11.44 C-11.13 11.1 -11.13 11.1 -13.5 11.44 Z M7.5 11.44 C6.84 14.41 6.18 17.38 5.5 20.44 C8.08 18.19 8.08 18.19 10.5 15.44 C10.5 14.12 10.5 12.8 10.5 11.44 C9.51 11.44 8.52 11.44 7.5 11.44 Z M1.5 16.44 C1.5 17.43 1.5 18.42 1.5 19.44 C0.51 19.93 0.51 19.93 -0.5 20.44 C0.82 21.76 2.14 23.08 3.5 24.44 C3.17 21.8 2.84 19.16 2.5 16.44 C2.17 16.44 1.84 16.44 1.5 16.44 Z M14.5 17.44 C15.5 19.44 15.5 19.44 15.5 19.44 Z M-17.12 21.94 C-17.58 22.43 -18.03 22.93 -18.5 23.44 C-15.95 25.79 -14.79 26.42 -11.25 26.62 C-10.34 26.56 -9.44 26.5 -8.5 26.44 C-11.17 24.09 -11.17 24.09 -14.5 23.44 C-14.17 22.45 -13.84 21.46 -13.5 20.44 C-15.62 20.21 -15.62 20.21 -17.12 21.94 Z M12.5 20.44 C10.06 22.36 7.7 24.24 5.5 26.44 C8.33 26.77 8.33 26.77 11.5 26.44 C13.88 24.56 13.88 24.56 15.5 22.44 C14.84 22.44 14.18 22.44 13.5 22.44 C13.17 21.78 12.84 21.12 12.5 20.44 Z M-6.5 22.44 C-6.5 23.1 -6.5 23.76 -6.5 24.44 C-5.84 24.11 -5.18 23.78 -4.5 23.44 C-5.16 23.11 -5.82 22.78 -6.5 22.44 Z M-2.5 27.44 C-2.5 28.1 -2.5 28.76 -2.5 29.44 C-1.51 29.11 -0.52 28.78 0.5 28.44 C-0.49 28.11 -1.48 27.78 -2.5 27.44 Z M-4.88 35.81 C-5.41 36.35 -5.95 36.88 -6.5 37.44 C-3.72 38.73 -3.72 38.73 -0.5 39.44 C1.88 38.19 1.88 38.19 3.5 36.44 C-0.72 34.41 -0.72 34.41 -4.88 35.81 Z " fill="#FECA00" transform="translate(26.5,1.5625)"/>
</svg>
