<?xml version="1.0" encoding="UTF-8"?>
<!-- Generator: https://ezgif.com/webp-to-svg -->
<svg version="1.1" xmlns="http://www.w3.org/2000/svg" width="50" height="50">
<path d="M0 0 C1.16 -0.03 1.16 -0.03 2.34 -0.06 C5.84 -0.09 8.09 -0.07 11.21 1.61 C12.69 3.25 12.69 3.25 12.94 5.75 C12.85 6.58 12.77 7.4 12.69 8.25 C12.64 11.11 12.64 11.11 12.88 13.37 C13.32 20.72 11.16 25.24 7.31 31.38 C6.55 32.67 6.55 32.67 5.77 33.98 C3.04 38.52 3.04 38.52 1.69 40.25 C1.03 40.25 0.37 40.25 -0.31 40.25 C-0.39 41.16 -0.48 42.06 -0.56 43 C-1.43 46.78 -2.12 48.07 -5.31 50.25 C-11.63 51 -15.34 49.08 -20.56 45.94 C-21.27 45.53 -21.98 45.13 -22.7 44.71 C-28.89 41.11 -28.89 41.11 -31.31 38.25 C-32.54 31.34 -29.2 26.89 -25.62 21.31 C-25.09 20.46 -24.56 19.6 -24.02 18.72 C-22.97 17.03 -21.91 15.35 -20.84 13.67 C-19.84 12.09 -18.86 10.49 -17.9 8.89 C-17.47 8.17 -17.03 7.45 -16.59 6.71 C-16.21 6.08 -15.84 5.44 -15.45 4.79 C-13.8 2.56 -11.95 1.91 -9.31 1.25 C-7.22 -0.84 -2.88 0.02 0 0 Z " fill="#CFF103" transform="translate(34.3125,-0.25)"/>
<path d="M0 0 C1.16 -0.03 1.16 -0.03 2.34 -0.06 C5.84 -0.09 8.09 -0.07 11.21 1.61 C12.69 3.25 12.69 3.25 12.94 5.75 C12.85 6.58 12.77 7.4 12.69 8.25 C12.64 11.11 12.64 11.11 12.88 13.37 C13.32 20.72 11.16 25.24 7.31 31.38 C6.55 32.67 6.55 32.67 5.77 33.98 C3.04 38.52 3.04 38.52 1.69 40.25 C1.03 40.25 0.37 40.25 -0.31 40.25 C-0.39 41.16 -0.48 42.06 -0.56 43 C-1.43 46.78 -2.12 48.07 -5.31 50.25 C-11.63 51 -15.34 49.08 -20.56 45.94 C-21.27 45.53 -21.98 45.13 -22.7 44.71 C-28.89 41.11 -28.89 41.11 -31.31 38.25 C-32.54 31.34 -29.2 26.89 -25.62 21.31 C-25.09 20.46 -24.56 19.6 -24.02 18.72 C-22.97 17.03 -21.91 15.35 -20.84 13.67 C-19.84 12.09 -18.86 10.49 -17.9 8.89 C-17.47 8.17 -17.03 7.45 -16.59 6.71 C-16.21 6.08 -15.84 5.44 -15.45 4.79 C-13.8 2.56 -11.95 1.91 -9.31 1.25 C-7.22 -0.84 -2.88 0.02 0 0 Z M-9.31 4.25 C-10.12 4.53 -10.92 4.8 -11.75 5.09 C-14.92 6.53 -15.66 7.83 -17.32 10.86 C-17.83 11.78 -18.34 12.7 -18.87 13.65 C-19.39 14.61 -19.9 15.57 -20.44 16.56 C-21.48 18.45 -22.53 20.35 -23.57 22.24 C-24.03 23.08 -24.48 23.92 -24.95 24.79 C-25.91 26.52 -26.91 28.22 -27.96 29.9 C-29.55 32.66 -29.84 34.12 -29.31 37.25 C-27.07 39.79 -24.16 41.44 -21.31 43.25 C-20.56 43.74 -19.8 44.23 -19.02 44.74 C-14.31 47.61 -10.99 49.25 -5.31 48.25 C-3.06 45.96 -1.71 43.28 -0.25 40.44 C0.17 39.66 0.6 38.89 1.03 38.09 C1.88 36.53 2.71 34.97 3.53 33.4 C4.52 31.56 5.58 29.75 6.66 27.95 C9.98 22.4 11.5 18.73 10.69 12.25 C10.19 10.77 10.19 10.77 9.69 9.25 C9.96 7.24 10.29 5.24 10.69 3.25 C7.53 1.67 4.15 2.07 0.69 2.06 C-0.05 2.05 -0.79 2.04 -1.55 2.03 C-5.9 1.85 -5.9 1.85 -9.31 4.25 Z " fill="#CECECF" transform="translate(34.3125,-0.25)"/>
<path d="M0 0 C4.18 0.47 6.93 1.04 10 4 C10.33 4.99 10.66 5.98 11 7 C12.07 7.1 13.14 7.21 14.25 7.31 C17.86 7.97 19.36 8.57 22 11 C21.45 14.37 20.95 16.08 19 19 C13.04 18.65 11.03 17.25 7 13 C5.34 12.63 3.67 12.29 2 12 C-0.81 9.94 -0.81 9.94 -3 8 C-2.45 4.63 -1.95 2.92 0 0 Z " fill="#DBDBDB" transform="translate(9,28)"/>
<path d="M0 0 C1.12 0.01 1.12 0.01 2.26 0.01 C3.37 0.01 3.37 0.01 4.51 0 C10.07 0.01 10.07 0.01 12.32 1.14 C12.14 2.15 11.95 3.16 11.76 4.2 C11.32 8.14 11.75 11.24 12.32 15.14 C11.94 20.35 9.05 24.35 6.38 28.7 C5.48 30.2 4.57 31.7 3.67 33.2 C3.27 33.86 2.87 34.52 2.45 35.2 C1.32 37.14 0.31 39.12 -0.68 41.14 C-2.18 38.14 -2.18 38.14 -3.68 35.14 C-2.03 35.14 -0.38 35.14 1.32 35.14 C1.53 34.35 1.73 33.57 1.95 32.76 C3.52 28.62 5.67 25.2 8.08 21.5 C9.63 18.99 9.63 18.99 9.32 15.14 C7.67 14.48 6.02 13.82 4.32 13.14 C1.68 15.45 -0.96 17.76 -3.68 20.14 C-3.68 16.52 -2.53 15.18 -0.68 12.14 C0.02 9.95 0.02 9.95 0.32 8.14 C3.41 9.34 6.39 10.61 9.32 12.14 C8.17 9.67 7.27 8.09 5.32 6.14 C5.98 6.14 6.64 6.14 7.32 6.14 C7.65 5.48 7.98 4.82 8.32 4.14 C8.32 4.8 8.32 5.46 8.32 6.14 C8.98 6.14 9.64 6.14 10.32 6.14 C10.65 4.82 10.98 3.5 11.32 2.14 C8.02 2.14 4.72 2.14 1.32 2.14 C0.99 2.8 0.66 3.46 0.32 4.14 C-1.66 3.48 -3.64 2.82 -5.68 2.14 C-5.68 3.13 -5.68 4.12 -5.68 5.14 C-5.02 5.47 -4.36 5.8 -3.68 6.14 C-5.99 5.81 -8.3 5.48 -10.68 5.14 C-12.99 9.1 -15.3 13.06 -17.68 17.14 C-18.01 16.48 -18.34 15.82 -18.68 15.14 C-17.42 12.39 -17.42 12.39 -15.55 9.14 C-14.95 8.06 -14.35 6.99 -13.73 5.89 C-11.5 2.9 -10.18 2.17 -6.68 1.14 C-4.87 -0.68 -2.41 0 0 0 Z " fill="#212511" transform="translate(32.677734375,1.86328125)"/>
<path d="M0 0 C1.36 2.73 0.88 4.61 0.56 7.62 C0.46 8.63 0.36 9.63 0.25 10.66 C0.17 11.43 0.09 12.21 0 13 C1.65 13.66 3.3 14.32 5 15 C7.97 12.36 10.94 9.72 14 7 C14 11.75 11.36 14.93 9 19 C5.7 18.67 2.4 18.34 -1 18 C-1.33 16.68 -1.66 15.36 -2 14 C-5.35 11.47 -6.7 11 -11 11 C-12.32 13.17 -13.03 14.5 -12.88 17.06 C-11.7 19.67 -10.5 20.61 -8 22 C-5.33 22.25 -5.33 22.25 -3 22 C-2.75 22.62 -2.51 23.24 -2.25 23.88 C-0.74 26.44 0.21 27.04 3 28 C5.54 28.42 5.54 28.42 8 28 C9.81 26.6 9.81 26.6 11 25 C10.01 27.48 10.01 27.48 9 30 C-0.71 31.03 -7.74 24.76 -15 19 C-14.84 11.73 -11.05 6.84 -7 1 C-5.67 3.67 -6.33 5.17 -7 8 C-6.34 8 -5.68 8 -5 8 C-3.64 6.21 -3.64 6.21 -2.38 4 C-1.93 3.26 -1.48 2.52 -1.02 1.75 C-0.69 1.17 -0.35 0.59 0 0 Z " fill="#171916" transform="translate(20,18)"/>
<path d="M0 0 C4.22 0.48 6.8 1.17 10 4 C9.44 7.34 8.65 10.03 7 13 C2.6 12.5 0.29 10.91 -3 8 C-2.45 4.63 -1.95 2.92 0 0 Z " fill="#E0E0E0" transform="translate(9,28)"/>
<path d="M0 0 C0.66 0.33 1.32 0.66 2 1 C1.69 2.94 1.69 2.94 1 5 C0.01 5.33 -0.98 5.66 -2 6 C-1.01 6.99 -0.02 7.98 1 9 C0.67 9.99 0.34 10.98 0 12 C-2.97 10.35 -5.94 8.7 -9 7 C-9.33 8.32 -9.66 9.64 -10 11 C-13 6.25 -13 6.25 -13 4 C-13.66 4 -14.32 4 -15 4 C-15 3.01 -15 2.02 -15 1 C-14.07 1.21 -13.14 1.41 -12.19 1.62 C-7.74 2.15 -4.86 -0.31 0 0 Z " fill="#CEEF04" transform="translate(42,3)"/>
<path d="M0 0 C0.66 0.33 1.32 0.66 2 1 C1.67 2.32 1.34 3.64 1 5 C-1.31 5 -3.62 5 -6 5 C-6.66 3.68 -7.32 2.36 -8 1 C-5.26 -0.37 -3.03 -0.13 0 0 Z " fill="#C8C9C6" transform="translate(42,3)"/>
<path d="M0 0 C5.75 0.75 5.75 0.75 8 3 C6.68 3 5.36 3 4 3 C4 3.66 4 4.32 4 5 C4.66 5 5.32 5 6 5 C6 6.65 6 8.3 6 10 C2 5.25 2 5.25 2 3 C1.34 3 0.68 3 0 3 C0 2.01 0 1.02 0 0 Z " fill="#B2CE07" transform="translate(27,4)"/>
<path d="M0 0 C2.48 0.99 2.48 0.99 5 2 C4.67 3.32 4.34 4.64 4 6 C2.02 5.34 0.04 4.68 -2 4 C-1.34 2.68 -0.68 1.36 0 0 Z " fill="#0D0D11" transform="translate(22,38)"/>
<path d="M0 0 C1.98 0.66 3.96 1.32 6 2 C6 2.66 6 3.32 6 4 C5.01 4.33 4.02 4.66 3 5 C2.67 5.66 2.34 6.32 2 7 C0.68 5.68 -0.64 4.36 -2 3 C-1.34 2.34 -0.68 1.68 0 1 C0 0.67 0 0.34 0 0 Z " fill="#757576" transform="translate(11,31)"/>
<path d="M0 0 C1.65 1.32 3.3 2.64 5 4 C5.62 3.69 6.24 3.38 6.88 3.06 C8.25 2.38 9.62 1.69 11 1 C9.85 3.47 8.95 5.05 7 7 C3.88 7.12 3.88 7.12 1 7 C0.67 4.69 0.34 2.38 0 0 Z " fill="#272B1A" transform="translate(18,29)"/>
<path d="M0 0 C0 0.33 0 0.66 0 1 C-1.7 1.22 -1.7 1.22 -3.44 1.44 C-6.81 1.61 -6.81 1.61 -8 3 C-9.67 3.04 -11.33 3.04 -13 3 C-8.5 -1.64 -5.96 -1.21 0 0 Z " fill="#DEDEDE" transform="translate(34,1)"/>
<path d="M0 0 C0.99 0 1.98 0 3 0 C2.25 4.75 2.25 4.75 0 7 C-0.99 5.68 -1.98 4.36 -3 3 C-1.68 3 -0.36 3 1 3 C0.67 2.01 0.34 1.02 0 0 Z " fill="#F6F6F6" transform="translate(16,32)"/>
<path d="M0 0 C0.33 0 0.66 0 1 0 C1.26 3.06 1.22 4.63 -0.38 7.31 C-1.18 8.15 -1.18 8.15 -2 9 C-2.66 9 -3.32 9 -4 9 C-2.8 5.92 -1.52 2.94 0 0 Z " fill="#E0E0E0" transform="translate(9,21)"/>
<path d="M0 0 C1.98 0 3.96 0 6 0 C5.01 1.98 4.02 3.96 3 6 C2 4 1 2 0 0 Z " fill="#2D2F26" transform="translate(29,37)"/>
</svg>
