<?xml version="1.0" encoding="UTF-8"?>
<!-- Generator: https://ezgif.com/webp-to-svg -->
<svg version="1.1" xmlns="http://www.w3.org/2000/svg" width="50" height="50">
<path d="M0 0 C0.66 0 1.32 0 2 0 C2.33 2.31 2.66 4.62 3 7 C3.99 6.67 4.98 6.34 6 6 C7.48 5.85 8.96 5.75 10.45 5.68 C11.72 5.62 11.72 5.62 13.02 5.56 C14.34 5.5 14.34 5.5 15.69 5.44 C17.03 5.37 17.03 5.37 18.39 5.31 C20.59 5.2 22.8 5.1 25 5 C25 5.66 25 6.32 25 7 C19.06 9.97 13.12 12.94 7 16 C7.49 20.45 7.49 20.45 8 25 C7.41 24.61 6.83 24.21 6.23 23.81 C2.33 21.75 -0.85 20.34 -5.26 21.69 C-10.13 23.8 -14.74 26.39 -19.3 29.11 C-21 30 -21 30 -23 30 C-21.51 26.72 -19.61 24.07 -17.38 21.25 C-16.74 20.45 -16.11 19.65 -15.46 18.83 C-14.98 18.22 -14.5 17.62 -14 17 C-16.49 15.03 -18.8 13.5 -21.75 12.31 C-22.82 11.88 -23.89 11.45 -25 11 C-25 10.34 -25 9.68 -25 9 C-24.06 8.94 -24.06 8.94 -23.1 8.88 C-20.28 8.69 -17.45 8.47 -14.62 8.25 C-13.64 8.19 -12.66 8.13 -11.64 8.06 C-10.7 7.99 -9.76 7.91 -8.79 7.83 C-7.92 7.77 -7.05 7.7 -6.15 7.64 C-3.85 7.21 -3.85 7.21 -2.83 5.14 C-2.55 4.43 -2.28 3.73 -2 3 C-1.34 2.01 -0.68 1.02 0 0 Z " fill="#9533B1" transform="translate(25,10)"/>
<path d="M0 0 C0 0.66 0 1.32 0 2 C-8.91 6.45 -8.91 6.45 -18 11 C-17.67 13.97 -17.34 16.94 -17 20 C-19.31 19.01 -21.62 18.02 -24 17 C-23.67 16.34 -23.34 15.68 -23 15 C-22.34 15 -21.68 15 -21 15 C-21.33 14.34 -21.66 13.68 -22 13 C-22.99 12.67 -23.98 12.34 -25 12 C-25 11.34 -25 10.68 -25 10 C-21.37 8.35 -17.74 6.7 -14 5 C-14.99 4.34 -15.98 3.68 -17 3 C-17 2.34 -17 1.68 -17 1 C-11.3 0.36 -5.73 -0.12 0 0 Z " fill="#9432B3" transform="translate(50,15)"/>
<path d="M0 0 C0.66 0 1.32 0 2 0 C2 0.99 2 1.98 2 3 C5.63 3 9.26 3 13 3 C11.64 5.72 10.14 6.08 7.41 7.38 C6.02 8.05 6.02 8.05 4.59 8.73 C3.12 9.42 3.12 9.42 1.62 10.12 C0.65 10.59 -0.32 11.06 -1.32 11.54 C-8.62 15 -8.62 15 -12 15 C-10.19 12.69 -8.38 10.37 -6.56 8.06 C-6.05 7.4 -5.53 6.74 -5 6.06 C-4.5 5.44 -4.01 4.81 -3.5 4.16 C-3.05 3.58 -2.59 3 -2.12 2.4 C-1 1 -1 1 0 0 Z " fill="#F2EC6C" transform="translate(24,16)"/>
<path d="M0 0 C0 0.66 0 1.32 0 2 C2.97 2 5.94 2 9 2 C8.34 3.32 7.68 4.64 7 6 C4.24 5.48 1.67 4.89 -1 4 C-1.33 4.66 -1.66 5.32 -2 6 C-4.31 5.01 -6.62 4.02 -9 3 C-9 2.34 -9 1.68 -9 1 C-5.94 0.46 -3.11 0 0 0 Z " fill="#C08999" transform="translate(9,18)"/>
<path d="M0 0 C2.31 0 4.62 0 7 0 C7 0.99 7 1.98 7 3 C4.69 2.67 2.38 2.34 0 2 C0 1.34 0 0.68 0 0 Z " fill="#9431B4" transform="translate(0,19)"/>
</svg>
