<?xml version="1.0" encoding="UTF-8"?>
<!-- Generator: https://ezgif.com/webp-to-svg -->
<svg version="1.1" xmlns="http://www.w3.org/2000/svg" width="50" height="50">
<path d="M0 0 C0 6.6 0 13.2 0 20 C2.64 14.06 5.28 8.12 8 2 C10.31 2 12.62 2 15 2 C14.75 2.77 14.75 2.77 14.49 3.55 C13.83 6.83 14 9.87 14.11 13.21 C14.15 14.64 14.18 16.06 14.21 17.48 C14.25 19.71 14.31 21.94 14.4 24.17 C14.48 26.33 14.52 28.49 14.55 30.65 C14.59 31.94 14.63 33.23 14.67 34.56 C13.97 38.14 13.69 38.71 11.09 40.96 C8 43 8 43 6 43 C5.67 43.99 5.34 44.98 5 46 C4.34 46 3.68 46 3 46 C3.28 44.52 3.58 43.04 3.88 41.56 C4.04 40.74 4.2 39.92 4.37 39.07 C4.68 38.04 4.68 38.04 5 37 C5.99 36.51 5.99 36.51 7 36 C7 31.05 7 26.1 7 21 C6.01 22.98 5.02 24.96 4 27 C2.94 27.94 2.94 27.94 1.86 28.9 C-0.86 31.97 -0.57 34.53 -0.69 38.56 C-0.91 45.74 -0.91 45.74 -2 49 C-2.66 49 -3.32 49 -4 49 C-5.18 45.45 -5.15 42.43 -5.25 38.69 C-5.48 32.47 -5.48 32.47 -8.5 27.19 C-9.32 26.47 -10.15 25.74 -11 25 C-11.33 24.34 -11.66 23.68 -12 23 C-12.25 25.1 -12.47 27.21 -12.69 29.31 C-12.88 31.07 -12.88 31.07 -13.07 32.86 C-13.33 35.97 -13.33 35.97 -11.56 37.69 C-11.05 38.12 -10.53 38.55 -10 39 C-9.31 42.69 -9.31 42.69 -9 46 C-9.99 45.67 -10.98 45.34 -12 45 C-12 44.34 -12 43.68 -12 43 C-12.9 42.57 -12.9 42.57 -13.81 42.12 C-16 41 -16 41 -19 39 C-19.33 36.42 -19.46 34.06 -19.48 31.47 C-19.49 30.73 -19.51 29.98 -19.52 29.22 C-19.57 26.83 -19.6 24.45 -19.62 22.06 C-19.66 19.68 -19.7 17.3 -19.75 14.92 C-19.77 13.44 -19.8 11.95 -19.81 10.47 C-19.86 7.39 -20.02 4.95 -21 2 C-18.69 2 -16.38 2 -14 2 C-11.36 7.94 -8.72 13.88 -6 20 C-6 13.4 -6 6.8 -6 0 C-4 -1 -4 -1 0 0 Z M-14 19 C-13 21 -13 21 -13 21 Z " fill="#811416" transform="translate(28,1)"/>
<path d="M0 0 C0.04 0.76 0.07 1.52 0.11 2.3 C0.18 3.29 0.24 4.29 0.31 5.31 C0.4 6.79 0.4 6.79 0.49 8.3 C1.06 11.34 1.79 11.98 4 14 C4.69 17.69 4.69 17.69 5 21 C4.01 20.67 3.02 20.34 2 20 C2 19.34 2 18.68 2 18 C1.1 17.57 1.1 17.57 0.19 17.12 C-2 16 -2 16 -5 14 C-5.29 10.96 -5.29 10.96 -5.19 7.38 C-5.16 6.19 -5.13 5 -5.11 3.77 C-5.07 2.86 -5.04 1.94 -5 1 C-1.12 0 -1.12 0 0 0 Z " fill="#5F1010" transform="translate(14,26)"/>
<path d="M0 0 C0.99 0 1.98 0 3 0 C3.03 1.6 3.05 3.21 3.06 4.81 C3.07 5.71 3.09 6.6 3.1 7.52 C3 10 3 10 2 13 C1.34 13 0.68 13 0 13 C-0.95 10.16 -1.13 8.32 -1.12 5.38 C-1.13 4.58 -1.13 3.78 -1.13 2.96 C-1 1 -1 1 0 0 Z " fill="#661112" transform="translate(24,37)"/>
</svg>
