<?xml version="1.0" encoding="UTF-8"?>
<!-- Generator: https://ezgif.com/webp-to-svg -->
<svg version="1.1" xmlns="http://www.w3.org/2000/svg" width="100" height="100">
<path d="M0 0 C5.05 0.07 10.11 0.16 15.16 0.26 C16.88 0.3 18.6 0.32 20.32 0.35 C22.79 0.38 25.26 0.43 27.73 0.49 C28.5 0.49 29.27 0.5 30.06 0.51 C33.25 0.6 35.65 0.82 38.51 2.3 C40 4 40 4 40.06 7.69 C38.92 14.97 36.32 22.02 34 29 C30.7 29 27.4 29 24 29 C24.55 21.91 26.61 15.67 29 9 C27.68 9 26.36 9 25 9 C24.84 9.91 24.84 9.91 24.67 10.84 C23.49 17.04 21.89 22.97 20 29 C16.7 29 13.4 29 10 29 C10.55 21.91 12.61 15.67 15 9 C13.68 9 12.36 9 11 9 C10.89 9.61 10.78 10.21 10.67 10.84 C9.49 17.04 7.89 22.97 6 29 C2.37 29 -1.26 29 -5 29 C-4.72 27.94 -4.45 26.88 -4.16 25.78 C-3.79 24.35 -3.43 22.93 -3.06 21.5 C-2.88 20.8 -2.7 20.11 -2.51 19.39 C-0.87 12.93 0.07 6.69 0 0 Z " fill="#FEFFFF" transform="translate(6,41)"/>
<path d="M0 0 C3.3 0 6.6 0 10 0 C9 8.57 9 8.57 8 12 C9.24 11.94 10.47 11.88 11.75 11.81 C15.51 11.62 17.16 12.56 20 15 C16.48 35.52 16.48 35.52 12 40 C9.66 40.23 9.66 40.23 6.77 40.2 C5.23 40.19 5.23 40.19 3.65 40.18 C2.57 40.16 1.49 40.14 0.38 40.12 C-0.71 40.12 -1.8 40.11 -2.92 40.1 C-5.61 40.07 -8.31 40.04 -11 40 C-7.81 26.53 -3.94 13.27 0 0 Z M5 20 C4.49 21.44 4 22.87 3.5 24.31 C3.22 25.11 2.94 25.91 2.66 26.74 C1.86 29.09 1.86 29.09 2 32 C3.32 31.67 4.64 31.34 6 31 C6.99 27.37 7.98 23.74 9 20 C7.68 20 6.36 20 5 20 Z " fill="#FEFFFF" transform="translate(55,30)"/>
<path d="M0 0 C-1.56 3.83 -3.88 6.32 -7 9 C-8.32 9 -9.64 9 -11 9 C-11.11 9.61 -11.22 10.21 -11.33 10.84 C-12.51 17.04 -14.11 22.97 -16 29 C-19.63 29 -23.26 29 -27 29 C-25.52 22.79 -23.98 16.61 -22.12 10.5 C-21.84 9.54 -21.55 8.58 -21.26 7.59 C-19.66 4.29 -18.12 2.91 -15 1 C-11.74 0.39 -11.74 0.39 -8.31 0.25 C-7.17 0.19 -6.04 0.14 -4.86 0.08 C-3.24 0.03 -1.62 0 0 0 Z " fill="#FFFFFF" transform="translate(99,41)"/>
<path d="M0 0 C1.37 0.02 1.37 0.02 2.78 0.04 C3.7 0.04 4.62 0.05 5.56 0.06 C6.27 0.07 6.98 0.09 7.71 0.1 C7.05 3.07 6.39 6.04 5.71 9.1 C-0.91 9.35 -0.91 9.35 -4.29 7.1 C-3.25 0.14 -3.25 0.14 0 0 Z " fill="#FEFFFF" transform="translate(43.28515625,29.90234375)"/>
</svg>
