<?xml version="1.0" encoding="UTF-8"?>
<svg version="1.1" xmlns="http://www.w3.org/2000/svg" width="50" height="50">
<path d="M0 0 C0 13.2 0 26.4 0 40 C-2.31 40 -4.62 40 -7 40 C-7 36.7 -7 33.4 -7 30 C-10.3 30 -13.6 30 -17 30 C-16.94199219 30.94101562 -16.88398437 31.88203125 -16.82421875 32.8515625 C-16.40948183 44.2983016 -16.40948183 44.2983016 -19.1875 47.875 C-22 50 -22 50 -24.4375 50.75 C-28.42026368 49.58431307 -30.91802241 47.50753549 -33 44 C-33.77630654 40.32514633 -33.9866539 36.75025452 -34 33 C-34.99 33.99 -35.98 34.98 -37 36 C-40.875 34.125 -40.875 34.125 -42 33 C-42.33 35.31 -42.66 37.62 -43 40 C-45.31 40 -47.62 40 -50 40 C-50 30.1 -50 20.2 -50 10 C-47.06955453 12.93044547 -44.33051509 15.67776117 -41.6875 18.8125 C-41.17574219 19.41707031 -40.66398437 20.02164062 -40.13671875 20.64453125 C-39.76160156 21.09183594 -39.38648438 21.53914063 -39 22 C-35.11219752 20.47982555 -33.34951413 18.11905085 -30.8125 14.875 C-26.76349356 10.19375667 -26.76349356 10.19375667 -23.4140625 9.34375 C-20.9375 9.375 -20.9375 9.375 -17 10 C-17 13.63 -17 17.26 -17 21 C-13.7 21 -10.4 21 -7 21 C-7.10441406 19.48019531 -7.10441406 19.48019531 -7.2109375 17.9296875 C-7.72088137 7.29239092 -7.72088137 7.29239092 -5.69921875 3.66796875 C-1.95985401 0 -1.95985401 0 0 0 Z " fill="#EFEFEF" transform="translate(50,0)"/>
</svg>
