<?xml version="1.0" encoding="UTF-8"?>
<!-- Generator: https://ezgif.com/webp-to-svg -->
<svg version="1.1" xmlns="http://www.w3.org/2000/svg" width="50" height="50">
<path d="M0 0 C0.99 0 1.98 0 3 0 C4.61 3.65 5.45 7.05 6 11 C6.43 10.57 6.87 10.13 7.31 9.69 C7.87 9.13 8.43 8.57 9 8 C9.47 7.42 9.95 6.84 10.44 6.25 C11.21 5.63 11.21 5.63 12 5 C14.19 5.31 14.19 5.31 16 6 C16 6.66 16 7.32 16 8 C16.99 8.33 17.98 8.66 19 9 C19.08 10.6 19.14 12.21 19.19 13.81 C19.24 15.15 19.24 15.15 19.29 16.52 C18.94 19.48 18.14 20.06 16 22 C15.48 27.12 16.47 31.72 17.66 36.67 C18.02 39.12 17.77 40.67 17 43 C12.98 43.84 9.98 44.05 6 43 C4.68 45.31 3.36 47.62 2 50 C1.34 50 0.68 50 0 50 C-0.43 49.03 -0.87 48.06 -1.31 47.06 C-2.7 43.72 -2.7 43.72 -6 43 C-7.21 43.25 -7.21 43.25 -8.44 43.5 C-11.07 44.01 -12.49 43.84 -15 43 C-15.89 38.35 -16.08 36.14 -14 32 C-13.65 29.55 -13.65 29.55 -13.69 27 C-13.67 26.15 -13.65 25.31 -13.64 24.44 C-14.07 21.52 -15.21 20.3 -17 18 C-17.59 15.26 -17.5 12.75 -17 10 C-15.38 7.5 -15.38 7.5 -13 6 C-9.94 5.44 -9.94 5.44 -7 6 C-5.12 8.5 -5.12 8.5 -4 11 C-3.8 10.29 -3.59 9.58 -3.38 8.85 C-3.11 7.93 -2.84 7.01 -2.56 6.06 C-2.3 5.15 -2.03 4.23 -1.75 3.29 C-1 1 -1 1 0 0 Z M6 17 C7 19 7 19 7 19 Z " fill="#0DACBC" transform="translate(24,0)"/>
<path d="M0 0 C0.33 0.66 0.66 1.32 1 2 C1.66 2 2.32 2 3 2 C3.33 3.98 3.66 5.96 4 8 C4.43 7.57 4.87 7.13 5.31 6.69 C5.87 6.13 6.43 5.57 7 5 C7.47 4.42 7.95 3.84 8.44 3.25 C8.95 2.84 9.47 2.42 10 2 C12.19 2.31 12.19 2.31 14 3 C14 3.66 14 4.32 14 5 C14.99 5.33 15.98 5.66 17 6 C17.08 7.6 17.14 9.21 17.19 10.81 C17.24 12.15 17.24 12.15 17.29 13.52 C16.94 16.48 16.14 17.06 14 19 C13.48 24.12 14.47 28.72 15.66 33.67 C16.02 36.12 15.77 37.67 15 40 C10.98 40.84 7.98 41.05 4 40 C2.68 42.31 1.36 44.62 0 47 C-0.66 47 -1.32 47 -2 47 C-2.43 46.03 -2.87 45.06 -3.31 44.06 C-4.7 40.72 -4.7 40.72 -8 40 C-10.64 40.39 -10.64 40.39 -13 41 C-13 40.01 -13 39.02 -13 38 C-10.03 37.34 -7.06 36.68 -4 36 C-2.52 39.47 -2.52 39.47 -1 43 C1.4 38.43 3.25 33.84 5 29 C1.04 29 -2.92 29 -7 29 C-6.34 28.01 -5.68 27.02 -5 26 C-5 25.01 -5 24.02 -5 23 C-5.66 22.34 -6.32 21.68 -7 21 C-6.6 18.04 -5.4 15.62 -4 13 C-3.34 15.31 -2.68 17.62 -2 20 C-1.01 19.67 -0.02 19.34 1 19 C1.03 16.96 1.05 14.92 1.06 12.88 C1.07 11.74 1.09 10.6 1.1 9.43 C1.01 6.19 0.61 3.18 0 0 Z M4 14 C5 16 5 16 5 16 Z " fill="#7DC1D1" transform="translate(26,3)"/>
<path d="M0 0 C2.75 2.37 3.74 4.63 5 8 C5.99 9.48 5.99 9.48 7 11 C6.67 11.99 6.34 12.98 6 14 C5.34 14 4.68 14 4 14 C7.63 14.33 11.26 14.66 15 15 C14.25 21.75 14.25 21.75 12 24 C11.29 25.98 10.61 27.98 10 30 C8 28.25 8 28.25 6 26 C6 24.68 6 23.36 6 22 C5.37 22.22 4.75 22.43 4.1 22.66 C3.28 22.93 2.47 23.21 1.62 23.5 C0.81 23.78 0 24.06 -0.84 24.34 C-3 25 -3 25 -5 25 C-5 24.01 -5 23.02 -5 22 C-4.34 22 -3.68 22 -3 22 C-2.94 21.4 -2.89 20.81 -2.83 20.2 C-2.58 17.51 -2.32 14.82 -2.06 12.12 C-1.98 11.19 -1.89 10.25 -1.8 9.29 C-1.71 8.39 -1.62 7.49 -1.54 6.57 C-1.46 5.74 -1.38 4.92 -1.3 4.06 C-1 2 -1 2 0 0 Z " fill="#7CD1EB" transform="translate(16,17)"/>
<path d="M0 0 C0 0.66 0 1.32 0 2 C0.99 2.33 1.98 2.66 3 3 C3.08 4.6 3.14 6.21 3.19 7.81 C3.22 8.71 3.26 9.6 3.29 10.52 C2.94 13.48 2.14 14.06 0 16 C-0.52 21.12 0.47 25.72 1.66 30.67 C2.02 33.12 1.77 34.67 1 37 C0.34 37 -0.32 37 -1 37 C-1 35.02 -1 33.04 -1 31 C-1.99 30.67 -2.98 30.34 -4 30 C-3.91 27.6 -3.81 25.21 -3.69 22.81 C-3.65 21.8 -3.65 21.8 -3.62 20.77 C-3.38 16.39 -2.58 13.56 0 10 C-0.99 9.67 -1.98 9.34 -3 9 C-3 8.01 -3 7.02 -3 6 C-3.66 5.67 -4.32 5.34 -5 5 C-4.67 5.99 -4.34 6.98 -4 8 C-5.32 7.67 -6.64 7.34 -8 7 C-7.25 10.28 -7.25 10.28 -4 12 C-4.33 12.99 -4.66 13.98 -5 15 C-5.22 16.89 -5.41 18.79 -5.56 20.69 C-5.65 21.68 -5.73 22.68 -5.82 23.7 C-5.88 24.46 -5.94 25.22 -6 26 C-6.33 26 -6.66 26 -7 26 C-6.97 24.63 -6.97 24.63 -6.93 23.23 C-6.91 22.04 -6.89 20.85 -6.88 19.62 C-6.84 17.85 -6.84 17.85 -6.8 16.04 C-6.67 12.89 -6.67 12.89 -9 11 C-9.51 6.37 -8.77 3.73 -6 0 C-3.51 -1.25 -2.59 -0.78 0 0 Z " fill="#16A5BD" transform="translate(40,6)"/>
<path d="M0 0 C0 0.66 0 1.32 0 2 C-1.65 2 -3.3 2 -5 2 C-5 3.98 -5 5.96 -5 8 C-3.35 8.33 -1.7 8.66 0 9 C-0.11 11.54 -0.24 14.08 -0.38 16.62 C-0.42 17.69 -0.42 17.69 -0.47 18.79 C-0.71 23.17 -1.39 26.86 -3 31 C-3.66 31 -4.32 31 -5 31 C-5 32.32 -5 33.64 -5 35 C-5.66 35 -6.32 35 -7 35 C-7.89 30.35 -8.08 28.14 -6 24 C-5.65 21.55 -5.65 21.55 -5.69 19 C-5.67 18.15 -5.65 17.31 -5.64 16.44 C-6.07 13.54 -7.17 12.24 -9 10 C-9 9.34 -9 8.68 -9 8 C-8.34 8 -7.68 8 -7 8 C-6.88 6.87 -6.75 5.73 -6.62 4.56 C-6.42 3.39 -6.21 2.21 -6 1 C-4 0 -4 0 0 0 Z " fill="#138EA0" transform="translate(16,8)"/>
<path d="M0 0 C0.33 0.66 0.66 1.32 1 2 C1.66 2 2.32 2 3 2 C3.26 5.39 3.48 8.79 3.69 12.19 C3.76 13.15 3.83 14.11 3.91 15.1 C4.43 23.89 4.43 23.89 1 28 C1.66 28 2.32 28 3 28 C3 27.34 3 26.68 3 26 C3.66 26.33 4.32 26.66 5 27 C5 27.66 5 28.32 5 29 C1.04 29 -2.92 29 -7 29 C-6.01 27.52 -6.01 27.52 -5 26 C-5 25.01 -5 24.02 -5 23 C-5.66 22.34 -6.32 21.68 -7 21 C-6.6 18.04 -5.4 15.62 -4 13 C-3.34 15.31 -2.68 17.62 -2 20 C-1.01 19.67 -0.02 19.34 1 19 C1.03 16.96 1.05 14.92 1.06 12.88 C1.07 11.74 1.09 10.6 1.1 9.43 C1.01 6.19 0.61 3.18 0 0 Z " fill="#456484" transform="translate(26,3)"/>
<path d="M0 0 C0.9 1.14 0.9 1.14 1.81 2.31 C3.47 4.35 5.1 6.2 7 8 C6.67 8.99 6.34 9.98 6 11 C3.69 10.67 1.38 10.34 -1 10 C-2.32 12.31 -3.64 14.62 -5 17 C-5.66 17 -6.32 17 -7 17 C-7.43 16.03 -7.87 15.06 -8.31 14.06 C-9.7 10.72 -9.7 10.72 -13 10 C-15.64 10.39 -15.64 10.39 -18 11 C-18 10.01 -18 9.02 -18 8 C-15.03 7.34 -12.06 6.68 -9 6 C-8.01 8.31 -7.02 10.62 -6 13 C-3.81 8.73 -1.86 4.42 0 0 Z " fill="#09BFDB" transform="translate(31,33)"/>
<path d="M0 0 C2.33 4.65 3.11 7.31 3.06 12.62 C3.05 13.81 3.04 15 3.04 16.23 C3.02 17.14 3.01 18.06 3 19 C1.35 19.66 -0.3 20.32 -2 21 C-4.29 16.42 -3.71 9.48 -2.33 4.65 C-1.5 2.75 -1.5 2.75 0 0 Z " fill="#8599A1" transform="translate(25,3)"/>
<path d="M0 0 C2.75 2.37 3.74 4.63 5 8 C5.99 9.48 5.99 9.48 7 11 C6.67 11.99 6.34 12.98 6 14 C5.34 14 4.68 14 4 14 C3.67 14.66 3.34 15.32 3 16 C6.3 16 9.6 16 13 16 C12.34 16.33 11.68 16.66 11 17 C11 17.99 11 18.98 11 20 C7.62 20.62 7.62 20.62 4 21 C3.34 20.34 2.68 19.68 2 19 C1.34 19.33 0.68 19.66 0 20 C0.16 19.2 0.33 18.39 0.5 17.56 C1.33 11.66 1.5 5.81 0 0 Z " fill="#BABECA" transform="translate(16,17)"/>
<path d="M0 0 C0.33 2.31 0.66 4.62 1 7 C-0.32 6.67 -1.64 6.34 -3 6 C-3 5.01 -3 4.02 -3 3 C-3.66 2.67 -4.32 2.34 -5 2 C-4.67 2.99 -4.34 3.98 -4 5 C-5.32 4.67 -6.64 4.34 -8 4 C-7.25 7.28 -7.25 7.28 -4 9 C-4.33 9.99 -4.66 10.98 -5 12 C-5.22 13.89 -5.41 15.79 -5.56 17.69 C-5.65 18.68 -5.73 19.68 -5.82 20.7 C-5.88 21.46 -5.94 22.22 -6 23 C-6.33 23 -6.66 23 -7 23 C-6.97 21.63 -6.97 21.63 -6.93 20.23 C-6.91 19.04 -6.89 17.85 -6.88 16.62 C-6.84 14.85 -6.84 14.85 -6.8 13.04 C-6.67 9.89 -6.67 9.89 -9 8 C-9.38 5.06 -9.38 5.06 -9 2 C-6.1 -1.33 -4.09 -1.25 0 0 Z " fill="#2D7586" transform="translate(40,9)"/>
<path d="M0 0 C0.99 0.33 1.98 0.66 3 1 C2.67 1.99 2.34 2.98 2 4 C2.66 4 3.32 4 4 4 C4.33 3.34 4.66 2.68 5 2 C5.69 3.75 5.69 3.75 6 6 C5.29 6.87 5.29 6.87 4.56 7.75 C2.55 10.65 2.5 12.75 2.31 16.25 C2.25 17.33 2.18 18.41 2.11 19.52 C2.08 20.34 2.04 21.16 2 22 C1.34 21.67 0.68 21.34 0 21 C-0.18 10.44 -0.18 10.44 1 6 C-0.32 5.67 -1.64 5.34 -3 5 C-3 4.01 -3 3.02 -3 2 C-2.01 2 -1.02 2 0 2 C0 1.34 0 0.68 0 0 Z " fill="#4DC8ED" transform="translate(35,11)"/>
<path d="M0 0 C0.66 0 1.32 0 2 0 C4.18 6.55 3.1 12.69 1.05 19.15 C-0.27 21.47 -1.56 22.04 -4 23 C-4 22.01 -4 21.02 -4 20 C-3.34 20 -2.68 20 -2 20 C-1.34 13.4 -0.68 6.8 0 0 Z " fill="#80919E" transform="translate(15,19)"/>
<path d="M0 0 C1.93 3.86 3.12 6.26 3.06 10.62 C3.05 11.44 3.04 12.26 3.04 13.1 C3.02 13.73 3.01 14.35 3 15 C2.34 13.68 1.68 12.36 1 11 C0.34 12.98 -0.32 14.96 -1 17 C-1.33 17 -1.66 17 -2 17 C-2.05 15.1 -2.09 13.21 -2.12 11.31 C-2.15 10.26 -2.17 9.2 -2.2 8.11 C-2 4.98 -1.33 2.82 0 0 Z " fill="#DADCDE" transform="translate(25,3)"/>
<path d="M0 0 C1.65 0 3.3 0 5 0 C5 0.99 5 1.98 5 3 C5.66 3 6.32 3 7 3 C7.33 3.99 7.66 4.98 8 6 C7 7 7 7 5.15 7.1 C3.1 7.07 1.05 7.03 -1 7 C-0.67 4.69 -0.34 2.38 0 0 Z " fill="#4EBDDF" transform="translate(11,10)"/>
<path d="M0 0 C1.2 3.75 1.1 7.33 1.06 11.25 C1.05 12.51 1.04 13.78 1.04 15.08 C1.02 16.04 1.01 17.01 1 18 C2.32 18.33 3.64 18.66 5 19 C4.67 20.65 4.34 22.3 4 24 C1.06 22.33 0.06 21.13 -1.31 18 C-2.73 12.17 -1.88 5.63 0 0 Z " fill="#88ABBD" transform="translate(35,18)"/>
<path d="M0 0 C0.66 0 1.32 0 2 0 C4.2 6.59 3.82 14.66 1 21 C0.01 20.67 -0.98 20.34 -2 20 C-1.01 18.52 -1.01 18.52 0 17 C0.27 15.07 0.27 15.07 0.2 12.99 C0.19 11.85 0.19 11.85 0.18 10.69 C0.15 9.51 0.15 9.51 0.12 8.31 C0.12 7.52 0.11 6.72 0.1 5.9 C0.07 3.93 0.04 1.97 0 0 Z " fill="#3AC4ED" transform="translate(12,18)"/>
<path d="M0 0 C0 0.66 0 1.32 0 2 C0.99 2.33 1.98 2.66 3 3 C3.05 4.62 3.09 6.25 3.12 7.88 C3.15 8.78 3.17 9.68 3.2 10.62 C3 13 3 13 1 15 C0.67 11.04 0.34 7.08 0 3 C-1.98 3 -3.96 3 -6 3 C-6 2.01 -6 1.02 -6 0 C-3.51 -1.25 -2.59 -0.78 0 0 Z " fill="#06D4ED" transform="translate(40,6)"/>
<path d="M0 0 C3.3 0 6.6 0 10 0 C9.01 0.49 9.01 0.49 8 1 C8 1.99 8 2.98 8 4 C5.69 4.33 3.38 4.66 1 5 C0.67 3.35 0.34 1.7 0 0 Z " fill="#C5EEFF" transform="translate(19,33)"/>
<path d="M0 0 C0.66 1.65 1.32 3.3 2 5 C1.01 4.67 0.02 4.34 -1 4 C-1 3.34 -1 2.68 -1 2 C-2.98 2.33 -4.96 2.66 -7 3 C-7.33 5.31 -7.66 7.62 -8 10 C-9.35 7.78 -10.04 6.5 -9.81 3.88 C-7.86 -0.64 -4.25 -0.19 0 0 Z " fill="#0ADBF2" transform="translate(17,6)"/>
<path d="M0 0 C0.33 0 0.66 0 1 0 C1.33 2.97 1.66 5.94 2 9 C3.32 9 4.64 9 6 9 C6 9.66 6 10.32 6 11 C0.25 10.25 0.25 10.25 -2 8 C-1.69 6.12 -1.69 6.12 -1 4 C-0.81 3.26 -0.63 2.52 -0.44 1.75 C-0.29 1.17 -0.15 0.59 0 0 Z " fill="#567F76" transform="translate(21,16)"/>
<path d="M0 0 C2.06 1.56 2.06 1.56 4 4 C3.75 7.75 3.75 7.75 3 11 C2.34 11 1.68 11 1 11 C1 9.02 1 7.04 1 5 C0.01 4.67 -0.98 4.34 -2 4 C-2 3.01 -2 2.02 -2 1 C-1.34 0.67 -0.68 0.34 0 0 Z " fill="#136D7F" transform="translate(38,32)"/>
<path d="M0 0 C0 0.66 0 1.32 0 2 C-1.32 2 -2.64 2 -4 2 C-4 2.66 -4 3.32 -4 4 C-5.65 4.33 -7.3 4.66 -9 5 C-9 4.01 -9 3.02 -9 2 C-3.38 0 -3.38 0 0 0 Z " fill="#079EB0" transform="translate(22,39)"/>
<path d="M0 0 C0.99 0.33 1.98 0.66 3 1 C2.67 3.31 2.34 5.62 2 8 C0.68 6.68 -0.64 5.36 -2 4 C-1.34 2.68 -0.68 1.36 0 0 Z " fill="#64747C" transform="translate(24,39)"/>
<path d="M0 0 C1.32 1.65 2.64 3.3 4 5 C-0.62 7.12 -0.62 7.12 -4 6 C-2.68 4.02 -1.36 2.04 0 0 Z " fill="#0CD0F9" transform="translate(18,34)"/>
<path d="M0 0 C2.31 0 4.62 0 7 0 C6.34 1.65 5.68 3.3 5 5 C4.01 5 3.02 5 2 5 C1.34 3.35 0.68 1.7 0 0 Z " fill="#252324" transform="translate(22,26)"/>
<path d="M0 0 C0.33 0.66 0.66 1.32 1 2 C0.33 3.33 -0.33 4.67 -1 6 C-1.38 7.99 -1.73 9.99 -2 12 C-2.33 12 -2.66 12 -3 12 C-3.08 10.56 -3.14 9.13 -3.19 7.69 C-3.22 6.89 -3.26 6.09 -3.29 5.26 C-2.94 2.52 -2.11 1.71 0 0 Z " fill="#0890A5" transform="translate(41,16)"/>
<path d="M0 0 C0.99 0 1.98 0 3 0 C3.33 1.65 3.66 3.3 4 5 C3.67 4.34 3.34 3.68 3 3 C1.02 3.35 1.02 3.35 -1 4 C-1.33 4.66 -1.66 5.32 -2 6 C-1.12 1.12 -1.12 1.12 0 0 Z " fill="#11C9DE" transform="translate(24,0)"/>
<path d="M0 0 C0.33 0.66 0.66 1.32 1 2 C1.66 2 2.32 2 3 2 C3 5.3 3 8.6 3 12 C2.67 12 2.34 12 2 12 C0.86 7.73 0 4.44 0 0 Z " fill="#268697" transform="translate(26,3)"/>
<path d="M0 0 C1.46 4.52 0.27 7.52 -1 12 C-1.33 12 -1.66 12 -2 12 C-2.05 10.56 -2.09 9.13 -2.12 7.69 C-2.15 6.89 -2.17 6.09 -2.2 5.26 C-2 3 -2 3 0 0 Z " fill="#0A7E92" transform="translate(23,4)"/>
</svg>
