<?xml version="1.0" encoding="UTF-8"?>
<!-- Generator: https://ezgif.com/webp-to-svg -->
<svg version="1.1" xmlns="http://www.w3.org/2000/svg" width="50" height="50">
<path d="M0 0 C4.39 1.38 8.5 3.06 12.68 5 C13.29 5.29 13.9 5.57 14.53 5.86 C15.81 6.46 17.08 7.05 18.36 7.65 C20.32 8.57 22.29 9.48 24.25 10.39 C33.86 14.86 33.86 14.86 35 16 C34.51 13.03 34.51 13.03 34 10 C35.79 8.83 37.58 7.66 39.38 6.5 C40.37 5.85 41.37 5.2 42.4 4.53 C45 3 45 3 47 3 C44.98 9.97 42.39 18 36 22 C35.34 22.14 34.68 22.29 34 22.44 C31.8 22.87 31.8 22.87 30.12 25 C27.4 27.57 25.71 27.78 22 28 C20.97 27.81 19.94 27.63 18.88 27.44 C15.72 26.96 14.62 27.29 12 29 C13.22 24.53 14.52 22.05 18 19 C19 18 20.01 17.01 21 16 C19.8 15.29 18.59 14.61 17.38 13.94 C16.37 13.36 16.37 13.36 15.34 12.78 C12.28 11.76 10.1 12.29 7 13 C5.83 11.21 4.66 9.42 3.5 7.62 C2.85 6.63 2.2 5.63 1.53 4.6 C0 2 0 2 0 0 Z M26 17 C25.01 18.98 24.02 20.96 23 23 C24.32 22.34 25.64 21.68 27 21 C27 19.68 27 18.36 27 17 C26.67 17 26.34 17 26 17 Z " fill="#D8FE01" transform="translate(3,0)"/>
<path d="M0 0 C0.87 0.41 1.73 0.82 2.62 1.25 C1.63 2.57 0.64 3.89 -0.38 5.25 C2.03 6.76 3.26 7.29 6.12 7 C8.47 6.3 10.49 5.44 12.62 4.25 C11.75 9 11.75 9 10.62 11.25 C12.61 10.59 14.59 9.93 16.62 9.25 C17.8 11.04 18.96 12.83 20.12 14.62 C20.77 15.62 21.42 16.62 22.09 17.65 C23.62 20.25 23.62 20.25 23.62 22.25 C19.22 20.87 15.1 19.17 10.91 17.21 C10.3 16.93 9.69 16.64 9.06 16.35 C7.12 15.44 5.18 14.53 3.25 13.62 C1.93 13.01 0.61 12.39 -0.71 11.77 C-3.94 10.27 -7.16 8.76 -10.38 7.25 C-9.77 3.87 -9.43 3.3 -6.69 0.88 C-3.38 -0.75 -3.38 -0.75 0 0 Z " fill="#D9FE02" transform="translate(23.375,27.75)"/>
<path d="M0 0 C0.33 0.66 0.66 1.32 1 2 C0.07 4.25 -1.06 6.36 -2.19 8.52 C-3.22 11.66 -2.74 13.82 -2 17 C-3.79 18.17 -5.58 19.34 -7.38 20.5 C-8.37 21.15 -9.37 21.8 -10.4 22.47 C-13 24 -13 24 -15 24 C-13.58 19.45 -11.82 15.16 -9.75 10.88 C-9.34 9.96 -9.34 9.96 -8.92 9.04 C-6.66 4.39 -4.35 2.47 0 0 Z " fill="#D9FF01" transform="translate(15,23)"/>
<path d="M0 0 C1.32 0.66 2.64 1.32 4 2 C3.85 2.53 3.71 3.05 3.56 3.59 C2.62 7.65 2.16 11.78 1.6 15.91 C1.07 18.66 0.41 20.6 -1 23 C-1.66 23 -2.32 23 -3 23 C-4.84 17.47 -5.03 10.96 -3.11 5.43 C-2 3.25 -2 3.25 0 0 Z " fill="#D8FF01" transform="translate(6,11)"/>
<path d="M0 0 C1.64 0.44 3.29 0.89 4.9 1.43 C8.11 2.3 11.35 2.45 14.67 2.66 C17.14 3.02 18.84 3.77 21 5 C21 5.66 21 6.32 21 7 C13.61 9.11 6.72 8.7 0 5 C-1.94 3.31 -1.94 3.31 -3 2 C-2.01 1.34 -1.02 0.68 0 0 Z " fill="#DAFF02" transform="translate(13,40)"/>
<path d="M0 0 C0.66 0 1.32 0 2 0 C4.13 7.48 3.57 14.15 0 21 C-0.33 21.66 -0.66 22.32 -1 23 C-1.99 23 -2.98 23 -4 23 C-5.25 18.49 -5.25 18.49 -4.05 16.14 C-2.83 13.66 -2.67 11.75 -2.5 9 C-2.29 5.48 -1.76 3.07 0 0 Z " fill="#D9FF01" transform="translate(45,16)"/>
<path d="M0 0 C1.94 1.69 1.94 1.69 3 3 C0.81 4.12 0.81 4.12 -2 5 C-3.68 4.37 -5.35 3.7 -7 3 C-9.53 2.69 -12.05 2.5 -14.6 2.34 C-17.11 1.98 -18.81 1.25 -21 0 C-21 -0.66 -21 -1.32 -21 -2 C-13.61 -4.11 -6.72 -3.7 0 0 Z " fill="#DAFF02" transform="translate(37,5)"/>
<path d="M0 0 C-0.55 3.93 -1.02 6.08 -3.96 8.84 C-10.02 13.12 -10.02 13.12 -13.79 12.66 C-14.52 12.44 -15.25 12.22 -16 12 C-16 11.01 -16 10.02 -16 9 C-13.73 7.29 -11.53 5.79 -9.12 4.31 C-8.47 3.9 -7.82 3.48 -7.15 3.05 C-2.29 0 -2.29 0 0 0 Z " fill="#D9FF02" transform="translate(41,22)"/>
<path d="M0 0 C-1.21 3.62 -2.3 4.15 -5.44 6.19 C-6.24 6.72 -7.04 7.25 -7.87 7.79 C-10 9 -10 9 -12 9 C-10.56 2.64 -10.56 2.64 -8.25 0 C-5.2 -1.36 -3.18 -0.8 0 0 Z " fill="#D8FD02" transform="translate(23,15)"/>
</svg>
