<?xml version="1.0" encoding="UTF-8"?>
<!-- Generator: https://ezgif.com/webp-to-svg -->
<svg version="1.1" xmlns="http://www.w3.org/2000/svg" width="50" height="50">
<path d="M0 0 C3.86 0.11 5.68 1.42 8.31 4.06 C9.2 5.03 10.09 6 11 7 C11.33 4.69 11.66 2.38 12 0 C14.92 -0.05 17.83 -0.09 20.75 -0.12 C21.57 -0.14 22.4 -0.16 23.25 -0.18 C24.05 -0.18 24.85 -0.19 25.67 -0.2 C26.41 -0.21 27.14 -0.22 27.89 -0.23 C30.29 0.03 31.86 0.92 34 2 C35.35 1.38 36.69 0.71 38 0 C40.8 -0.2 40.8 -0.2 43.75 -0.12 C44.73 -0.11 45.72 -0.09 46.73 -0.07 C47.86 -0.04 47.86 -0.04 49 0 C48.72 0.96 48.72 0.96 48.44 1.94 C48.29 2.62 48.15 3.3 48 4 C48.49 4.5 48.49 4.5 49 5 C49.07 6.52 49.08 8.04 49.06 9.56 C49.05 10.39 49.04 11.22 49.04 12.07 C49.02 12.7 49.01 13.34 49 14 C47.06 14.03 45.13 14.05 43.19 14.06 C42.11 14.07 41.03 14.09 39.92 14.1 C37 14 37 14 34 13 C32.81 10.94 32.81 10.94 32 9 C31.89 11.21 31.89 11.21 33 14 C30.69 14.19 30.69 14.19 28 14 C26.44 12.56 26.44 12.56 25 11 C22.9 10.29 22.9 10.29 21 10 C21 11.32 21 12.64 21 14 C11.27 14.77 11.27 14.77 8.16 12.89 C6.81 11.5 6.81 11.5 5 9 C4.34 10.65 3.68 12.3 3 14 C1.68 14 0.36 14 -1 14 C-1.03 11.85 -1.05 9.71 -1.06 7.56 C-1.07 6.37 -1.09 5.17 -1.1 3.94 C-1 1 -1 1 0 0 Z M22 5 C22.33 5.66 22.66 6.32 23 7 C24.65 6.67 26.3 6.34 28 6 C28 5.67 28 5.34 28 5 C26.02 5 24.04 5 22 5 Z M38 5 C38 6.32 38 7.64 38 9 C39.98 8.73 39.98 8.73 42 8 C42.33 7.01 42.66 6.02 43 5 C41.35 5 39.7 5 38 5 Z M16 6 C16 7.98 16 9.96 16 12 C16.33 12 16.66 12 17 12 C17 10.02 17 8.04 17 6 C16.67 6 16.34 6 16 6 Z " fill="#F73C08" transform="translate(1,18)"/>
</svg>
