<?xml version="1.0" encoding="UTF-8"?>
<!-- Generator: https://ezgif.com/webp-to-svg -->
<svg version="1.1" xmlns="http://www.w3.org/2000/svg" width="50" height="50">
<path d="M0 0 C1.12 0.32 2.25 0.65 3.41 0.98 C8.14 2.16 12.64 2.3 17.5 2.25 C18.7 2.26 18.7 2.26 19.93 2.27 C25.27 2.26 29.87 1.48 35 0 C36.75 2.68 37.01 3.87 36.69 7.12 C36 10 36 10 35 12 C35.31 12.68 35.62 13.36 35.94 14.06 C37 17 37.03 18.51 36.88 21.56 C36.76 23.89 36.76 23.89 37 26 C38.31 27.35 39.65 28.69 41 30 C41.36 32.75 41.19 35.21 41 38 C37.93 39.54 35.4 39.23 32 39 C28.56 37.5 28.56 37.5 26 36 C25.43 36.97 25.43 36.97 24.84 37.97 C23 40 23 40 20.44 40.53 C12.59 40.45 12.59 40.45 9.69 38.25 C9.13 37.51 8.57 36.77 8 36 C6.99 35.34 5.98 34.68 4.94 34 C0.04 30.67 -1.4 27.32 -3.06 21.8 C-3.86 19.81 -3.86 19.81 -6.05 19.08 C-6.69 18.72 -7.34 18.37 -8 18 C-8.61 15.62 -8.61 15.62 -8.75 12.88 C-8.81 11.96 -8.86 11.05 -8.92 10.12 C-8.95 9.42 -8.97 8.72 -9 8 C-6 6 -6 6 -2 6 C-1.34 4.02 -0.68 2.04 0 0 Z M-5 10 C-4.67 11.32 -4.34 12.64 -4 14 C-3.34 14 -2.68 14 -2 14 C-1.67 15.32 -1.34 16.64 -1 18 C-0.34 15.69 0.32 13.38 1 11 C-0.07 9.7 -0.07 9.7 -2.56 9.94 C-3.37 9.96 -4.17 9.98 -5 10 Z M34 30 C32.35 31.65 30.7 33.3 29 35 C30.18 36.42 30.18 36.42 33.56 36.06 C35.26 36.03 35.26 36.03 37 36 C37 35.01 37 34.02 37 33 C36.34 33 35.68 33 35 33 C34.67 32.01 34.34 31.02 34 30 Z " fill="#110D0B" transform="translate(9,5)"/>
<path d="M0 0 C1.25 5.39 1.25 5.39 -0.06 8.56 C-1.32 11.83 -0.3 12.81 1 16 C1 17.52 0.95 19.04 0.88 20.56 C0.76 22.89 0.76 22.89 1 25 C2.31 26.35 3.65 27.69 5 29 C5.36 31.75 5.19 34.21 5 37 C1.98 38.51 -0.66 38.17 -4 38 C-6.44 37 -6.44 37 -8 36 C-8 35.34 -8 34.68 -8 34 C-5.03 34 -2.06 34 1 34 C0.34 33.34 -0.32 32.68 -1 32 C-1.12 28.88 -1.12 28.88 -1 26 C-4.08 27.2 -7.06 28.48 -10 30 C-11.12 26.25 -11.12 26.25 -10 24 C-11.42 24.99 -11.42 24.99 -12.88 26 C-16 28 -16 28 -18 28 C-18 22.06 -18 16.12 -18 10 C-18.66 9.67 -19.32 9.34 -20 9 C-21.03 7.69 -22.04 6.36 -23 5 C-21.62 3 -21.62 3 -19 1 C-16.46 0.78 -14.02 0.88 -11.47 1 C-7 1 -4.33 -1.44 0 0 Z " fill="#080605" transform="translate(45,6)"/>
<path d="M0 0 C0.74 0.07 1.47 0.14 2.23 0.22 C3.69 0.36 3.69 0.36 5.19 0.5 C6.15 0.59 7.11 0.69 8.11 0.78 C10.75 0.98 13.35 1.04 16 1 C15.34 1.66 14.68 2.32 14 3 C14.49 3.63 14.98 4.27 15.49 4.92 C17.56 9.14 17.33 12.69 17.19 17.31 C17.17 18.57 17.17 18.57 17.15 19.85 C17.11 21.9 17.06 23.95 17 26 C17.95 25.34 18.9 24.68 19.88 24 C23 22 23 22 25 22 C24.69 25.37 24.69 25.37 24 29 C23.01 29.66 22.02 30.32 21 31 C21 31.66 21 32.32 21 33 C18.03 33 15.06 33 12 33 C12 32.34 12 31.68 12 31 C11.34 30.4 10.68 29.8 10 29.19 C7.52 26.47 8 25.53 8 22 C6.12 19.79 6.12 19.79 4 18 C2.44 14.89 2.98 11.74 3.06 8.31 C3.16 5.97 3.16 5.97 2 4 C1.01 4.5 1.01 4.5 0 5 C0 3.35 0 1.7 0 0 Z " fill="#C9461D" transform="translate(10,8)"/>
<path d="M0 0 C0.33 1.32 0.66 2.64 1 4 C-0.65 4 -2.3 4 -4 4 C-3.67 4.99 -3.34 5.98 -3 7 C-2.34 7.33 -1.68 7.66 -1 8 C-0.38 10.06 -0.38 10.06 0 12 C0.47 11.18 0.95 10.35 1.44 9.5 C1.95 8.68 2.47 7.85 3 7 C3.33 7 3.66 7 4 7 C4.12 8.86 4.12 8.86 4.25 10.75 C4.73 14.85 6.05 16.14 9 19 C9.25 22.25 9.25 22.25 9 25 C6.69 23.68 4.38 22.36 2 21 C2 19.68 2 18.36 2 17 C1.44 16.73 0.89 16.46 0.31 16.19 C-0.45 15.8 -1.21 15.4 -2 15 C-2.89 14.67 -3.77 14.34 -4.69 14 C-7.55 11.53 -7.45 10.48 -7.81 6.81 C-7.9 5.21 -7.97 3.61 -8 2 C-4.77 -0.15 -3.72 -0.2 0 0 Z " fill="#FCFCFC" transform="translate(8,11)"/>
<path d="M0 0 C4.58 0.44 7.59 0.83 11 4 C11.58 4.52 12.16 5.03 12.75 5.56 C14 7 14 7 14 9 C14.66 9 15.32 9 16 9 C16 13.62 16 18.24 16 23 C14.68 22.67 13.36 22.34 12 22 C12.99 18.54 12.99 18.54 14 15 C13.07 14.75 12.14 14.51 11.19 14.25 C7.84 12.94 6.81 12.02 5 9 C4.67 11.31 4.34 13.62 4 16 C3.67 16 3.34 16 3 16 C3.01 15.3 3.02 14.6 3.04 13.88 C3.04 12.97 3.05 12.06 3.06 11.12 C3.07 10.22 3.09 9.32 3.1 8.38 C3.16 5.98 3.16 5.98 2 4 C1.01 4.5 1.01 4.5 0 5 C0 3.35 0 1.7 0 0 Z " fill="#E4592E" transform="translate(10,8)"/>
<path d="M0 0 C0.89 0.31 1.77 0.62 2.69 0.94 C6.78 2.31 6.78 2.31 11 3 C13.19 1.63 13.19 1.63 15 0 C15.66 0 16.32 0 17 0 C16.69 3.37 16.69 3.37 16 7 C15.01 7.66 14.02 8.32 13 9 C13 9.66 13 10.32 13 11 C10.03 11 7.06 11 4 11 C4 10.34 4 9.68 4 9 C3.34 8.4 2.68 7.8 2 7.19 C0 5 0 5 -0.25 2.25 C-0.17 1.51 -0.09 0.77 0 0 Z " fill="#D0D0D0" transform="translate(18,30)"/>
<path d="M0 0 C4.88 1.75 4.88 1.75 6 4 C6.13 6.67 6.04 9.32 6 12 C2.98 13.51 0.34 13.17 -3 13 C-5.44 12 -5.44 12 -7 11 C-7 10.34 -7 9.68 -7 9 C-4.03 9 -1.06 9 2 9 C1.34 8.34 0.68 7.68 0 7 C-0.12 3.38 -0.12 3.38 0 0 Z " fill="#FDFDFD" transform="translate(44,31)"/>
<path d="M0 0 C0.33 0 0.66 0 1 0 C1.08 1.24 1.16 2.48 1.25 3.75 C1.73 7.85 3.05 9.14 6 12 C6.25 15.25 6.25 15.25 6 18 C3.69 16.68 1.38 15.36 -1 14 C-1 12.68 -1 11.36 -1 10 C-1.99 9.67 -2.98 9.34 -4 9 C-2.68 6.03 -1.36 3.06 0 0 Z " fill="#D2D2D2" transform="translate(11,18)"/>
<path d="M0 0 C0.66 0.33 1.32 0.66 2 1 C2.13 3.1 2.23 5.21 2.31 7.31 C2.4 9.07 2.4 9.07 2.49 10.86 C2 14 2 14 -0.33 15.92 C-3 17 -3 17 -6 17 C-5.37 12.35 -5.37 12.35 -3.53 10.62 C-1.61 8.58 -1.33 7.05 -0.81 4.31 C-0.65 3.5 -0.5 2.7 -0.33 1.86 C-0.22 1.25 -0.11 0.63 0 0 Z " fill="#D7D8D8" transform="translate(41,18)"/>
<path d="M0 0 C-0.66 0.66 -1.32 1.32 -2 2 C-1.26 2.96 -1.26 2.96 -0.51 3.95 C1.51 8.03 1.33 11.34 1.19 15.81 C1.17 16.6 1.16 17.39 1.15 18.2 C1.11 20.13 1.06 22.07 1 24 C-0.65 23.67 -2.3 23.34 -4 23 C-2.68 22.67 -1.36 22.34 0 22 C0 17.38 0 12.76 0 8 C-0.66 8 -1.32 8 -2 8 C-2 7.34 -2 6.68 -2 6 C-3.32 5.67 -4.64 5.34 -6 5 C-6 4.34 -6 3.68 -6 3 C-6.66 2.34 -7.32 1.68 -8 1 C-5.07 0.02 -3.04 -0.08 0 0 Z " fill="#A63713" transform="translate(26,9)"/>
<path d="M0 0 C3.38 1.19 5.65 2.28 8 5 C7.67 5.99 7.34 6.98 7 8 C5.35 8 3.7 8 2 8 C0.74 5.09 0 3.2 0 0 Z " fill="#DCD9D9" transform="translate(18,30)"/>
<path d="M0 0 C0.66 0.33 1.32 0.66 2 1 C2 4.96 2 8.92 2 13 C0.68 12.67 -0.64 12.34 -2 12 C-1.67 11.34 -1.34 10.68 -1 10 C-0.77 8.3 -0.59 6.59 -0.44 4.88 C-0.35 3.96 -0.27 3.05 -0.18 2.12 C-0.12 1.42 -0.06 0.72 0 0 Z " fill="#E9E9E9" transform="translate(41,18)"/>
<path d="M0 0 C0 4 0 4 -1 7 C-3.06 7.69 -3.06 7.69 -5 8 C-5 7.34 -5 6.68 -5 6 C-5.66 5.34 -6.32 4.68 -7 4 C-2.25 0 -2.25 0 0 0 Z " fill="#A79895" transform="translate(36,18)"/>
<path d="M0 0 C2.97 0.5 2.97 0.5 6 1 C6 2.98 6 4.96 6 7 C4 5.62 4 5.62 2 4 C2 3.34 2 2.68 2 2 C1.34 2 0.68 2 0 2 C0 1.34 0 0.68 0 0 Z " fill="#EEEEEE" transform="translate(11,29)"/>
<path d="M0 0 C2.31 0.66 4.62 1.32 7 2 C6.25 7.75 6.25 7.75 4 10 C3.9 9.05 3.79 8.1 3.69 7.12 C3.31 3.71 3.31 3.71 0 2 C0 1.34 0 0.68 0 0 Z " fill="#CA735A" transform="translate(17,22)"/>
<path d="M0 0 C-1.13 3.38 -2.32 4.71 -5 7 C-5.99 7 -6.98 7 -8 7 C-6.48 3.32 -4.32 0 0 0 Z " fill="#E3E3E3" transform="translate(35,30)"/>
<path d="M0 0 C2.31 0.33 4.62 0.66 7 1 C6.01 1.33 5.02 1.66 4 2 C3.27 4.02 3.27 4.02 3 6 C2.67 5.34 2.34 4.68 2 4 C1.01 4.5 1.01 4.5 0 5 C0 3.35 0 1.7 0 0 Z " fill="#CF471C" transform="translate(10,8)"/>
<path d="M0 0 C1.94 0.69 1.94 0.69 4 2 C4.75 4.62 4.75 4.62 5 7 C3.35 7 1.7 7 0 7 C0.28 6.1 0.28 6.1 0.56 5.19 C1.22 2.84 1.22 2.84 0 0 Z " fill="#818181" transform="translate(24,32)"/>
</svg>
