<?xml version="1.0" encoding="UTF-8"?>
<!-- Generator: https://ezgif.com/webp-to-svg -->
<svg version="1.1" xmlns="http://www.w3.org/2000/svg" width="100" height="100">
<path d="M0 0 C5.44 4.53 10.46 9.34 15.44 14.38 C16.53 15.48 16.53 15.48 17.65 16.61 C19.44 18.4 21.22 20.2 23 22 C20.58 27.63 15.88 31.53 11.62 35.81 C10.76 36.71 9.9 37.61 9.01 38.53 C8.17 39.37 7.34 40.21 6.48 41.08 C5.33 42.25 5.33 42.25 4.17 43.43 C2 45 2 45 0.02 45.02 C-2.76 43.61 -4.58 41.75 -6.77 39.53 C-7.66 38.63 -8.54 37.73 -9.46 36.8 C-10.84 35.38 -10.84 35.38 -12.25 33.94 C-13.19 32.98 -14.14 32.02 -15.09 31.06 C-17.4 28.71 -19.7 26.36 -22 24 C-20.46 20.33 -18.25 18.01 -15.43 15.23 C-14.09 13.9 -14.09 13.9 -12.71 12.54 C-11.78 11.62 -10.84 10.7 -9.88 9.75 C-8.92 8.81 -7.97 7.86 -7.01 6.91 C-4.68 4.6 -2.34 2.3 0 0 Z M-3.82 12.62 C-4.93 13.74 -6.03 14.87 -7.12 16 C-7.97 16.86 -7.97 16.86 -8.83 17.73 C-10.23 19.15 -11.61 20.58 -13 22 C-8.88 26.92 -4.6 31.53 0 36 C4.92 31.88 9.53 27.6 14 23 C12.88 21.88 11.76 20.76 10.64 19.64 C9.4 18.4 8.18 17.15 6.96 15.89 C6.25 15.16 5.54 14.44 4.81 13.69 C4.14 12.99 3.46 12.29 2.77 11.57 C-0.3 8.84 -0.82 9.83 -3.82 12.62 Z " fill="#EEEE2F" transform="translate(22,28)"/>
<path d="M0 0 C7 5 7 5 7.89 7.59 C7.89 8.48 7.9 9.38 7.9 10.3 C7.92 11.28 7.95 12.25 7.97 13.26 C7.96 14.27 7.95 15.27 7.94 16.31 C7.95 17.34 7.97 18.37 7.99 19.42 C8.02 21.95 8.01 24.47 8 27 C12.45 22.55 12.45 22.55 17 18 C18.32 18.66 19.64 19.32 21 20 C21 24 21 24 19.03 26.36 C17.78 27.54 17.78 27.54 16.5 28.75 C15.66 29.55 14.83 30.35 13.97 31.17 C13.32 31.78 12.67 32.38 12 33 C12.91 34.09 13.83 35.17 14.75 36.25 C15.29 36.89 15.84 37.53 16.39 38.19 C18.06 40.14 18.06 40.14 20.44 42.19 C22 44 22 44 22 46.12 C21 48 21 48 17 50 C14.03 47.03 11.06 44.06 8 41 C7.99 42.46 7.97 43.92 7.96 45.42 C7.91 47.34 7.86 49.26 7.81 51.19 C7.81 52.15 7.8 53.11 7.79 54.1 C7.65 58.89 7.55 61.27 4.57 65.18 C2 67 2 67 0 67 C0 44.89 0 22.78 0 0 Z " fill="#EDED30" transform="translate(65,17)"/>
<path d="M0 0 C7 5 7 5 7.88 8.57 C7.91 9.96 7.91 11.35 7.87 12.74 C7.88 13.5 7.89 14.27 7.9 15.05 C7.92 17.57 7.89 20.08 7.86 22.59 C7.86 24.35 7.86 26.1 7.87 27.85 C7.87 31.52 7.84 35.19 7.8 38.85 C7.75 43.55 7.75 48.25 7.77 52.95 C7.78 56.56 7.77 60.18 7.75 63.8 C7.74 65.53 7.74 67.26 7.74 68.99 C7.75 71.42 7.72 73.84 7.68 76.26 C7.69 76.97 7.69 77.69 7.7 78.42 C7.6 82.32 7.07 83.91 4.58 86.98 C2 89 2 89 0 89 C0 59.63 0 30.26 0 0 Z " fill="#EEEE30" transform="translate(54,6)"/>
<path d="M0 0 C0 15.51 0 31.02 0 47 C-3.84 45.08 -5.79 43.44 -8.77 40.43 C-9.66 39.53 -10.54 38.64 -11.46 37.71 C-12.38 36.78 -13.3 35.84 -14.25 34.88 C-15.19 33.92 -16.14 32.97 -17.09 32.01 C-19.4 29.68 -21.7 27.34 -24 25 C-22.44 21.25 -20.11 18.87 -17.25 16.02 C-16.79 15.56 -16.32 15.09 -15.85 14.62 C-14.88 13.65 -13.91 12.69 -12.93 11.73 C-11.43 10.25 -9.94 8.76 -8.46 7.27 C-1.14 0 -1.14 0 0 0 Z M-11.56 20 C-12.2 20.56 -12.84 21.11 -13.5 21.69 C-14 22.12 -14.49 22.55 -15 23 C-14.05 24.15 -13.09 25.29 -12.12 26.44 C-11.59 27.08 -11.06 27.71 -10.51 28.37 C-9.08 30.11 -9.08 30.11 -7 31 C-7 26.38 -7 21.76 -7 17 C-8.88 17 -10.22 18.82 -11.56 20 Z " fill="#EDED30" transform="translate(50,53)"/>
<path d="M0 0 C0 15.51 0 31.02 0 47 C-3.84 45.08 -5.79 43.44 -8.77 40.43 C-9.66 39.53 -10.54 38.64 -11.46 37.71 C-12.38 36.78 -13.3 35.84 -14.25 34.88 C-15.19 33.92 -16.14 32.97 -17.09 32.01 C-19.4 29.68 -21.7 27.34 -24 25 C-22.44 21.25 -20.11 18.87 -17.25 16.02 C-16.79 15.56 -16.32 15.09 -15.85 14.62 C-14.88 13.65 -13.91 12.69 -12.93 11.73 C-11.43 10.25 -9.94 8.76 -8.46 7.27 C-1.14 -0 -1.14 -0 0 0 Z M-9.63 17.53 C-10.27 18.18 -10.91 18.83 -11.56 19.5 C-12.2 20.15 -12.84 20.8 -13.5 21.47 C-14 21.97 -14.49 22.48 -15 23 C-14.05 24.15 -13.09 25.29 -12.12 26.44 C-11.59 27.08 -11.06 27.71 -10.51 28.37 C-9.08 30.11 -9.08 30.11 -7 31 C-7 26.05 -7 21.1 -7 16 C-8.25 15.89 -8.25 15.89 -9.63 17.53 Z " fill="#EDED2F" transform="translate(50,1)"/>
<path d="M0 0 C1.13 0.91 2.26 1.83 3.38 2.75 C4 3.26 4.63 3.77 5.27 4.3 C7.08 6.08 8 7.68 9 10 C7.93 11.2 6.85 12.39 5.75 13.56 C4.85 14.55 4.85 14.55 3.92 15.57 C2 17 2 17 -0.03 16.91 C-2.27 15.88 -3.57 14.73 -5.25 12.94 C-6.03 12.12 -6.03 12.12 -6.83 11.28 C-7.21 10.86 -7.6 10.43 -8 10 C-6.35 5.71 -3.26 3.12 0 0 Z " fill="#EDED2F" transform="translate(90,42)"/>
<path d="M0 0 C1.15 0.93 2.3 1.87 3.44 2.81 C4.39 3.6 4.39 3.6 5.37 4.39 C7 6 7 6 8 9 C5.69 10.98 3.38 12.96 1 15 C-2.56 13.22 -4.36 11.83 -7 9 C-5.44 5.18 -2.96 2.81 0 0 Z " fill="#ECEC2F" transform="translate(22,43)"/>
</svg>
