<?xml version="1.0" encoding="UTF-8"?>
<svg version="1.1" xmlns="http://www.w3.org/2000/svg" width="50" height="50">
<path d="M0 0 C2.538648 2.045022 4.39559048 4.13390847 6.25 6.8125 C6.25 7.4725 6.25 8.1325 6.25 8.8125 C7.9 8.8125 9.55 8.8125 11.25 8.8125 C11.95074844 11.965868 12.25 14.53974974 12.25 17.8125 C12.58 18.740625 12.91 19.66875 13.25 20.625 C15.33983327 27.28634354 14.23819953 32.70729923 11.25 38.8125 C7.98304618 43.94628457 3.73288322 46.97728983 -2.14453125 48.38671875 C-9.74549013 49.47257002 -14.67181963 47.82515639 -21 43.6875 C-25.31763905 39.17360463 -27.90141867 34.06866592 -28.1875 27.75 C-27.42252227 20.86520046 -25.72448006 16.63152755 -20.75 11.8125 C-19.73470459 9.48578135 -18.73511802 7.1521553 -17.75 4.8125 C-13.32302105 -1.55128225 -7.17291021 -3.09739305 0 0 Z " fill="#301C1C" transform="translate(31.75,1.1875)"/>
<path d="M0 0 C0 1.65 0 3.3 0 5 C-0.66 5 -1.32 5 -2 5 C-1.01 6.485 -1.01 6.485 0 8 C0.99 8 1.98 8 3 8 C2.34 9.98 1.68 11.96 1 14 C1.66 14 2.32 14 3 14 C3.66 14.66 4.32 15.32 5 16 C7.34148732 15.72982839 9.67504723 15.38749213 12 15 C13.9996695 14.96364237 16.00059462 14.95123402 18 15 C18.33 17.31 18.66 19.62 19 22 C19.99 22.33 20.98 22.66 22 23 C22 23.99 22 24.98 22 26 C20.35 26 18.7 26 17 26 C16.87625 25.360625 16.7525 24.72125 16.625 24.0625 C16.41875 23.381875 16.2125 22.70125 16 22 C15.34 21.67 14.68 21.34 14 21 C14.33 22.65 14.66 24.3 15 26 C12.03 26 9.06 26 6 26 C6 24.68 6 23.36 6 22 C7.98 22 9.96 22 12 22 C9.14221967 21.31506627 9.14221967 21.31506627 6 21 C5.01 21.66 4.02 22.32 3 23 C2.67 22.34 2.34 21.68 2 21 C-0.31 21 -2.62 21 -5 21 C-5.32990059 24.19263292 -5.32990059 24.19263292 -2.75 26.5625 C2.15392527 30.90916103 5.72396916 31.45503007 12.17578125 31.30859375 C17.13968921 30.7662027 21.01448709 29.22174958 24.37890625 25.45703125 C27.30201071 21.00617185 27.36641951 17.22147798 27 12 C25.02 12 23.04 12 21 12 C21.66 8.7 22.32 5.4 23 2 C23.99 1.67 24.98 1.34 26 1 C30.66931413 6.42242931 31.4769459 9.84581153 31 17 C29.2891715 23.61688083 26.48764691 28.20889423 20.875 32.25 C15.86183081 34.88003523 10.35151822 35.67030364 4.79296875 34.55859375 C-1.08158563 32.59292068 -5.36141591 29.40325667 -8.875 24.25 C-10.97165265 18.19300347 -10.69154371 13.07260927 -8.3125 7.125 C-6.63987506 3.70209253 -4.3262279 0 0 0 Z " fill="#696666" transform="translate(15,15)"/>
<path d="M0 0 C0.5775 0.474375 1.155 0.94875 1.75 1.4375 C3.92582084 2.9484867 5.42602448 3.54036151 8 4 C7.52403971 8.28364261 5.16126242 10.26023924 2 13 C-3.27887174 16.64493525 -8.79099595 17.05484461 -15 16 C-19.88178212 13.89852278 -23.18649317 11.53662401 -25.6875 6.8125 C-26 4 -26 4 -24 1 C-24 2.32 -24 3.64 -24 5 C-21.69 5 -19.38 5 -17 5 C-16.67 4.01 -16.34 3.02 -16 2 C-15.67 3.32 -15.34 4.64 -15 6 C-14.34 5.34 -13.68 4.68 -13 4 C-10.69 4.66 -8.38 5.32 -6 6 C-6 6.33 -6 6.66 -6 7 C-8.31 6.67 -10.62 6.34 -13 6 C-13 7.32 -13 8.64 -13 10 C-10.03 10 -7.06 10 -4 10 C-4.33 8.35 -4.66 6.7 -5 5 C-4.01 5.33 -3.02 5.66 -2 6 C-2 7.32 -2 8.64 -2 10 C-0.35 10 1.3 10 3 10 C3 9.01 3 8.02 3 7 C1.68 6.67 0.36 6.34 -1 6 C-0.67 4.02 -0.34 2.04 0 0 Z " fill="#0F0F0F" transform="translate(34,31)"/>
<path d="M0 0 C2.538648 2.045022 4.39559048 4.13390847 6.25 6.8125 C6.25 7.4725 6.25 8.1325 6.25 8.8125 C7.9 8.8125 9.55 8.8125 11.25 8.8125 C11.745 11.2875 11.745 11.2875 12.25 13.8125 C10.27 14.8025 10.27 14.8025 8.25 15.8125 C7.755 14.8225 7.755 14.8225 7.25 13.8125 C7.91 13.4825 8.57 13.1525 9.25 12.8125 C9.25 12.1525 9.25 11.4925 9.25 10.8125 C8.26 10.4825 7.27 10.1525 6.25 9.8125 C5.92 11.4625 5.59 13.1125 5.25 14.8125 C3.93 14.8125 2.61 14.8125 1.25 14.8125 C0.91376204 13.5215864 0.58110751 12.22973903 0.25 10.9375 C0.064375 10.21820313 -0.12125 9.49890625 -0.3125 8.7578125 C-0.75 6.8125 -0.75 6.8125 -0.75 4.8125 C-3.2071936 3.2653781 -4.382279 2.76765598 -7.3125 3.125 C-9.13901612 3.64017121 -10.94960942 4.21236981 -12.75 4.8125 C-12.81058594 5.45058594 -12.87117188 6.08867188 -12.93359375 6.74609375 C-13.01738281 7.57238281 -13.10117187 8.39867187 -13.1875 9.25 C-13.26871094 10.07371094 -13.34992187 10.89742187 -13.43359375 11.74609375 C-13.75 13.8125 -13.75 13.8125 -14.75 14.8125 C-14.79092937 17.14547433 -14.79241723 19.47955225 -14.75 21.8125 C-15.74 22.1425 -16.73 22.4725 -17.75 22.8125 C-18.08 21.4925 -18.41 20.1725 -18.75 18.8125 C-18.09 18.8125 -17.43 18.8125 -16.75 18.8125 C-17.08 17.4925 -17.41 16.1725 -17.75 14.8125 C-20.25663276 15.80043912 -21.52488538 16.4551752 -22.98046875 18.765625 C-24.79197089 23.11323014 -26.26444161 27.07830569 -26.75 31.8125 C-27.08 31.8125 -27.41 31.8125 -27.75 31.8125 C-28.06944251 25.84957312 -27.57916426 21.14715295 -24.75 15.8125 C-23.43733482 14.45881404 -22.10432675 13.12450404 -20.75 11.8125 C-19.73470459 9.48578135 -18.73511802 7.1521553 -17.75 4.8125 C-13.32302105 -1.55128225 -7.17291021 -3.09739305 0 0 Z " fill="#5D4143" transform="translate(31.75,1.1875)"/>
<path d="M0 0 C0.66 0.66 1.32 1.32 2 2 C4.34148732 1.72982839 6.67504723 1.38749213 9 1 C10.9996695 0.96364237 13.00059462 0.95123402 15 1 C15.33 3.31 15.66 5.62 16 8 C16.99 8.33 17.98 8.66 19 9 C19 9.99 19 10.98 19 12 C17.35 12 15.7 12 14 12 C13.87625 11.360625 13.7525 10.72125 13.625 10.0625 C13.41875 9.381875 13.2125 8.70125 13 8 C12.34 7.67 11.68 7.34 11 7 C11.33 8.65 11.66 10.3 12 12 C9.03 12 6.06 12 3 12 C3 10.68 3 9.36 3 8 C4.98 8 6.96 8 9 8 C6.14221967 7.31506627 6.14221967 7.31506627 3 7 C2.01 7.66 1.02 8.32 0 9 C-0.33 8.34 -0.66 7.68 -1 7 C-3.31 7 -5.62 7 -8 7 C-8 5.35 -8 3.7 -8 2 C-2.25 0 -2.25 0 0 0 Z " fill="#C4C3C3" transform="translate(18,29)"/>
<path d="M0 0 C2.375 0.3125 2.375 0.3125 5 1 C7.13586678 4.20380017 7.23132175 5.01939967 7.125 8.6875 C7.10695313 9.49574219 7.08890625 10.30398437 7.0703125 11.13671875 C7.03550781 12.05904297 7.03550781 12.05904297 7 13 C6.01 13.495 6.01 13.495 5 14 C4.27840576 15.64363134 3.60648579 17.31050386 3 19 C2.01 18.67 1.02 18.34 0 18 C0.33 16.68 0.66 15.36 1 14 C-0.32 13.34 -1.64 12.68 -3 12 C-2.88541307 10.56163249 -2.75790884 9.12429034 -2.625 7.6875 C-2.55539063 6.88699219 -2.48578125 6.08648437 -2.4140625 5.26171875 C-2 3 -2 3 0 0 Z " fill="#A7A1A2" transform="translate(23,7)"/>
<path d="M0 0 C2.375 2.0625 2.375 2.0625 4 4 C2.02 4.99 2.02 4.99 0 6 C-0.66 5.34 -1.32 4.68 -2 4 C-3.32 4 -4.64 4 -6 4 C-8.00391343 9.95901066 -8.00391343 9.95901066 -7 16 C-6.34 16.33 -5.68 16.66 -5 17 C-5.33 18.65 -5.66 20.3 -6 22 C-9.465 20.02 -9.465 20.02 -13 18 C-13.19974555 13.70547064 -12.61511779 10.93684962 -11 7 C-11.061875 6.13375 -11.12375 5.2675 -11.1875 4.375 C-11 2 -11 2 -8.875 0.125 C-5.3271026 -1.26330768 -3.61473869 -1.15364001 0 0 Z " fill="#221D1D" transform="translate(29,4)"/>
<path d="M0 0 C0.99 0.66 1.98 1.32 3 2 C2.01 2.495 2.01 2.495 1 3 C0.67 3.99 0.34 4.98 0 6 C0.99 5.67 1.98 5.34 3 5 C3.99 5.33 4.98 5.66 6 6 C6.33 8.64 6.66 11.28 7 14 C3.53058454 13.54177532 0.32604951 13.10868317 -3 12 C-3.33 9.36 -3.66 6.72 -4 4 C-3.01 3.67 -2.02 3.34 -1 3 C-0.67 2.01 -0.34 1.02 0 0 Z " fill="#4E3938" transform="translate(36,21)"/>
<path d="M0 0 C1.98 0.66 3.96 1.32 6 2 C6 2.66 6 3.32 6 4 C9.465 3.505 9.465 3.505 13 3 C13 4.65 13 6.3 13 8 C9.37 8 5.74 8 2 8 C1.67 8.66 1.34 9.32 1 10 C0.67 8.68 0.34 7.36 0 6 C-0.99 6.33 -1.98 6.66 -3 7 C-2.38722388 4.03824877 -1.74627478 2.61941217 0 0 Z " fill="#3E3333" transform="translate(18,23)"/>
<path d="M0 0 C0 1.65 0 3.3 0 5 C-0.66 5 -1.32 5 -2 5 C-1.01 6.485 -1.01 6.485 0 8 C0.99 8 1.98 8 3 8 C2.34 9.32 1.68 10.64 1 12 C-1.31 12 -3.62 12 -6 12 C-6.75 8.75 -6.75 8.75 -7 5 C-5.28618412 2.75431022 -3.11494379 0 0 0 Z " fill="#ACACAC" transform="translate(15,15)"/>
<path d="M0 0 C0.33 1.32 0.66 2.64 1 4 C3.31 4 5.62 4 8 4 C8.33 3.01 8.66 2.02 9 1 C9.33 3.64 9.66 6.28 10 9 C7.69 9.66 5.38 10.32 3 11 C-1.06153846 5.70769231 -1.06153846 5.70769231 -0.75 2.125 C-0.5025 1.42375 -0.255 0.7225 0 0 Z " fill="#181414" transform="translate(9,32)"/>
<path d="M0 0 C1.32 0 2.64 0 4 0 C3.125 6.875 3.125 6.875 2 8 C1.95907063 10.33297433 1.95758277 12.66705225 2 15 C1.01 15.33 0.02 15.66 -1 16 C-1.33 14.68 -1.66 13.36 -2 12 C-1.34 12 -0.68 12 0 12 C-0.08378906 11.21753906 -0.16757813 10.43507813 -0.25390625 9.62890625 C-0.35574219 8.61699219 -0.45757812 7.60507813 -0.5625 6.5625 C-0.66691406 5.55316406 -0.77132813 4.54382813 -0.87890625 3.50390625 C-0.91886719 2.67761719 -0.95882813 1.85132813 -1 1 C-0.67 0.67 -0.34 0.34 0 0 Z " fill="#97262E" transform="translate(15,8)"/>
<path d="M0 0 C0.86625 0.7115625 0.86625 0.7115625 1.75 1.4375 C3.92582084 2.9484867 5.42602448 3.54036151 8 4 C7.42655063 6.86724686 7.1385485 7.8614515 5 10 C4.34 9.67 3.68 9.34 3 9 C3 8.34 3 7.68 3 7 C1.68 6.67 0.36 6.34 -1 6 C-0.67 4.02 -0.34 2.04 0 0 Z " fill="#211D1D" transform="translate(34,31)"/>
<path d="M0 0 C0.3403125 0.928125 0.3403125 0.928125 0.6875 1.875 C2.37929835 4.61410209 3.99244161 5.05024472 7 6 C6.67 7.65 6.34 9.3 6 11 C2.535 9.02 2.535 9.02 -1 7 C-1.04254356 5.00045254 -1.04080783 2.99958364 -1 1 C-0.67 0.67 -0.34 0.34 0 0 Z " fill="#281817" transform="translate(17,15)"/>
<path d="M0 0 C0.33 2.31 0.66 4.62 1 7 C1.99 7.33 2.98 7.66 4 8 C4 8.99 4 9.98 4 11 C2.35 11 0.7 11 -1 11 C-1.103125 10.401875 -1.20625 9.80375 -1.3125 9.1875 C-2.08876455 6.71756736 -3.07088921 5.67748765 -5 4 C-4.34 4 -3.68 4 -3 4 C-3.33 3.01 -3.66 2.02 -4 1 C-2 0 -2 0 0 0 Z " fill="#BCBCBC" transform="translate(33,30)"/>
<path d="M0 0 C2.375 0.1875 2.375 0.1875 5 1 C6.4375 3.375 6.4375 3.375 7 6 C6.01 7.485 6.01 7.485 5 9 C4.01 8.67 3.02 8.34 2 8 C1.26953125 6.15234375 1.26953125 6.15234375 0.8125 3.9375 C0.65394531 3.20402344 0.49539062 2.47054688 0.33203125 1.71484375 C0.22246094 1.14894531 0.11289062 0.58304688 0 0 Z " fill="#9C3038" transform="translate(31,8)"/>
<path d="M0 0 C0.99 0.66 1.98 1.32 3 2 C2.01 2.495 2.01 2.495 1 3 C0.67 3.99 0.34 4.98 0 6 C0.66 6.33 1.32 6.66 2 7 C1.34 7 0.68 7 0 7 C0 7.99 0 8.98 0 10 C-0.66 10 -1.32 10 -2 10 C-2.33 10.66 -2.66 11.32 -3 12 C-3.33 9.36 -3.66 6.72 -4 4 C-3.01 3.67 -2.02 3.34 -1 3 C-0.67 2.01 -0.34 1.02 0 0 Z " fill="#544948" transform="translate(36,21)"/>
<path d="M0 0 C1.32 0.33 2.64 0.66 4 1 C3.67 1.99 3.34 2.98 3 4 C2.34 4 1.68 4 1 4 C0.731875 4.94875 0.46375 5.8975 0.1875 6.875 C-1 10 -1 10 -4 12 C-4.34734012 7.8319185 -3.64652221 6.17582665 -1 3 C-0.67 2.01 -0.34 1.02 0 0 Z " fill="#471219" transform="translate(38,11)"/>
<path d="M0 0 C1.37562854 1.28965176 2.70766393 2.62689293 4 4 C4 4.66 4 5.32 4 6 C5.65 6 7.3 6 9 6 C9.33 7.65 9.66 9.3 10 11 C8.02 11.99 8.02 11.99 6 13 C5.67 12.34 5.34 11.68 5 11 C5.66 10.67 6.32 10.34 7 10 C7 9.34 7 8.68 7 8 C5.68 8 4.36 8 3 8 C0.82542733 5.12645755 0 3.63563409 0 0 Z " fill="#2C3232" transform="translate(34,4)"/>
<path d="M0 0 C0.73605469 0.34933594 1.47210938 0.69867188 2.23046875 1.05859375 C3.69419922 1.74115234 3.69419922 1.74115234 5.1875 2.4375 C6.15042969 2.88996094 7.11335938 3.34242187 8.10546875 3.80859375 C10.76631586 4.90381422 13.16784755 5.54954796 16 6 C16 6.33 16 6.66 16 7 C9.34454208 7.54330269 5.54165256 6.77304004 0 3 C0 2.01 0 1.02 0 0 Z " fill="#8A8989" transform="translate(11,42)"/>
<path d="M0 0 C0.66 0 1.32 0 2 0 C2.33 1.65 2.66 3.3 3 5 C0.03 5 -2.94 5 -6 5 C-6 3.68 -6 2.36 -6 1 C-4.02 1 -2.04 1 0 1 C0 0.67 0 0.34 0 0 Z " fill="#8D8D8D" transform="translate(27,36)"/>
<path d="M0 0 C0.66 0.66 1.32 1.32 2 2 C1.53980469 2.53109375 1.07960938 3.0621875 0.60546875 3.609375 C-1.30248355 6.45041347 -1.92787155 8.92210393 -2.6875 12.25 C-2.93886719 13.32765625 -3.19023438 14.4053125 -3.44921875 15.515625 C-3.63097656 16.33546875 -3.81273437 17.1553125 -4 18 C-4.33 18 -4.66 18 -5 18 C-5.33249053 11.79351012 -4.54922986 7.68674354 -2 2 C-1.34 1.34 -0.68 0.68 0 0 Z " fill="#181A1A" transform="translate(9,15)"/>
<path d="M0 0 C2 2 2 2 2.125 4.625 C2.08375 5.40875 2.0425 6.1925 2 7 C0.02 7.33 -1.96 7.66 -4 8 C-3.67 6.02 -3.34 4.04 -3 2 C-2.01 2 -1.02 2 0 2 C0 1.34 0 0.68 0 0 Z " fill="#B1B1B1" transform="translate(40,19)"/>
<path d="M0 0 C2.5 2.3125 2.5 2.3125 5 5 C5 5.99 5 6.98 5 8 C4.34 8 3.68 8 3 8 C2.525625 7.505 2.05125 7.01 1.5625 6.5 C0.00030058 4.65373409 0.00030058 4.65373409 -3 5 C-2.625 3.0625 -2.625 3.0625 -2 1 C-1.34 0.67 -0.68 0.34 0 0 Z " fill="#5E5555" transform="translate(40,16)"/>
<path d="M0 0 C0.66 0.33 1.32 0.66 2 1 C1.67 1.66 1.34 2.32 1 3 C2.65 3 4.3 3 6 3 C6 4.98 6 6.96 6 9 C5.34 9 4.68 9 4 9 C4 7.68 4 6.36 4 5 C1.69 5.33 -0.62 5.66 -3 6 C-2.34 5.34 -1.68 4.68 -1 4 C-0.3574765 1.93125966 -0.3574765 1.93125966 0 0 Z " fill="#181312" transform="translate(27,21)"/>
<path d="M0 0 C3.63 0 7.26 0 11 0 C11 0.99 11 1.98 11 3 C7.37 3 3.74 3 0 3 C0 2.01 0 1.02 0 0 Z " fill="#4C4646" transform="translate(20,28)"/>
<path d="M0 0 C0.66 0.33 1.32 0.66 2 1 C1.67 2.32 1.34 3.64 1 5 C-1.31 5 -3.62 5 -6 5 C-6 3.68 -6 2.36 -6 1 C-5.01 1.33 -4.02 1.66 -3 2 C-3.66 2 -4.32 2 -5 2 C-5 2.66 -5 3.32 -5 4 C-3.01508358 3.73323796 -3.01508358 3.73323796 -1 3 C-0.67 2.01 -0.34 1.02 0 0 Z " fill="#EAEAEA" transform="translate(28,31)"/>
<path d="M0 0 C0.99 0.33 1.98 0.66 3 1 C2.34 3.97 1.68 6.94 1 10 C-1 8 -1 8 -1.1875 5 C-1 2 -1 2 0 0 Z " fill="#373837" transform="translate(19,9)"/>
<path d="M0 0 C2.375 0.3125 2.375 0.3125 5 1 C7 4 7 4 7 7 C6.34 7 5.68 7 5 7 C4.67 5.68 4.34 4.36 4 3 C2.35 3 0.7 3 -1 3 C-0.67 2.01 -0.34 1.02 0 0 Z " fill="#787777" transform="translate(23,7)"/>
<path d="M0 0 C1.32 0 2.64 0 4 0 C4 1.65 4 3.3 4 5 C3.34 4.01 2.68 3.02 2 2 C2 3.32 2 4.64 2 6 C1.01 6 0.02 6 -1 6 C-1.042721 4.33388095 -1.04063832 2.66617115 -1 1 C-0.67 0.67 -0.34 0.34 0 0 Z " fill="#DEDEDE" transform="translate(11,30)"/>
<path d="M0 0 C0.33 1.32 0.66 2.64 1 4 C2.98 4 4.96 4 7 4 C7 4.99 7 5.98 7 7 C1.125 6.125 1.125 6.125 0 5 C-0.04063832 3.33382885 -0.042721 1.66611905 0 0 Z " fill="#796969" transform="translate(8,23)"/>
<path d="M0 0 C1.98 0.66 3.96 1.32 6 2 C6 2.99 6 3.98 6 5 C4.35 5 2.7 5 1 5 C0.67 3.35 0.34 1.7 0 0 Z " fill="#8F8E8E" transform="translate(31,36)"/>
<path d="M0 0 C0.66 0 1.32 0 2 0 C2.33 1.65 2.66 3.3 3 5 C1.02 5.99 1.02 5.99 -1 7 C-1 3 -1 3 0 0 Z " fill="#7B7172" transform="translate(12,10)"/>
<path d="M0 0 C0.33 0.99 0.66 1.98 1 3 C-0.40445835 5.2636564 -2.1967913 7.0208685 -4 9 C-4.66 8.67 -5.32 8.34 -6 8 C-4.02 5.36 -2.04 2.72 0 0 Z " fill="#25302F" transform="translate(18,1)"/>
<path d="M0 0 C0.33 0 0.66 0 1 0 C1 3.3 1 6.6 1 10 C0.01 9.67 -0.98 9.34 -2 9 C-1.34 6.03 -0.68 3.06 0 0 Z " fill="#624D4D" transform="translate(7,21)"/>
<path d="M0 0 C0.66 0.33 1.32 0.66 2 1 C2 3.64 2 6.28 2 9 C1.01 9.495 1.01 9.495 0 10 C-0.19412181 8.52168779 -0.38012131 7.04230684 -0.5625 5.5625 C-0.66691406 4.73878906 -0.77132813 3.91507813 -0.87890625 3.06640625 C-0.91886719 2.38449219 -0.95882813 1.70257813 -1 1 C-0.67 0.67 -0.34 0.34 0 0 Z " fill="#444342" transform="translate(30,9)"/>
<path d="M0 0 C0.33 0 0.66 0 1 0 C1 1.65 1 3.3 1 5 C-0.98 5.33 -2.96 5.66 -5 6 C-5.33 5.01 -5.66 4.02 -6 3 C-4.02 3 -2.04 3 0 3 C0 2.01 0 1.02 0 0 Z " fill="#4A4949" transform="translate(17,33)"/>
<path d="M0 0 C1.65 0 3.3 0 5 0 C4.67 1.32 4.34 2.64 4 4 C2.35 3.67 0.7 3.34 -1 3 C-0.67 2.01 -0.34 1.02 0 0 Z " fill="#595959" transform="translate(38,30)"/>
<path d="M0 0 C0.99 0.66 1.98 1.32 3 2 C2.01 2.495 2.01 2.495 1 3 C0.67 3.99 0.34 4.98 0 6 C0.66 6.33 1.32 6.66 2 7 C1.34 7 0.68 7 0 7 C-0.33 7.66 -0.66 8.32 -1 9 C-1.625 6.1875 -1.625 6.1875 -2 3 C-1.34 2.01 -0.68 1.02 0 0 Z " fill="#806A6A" transform="translate(36,21)"/>
<path d="M0 0 C0.66 0.33 1.32 0.66 2 1 C0.25 5.875 0.25 5.875 -2 7 C-2.125 4.625 -2.125 4.625 -2 2 C-1.34 1.34 -0.68 0.68 0 0 Z " fill="#380B0F" transform="translate(36,16)"/>
</svg>
