<?xml version="1.0" encoding="UTF-8"?>
<!-- Generator: https://ezgif.com/webp-to-svg -->
<svg version="1.1" xmlns="http://www.w3.org/2000/svg" width="50" height="50">
<path d="M0 0 C0.66 0 1.32 0 2 0 C2.01 0.57 2.03 1.14 2.04 1.72 C2.41 7.61 3.7 11.81 8 16 C10.9 17.79 13.38 18.33 16.75 18.62 C17.55 18.7 18.35 18.77 19.17 18.85 C19.78 18.9 20.38 18.95 21 19 C19.65 22.81 17.93 25.7 15.48 28.91 C14.79 29.82 14.09 30.72 13.38 31.66 C12.3 33.07 12.3 33.07 11.19 34.5 C10.48 35.44 9.76 36.37 9.03 37.34 C5.53 41.91 2.1 45.9 -2 50 C-2 40.43 -2 30.86 -2 21 C-6.95 21 -11.9 21 -17 21 C-15.01 17.01 -12.64 14.25 -9.62 11.06 C-8.66 10.03 -7.69 9 -6.73 7.97 C-6.26 7.48 -5.8 6.98 -5.32 6.47 C-4.07 5.08 -2.92 3.6 -1.77 2.12 C-0.9 1.07 -0.9 1.07 0 0 Z " fill="#FBFBFB" transform="translate(23,0)"/>
<path d="M0 0 C1.68 0.29 3.34 0.62 5 1 C5 2.65 5 4.3 5 6 C2.62 6.62 2.62 6.62 0 7 C-0.66 6.34 -1.32 5.68 -2 5 C-1.46 1.46 -1.46 1.46 0 0 Z " fill="#FBFBFB" transform="translate(39,0)"/>
</svg>
