<?xml version="1.0" encoding="UTF-8"?>
<!-- Generator: https://ezgif.com/webp-to-svg -->
<svg version="1.1" xmlns="http://www.w3.org/2000/svg" width="50" height="50">
<path d="M0 0 C0.92 -0.04 1.83 -0.07 2.78 -0.11 C9.48 -0.2 9.48 -0.2 12.89 2.57 C14.46 5.98 14.3 7.17 13.12 10.69 C12.82 11.64 12.51 12.59 12.2 13.57 C11.86 14.5 11.53 15.42 11.19 16.38 C10.9 17.2 10.6 18.02 10.3 18.87 C9.63 20.71 8.91 22.55 8.19 24.38 C5.23 23.76 3.81 23.12 1.19 21.38 C1.85 17.41 2.51 13.45 3.19 9.38 C-1.76 9.05 -6.71 8.71 -11.81 8.38 C-10.39 -1.57 -8.84 0.14 0 0 Z " fill="#00C7B1" transform="translate(11.8125,22.625)"/>
<path d="M0 0 C2.96 0.61 4.38 1.25 7 3 C6.34 6.96 5.68 10.92 5 15 C9.95 15.33 14.9 15.66 20 16 C19 23 19 23 18 24 C14.74 24.33 11.46 24.32 8.19 24.38 C7.27 24.41 6.36 24.45 5.41 24.49 C-1.29 24.58 -1.29 24.58 -4.7 21.81 C-6.28 18.4 -6.11 17.21 -4.94 13.69 C-4.63 12.74 -4.32 11.78 -4.01 10.8 C-3.68 9.88 -3.34 8.95 -3 8 C-2.71 7.18 -2.42 6.36 -2.12 5.51 C-1.44 3.66 -0.72 1.83 0 0 Z " fill="#00C7B1" transform="translate(30,3)"/>
</svg>
