<?xml version="1.0" encoding="UTF-8"?>
<!-- Generator: https://ezgif.com/webp-to-svg -->
<svg version="1.1" xmlns="http://www.w3.org/2000/svg" width="100" height="100">
<path d="M0 0 C3.16 1.37 3.99 1.99 6 5 C6.64 10.53 6.08 14.88 4 20 C3.61 23.43 3.61 23.43 5 27 C7.77 29.97 10.8 32.51 14 35 C13.67 33.35 13.34 31.7 13 30 C15.89 30.3 16.82 30.78 18.69 33.06 C21.59 39.56 21.3 44.5 19 51 C22.44 48.34 23 45.1 24 41 C24.66 41 25.32 41 26 41 C30.12 50.18 32.09 59.7 28.75 69.5 C27.12 72.75 25.44 75.31 23 78 C24.98 77.5 24.98 77.5 27 77 C24.83 83.91 18.95 88.87 12.69 92.25 C12.13 92.5 11.57 92.75 11 93 C10.67 92.34 10.34 91.68 10 91 C10.33 90.34 10.66 89.68 11 89 C4.56 91.78 0.45 93.82 -3 100 C-3.66 100 -4.32 100 -5 100 C-8.02 90.93 -3.73 83.4 0.25 75.38 C0.83 74.26 1.41 73.15 2 72 C-0.76 72.52 -3.33 73.11 -6 74 C-5.67 70.7 -5.34 67.4 -5 64 C-5.99 65.65 -6.98 67.3 -8 69 C-7.51 69.5 -7.51 69.5 -7 70 C-7 72 -7 74 -7 76 C-6.7 78.34 -6.37 80.67 -6 83 C-8.52 84.26 -10.31 84.1 -13.12 84.06 C-14.49 84.05 -14.49 84.05 -15.88 84.04 C-16.93 84.02 -16.93 84.02 -18 84 C-18 83.34 -18 82.68 -18 82 C-19.32 81.67 -20.64 81.34 -22 81 C-22.33 79.68 -22.66 78.36 -23 77 C-23.66 77 -24.32 77 -25 77 C-25.2 75.58 -25.38 74.17 -25.56 72.75 C-25.67 71.96 -25.77 71.17 -25.88 70.36 C-26.13 65.47 -24.06 61.37 -22 57 C-20.56 55.44 -20.56 55.44 -19 54 C-18.38 53.05 -17.76 52.1 -17.12 51.12 C-15 48 -15 48 -12.25 45.38 C-9.54 43.06 -9.54 43.06 -10 39 C-8.35 39.33 -6.7 39.66 -5 40 C-5.67 36.89 -5.67 36.89 -8.06 35.81 C-8.7 35.54 -9.34 35.28 -10 35 C-9.96 34.22 -9.92 33.43 -9.88 32.62 C-9.71 29.84 -9.71 29.84 -12 28 C-11.9 25.59 -11.9 25.59 -11 23 C-9.04 21.23 -9.04 21.23 -6.62 19.62 C-2.4 16.51 -0.27 14.26 1 9 C0.93 5.94 0.57 3.01 0 0 Z M-5 32 C-1.81 34.13 0.27 34.5 4 35 C1.24 32.24 -1.21 32.42 -5 32 Z M6 36 C5.67 38.97 5.34 41.94 5 45 C5.99 45.5 5.99 45.5 7 46 C8.2 40.72 8.2 40.72 6 36 Z M5 47 C6 49 6 49 6 49 Z M-9 48 C-8.67 48.66 -8.34 49.32 -8 50 C-7.34 49.34 -6.68 48.68 -6 48 C-6.99 48 -7.98 48 -9 48 Z M2 49 C2.66 50.32 3.32 51.64 4 53 C4.33 51.68 4.66 50.36 5 49 C4.01 49 3.02 49 2 49 Z M-7 53 C-8.32 53.99 -9.64 54.98 -11 56 C-9.35 56 -7.7 56 -6 56 C-6.33 55.01 -6.66 54.02 -7 53 Z M-15 56 C-14.67 56.66 -14.34 57.32 -14 58 C-13.34 57.34 -12.68 56.68 -12 56 C-12.99 56 -13.98 56 -15 56 Z M1 54 C-0.98 54.66 -2.96 55.32 -5 56 C-4.01 56.33 -3.02 56.66 -2 57 C-1.67 57.99 -1.34 58.98 -1 60 C-0.01 58.68 0.98 57.36 2 56 C1.67 55.34 1.34 54.68 1 54 Z M-14.06 62 C-14.7 62.66 -15.34 63.32 -16 64 C-14.68 64 -13.36 64 -12 64 C-11.67 62.68 -11.34 61.36 -11 60 C-12.36 59.88 -12.36 59.88 -14.06 62 Z M-21 72 C-21 72.66 -21 73.32 -21 74 C-17.7 73.67 -14.4 73.34 -11 73 C-11 72.67 -11 72.34 -11 72 C-14.3 72 -17.6 72 -21 72 Z " fill="#036EFE" transform="translate(48,0)"/>
<path d="M0 0 C1.73 0.45 3.46 0.91 5.19 1.38 C6.63 1.76 6.63 1.76 8.11 2.15 C10.82 2.95 13.39 3.9 16 5 C16.08 6.77 16.14 8.54 16.19 10.31 C16.24 11.79 16.24 11.79 16.29 13.3 C15.96 16.41 15.33 17.05 13 19 C12.86 19.66 12.71 20.32 12.56 21 C12 23 12 23 9.94 24.44 C9.3 24.95 8.66 25.47 8 26 C8 26.83 8 27.65 8 28.5 C8 29.33 8 30.15 8 31 C6.12 32.56 6.12 32.56 4 34 C2.75 36.08 2.75 36.08 2 38 C2.49 38.5 2.49 38.5 3 39 C3 41 3 43 3 45 C3.3 47.34 3.63 49.67 4 52 C1.48 53.26 -0.31 53.1 -3.12 53.06 C-4.04 53.05 -4.95 53.04 -5.88 53.04 C-6.58 53.02 -7.28 53.01 -8 53 C-8 52.34 -8 51.68 -8 51 C-9.32 50.67 -10.64 50.34 -12 50 C-12.33 48.68 -12.66 47.36 -13 46 C-13.66 46 -14.32 46 -15 46 C-15.2 44.58 -15.38 43.17 -15.56 41.75 C-15.67 40.96 -15.77 40.17 -15.88 39.36 C-16.13 34.47 -14.06 30.37 -12 26 C-10.56 24.44 -10.56 24.44 -9 23 C-8.38 22.05 -7.76 21.1 -7.12 20.12 C-5 17 -5 17 -2.25 14.38 C0.46 12.06 0.46 12.06 0 8 C2.48 8.5 2.48 8.5 5 9 C4.33 5.89 4.33 5.89 1.94 4.81 C1.3 4.54 0.66 4.28 0 4 C0 2.68 0 1.36 0 0 Z M1 17 C1.33 17.66 1.66 18.32 2 19 C2.66 18.34 3.32 17.68 4 17 C3.01 17 2.02 17 1 17 Z M3 22 C1.68 22.99 0.36 23.98 -1 25 C0.65 25 2.3 25 4 25 C3.67 24.01 3.34 23.02 3 22 Z M-5 25 C-4.67 25.66 -4.34 26.32 -4 27 C-3.34 26.34 -2.68 25.68 -2 25 C-2.99 25 -3.98 25 -5 25 Z M-4.06 31 C-4.7 31.66 -5.34 32.32 -6 33 C-4.68 33 -3.36 33 -2 33 C-1.67 31.68 -1.34 30.36 -1 29 C-2.36 28.88 -2.36 28.88 -4.06 31 Z M-11 41 C-11 41.66 -11 42.32 -11 43 C-7.7 42.67 -4.4 42.34 -1 42 C-1 41.67 -1 41.34 -1 41 C-4.3 41 -7.6 41 -11 41 Z " fill="#FEFEFE" transform="translate(38,31)"/>
<path d="M0 0 C0.66 0 1.32 0 2 0 C6.12 9.18 8.09 18.7 4.75 28.5 C3.12 31.75 1.44 34.31 -1 37 C0.98 36.5 0.98 36.5 3 36 C0.83 42.91 -5.05 47.87 -11.31 51.25 C-11.87 51.5 -12.43 51.75 -13 52 C-13.33 51.34 -13.66 50.68 -14 50 C-13.67 49.34 -13.34 48.68 -13 48 C-19.44 50.78 -23.55 52.82 -27 59 C-27.66 59 -28.32 59 -29 59 C-30.27 55.19 -30.51 53.03 -30 49 C-27.97 45.42 -25.55 42.22 -23 39 C-22.37 38.16 -21.74 37.32 -21.1 36.46 C-18.84 33.81 -16.46 31.91 -13.69 29.81 C-7.41 24.72 -1.89 19.77 -0.36 11.55 C-0.09 8.35 0.03 5.21 0 2 C0 1.34 0 0.68 0 0 Z " fill="#FBFC0A" transform="translate(72,41)"/>
</svg>
