<?xml version="1.0" encoding="UTF-8"?>
<svg version="1.1" xmlns="http://www.w3.org/2000/svg" width="50" height="50">
<path d="M0 0 C2.4375 0.8125 2.4375 0.8125 5 2 C5.33 2.99 5.66 3.98 6 5 C6.66 4.67 7.32 4.34 8 4 C12.23971058 3.76446052 15.36178302 3.67154114 19 6 C19.309375 4.7934375 19.309375 4.7934375 19.625 3.5625 C20.07875 2.716875 20.5325 1.87125 21 1 C24.125 0.1875 24.125 0.1875 27 0 C26.67 0.66 26.34 1.32 26 2 C25.7724985 3.87056791 25.59037189 5.74685958 25.4375 7.625 C25.35371094 8.62789062 25.26992188 9.63078125 25.18359375 10.6640625 C25.09271484 11.82035156 25.09271484 11.82035156 25 13 C25.78632812 13.25007812 26.57265625 13.50015625 27.3828125 13.7578125 C30 15 30 15 31.1796875 16.8046875 C31.52386719 17.82949219 31.52386719 17.82949219 31.875 18.875 C32.11992188 19.55304687 32.36484375 20.23109375 32.6171875 20.9296875 C33.06168065 23.33357902 32.73424523 24.68465001 32 27 C31.82339844 27.70640625 31.64679687 28.4128125 31.46484375 29.140625 C30.9765625 31.09375 30.48828125 33.046875 30 35 C29.01 35 28.02 35 27 35 C26.896875 35.598125 26.79375 36.19625 26.6875 36.8125 C25.34493712 41.08429098 21.74515179 42.94468199 18.0625 45.1875 C17.20785156 45.71730469 16.35320313 46.24710938 15.47265625 46.79296875 C13 48 13 48 9 48 C9 47.34 9 46.68 9 46 C8.13375 46.474375 7.2675 46.94875 6.375 47.4375 C3.14612626 48.93234895 0.50966174 49.58218313 -3 50 C-2.690625 49.236875 -2.38125 48.47375 -2.0625 47.6875 C-1.32106407 45.81210323 -0.63771783 43.91315348 0 42 C-0.763125 41.278125 -1.52625 40.55625 -2.3125 39.8125 C-6.68893674 35.23250806 -8.56127925 31.62208104 -9.0625 25.3359375 C-8.91678515 19.88984481 -6.96098679 16.07538998 -3.375 12.0625 C-0.3000806 8.09747235 -0.11974835 4.89879593 0 0 Z " fill="#C2AC82" transform="translate(13,0)"/>
<path d="M0 0 C2.31 0 4.62 0 7 0 C7.33 0.66 7.66 1.32 8 2 C7.34 2 6.68 2 6 2 C5.67 3.32 5.34 4.64 5 6 C6.31602523 5.38245741 7.62773556 4.75571258 8.9375 4.125 C9.66839844 3.77695313 10.39929688 3.42890625 11.15234375 3.0703125 C13.16332459 2.1315023 13.16332459 2.1315023 14 0 C14.66 0 15.32 0 16 0 C15.125 5.75 15.125 5.75 14 8 C16.475 8.495 16.475 8.495 19 9 C18.34 9.66 17.68 10.32 17 11 C18.65 12.65 20.3 14.3 22 16 C21.01 16 20.02 16 19 16 C19.66 16.99 20.32 17.98 21 19 C21.125 22.1875 21.125 22.1875 21 25 C20.34 24.34 19.68 23.68 19 23 C18.34 25.64 17.68 28.28 17 31 C16.34 31 15.68 31 15 31 C14.236875 31.763125 13.47375 32.52625 12.6875 33.3125 C10.23161503 35.76838497 8.03044006 37.35490397 5 39 C5.41835894 36.0714874 5.8577907 34.2047814 7.5625 31.75 C9.53092079 27.98432545 9.83788535 24.18121217 9 20 C8.01 19.34 7.02 18.68 6 18 C6.66 18.99 7.32 19.98 8 21 C8.73542818 25.56649593 8.63478472 29.00550394 6.125 32.9375 C5.073125 33.9584375 5.073125 33.9584375 4 35 C3.34 35.66 2.68 36.32 2 37 C-0.89599004 38.59778761 -3.92023286 39.80231278 -7 41 C-6.34 38.69 -5.68 36.38 -5 34 C-4.01 34 -3.02 34 -2 34 C1.66708145 32.18399209 1.66708145 32.18399209 4 29 C4.06950541 27.45976004 4.08452357 25.91665012 4.0625 24.375 C4.05347656 23.55773437 4.04445313 22.74046875 4.03515625 21.8984375 C4.02355469 21.27195312 4.01195312 20.64546875 4 20 C3.34 21.32 2.68 22.64 2 24 C1.34 24 0.68 24 0 24 C-0.433125 25.2065625 -0.433125 25.2065625 -0.875 26.4375 C-2 29 -2 29 -4 30 C-4 26.7 -4 23.4 -4 20 C-2.35 19.34 -0.7 18.68 1 18 C1.20086443 14.28400809 1.1519437 13.22791555 -1 10 C0.98 10 2.96 10 5 10 C5 9.34 5 8.68 5 8 C2.36 8 -0.28 8 -3 8 C-2.37240135 5.07120629 -1.41377341 2.63904371 0 0 Z " fill="#201E1D" transform="translate(21,6)"/>
<path d="M0 0 C0.66 0 1.32 0 2 0 C2.33 0.66 2.66 1.32 3 2 C5.01669827 3.13350534 5.01669827 3.13350534 7 4 C5.68 6.31 4.36 8.62 3 11 C5.64 11 8.28 11 11 11 C11 11.66 11 12.32 11 13 C9.35 13.33 7.7 13.66 6 14 C6.5259375 14.86625 6.5259375 14.86625 7.0625 15.75 C8 18 8 18 7.875 20.125 C7 22 7 22 4.9921875 22.828125 C2.78144196 23.81918608 2.78144196 23.81918608 2.390625 26.1640625 C2.32101563 27.38222656 2.32101563 27.38222656 2.25 28.625 C2.19328125 29.44226563 2.1365625 30.25953125 2.078125 31.1015625 C2.05234375 31.72804688 2.0265625 32.35453125 2 33 C0.68 33 -0.64 33 -2 33 C-1.34 33.99 -0.68 34.98 0 36 C-0.33 36.99 -0.66 37.98 -1 39 C-5.71475264 36.77358903 -8.02969858 33.72678222 -10 29 C-10.9375 25.3125 -10.9375 25.3125 -11 22 C-9.75 20 -9.75 20 -8 18 C-7.505 16.80375 -7.01 15.6075 -6.5 14.375 C-5 11 -5 11 -2 9 C-1.67 9.33 -1.34 9.66 -1 10 C-0.22157062 6.59437148 0.09978121 3.49234244 0 0 Z " fill="#7D735A" transform="translate(15,3)"/>
<path d="M0 0 C2.4375 0.8125 2.4375 0.8125 5 2 C5.33 2.99 5.66 3.98 6 5 C6.66 4.67 7.32 4.34 8 4 C12.23971058 3.76446052 15.36178302 3.67154114 19 6 C19.309375 4.7934375 19.309375 4.7934375 19.625 3.5625 C20.07875 2.716875 20.5325 1.87125 21 1 C24.125 0.1875 24.125 0.1875 27 0 C26.67 0.66 26.34 1.32 26 2 C25.7724985 3.87056791 25.59037189 5.74685958 25.4375 7.625 C25.35371094 8.62789062 25.26992188 9.63078125 25.18359375 10.6640625 C25.09271484 11.82035156 25.09271484 11.82035156 25 13 C25.78632812 13.25007812 26.57265625 13.50015625 27.3828125 13.7578125 C30 15 30 15 31.1796875 16.8046875 C31.52386719 17.82949219 31.52386719 17.82949219 31.875 18.875 C32.11992188 19.55304687 32.36484375 20.23109375 32.6171875 20.9296875 C33.32764738 24.77197051 31.79075654 27.65725445 30 31 C29.71125 30.0925 29.4225 29.185 29.125 28.25 C28.23468224 25.67797092 27.28505587 23.38653234 26 21 C26.99 21 27.98 21 29 21 C27.02 19.68 25.04 18.36 23 17 C23.66 16.34 24.32 15.68 25 15 C24.01 14.67 23.02 14.34 22 14 C22.66 11.36 23.32 8.72 24 6 C23.34 6 22.68 6 22 6 C21.814375 6.61875 21.62875 7.2375 21.4375 7.875 C19.28562767 11.05602866 16.62466237 11.19451947 13 12 C13.66 10.35 14.32 8.7 15 7 C11.7 6.67 8.4 6.34 5 6 C4.67 5.01 4.34 4.02 4 3 C3.34 3 2.68 3 2 3 C2.20625 4.0725 2.4125 5.145 2.625 6.25 C2.9876191 9.87619096 2.98362069 11.08291076 1 14 C0.01 14 -0.98 14 -2 14 C-2.33773438 14.71027344 -2.67546875 15.42054687 -3.0234375 16.15234375 C-3.46945313 17.07144531 -3.91546875 17.99054687 -4.375 18.9375 C-4.81585937 19.85402344 -5.25671875 20.77054688 -5.7109375 21.71484375 C-7 24 -7 24 -9 25 C-8.33467669 19.94124862 -7.58306992 16.21550891 -3.9375 12.5 C-0.29301122 8.73136805 -0.02312511 5.09908631 0 0 Z " fill="#D2C391" transform="translate(13,0)"/>
<path d="M0 0 C1 2 1 2 0.3125 4.75 C-1.07926349 8.1962715 -2.84459722 10.9824361 -5 14 C-4.34 14 -3.68 14 -3 14 C-2.67 13.34 -2.34 12.68 -2 12 C-1.01 12.66 -0.02 13.32 1 14 C0.67 14.99 0.34 15.98 0 17 C0.66 17.33 1.32 17.66 2 18 C2 17.01 2 16.02 2 15 C4 16 4 16 5.25 18.3125 C6 21 6 21 5.125 23.3125 C4.75375 23.869375 4.3825 24.42625 4 25 C3.01 25 2.02 25 1 25 C1.66 26.32 2.32 27.64 3 29 C2.34 29.33 1.68 29.66 1 30 C-4.49061193 24.8061779 -7.71721464 20.77659752 -8 13 C-6.75 11 -6.75 11 -5 9 C-3.99515117 6.66875071 -2.99477753 4.33556463 -2 2 C-1.34 1.34 -0.68 0.68 0 0 Z " fill="#BBAC80" transform="translate(12,12)"/>
<path d="M0 0 C2.03030858 1.63986463 2.55381454 2.71850987 2.86328125 5.30078125 C2.99563624 9.44558229 3.03602348 11.66856321 0.75 15.25 C-0.301875 16.2709375 -0.301875 16.2709375 -1.375 17.3125 C-2.035 17.9725 -2.695 18.6325 -3.375 19.3125 C-6.27099004 20.91028761 -9.29523286 22.11481278 -12.375 23.3125 C-11.385 19.8475 -11.385 19.8475 -10.375 16.3125 C-9.385 16.3125 -8.395 16.3125 -7.375 16.3125 C-3.70791855 14.49649209 -3.70791855 14.49649209 -1.375 11.3125 C-1.30549459 9.77226004 -1.29047643 8.22915012 -1.3125 6.6875 C-1.32152344 5.87023437 -1.33054687 5.05296875 -1.33984375 4.2109375 C-1.35144531 3.58445312 -1.36304688 2.95796875 -1.375 2.3125 C-2.035 3.6325 -2.695 4.9525 -3.375 6.3125 C-4.035 6.3125 -4.695 6.3125 -5.375 6.3125 C-5.808125 7.5190625 -5.808125 7.5190625 -6.25 8.75 C-7.375 11.3125 -7.375 11.3125 -9.375 12.3125 C-9.375 9.0125 -9.375 5.7125 -9.375 2.3125 C-3.00833333 -0.87083333 -3.00833333 -0.87083333 0 0 Z " fill="#2E2E2D" transform="translate(26.375,23.6875)"/>
<path d="M0 0 C2.3657358 0.94629432 3.73981398 1.61656797 5.1875 3.75 C6.2271916 6.62914596 5.82529175 8.29321263 5.125 11.25 C4.92132813 12.14203125 4.71765625 13.0340625 4.5078125 13.953125 C4.25644531 14.96632813 4.25644531 14.96632813 4 16 C3.34 16 2.68 16 2 16 C1.236875 16.763125 0.47375 17.52625 -0.3125 18.3125 C-2.76838497 20.76838497 -4.96955994 22.35490397 -8 24 C-7.60612282 20.65204398 -6.92739921 18.8933676 -5 16.0625 C-2.9240705 12.88373295 -2.35576699 10.73555342 -2 7 C-1.34 7.33 -0.68 7.66 0 8 C0.625 10.5625 0.625 10.5625 1 13 C1.07654536 8.48382401 1.10228696 4.40914783 0 0 Z " fill="#191A1D" transform="translate(34,21)"/>
<path d="M0 0 C2.4375 0.8125 2.4375 0.8125 5 2 C5.33 2.99 5.66 3.98 6 5 C6.66 4.67 7.32 4.34 8 4 C13.30507531 3.60703146 14.56808139 3.67606105 19 7 C12.07 6.505 12.07 6.505 5 6 C4.67 5.01 4.34 4.02 4 3 C3.34 3 2.68 3 2 3 C2.20625 4.0725 2.4125 5.145 2.625 6.25 C2.9876191 9.87619096 2.98362069 11.08291076 1 14 C0.01 14 -0.98 14 -2 14 C-2.33773438 14.71027344 -2.67546875 15.42054687 -3.0234375 16.15234375 C-3.46945313 17.07144531 -3.91546875 17.99054687 -4.375 18.9375 C-4.81585937 19.85402344 -5.25671875 20.77054688 -5.7109375 21.71484375 C-7 24 -7 24 -9 25 C-8.33467669 19.94124862 -7.58306992 16.21550891 -3.9375 12.5 C-0.29301122 8.73136805 -0.02312511 5.09908631 0 0 Z " fill="#E1D7A4" transform="translate(13,0)"/>
<path d="M0 0 C-0.33 1.32 -0.66 2.64 -1 4 C0.65 4.33 2.3 4.66 4 5 C5.33650858 9.00952575 5.20225023 12.82016197 5 17 C4.34 17.66 3.68 18.32 3 19 C2.67 16.69 2.34 14.38 2 12 C1.67 13.65 1.34 15.3 1 17 C0.67 17 0.34 17 0 17 C-0.103125 15.741875 -0.20625 14.48375 -0.3125 13.1875 C-0.64592237 10.57569142 -0.88335956 9.18329212 -2.3125 6.9375 C-4.00343401 5.77564441 -4.00343401 5.77564441 -6.1875 6.3125 C-6.785625 6.539375 -7.38375 6.76625 -8 7 C-8.33 6.01 -8.66 5.02 -9 4 C-8.34 3.34 -7.68 2.68 -7 2 C-7 2.66 -7 3.32 -7 4 C-6.01 3.34 -5.02 2.68 -4 2 C-4.66 2 -5.32 2 -6 2 C-6 1.34 -6 0.68 -6 0 C-3.50907189 -1.24546405 -2.58919267 -0.7767578 0 0 Z " fill="#57503F" transform="translate(31,17)"/>
<path d="M0 0 C0.66 0 1.32 0 2 0 C3.54586876 3.09173752 3.29359521 5.59429552 3 9 C0.56545463 12.24606049 -2.47943026 14.04412792 -6 16 C-6.50130606 10.73628638 -5.31168629 8.0909066 -2 4 C-1.34 4 -0.68 4 0 4 C0 2.68 0 1.36 0 0 Z " fill="#535450" transform="translate(23,26)"/>
<path d="M0 0 C1.32 0.66 2.64 1.32 4 2 C3.67 5.3 3.34 8.6 3 12 C2.67 12 2.34 12 2 12 C1.67 9.03 1.34 6.06 1 3 C0.34 4.32 -0.32 5.64 -1 7 C-1.66 7 -2.32 7 -3 7 C-3.28875 7.804375 -3.5775 8.60875 -3.875 9.4375 C-5 12 -5 12 -7 13 C-7 9.7 -7 6.4 -7 3 C-3.75 1.375 -3.75 1.375 0 0 Z " fill="#212121" transform="translate(24,23)"/>
<path d="M0 0 C0.68707555 2.49064888 1 4.37886292 1 7 C1.66 7 2.32 7 3 7 C3 7.66 3 8.32 3 9 C3.99 8.34 4.98 7.68 6 7 C6.99 7 7.98 7 9 7 C7.73958325 10.78125025 6.31129455 11.01322327 3 13 C2.67 13.99 2.34 14.98 2 16 C1.01 15.67 0.02 15.34 -1 15 C-0.67 14.01 -0.34 13.02 0 12 C-0.99 12 -1.98 12 -3 12 C-3.66 12 -4.32 12 -5 12 C-4.731875 11.505 -4.46375 11.01 -4.1875 10.5 C-2.56124507 7.0763054 -1.30484829 3.55867715 0 0 Z " fill="#C7BC94" transform="translate(12,14)"/>
<path d="M0 0 C2.97 0.495 2.97 0.495 6 1 C5.53199289 5.05606165 5.12046792 8.46588679 3 12 C3.99 11.34 4.98 10.68 6 10 C7.9375 9.734375 7.9375 9.734375 10 9.75 C10.680625 9.74484375 11.36125 9.7396875 12.0625 9.734375 C14 10 14 10 17 12 C15.02 12.33 13.04 12.66 11 13 C11 12.34 11 11.68 11 11 C10.13375 11.474375 9.2675 11.94875 8.375 12.4375 C5.14612626 13.93234895 2.50966174 14.58218313 -1 15 C-0.71125 14.29875 -0.4225 13.5975 -0.125 12.875 C0.24625 11.92625 0.6175 10.9775 1 10 C1.433125 8.989375 1.86625 7.97875 2.3125 6.9375 C3.35615871 3.98979708 3.35615871 3.98979708 1.625 1.625 C1.08875 1.08875 0.5525 0.5525 0 0 Z " fill="#D3BC80" transform="translate(11,35)"/>
<path d="M0 0 C0.99 0.66 1.98 1.32 3 2 C2.01 2.495 2.01 2.495 1 3 C2.65 4.65 4.3 6.3 6 8 C5.01 8 4.02 8 3 8 C3.99 9.485 3.99 9.485 5 11 C5.125 14.1875 5.125 14.1875 5 17 C3.34349037 14.8702019 1.8648907 12.76918828 0.5 10.4375 C-0.87116108 7.99855237 -0.87116108 7.99855237 -2.6875 6.3125 C-3.120625 5.879375 -3.55375 5.44625 -4 5 C-4 4.34 -4 3.68 -4 3 C-3.34 3 -2.68 3 -2 3 C-2 2.34 -2 1.68 -2 1 C-1.34 0.67 -0.68 0.34 0 0 Z " fill="#30302E" transform="translate(37,14)"/>
<path d="M0 0 C0.8971875 0.309375 0.8971875 0.309375 1.8125 0.625 C0.8225 0.955 -0.1675 1.285 -1.1875 1.625 C-1.1875 2.945 -1.1875 4.265 -1.1875 5.625 C-1.8475 5.625 -2.5075 5.625 -3.1875 5.625 C-3.373125 6.24375 -3.55875 6.8625 -3.75 7.5 C-5.90187233 10.68102866 -8.56283763 10.81951947 -12.1875 11.625 C-11.8575 10.305 -11.5275 8.985 -11.1875 7.625 C-9.5375 7.295 -7.8875 6.965 -6.1875 6.625 C-6.0328125 5.449375 -6.0328125 5.449375 -5.875 4.25 C-4.98283008 0.84353304 -3.65201826 -0.62606027 0 0 Z " fill="#CEC59D" transform="translate(38.1875,0.375)"/>
<path d="M0 0 C2.3657358 0.94629432 3.73981398 1.61656797 5.1875 3.75 C6.2271916 6.62914596 5.82529175 8.29321263 5.125 11.25 C4.92132813 12.14203125 4.71765625 13.0340625 4.5078125 13.953125 C4.34023438 14.62859375 4.17265625 15.3040625 4 16 C2.35 16 0.7 16 -1 16 C0 14 0 14 1 13 C1.15088074 8.47357775 1.10424872 4.41699488 0 0 Z " fill="#302F2D" transform="translate(34,21)"/>
<path d="M0 0 C2.46800047 1.15173355 4.04783565 2.04783565 6 4 C6.82108456 9.42768884 6.29231983 13.52244503 3 18 C2.67 18.99 2.34 19.98 2 21 C-0.0625 21.6875 -0.0625 21.6875 -2 22 C-2 21.01 -2 20.02 -2 19 C-1.175 18.29875 -0.35 17.5975 0.5 16.875 C3.54652349 13.37149798 3.61460437 11.64525053 3.375 7.16015625 C2.87783161 4.29625919 1.76914612 2.28514707 0 0 Z " fill="#A2946A" transform="translate(25,22)"/>
<path d="M0 0 C0.66 0 1.32 0 2 0 C2.33 0.66 2.66 1.32 3 2 C5.01669827 3.13350534 5.01669827 3.13350534 7 4 C6.21625 5.051875 5.4325 6.10375 4.625 7.1875 C2.59491421 10.01696802 1.10887021 12.67338936 0 16 C-1.38083397 12.1643501 -0.624674 8.95626865 0 5 C0.03545297 3.33371045 0.05048188 1.66590197 0 0 Z " fill="#BAB69A" transform="translate(15,3)"/>
<path d="M0 0 C2 2 2 2 3.4375 5.4375 C4.75661121 8.44507356 5.51995882 9.99234762 8 12 C7.67 12.99 7.34 13.98 7 15 C2.50673892 12.8140892 0.66798455 10.72595623 -1 6 C-0.6875 2.625 -0.6875 2.625 0 0 Z " fill="#5B4E36" transform="translate(7,27)"/>
<path d="M0 0 C1.98 0.99 1.98 0.99 4 2 C3.67 2.99 3.34 3.98 3 5 C3.66 5.33 4.32 5.66 5 6 C5 5.01 5 4.02 5 3 C7 4 7 4 8.25 6.3125 C9 9 9 9 8.125 11.3125 C7.568125 12.1478125 7.568125 12.1478125 7 13 C4.525 12.01 4.525 12.01 2 11 C2.33 10.34 2.66 9.68 3 9 C3.66 9.33 4.32 9.66 5 10 C5 9.34 5 8.68 5 8 C4.360625 7.79375 3.72125 7.5875 3.0625 7.375 C1 6 1 6 0.25 2.875 C0.1675 1.92625 0.085 0.9775 0 0 Z " fill="#716447" transform="translate(9,24)"/>
<path d="M0 0 C0.66 0 1.32 0 2 0 C1.125 5.75 1.125 5.75 0 8 C-2.32156597 8.40729228 -4.6568787 8.74438677 -7 9 C-7.66 8.01 -8.32 7.02 -9 6 C-8.43410156 5.73445312 -7.86820313 5.46890625 -7.28515625 5.1953125 C-6.55167969 4.84210937 -5.81820313 4.48890625 -5.0625 4.125 C-4.33160156 3.77695313 -3.60070312 3.42890625 -2.84765625 3.0703125 C-0.83667541 2.1315023 -0.83667541 2.1315023 0 0 Z " fill="#6D5E3F" transform="translate(35,6)"/>
<path d="M0 0 C1.32 0.33 2.64 0.66 4 1 C4.93423645 4.01031744 5.04449911 4.86650268 4 8 C2.66666667 8.66666667 1.33333333 9.33333333 0 10 C-0.33 10.99 -0.66 11.98 -1 13 C-1.66 12.34 -2.32 11.68 -3 11 C-2.67 10.01 -2.34 9.02 -2 8 C-0.66666667 7.33333333 0.66666667 6.66666667 2 6 C2.33 5.01 2.66 4.02 3 3 C1.35 3.33 -0.3 3.66 -2 4 C-1.34 2.68 -0.68 1.36 0 0 Z " fill="#9B8C65" transform="translate(18,17)"/>
<path d="M0 0 C-0.99 0.495 -0.99 0.495 -2 1 C-2.65772428 4.02934491 -2.65772428 4.02934491 -3 7 C-3.66 7 -4.32 7 -5 7 C-5.33 7.66 -5.66 8.32 -6 9 C-6.66 8.34 -7.32 7.68 -8 7 C-7.625 4.875 -7.625 4.875 -7 3 C-7.99 2.34 -8.98 1.68 -10 1 C-6.61981469 -0.04005702 -3.5219721 -0.08004482 0 0 Z " fill="#111417" transform="translate(37,14)"/>
<path d="M0 0 C0.66 0 1.32 0 2 0 C3.33650858 4.00952575 3.20225023 7.82016197 3 12 C2.34 12.66 1.68 13.32 1 14 C0.86722656 13.38511719 0.73445313 12.77023438 0.59765625 12.13671875 C0.42105469 11.32847656 0.24445312 10.52023438 0.0625 9.6875 C-0.11152344 8.88699219 -0.28554688 8.08648437 -0.46484375 7.26171875 C-0.99886159 4.854599 -0.99886159 4.854599 -2 2 C-1.34 2 -0.68 2 0 2 C0 1.34 0 0.68 0 0 Z " fill="#504E4D" transform="translate(33,22)"/>
<path d="M0 0 C0.66 0 1.32 0 2 0 C2.78774617 8.03501094 2.78774617 8.03501094 -0.5 12.0625 C-1.325 12.701875 -2.15 13.34125 -3 14 C-3.33 13.34 -3.66 12.68 -4 12 C-3.34 12 -2.68 12 -2 12 C-2 10.68 -2 9.36 -2 8 C-1.34 8 -0.68 8 0 8 C0 5.36 0 2.72 0 0 Z " fill="#343536" transform="translate(27,27)"/>
<path d="M0 0 C0.33 0 0.66 0 1 0 C2.125 5.625 2.125 5.625 1 9 C0.01 9 -0.98 9 -2 9 C-2.33 9.99 -2.66 10.98 -3 12 C-3 8.7 -3 5.4 -3 2 C-2.01 2.495 -2.01 2.495 -1 3 C-0.67 2.01 -0.34 1.02 0 0 Z " fill="#CEB789" transform="translate(42,26)"/>
<path d="M0 0 C0.99 0 1.98 0 3 0 C2.50168276 3.68754757 1.89932357 5.60490662 -1 8 C-1.66 7.67 -2.32 7.34 -3 7 C-1.125 2.25 -1.125 2.25 0 0 Z " fill="#9D9E89" transform="translate(21,30)"/>
<path d="M0 0 C1 2 1 2 0.3125 4.875 C-1.03712351 8.08838932 -2.39272995 9.74036595 -5 12 C-4.58525633 6.71201818 -3.64775386 3.88309282 0 0 Z " fill="#121212" transform="translate(12,12)"/>
<path d="M0 0 C2.33028092 0.93211237 3.75891532 1.69003398 5.3125 3.6875 C6.29016222 6.9760002 5.63938629 9.67519127 5 13 C2.69989124 10.69989124 2.54115246 9.62478923 1.9375 6.5 C1.28047869 3.14540186 1.28047869 3.14540186 0 0 Z " fill="#161617" transform="translate(34,21)"/>
<path d="M0 0 C1.32 0.33 2.64 0.66 4 1 C3 3 2 5 1 7 C-0.32 6.67 -1.64 6.34 -3 6 C-2.505 5.195625 -2.01 4.39125 -1.5 3.5625 C0.08419653 1.35103815 0.08419653 1.35103815 0 0 Z " fill="#585144" transform="translate(21,6)"/>
<path d="M0 0 C1.32 0 2.64 0 4 0 C4 0.66 4 1.32 4 2 C3.34 2 2.68 2 2 2 C1.71125 2.804375 1.4225 3.60875 1.125 4.4375 C0 7 0 7 -2 8 C-2.125 5.125 -2.125 5.125 -2 2 C-1.34 1.34 -0.68 0.68 0 0 Z " fill="#121314" transform="translate(19,28)"/>
<path d="M0 0 C0 2.62113708 -0.31292445 4.50935112 -1 7 C-2.98 7.33 -4.96 7.66 -7 8 C-6.21366078 6.85050412 -5.42073742 5.70551011 -4.625 4.5625 C-4.18414063 3.92441406 -3.74328125 3.28632812 -3.2890625 2.62890625 C-2 1 -2 1 0 0 Z " fill="#191B1B" transform="translate(24,37)"/>
<path d="M0 0 C0.66 0 1.32 0 2 0 C0.25892857 7.09821429 0.25892857 7.09821429 -3 10 C-2.69201674 8.51988629 -2.378482 7.04092675 -2.0625 5.5625 C-1.88847656 4.73878906 -1.71445313 3.91507813 -1.53515625 3.06640625 C-1 1 -1 1 0 0 Z " fill="#CAC794" transform="translate(7,15)"/>
<path d="M0 0 C0.33 0 0.66 0 1 0 C1 3.63 1 7.26 1 11 C1.66 11.33 2.32 11.66 3 12 C1.35 12 -0.3 12 -2 12 C-1.34 8.04 -0.68 4.08 0 0 Z " fill="#EADDA6" transform="translate(37,2)"/>
<path d="M0 0 C0.66 0 1.32 0 2 0 C2.6875 2.75 2.6875 2.75 3 6 C2.01 7.32 1.02 8.64 0 10 C0 6.7 0 3.4 0 0 Z " fill="#5B5443" transform="translate(15,3)"/>
<path d="M0 0 C2.46800047 1.15173355 4.04783565 2.04783565 6 4 C6.125 7.625 6.125 7.625 6 11 C5.7525 10.484375 5.505 9.96875 5.25 9.4375 C3.60418384 6.22815849 1.8023904 3.12414336 0 0 Z " fill="#C5BD96" transform="translate(25,22)"/>
<path d="M0 0 C2.97 0.33 5.94 0.66 9 1 C8.34 1.66 7.68 2.32 7 3 C5.68 3 4.36 3 3 3 C3 2.34 3 1.68 3 1 C1.68 1.33 0.36 1.66 -1 2 C-0.67 1.34 -0.34 0.68 0 0 Z " fill="#DBC490" transform="translate(19,45)"/>
<path d="M0 0 C2.97 0.495 2.97 0.495 6 1 C5.67 3.31 5.34 5.62 5 8 C3.02805885 6.02805885 2.167635 4.49095467 1 2 C0.67 1.34 0.34 0.68 0 0 Z " fill="#B69F70" transform="translate(11,35)"/>
<path d="M0 0 C-0.99 0.33 -1.98 0.66 -3 1 C-3 1.66 -3 2.32 -3 3 C-4.32 3.33 -5.64 3.66 -7 4 C-6.625 2.0625 -6.625 2.0625 -6 0 C-3.50907189 -1.24546405 -2.58919267 -0.7767578 0 0 Z " fill="#92907F" transform="translate(33,8)"/>
<path d="M0 0 C0.33 0 0.66 0 1 0 C1 1.65 1 3.3 1 5 C-0.98 5.99 -0.98 5.99 -3 7 C-2.25 2.25 -2.25 2.25 0 0 Z " fill="#141516" transform="translate(29,38)"/>
</svg>
