<?xml version="1.0" encoding="UTF-8"?>
<!-- Generator: https://ezgif.com/webp-to-svg -->
<svg version="1.1" xmlns="http://www.w3.org/2000/svg" width="50" height="50">
<path d="M0 0 C3.61 0.32 4.92 0.92 7.62 3.44 C11.73 7.05 16.6 8.12 22 8 C24.47 6.98 26.34 5.8 28.44 4.16 C30 3 30 3 32 3 C31.97 3.9 31.93 4.81 31.89 5.74 C31.85 7.51 31.85 7.51 31.81 9.31 C31.78 10.48 31.74 11.66 31.71 12.86 C32.03 16.33 32.47 16.84 35 19 C35 21 35 23 35 25 C36.44 26.69 36.44 26.69 38 28 C38 28.99 38 29.98 38 31 C37.01 31.49 37.01 31.49 36 32 C35.61 32.72 35.22 33.44 34.81 34.19 C32.44 37.86 29.67 40.61 26 43 C23.06 43.38 23.06 43.38 21 43 C19.68 45.31 18.36 47.62 17 50 C13.62 48.87 13.11 48.11 11 45.38 C4.91 38.2 -3.13 33.85 -12 31 C-11.5 26.31 -10.31 23.56 -7.56 19.75 C-4.54 15.23 -3.07 11.57 -2.39 6.19 C-1.97 3.83 -1.16 2.09 0 0 Z " fill="#1E1C19" transform="translate(12,0)"/>
<path d="M0 0 C3.61 0.32 4.92 0.92 7.62 3.44 C11.73 7.05 16.6 8.12 22 8 C24.47 6.98 26.34 5.8 28.44 4.16 C30 3 30 3 32 3 C31.97 3.9 31.93 4.81 31.89 5.74 C31.85 7.51 31.85 7.51 31.81 9.31 C31.78 10.48 31.74 11.66 31.71 12.86 C32.03 16.33 32.47 16.84 35 19 C35 21 35 23 35 25 C36.44 26.69 36.44 26.69 38 28 C38 28.99 38 29.98 38 31 C37.01 31.49 37.01 31.49 36 32 C35.61 32.72 35.22 33.44 34.81 34.19 C32.44 37.86 29.67 40.61 26 43 C23.06 43.38 23.06 43.38 21 43 C19.68 45.31 18.36 47.62 17 50 C13.62 48.87 13.11 48.11 11 45.38 C4.91 38.2 -3.13 33.85 -12 31 C-11.5 26.31 -10.31 23.56 -7.56 19.75 C-4.54 15.23 -3.07 11.57 -2.39 6.19 C-1.97 3.83 -1.16 2.09 0 0 Z M1 4 C-0.46 7.11 -1.02 9.34 -1.25 12.81 C-1.69 17.27 -3.76 19.81 -6.62 23.14 C-8.08 25.11 -8.58 26.6 -9 29 C-8.25 29.33 -7.5 29.66 -6.73 30 C0.16 33.2 5.48 36.77 10.94 42.05 C13.04 44.15 13.04 44.15 16 46 C16.54 45.01 17.07 44.02 17.62 43 C18.41 42.01 19.19 41.02 20 40 C22 39.96 24 39.96 26 40 C30.19 37.34 31.59 35.98 33.5 31.38 C34.4 27.88 34.4 27.88 32 25 C32 23.33 32 21.67 32 20 C31.34 19.01 30.68 18.02 30 17 C29.59 14.52 29.59 14.52 29.38 11.81 C29.3 10.91 29.23 10.01 29.15 9.08 C29.1 8.39 29.05 7.71 29 7 C28.26 7.7 27.52 8.4 26.75 9.12 C23.43 11.34 20.95 11.1 17.06 10.56 C11.55 9.43 8.33 7.5 4 4 C3.01 4 2.02 4 1 4 Z " fill="#F2C308" transform="translate(12,0)"/>
<path d="M0 0 C2.38 0.75 2.38 0.75 5 2 C5.67 3.33 6.33 4.67 7 6 C8.66 6.68 10.33 7.35 12 8 C14.75 9.9 17.38 11.93 20 14 C20.66 12.02 21.32 10.04 22 8 C22.99 8.66 23.98 9.32 25 10 C24.67 10.74 24.34 11.48 24 12.25 C22.6 16.1 22.9 19.16 24 23 C22.68 23 21.36 23 20 23 C20.66 24.65 21.32 26.3 22 28 C19.4 28.95 17.69 29.3 15.11 28.18 C13.37 27.17 11.68 26.09 10 25 C10.44 24.53 10.89 24.06 11.35 23.57 C11.91 22.95 12.48 22.33 13.06 21.69 C13.63 21.07 14.2 20.46 14.79 19.82 C15.19 19.22 15.59 18.62 16 18 C14.85 14.56 14.4 14.33 11.31 12.75 C7.44 10.96 5.15 10.59 1 12 C-1.43 13.23 -3.68 14.56 -6 16 C-5.3 16.56 -4.6 17.11 -3.88 17.69 C-0.89 20.09 2.06 22.54 5 25 C1.06 25 -0.83 23.52 -4.19 21.5 C-5.27 20.85 -6.36 20.2 -7.48 19.53 C-8.31 19.03 -9.14 18.52 -10 18 C-8.63 14.81 -7.16 13.07 -4.44 10.94 C-1.81 8.87 -1.1 8.29 0 5 C0.66 5 1.32 5 2 5 C1.34 3.35 0.68 1.7 0 0 Z " fill="#E6E6E6" transform="translate(17,9)"/>
<path d="M0 0 C1.61 0.91 3.21 1.83 4.81 2.75 C5.71 3.26 6.6 3.77 7.52 4.3 C9.98 5.99 11.38 7.52 13 10 C8.03 8.24 3.57 5.61 -1 3 C-0.67 2.01 -0.34 1.02 0 0 Z " fill="#C4C4C3" transform="translate(9,25)"/>
<path d="M0 0 C0.66 0.33 1.32 0.66 2 1 C1.25 3.94 1.25 3.94 0 7 C-2.12 7.88 -2.12 7.88 -4 8 C-2.67 5.33 -1.33 2.67 0 0 Z " fill="#4D4017" transform="translate(42,19)"/>
<path d="M0 0 C2.48 0.5 2.48 0.5 5 1 C5.33 1.99 5.66 2.98 6 4 C4.35 3.67 2.7 3.34 1 3 C0.67 2.01 0.34 1.02 0 0 Z " fill="#DCB10C" transform="translate(25,23)"/>
</svg>
