<?xml version="1.0" encoding="UTF-8"?>
<!-- Generator: https://ezgif.com/webp-to-svg -->
<svg version="1.1" xmlns="http://www.w3.org/2000/svg" width="50" height="50">
<path d="M0 0 C2.56 2.06 2.56 2.06 4 4 C3.67 4.99 3.34 5.98 3 7 C0.83 6.49 -1 6 -3 5 C-7.26 4.55 -7.26 4.55 -10.88 6.5 C-11.25 7 -11.62 7.49 -12 8 C-10.68 8.33 -9.36 8.66 -8 9 C-8 8.01 -8 7.02 -8 6 C-6.68 6 -5.36 6 -4 6 C-4 6.99 -4 7.98 -4 9 C-0.7 9 2.6 9 6 9 C6.44 12.01 6.42 14.2 4.98 16.92 C2.24 20.57 0.01 22.43 -4.56 23.12 C-8.52 23.26 -10.95 22.68 -14 20 C-15.31 17.81 -15.31 17.81 -16 16 C-14.19 15.38 -14.19 15.38 -12 15 C-11.01 15.66 -10.02 16.32 -9 17 C-4.73 17.49 -4.73 17.49 -1.12 15.5 C-0.75 15 -0.38 14.51 0 14 C-1.32 13.67 -2.64 13.34 -4 13 C-4 13.99 -4 14.98 -4 16 C-5.32 16 -6.64 16 -8 16 C-8 15.01 -8 14.02 -8 13 C-11.3 13 -14.6 13 -18 13 C-18.46 9.89 -18.49 7.77 -16.77 5.08 C-11.75 -0.92 -7.6 -1.84 0 0 Z " fill="#D2D2D2" transform="translate(31,14)"/>
<path d="M0 0 C3.19 -0.31 3.19 -0.31 6 0 C5.61 5.46 3.8 8.12 0 12 C-3.48 14.55 -4.57 15 -9 15 C-9.38 12.25 -9.38 12.25 -9 9 C-6.19 6.94 -6.19 6.94 -3 5 C-2.51 4.09 -2.01 3.19 -1.5 2.25 C-0.76 1.14 -0.76 1.14 0 0 Z " fill="#D2D2D2" transform="translate(38,29)"/>
<path d="M0 0 C2.75 -0.38 2.75 -0.38 6 0 C8.06 2.81 8.06 2.81 10 6 C10.91 6.49 11.81 6.99 12.75 7.5 C13.49 7.99 14.23 8.49 15 9 C15.31 12.19 15.31 12.19 15 15 C9.54 14.61 6.88 12.8 3 9 C0.45 5.52 0 4.43 0 0 Z " fill="#D2D2D2" transform="translate(6,29)"/>
<path d="M0 0 C5.46 0.39 8.12 2.2 12 6 C14.55 9.48 15 10.57 15 15 C12.25 15.38 12.25 15.38 9 15 C6.94 12.19 6.94 12.19 5 9 C4.09 8.51 3.19 8.01 2.25 7.5 C1.51 7 0.77 6.51 0 6 C-0.31 2.81 -0.31 2.81 0 0 Z " fill="#D2D2D2" transform="translate(29,6)"/>
<path d="M0 0 C0.38 2.75 0.38 2.75 0 6 C-2.81 8.06 -2.81 8.06 -6 10 C-6.49 10.91 -6.99 11.81 -7.5 12.75 C-8.24 13.86 -8.24 13.86 -9 15 C-12.19 15.31 -12.19 15.31 -15 15 C-14.61 9.54 -12.8 6.88 -9 3 C-5.52 0.45 -4.43 0 0 0 Z " fill="#D1D2D2" transform="translate(21,6)"/>
<path d="M0 0 C1.98 0 3.96 0 6 0 C6 3.63 6 7.26 6 11 C4.02 11 2.04 11 0 11 C0 7.37 0 3.74 0 0 Z " fill="#D2D2D2" transform="translate(22,39)"/>
<path d="M0 0 C3.63 0 7.26 0 11 0 C11 1.98 11 3.96 11 6 C7.37 6 3.74 6 0 6 C0 4.02 0 2.04 0 0 Z " fill="#D2D2D2" transform="translate(39,22)"/>
<path d="M0 0 C3.63 0 7.26 0 11 0 C11 1.98 11 3.96 11 6 C7.37 6 3.74 6 0 6 C0 4.02 0 2.04 0 0 Z " fill="#D2D2D2" transform="translate(0,22)"/>
<path d="M0 0 C1.98 0 3.96 0 6 0 C6 3.63 6 7.26 6 11 C4.02 11 2.04 11 0 11 C0 7.37 0 3.74 0 0 Z " fill="#D2D2D2" transform="translate(22,0)"/>
</svg>
