<?xml version="1.0" encoding="UTF-8"?>
<!-- Generator: https://ezgif.com/webp-to-svg -->
<svg version="1.1" xmlns="http://www.w3.org/2000/svg" width="100" height="100">
<path d="M0 0 C7.83 -0.18 15.66 -0.3 23.49 -0.38 C26.15 -0.42 28.81 -0.47 31.47 -0.53 C35.3 -0.61 39.13 -0.65 42.97 -0.68 C44.15 -0.72 45.34 -0.76 46.56 -0.79 C53.63 -0.8 57.52 0.15 62.63 5.17 C64.71 7.95 64.81 10.03 64.5 13.44 C64.43 14.49 64.36 15.54 64.28 16.62 C64.19 17.41 64.1 18.19 64 19 C65.07 18.97 65.07 18.97 66.16 18.94 C67.12 18.96 68.08 18.98 69.06 19 C70 19 70.94 19 71.91 19 C76.87 20.61 79.55 23.43 82 28 C83.05 32.84 83.07 37.5 83 42.44 C83.04 43.71 83.09 44.98 83.13 46.29 C83.12 53.13 82.53 57.34 77.75 62.44 C73.92 65.98 73.92 65.98 70.31 66.05 C68.06 65.59 66.1 64.96 64 64 C63.36 65.09 63.36 65.09 62.71 66.2 C56.33 76.72 49.62 82.53 38 87 C31.06 88.64 26.41 88.26 20 85 C17.49 84.26 14.97 83.59 12.43 82.94 C6.51 80.65 4 76.76 1.19 71.25 C0.58 70.08 -0.02 68.91 -0.64 67.7 C-1.32 66.37 -1.32 66.37 -2 65 C-2.97 65.12 -3.94 65.25 -4.94 65.38 C-9.36 65.29 -12.61 63.88 -16.17 61.3 C-19.74 56.81 -19.24 51.22 -19.06 45.74 C-19 43.63 -19.02 41.54 -19.05 39.43 C-19.04 33.27 -18.82 28.05 -14.84 23.09 C-11.59 20.05 -9.09 19 -4.56 19 C-3.51 18.98 -2.46 18.96 -1.38 18.94 C-0.59 18.96 0.19 18.98 1 19 C0.75 18.25 0.75 18.25 0.5 17.48 C-0.19 14.07 -0.11 10.71 -0.06 7.25 C-0.06 6.55 -0.05 5.86 -0.05 5.14 C-0.04 3.42 -0.02 1.71 0 0 Z " fill="#871726" transform="translate(18,6)"/>
<path d="M0 0 C11.62 -0.25 11.62 -0.25 15 2 C15.13 4.75 15.15 7.28 15 10 C15 10.99 15 11.98 15 13 C15 15 15 17 15 19 C16.32 19 17.64 19 19 19 C18.86 16.58 18.71 14.17 18.56 11.75 C18.52 11.07 18.48 10.39 18.44 9.68 C18.23 6.29 17.83 3.31 17 0 C21.95 0 26.9 0 32 0 C32 1.98 32 3.96 32 6 C30.35 6 28.7 6 27 6 C27 5.34 27 4.68 27 4 C26.01 4 25.02 4 24 4 C24 5.65 24 7.3 24 9 C25.98 9 27.96 9 30 9 C30 10.32 30 11.64 30 13 C28.02 13 26.04 13 24 13 C24 14.65 24 16.3 24 18 C24.99 18 25.98 18 27 18 C27.49 16.52 27.49 16.52 28 15 C29.32 15 30.64 15 32 15 C32.49 16.98 32.49 16.98 33 19 C33 12.73 33 6.46 33 0 C44.62 -0.25 44.62 -0.25 48 2 C49.48 8.29 49.07 14.68 48 21 C47.34 21 46.68 21 46 21 C46 21.66 46 22.32 46 23 C44.35 23 42.7 23 41 23 C41 23.66 41 24.32 41 25 C41.78 24.96 42.57 24.92 43.38 24.88 C46 25 46 25 48 27 C48.15 29.91 48.19 32.72 48.12 35.62 C48.12 36.43 48.11 37.23 48.1 38.05 C48.07 40.04 48.04 42.02 48 44 C44.04 44 40.08 44 36 44 C36.33 38.39 36.66 32.78 37 27 C36.01 27.49 36.01 27.49 35 28 C35 32.95 35 37.9 35 43 C32.69 43 30.38 43 28 43 C28 38.05 28 33.1 28 28 C27.67 32.95 27.34 37.9 27 43 C25.35 43 23.7 43 22 43 C21.34 41.68 20.68 40.36 20 39 C20 40.32 20 41.64 20 43 C18.77 43.2 18.77 43.2 17.52 43.4 C16.44 43.58 15.36 43.76 14.25 43.94 C13.18 44.11 12.12 44.29 11.02 44.46 C8.64 44.89 6.33 45.37 4 46 C4 46.66 4 47.32 4 48 C5.65 48 7.3 48 9 48 C8.67 48.66 8.34 49.32 8 50 C10.96 51.48 13.84 51.35 17.12 51.56 C18.41 51.65 19.69 51.73 21.01 51.82 C22.49 51.91 22.49 51.91 24 52 C21.12 53.47 18.21 54.82 15.25 56.12 C14.45 56.48 13.65 56.83 12.83 57.2 C11.92 57.59 11.92 57.59 11 58 C13.58 61.09 16.49 62.22 20.19 63.69 C21.27 64.12 22.36 64.56 23.48 65.01 C24.31 65.34 25.14 65.66 26 66 C23.93 68.27 22.17 69.56 19.31 70.69 C18.22 71.12 17.13 71.55 16 72 C16.76 72.45 17.53 72.91 18.31 73.38 C20.24 74.54 22.13 75.75 24 77 C17.38 77.25 17.38 77.25 14 75 C12.74 74.71 11.48 74.42 10.19 74.12 C6.15 73.17 3.26 71.64 0 69 C-1.38 66.75 -1.38 66.75 -2 65 C-1.01 65 -0.02 65 1 65 C0.26 64.5 -0.48 64.01 -1.25 63.5 C-4.69 60.38 -6.18 57.21 -8 53 C-8.41 52.09 -8.82 51.19 -9.25 50.25 C-10 48 -10 48 -10 44 C-8.02 44.66 -6.04 45.32 -4 46 C-4 45.34 -4 44.68 -4 44 C-5.32 43.34 -6.64 42.68 -8 42 C-7.67 40.35 -7.34 38.7 -7 37 C-4.52 36.51 -4.52 36.51 -2 36 C-1.67 37.32 -1.34 38.64 -1 40 C-0.93 38.63 -0.93 38.63 -0.85 37.23 C-0.78 36.04 -0.7 34.85 -0.62 33.62 C-0.52 31.85 -0.52 31.85 -0.41 30.04 C0 27 0 27 2 25 C3.87 24.77 3.87 24.77 6 24.81 C7.05 24.82 7.05 24.82 8.12 24.83 C10 25 10 25 12 26 C12.33 25.01 12.66 24.02 13 23 C12.01 22.67 11.02 22.34 10 22 C10 19.36 10 16.72 10 14 C9.01 14 8.02 14 7 14 C7.33 16.97 7.66 19.94 8 23 C5.36 23 2.72 23 0 23 C0 15.41 0 7.82 0 0 Z " fill="#7A7A7A" transform="translate(26,14)"/>
<path d="M0 0 C7.83 -0.18 15.66 -0.3 23.49 -0.38 C26.15 -0.42 28.81 -0.47 31.47 -0.53 C35.3 -0.61 39.13 -0.65 42.97 -0.68 C44.15 -0.72 45.34 -0.76 46.56 -0.79 C53.63 -0.8 57.52 0.15 62.63 5.17 C64.71 7.95 64.81 10.03 64.5 13.44 C64.43 14.49 64.36 15.54 64.28 16.62 C64.19 17.41 64.1 18.19 64 19 C65.07 18.97 65.07 18.97 66.16 18.94 C67.12 18.96 68.08 18.98 69.06 19 C70 19 70.94 19 71.91 19 C76.87 20.61 79.55 23.43 82 28 C83.05 32.84 83.07 37.5 83 42.44 C83.04 43.71 83.09 44.98 83.13 46.29 C83.12 53.13 82.53 57.34 77.75 62.44 C73.92 65.98 73.92 65.98 70.31 66.05 C68.06 65.59 66.1 64.96 64 64 C63.36 65.09 63.36 65.09 62.71 66.2 C56.33 76.72 49.62 82.53 38 87 C31.06 88.64 26.41 88.26 20 85 C17.49 84.26 14.97 83.59 12.43 82.94 C6.51 80.65 4 76.76 1.19 71.25 C0.58 70.08 -0.02 68.91 -0.64 67.7 C-1.32 66.37 -1.32 66.37 -2 65 C-2.97 65.12 -3.94 65.25 -4.94 65.38 C-9.36 65.29 -12.61 63.88 -16.17 61.3 C-19.74 56.81 -19.24 51.22 -19.06 45.74 C-19 43.63 -19.02 41.54 -19.05 39.43 C-19.04 33.27 -18.82 28.05 -14.84 23.09 C-11.59 20.05 -9.09 19 -4.56 19 C-3.51 18.98 -2.46 18.96 -1.38 18.94 C-0.59 18.96 0.19 18.98 1 19 C0.75 18.25 0.75 18.25 0.5 17.48 C-0.19 14.07 -0.11 10.71 -0.06 7.25 C-0.06 6.55 -0.05 5.86 -0.05 5.14 C-0.04 3.42 -0.02 1.71 0 0 Z M4 4 C3.99 5.61 3.99 7.21 3.99 8.82 C3.98 9.71 3.98 10.6 3.98 11.52 C4 14.09 4.17 16.58 4.5 19.12 C4.75 21.04 4.75 21.04 5 23 C4.13 22.93 3.26 22.86 2.37 22.79 C1.21 22.73 0.06 22.68 -1.12 22.62 C-2.26 22.56 -3.4 22.49 -4.57 22.41 C-8.48 23.08 -10.24 23.86 -12.85 26.79 C-15.46 31.8 -14.85 37.62 -14.75 43.12 C-14.77 44.4 -14.8 45.67 -14.82 46.99 C-15.01 53.22 -15.01 53.22 -12.71 58.77 C-10.11 60.61 -8.28 61.02 -5.12 60.75 C-4.42 60.5 -3.72 60.25 -3 60 C-3 59.01 -3 58.02 -3 57 C-0.35 58.32 -0.21 59.54 0.88 62.25 C2.47 66.01 4.29 68.9 7 72 C7 73.33 7 74.67 7 76 C11.97 80.55 16.58 82.22 23 84 C23.99 84.5 23.99 84.5 25 85 C27.33 85.04 29.67 85.04 32 85 C29.37 83.25 26.71 81.61 24 80 C27.3 78.35 30.6 76.7 34 75 C31.22 72.22 28.06 71.43 24.41 70.1 C22.02 69.01 20.7 67.97 19 66 C19.6 65.73 20.21 65.47 20.83 65.2 C22.03 64.67 22.03 64.67 23.25 64.12 C24.04 63.78 24.83 63.43 25.64 63.07 C27.79 62.1 29.9 61.07 32 60 C31.01 59.94 30.03 59.88 29.01 59.82 C27.73 59.73 26.45 59.65 25.12 59.56 C23.85 59.48 22.57 59.4 21.26 59.32 C18 59 18 59 16 58 C21.42 55.74 26.29 55.73 32.06 55.81 C33.39 55.81 33.39 55.81 34.74 55.81 C38.98 55.84 42.85 56.09 47 57 C48.94 57.07 50.88 57.09 52.81 57.06 C53.79 57.05 54.76 57.04 55.77 57.04 C56.51 57.02 57.24 57.01 58 57 C58.33 57.66 58.66 58.32 59 59 C61.82 60.15 61.82 60.15 65.19 61 C66.32 61.33 67.44 61.66 68.61 62 C72.18 62.3 72.18 62.3 75.38 59.91 C79.65 54.99 78.87 48.65 78.75 42.5 C78.77 41.29 78.8 40.08 78.82 38.83 C78.87 31.42 78.87 31.42 75.35 25.18 C71.66 22.78 69.96 22.34 65.62 22.62 C64.57 22.68 63.51 22.73 62.41 22.79 C61.62 22.86 60.82 22.93 60 23 C60.06 21.96 60.12 20.93 60.18 19.86 C60.22 18.49 60.27 17.12 60.31 15.75 C60.35 15.07 60.4 14.39 60.44 13.68 C60.52 10.32 60.35 8.43 58.2 5.79 C53.35 3.07 48.82 3.51 43.36 3.61 C42.23 3.62 41.11 3.62 39.95 3.63 C36.36 3.65 32.77 3.7 29.19 3.75 C26.75 3.77 24.32 3.79 21.88 3.8 C15.92 3.85 9.96 3.92 4 4 Z " fill="#080304" transform="translate(18,6)"/>
<path d="M0 0 C5.22 0.05 8.07 1.57 11.75 5.25 C11.95 7.63 11.95 7.63 11.88 10.38 C11.86 11.29 11.84 12.2 11.82 13.13 C11.8 13.83 11.77 14.53 11.75 15.25 C11.09 15.25 10.43 15.25 9.75 15.25 C10.41 16.24 11.07 17.23 11.75 18.25 C12.09 21.03 12.09 21.03 12.12 24.19 C12.15 25.23 12.18 26.27 12.21 27.34 C11.64 30.93 10.66 32.12 7.75 34.25 C4.31 34.06 4.31 34.06 0.75 33.25 C-0.64 33.06 -0.64 33.06 -2.06 32.88 C-4.25 32.25 -4.25 32.25 -6.25 29.25 C-7.2 29.44 -8.15 29.62 -9.12 29.81 C-12.1 30.24 -14.68 30.16 -17.66 29.78 C-24.06 29.08 -30.44 29.14 -36.88 29.19 C-38.07 29.19 -39.26 29.2 -40.5 29.2 C-43.41 29.21 -46.33 29.23 -49.25 29.25 C-48.92 28.59 -48.59 27.93 -48.25 27.25 C-44.27 26.08 -40.38 26.17 -36.25 26.25 C-36.58 24.27 -36.91 22.29 -37.25 20.25 C-35.75 21.56 -35.75 21.56 -34.25 23.25 C-34.25 24.24 -34.25 25.23 -34.25 26.25 C-32.6 26.25 -30.95 26.25 -29.25 26.25 C-29.25 21.3 -29.25 16.35 -29.25 11.25 C-28.59 10.92 -27.93 10.59 -27.25 10.25 C-27.22 12.54 -27.2 14.83 -27.19 17.12 C-27.18 18.4 -27.16 19.68 -27.15 20.99 C-27.25 24.25 -27.25 24.25 -28.25 26.25 C-25.94 26.25 -23.63 26.25 -21.25 26.25 C-21.58 25.59 -21.91 24.93 -22.25 24.25 C-22.32 22.04 -22.33 19.83 -22.31 17.62 C-22.3 16.44 -22.29 15.25 -22.29 14.02 C-22.27 13.11 -22.26 12.19 -22.25 11.25 C-21.26 10.92 -20.27 10.59 -19.25 10.25 C-19.22 12.52 -19.2 14.79 -19.19 17.06 C-19.18 18.33 -19.16 19.59 -19.15 20.89 C-19.25 24.25 -19.25 24.25 -20.25 27.25 C-16.29 27.25 -12.33 27.25 -8.25 27.25 C-8.25 21.97 -8.25 16.69 -8.25 11.25 C-7.92 11.25 -7.59 11.25 -7.25 11.25 C-7.12 10.54 -6.98 9.83 -6.85 9.1 C-6.67 8.18 -6.49 7.26 -6.31 6.31 C-6.14 5.4 -5.96 4.48 -5.79 3.54 C-4.9 -0.26 -3.64 0.07 0 0 Z " fill="#120C0D" transform="translate(82.25,30.75)"/>
<path d="M0 0 C11.88 0 23.76 0 36 0 C36 0.66 36 1.32 36 2 C36.99 2 37.98 2 39 2 C38.03 9.32 33.19 15.52 27.46 19.98 C20.63 24.17 15.09 26.91 7 25 C2.33 22.67 2.33 22.67 1 20 C4.3 18.68 7.6 17.36 11 16 C6.38 13.69 1.76 11.38 -3 9 C-3 8.01 -3 7.02 -3 6 C-0.03 4.68 2.94 3.36 6 2 C3.03 1.5 3.03 1.5 0 1 C0 0.67 0 0.34 0 0 Z " fill="#981A2C" transform="translate(40,65)"/>
<path d="M0 0 C4.95 0 9.9 0 15 0 C14.67 0.99 14.34 1.98 14 3 C10.04 2.67 6.08 2.34 2 2 C2.33 3.32 2.66 4.64 3 6 C3.09 8.7 3.14 11.36 3.12 14.06 C3.13 15.14 3.13 15.14 3.14 16.24 C3.13 19.43 3.01 21.96 2 25 C4.64 25 7.28 25 10 25 C9.67 22.03 9.34 19.06 9 16 C9.99 16 10.98 16 12 16 C12 18.64 12 21.28 12 24 C13.32 24.33 14.64 24.66 16 25 C15.34 26.32 14.68 27.64 14 29 C13.34 28.67 12.68 28.34 12 28 C9.31 27.81 6.7 27.91 4 28 C2 30 2.59 33.82 2.44 36.56 C2.39 37.27 2.35 37.98 2.31 38.72 C2.2 40.48 2.1 42.24 2 44 C1.34 43.34 0.68 42.68 0 42 C0 40.68 0 39.36 0 38 C-1.65 38.66 -3.3 39.32 -5 40 C-4.66 42.47 -4.66 42.47 -4 45 C-3.34 45.33 -2.68 45.66 -2 46 C-2 46.66 -2 47.32 -2 48 C-4.17 47.49 -6 47 -8 46 C-7.67 47.65 -7.34 49.3 -7 51 C-9.69 52.19 -9.69 52.19 -13 53 C-15.67 51.92 -15.67 51.92 -18 50 C-18.63 47.34 -18.63 47.34 -18.63 44.16 C-18.63 43.01 -18.63 41.87 -18.63 40.69 C-18.61 39.49 -18.59 38.3 -18.56 37.06 C-18.57 35.87 -18.58 34.68 -18.6 33.45 C-18.52 24.65 -18.52 24.65 -16.15 21.69 C-13 19.22 -10.39 18.84 -6.5 18.81 C-5.73 18.8 -4.95 18.78 -4.16 18.77 C-2 19 -2 19 1 21 C0.67 14.07 0.34 7.14 0 0 Z " fill="#0B0506" transform="translate(24,12)"/>
<path d="M0 0 C2.69 1.03 5.21 2.12 7.75 3.5 C16.06 7.34 24.97 7.51 34 8 C31.12 9.47 28.21 10.82 25.25 12.12 C24.45 12.48 23.65 12.83 22.83 13.2 C22.22 13.46 21.62 13.73 21 14 C23.58 17.09 26.49 18.22 30.19 19.69 C31.82 20.34 31.82 20.34 33.48 21.01 C34.31 21.34 35.14 21.66 36 22 C33.93 24.27 32.17 25.56 29.31 26.69 C28.22 27.12 27.13 27.55 26 28 C26.76 28.45 27.53 28.91 28.31 29.38 C30.24 30.54 32.13 31.75 34 33 C27.37 33.25 27.37 33.25 24 31 C22.11 30.57 22.11 30.57 20.19 30.12 C16.15 29.17 13.26 27.64 10 25 C8.62 22.75 8.62 22.75 8 21 C8.99 21 9.98 21 11 21 C10.26 20.5 9.52 20.01 8.75 19.5 C5.31 16.38 3.82 13.21 2 9 C1.59 8.09 1.18 7.19 0.75 6.25 C0 4 0 4 0 0 Z " fill="#CACACB" transform="translate(16,58)"/>
<path d="M0 0 C4.18 -0.02 8.36 -0.04 12.54 -0.05 C13.96 -0.06 15.38 -0.07 16.81 -0.08 C18.85 -0.09 20.9 -0.09 22.95 -0.1 C24.18 -0.1 25.41 -0.11 26.68 -0.11 C29.59 -0.01 32.17 0.32 35 1 C35 1.66 35 2.32 35 3 C34.34 3 33.68 3 33 3 C32.77 3.56 32.55 4.11 32.31 4.69 C29.17 10.23 23.74 14.34 18 17 C17.34 16.67 16.68 16.34 16 16 C17.65 14.35 19.3 12.7 21 11 C19.93 11.01 18.85 11.02 17.75 11.04 C16.31 11.04 14.87 11.05 13.44 11.06 C12.38 11.08 12.38 11.08 11.3 11.09 C6.79 11.11 2.43 10.98 -2 10 C-2.66 9.01 -3.32 8.02 -4 7 C-0.7 5.35 2.6 3.7 6 2 C3.03 1.5 3.03 1.5 0 1 C0 0.67 0 0.34 0 0 Z " fill="#E2344D" transform="translate(40,65)"/>
<path d="M0 0 C2.18 -0.02 4.37 -0.06 6.55 -0.11 C7.94 -0.12 9.33 -0.12 10.72 -0.13 C12.62 -0.15 12.62 -0.15 14.56 -0.17 C17.82 0.3 17.82 0.3 20.23 2.06 C21.93 4.44 22.36 5.57 22.47 8.46 C22.51 9.24 22.54 10.03 22.58 10.85 C22.61 12.09 22.61 12.09 22.64 13.36 C22.68 14.63 22.68 14.63 22.73 15.92 C22.92 22.1 22.72 28.17 21.82 34.3 C21.54 33.68 21.25 33.06 20.95 32.42 C19.89 30.16 19.89 30.16 17.82 28.3 C15.25 27.65 15.25 27.65 12.82 27.3 C12.82 26.64 12.82 25.98 12.82 25.3 C14.47 25.3 16.12 25.3 17.82 25.3 C17.82 24.64 17.82 23.98 17.82 23.3 C18.48 23.3 19.14 23.3 19.82 23.3 C19.82 17.03 19.82 10.76 19.82 4.3 C16.66 3.24 13.95 2.98 10.64 2.73 C9.01 2.61 9.01 2.61 7.34 2.48 C6.51 2.42 5.68 2.36 4.82 2.3 C5.15 3.29 5.48 4.28 5.82 5.3 C5.95 8 6.01 10.66 6.01 13.36 C6.02 14.09 6.04 14.82 6.05 15.58 C6.05 17.49 5.95 19.39 5.82 21.3 C5.16 21.96 4.5 22.62 3.82 23.3 C3.82 21.32 3.82 19.34 3.82 17.3 C1.85 17.64 1.85 17.64 -0.18 18.3 C-0.51 18.96 -0.84 19.62 -1.18 20.3 C-2.17 20.3 -3.16 20.3 -4.18 20.3 C-4.18 18.65 -4.18 17 -4.18 15.3 C-2.2 15.3 -0.22 15.3 1.82 15.3 C1.82 13.98 1.82 12.66 1.82 11.3 C-0.16 11.3 -2.14 11.3 -4.18 11.3 C-4.18 9.65 -4.18 8 -4.18 6.3 C-3.19 6.3 -2.2 6.3 -1.18 6.3 C-1.18 6.96 -1.18 7.62 -1.18 8.3 C0.47 8.3 2.12 8.3 3.82 8.3 C3.82 6.32 3.82 4.34 3.82 2.3 C-1.13 2.3 -6.08 2.3 -11.18 2.3 C-10.52 3.62 -9.86 4.94 -9.18 6.3 C-9.04 8.92 -8.99 11.43 -9.05 14.05 C-9.06 14.74 -9.07 15.44 -9.08 16.16 C-9.1 17.87 -9.14 19.58 -9.18 21.3 C-10.5 21.3 -11.82 21.3 -13.18 21.3 C-13.54 19.98 -13.89 18.67 -14.24 17.36 C-14.44 16.63 -14.63 15.9 -14.84 15.14 C-14.95 14.53 -15.06 13.92 -15.18 13.3 C-14.85 12.97 -14.52 12.64 -14.18 12.3 C-13.95 10.95 -13.76 9.59 -13.61 8.23 C-13.47 6.93 -13.32 5.63 -13.18 4.3 C-13.84 4.3 -14.5 4.3 -15.18 4.3 C-15.18 3.31 -15.18 2.32 -15.18 1.3 C-10.78 -0.9 -4.88 0.03 0 0 Z " fill="#0B0607" transform="translate(54.17578125,11.704833984375)"/>
<path d="M0 0 C0.88 0.09 1.76 0.18 2.66 0.27 C3.54 0.35 4.41 0.42 5.31 0.5 C8.06 1.16 9.08 1.81 10.72 4.08 C10.91 7.27 10.91 7.27 10.72 10.08 C8.74 10.08 6.76 10.08 4.72 10.08 C4.72 8.43 4.72 6.78 4.72 5.08 C3.4 5.08 2.08 5.08 0.72 5.08 C0.72 7.39 0.72 9.7 0.72 12.08 C1.63 11.98 2.54 11.88 3.47 11.77 C6.72 12.08 6.72 12.08 9.04 14.21 C10.89 17.36 11.57 19.43 11.72 23.08 C10.79 25.96 10.79 25.96 9.72 28.08 C9.06 28.08 8.4 28.08 7.72 28.08 C7.72 28.74 7.72 29.4 7.72 30.08 C-0.33 28.77 -0.33 28.77 -3.84 26.21 C-5.28 24.08 -5.28 24.08 -5.28 20.08 C-3.3 20.08 -1.32 20.08 0.72 20.08 C0.72 21.07 0.72 22.06 0.72 23.08 C2.04 23.41 3.36 23.74 4.72 24.08 C4.72 22.1 4.72 20.12 4.72 18.08 C3.61 17.98 2.5 17.88 1.35 17.77 C-0.45 17.43 -0.45 17.43 -2.28 17.08 C-4.59 13.61 -4.55 12.12 -4.53 8.02 C-4.53 6.96 -4.54 5.89 -4.54 4.8 C-4.21 1.37 -3.56 0.13 0 0 Z " fill="#E1E1E2" transform="translate(81.27734375,32.91796875)"/>
<path d="M0 0 C11.62 -0.25 11.62 -0.25 15 2 C15.13 4.75 15.15 7.28 15 10 C15 12.63 15.2 15.08 15.5 17.69 C15.59 18.5 15.69 19.3 15.78 20.14 C15.85 20.75 15.93 21.37 16 22 C14.02 22 12.04 22 10 22 C10 19.36 10 16.72 10 14 C9.01 14 8.02 14 7 14 C7.33 16.97 7.66 19.94 8 23 C5.36 23 2.72 23 0 23 C0 15.41 0 7.82 0 0 Z " fill="#C2C2C3" transform="translate(26,14)"/>
<path d="M0 0 C0.99 0.66 1.98 1.32 3 2 C3.19 5.62 3.19 5.62 3 9 C1.02 9.33 -0.96 9.66 -3 10 C-3 8.68 -3 7.36 -3 6 C-4.32 6 -5.64 6 -7 6 C-7 13.59 -7 21.18 -7 29 C-8.98 28.67 -10.96 28.34 -13 28 C-15.09 7.75 -15.09 7.75 -11.5 1.31 C-7.78 -0.64 -4.12 -0.65 0 0 Z " fill="#E3E3E4" transform="translate(21,33)"/>
<path d="M0 0 C4.95 0 9.9 0 15 0 C15 1.98 15 3.96 15 6 C13.35 6 11.7 6 10 6 C10 5.34 10 4.68 10 4 C9.01 4 8.02 4 7 4 C7 5.65 7 7.3 7 9 C8.98 9 10.96 9 13 9 C13 10.32 13 11.64 13 13 C11.02 13 9.04 13 7 13 C7 14.65 7 16.3 7 18 C7.99 18 8.98 18 10 18 C10.33 17.01 10.66 16.02 11 15 C12.32 15 13.64 15 15 15 C15 17.31 15 19.62 15 22 C10.38 22 5.76 22 1 22 C1.02 20.12 1.02 20.12 1.04 18.2 C1.04 16.55 1.05 14.9 1.06 13.25 C1.07 12.43 1.08 11.6 1.09 10.75 C1.09 9.55 1.09 9.55 1.1 8.33 C1.1 7.59 1.11 6.86 1.11 6.11 C1.05 3.65 1.05 3.65 0 0 Z " fill="#D7D8D8" transform="translate(43,14)"/>
<path d="M0 0 C1.61 -0.04 3.22 -0.08 4.88 -0.12 C5.78 -0.15 6.68 -0.17 7.62 -0.2 C10 0 10 0 12 2 C12.15 4.91 12.19 7.72 12.12 10.62 C12.12 11.43 12.11 12.23 12.1 13.05 C12.07 15.04 12.04 17.02 12 19 C8.04 19 4.08 19 0 19 C0 12.73 0 6.46 0 0 Z " fill="#E2E2E3" transform="translate(62,39)"/>
<path d="M0 0 C5.98 0.12 5.98 0.12 7.09 1.23 C7.33 4.09 7.51 6.93 7.65 9.79 C7.7 10.6 7.74 11.41 7.78 12.24 C7.89 14.23 7.99 16.23 8.09 18.23 C6.44 18.23 4.79 18.23 3.09 18.23 C3.09 16.58 3.09 14.93 3.09 13.23 C2.43 13.23 1.77 13.23 1.09 13.23 C1.09 15.54 1.09 17.85 1.09 20.23 C-0.89 20.23 -2.87 20.23 -4.91 20.23 C-4.8 17.27 -4.67 14.31 -4.54 11.36 C-4.5 10.51 -4.47 9.67 -4.44 8.8 C-4.4 8 -4.36 7.19 -4.32 6.36 C-4.29 5.62 -4.26 4.88 -4.23 4.11 C-3.77 1.39 -2.75 0.33 0 0 Z " fill="#F0F0F1" transform="translate(29.91015625,38.76953125)"/>
<path d="M0 0 C1.98 0 3.96 0 6 0 C6 6.27 6 12.54 6 19 C4.35 19 2.7 19 1 19 C0.34 17.68 -0.32 16.36 -1 15 C-1 16.32 -1 17.64 -1 19 C-2.98 19 -4.96 19 -7 19 C-7 13.06 -7 7.12 -7 1 C-4.52 1.49 -4.52 1.49 -2 2 C-1.01 3.48 -1.01 3.48 0 5 C0 3.35 0 1.7 0 0 Z " fill="#E9EAEA" transform="translate(47,38)"/>
<path d="M0 0 C3.3 0 6.6 0 10 0 C10 0.33 10 0.66 10 1 C8.35 1.33 6.7 1.66 5 2 C5 3.98 5 5.96 5 8 C6.32 8 7.64 8 9 8 C9 6.02 9 4.04 9 2 C9.33 2 9.66 2 10 2 C10 4.64 10 7.28 10 10 C8.02 10 6.04 10 4 10 C4.33 13.3 4.66 16.6 5 20 C3.35 20 1.7 20 0 20 C0 13.4 0 6.8 0 0 Z " fill="#E9E9EA" transform="translate(27,16)"/>
<path d="M0 0 C1.65 0 3.3 0 5 0 C5.33 5.94 5.66 11.88 6 18 C3.69 18 1.38 18 -1 18 C-0.51 9.09 -0.51 9.09 0 0 Z " fill="#D4D5D6" transform="translate(55,39)"/>
<path d="M0 0 C0.33 0 0.66 0 1 0 C1.06 0.83 1.12 1.66 1.18 2.52 C1.27 3.61 1.35 4.69 1.44 5.81 C1.56 7.43 1.56 7.43 1.68 9.08 C1.9 12.06 1.9 12.06 3 15 C5.31 15.33 7.62 15.66 10 16 C10 17.98 10 19.96 10 22 C8.68 21.67 7.36 21.34 6 21 C6 20.01 6 19.02 6 18 C2.04 18.49 2.04 18.49 -2 19 C-2 15.04 -2 11.08 -2 7 C-1.67 7 -1.34 7 -1 7 C-0.67 4.69 -0.34 2.38 0 0 Z " fill="#1F1F20" transform="translate(76,35)"/>
<path d="M0 0 C1.32 0.33 2.64 0.66 4 1 C4.05 3.27 4.09 5.54 4.12 7.81 C4.15 9.08 4.17 10.34 4.2 11.64 C4 15 4 15 2 18 C0.05 18.29 0.05 18.29 -2.12 18.19 C-3.4 18.13 -4.68 18.06 -6 18 C-6 16.02 -6 14.04 -6 12 C-5.34 12 -4.68 12 -4 12 C-4 13.65 -4 15.3 -4 17 C-2.35 17 -0.7 17 1 17 C0.67 16.34 0.34 15.68 0 15 C-0.07 12.45 -0.09 9.93 -0.06 7.38 C-0.06 6.67 -0.05 5.96 -0.05 5.23 C-0.04 3.49 -0.02 1.74 0 0 Z " fill="#3F4041" transform="translate(37,40)"/>
<path d="M0 0 C2.97 0 5.94 0 9 0 C9 0.33 9 0.66 9 1 C7.02 1 5.04 1 3 1 C3 6.61 3 12.22 3 18 C4.65 18 6.3 18 8 18 C8 18.33 8 18.66 8 19 C5.03 19 2.06 19 -1 19 C-0.67 12.73 -0.34 6.46 0 0 Z " fill="#FDFDFD" transform="translate(61,16)"/>
<path d="M0 0 C0.33 0 0.66 0 1 0 C1 1.65 1 3.3 1 5 C2.98 5 4.96 5 7 5 C7 6.32 7 7.64 7 9 C5.02 9 3.04 9 1 9 C1 10.65 1 12.3 1 14 C1.99 14 2.98 14 4 14 C4 13.34 4 12.68 4 12 C5.32 12 6.64 12 8 12 C8 13.65 8 15.3 8 17 C4.37 17 0.74 17 -3 17 C-2.01 16.67 -1.02 16.34 0 16 C0 13.36 0 10.72 0 8 C1.98 8 3.96 8 6 8 C6 7.34 6 6.68 6 6 C4.02 6 2.04 6 0 6 C0 4.02 0 2.04 0 0 Z " fill="#D3D4D5" transform="translate(49,18)"/>
<path d="M0 0 C1.32 0 2.64 0 4 0 C4 4.95 4 9.9 4 15 C2.68 15 1.36 15 0 15 C0 10.05 0 5.1 0 0 Z " fill="#333435" transform="translate(65,18)"/>
<path d="M0 0 C2.02 0.07 4.04 0.13 6.05 0.2 C6.05 0.53 6.05 0.86 6.05 1.2 C3.74 1.53 1.43 1.86 -0.95 2.2 C-1.28 7.81 -1.61 13.42 -1.95 19.2 C-0.96 19.53 0.03 19.86 1.05 20.2 C-0.93 20.2 -2.91 20.2 -4.95 20.2 C-4.83 17.24 -4.7 14.28 -4.57 11.32 C-4.54 10.48 -4.51 9.64 -4.48 8.77 C-4.44 7.96 -4.4 7.16 -4.36 6.33 C-4.33 5.58 -4.3 4.84 -4.26 4.07 C-3.8 1.33 -2.78 0.28 0 0 Z " fill="#B6B7B8" transform="translate(29.9453125,38.8046875)"/>
<path d="M0 0 C1.98 0 3.96 0 6 0 C6 6.27 6 12.54 6 19 C4.35 19 2.7 19 1 19 C1.99 18.34 2.98 17.68 4 17 C4.22 14.37 4.28 11.99 4.19 9.38 C4.17 8.67 4.16 7.96 4.15 7.23 C4.11 5.49 4.06 3.74 4 2 C3.34 2 2.68 2 2 2 C2 4.64 2 7.28 2 10 C1.34 10 0.68 10 0 10 C0 6.7 0 3.4 0 0 Z " fill="#C0C1C2" transform="translate(47,38)"/>
<path d="M0 0 C0.66 0 1.32 0 2 0 C2.33 5.28 2.66 10.56 3 16 C1.68 16 0.36 16 -1 16 C-1.33 14.35 -1.66 12.7 -2 11 C-1.34 11 -0.68 11 0 11 C0 7.37 0 3.74 0 0 Z " fill="#FAFAFA" transform="translate(49,40)"/>
<path d="M0 0 C0 2.31 0 4.62 0 7 C-1.88 7.62 -1.88 7.62 -4 8 C-4.66 7.34 -5.32 6.68 -6 6 C-5.75 3.44 -5.75 3.44 -5 1 C-3 0 -3 0 0 0 Z " fill="#DADADB" transform="translate(24,50)"/>
<path d="M0 0 C0.99 0 1.98 0 3 0 C3 4.29 3 8.58 3 13 C2.01 13 1.02 13 0 13 C0 8.71 0 4.42 0 0 Z " fill="#212222" transform="translate(67,42)"/>
<path d="M0 0 C1.32 0 2.64 0 4 0 C4 2.64 4 5.28 4 8 C2.68 8 1.36 8 0 8 C0 5.36 0 2.72 0 0 Z " fill="#636464" transform="translate(30,42)"/>
<path d="M0 0 C0 0.33 0 0.66 0 1 C-1.95 1.46 -3.91 1.91 -5.86 2.37 C-8.38 3.04 -8.38 3.04 -12 5 C-12 8.3 -12 11.6 -12 15 C-12.33 15 -12.66 15 -13 15 C-13.61 5.14 -13.61 5.14 -11.56 1.31 C-7.75 -0.64 -4.2 -0.32 0 0 Z " fill="#B0B1B2" transform="translate(21,33)"/>
<path d="M0 0 C1.32 0 2.64 0 4 0 C4 2.64 4 5.28 4 8 C2.68 8 1.36 8 0 8 C0 5.36 0 2.72 0 0 Z " fill="#F1F2F2" transform="translate(37,27)"/>
<path d="M0 0 C0.66 0.33 1.32 0.66 2 1 C2 3.64 2 6.28 2 9 C0.02 9 -1.96 9 -4 9 C-4 8.34 -4 7.68 -4 7 C-3.01 7 -2.02 7 -1 7 C-1.02 6.03 -1.04 5.06 -1.06 4.06 C-1 1 -1 1 0 0 Z " fill="#D1D2D3" transform="translate(44,48)"/>
<path d="M0 0 C1.32 0 2.64 0 4 0 C4 1.98 4 3.96 4 6 C2.68 6 1.36 6 0 6 C0 4.02 0 2.04 0 0 Z " fill="#3D3E3F" transform="translate(32,18)"/>
<path d="M0 0 C2.31 0.33 4.62 0.66 7 1 C6.67 2.65 6.34 4.3 6 6 C3.38 4.95 2.21 4.35 0.75 1.88 C0.5 1.26 0.25 0.64 0 0 Z " fill="#A3A4A5" transform="translate(24,79)"/>
<path d="M0 0 C3.41 0.79 6.69 1.87 10 3 C10 3.33 10 3.66 10 4 C3.38 4.25 3.38 4.25 0 2 C0 1.34 0 0.68 0 0 Z " fill="#ACA6A8" transform="translate(40,87)"/>
<path d="M0 0 C0.99 0 1.98 0 3 0 C3 0.66 3 1.32 3 2 C3.99 2.33 4.98 2.66 6 3 C5.01 3 4.02 3 3 3 C3 3.66 3 4.32 3 5 C2.01 5 1.02 5 0 5 C0 3.35 0 1.7 0 0 Z " fill="#242424" transform="translate(50,18)"/>
<path d="M0 0 C1.85 0.34 1.85 0.34 4.06 0.94 C5.16 1.23 5.16 1.23 6.29 1.53 C7.13 1.76 7.13 1.76 8 2 C4.25 4 4.25 4 2 4 C2 3.34 2 2.68 2 2 C1.01 1.67 0.02 1.34 -1 1 C-0.67 0.67 -0.34 0.34 0 0 Z " fill="#A2A3A4" transform="translate(30,64)"/>
</svg>
