<?xml version="1.0" encoding="UTF-8"?>
<!-- Generator: https://ezgif.com/webp-to-svg -->
<svg version="1.1" xmlns="http://www.w3.org/2000/svg" width="50" height="50">
<path d="M0 0 C7.5 -0.34 13.13 -0.08 20 3 C21.07 3.29 22.14 3.58 23.25 3.88 C26.84 5.34 28.07 6.63 30 10 C30.17 12.09 30.33 14.18 30.45 16.27 C31.31 20.54 33.48 24.21 35.65 27.95 C37.33 30.98 38.01 32.82 37.84 36.32 C37 39 37 39 34.88 40.69 C31.49 41.06 31.05 40.6 28.44 38.62 C27.88 38.14 27.32 37.66 26.75 37.16 C24.8 35.63 24.8 35.63 21 36 C21.72 43.04 21.72 43.04 23 50 C19.1 49.36 15.75 48.18 12.12 46.62 C11.08 46.18 10.04 45.74 8.96 45.28 C7.98 44.86 7.01 44.43 6 44 C5.23 43.67 4.46 43.34 3.66 43 C2.11 42.34 0.55 41.67 -1 41 C-0.69 34.89 2.14 30.55 6 26 C7.55 24.75 9.13 23.54 10.75 22.38 C13.76 20.2 15.53 18.8 16.56 15.19 C17.05 12.21 17.05 12.21 17 10 C13.15 7.43 11.41 8.17 7 9 C7 8.34 7 7.68 7 7 C8.32 6.34 9.64 5.68 11 5 C7.37 4.01 3.74 3.02 0 2 C0 1.34 0 0.68 0 0 Z " fill="#FEFEFE" transform="translate(7,0)"/>
</svg>
