<?xml version="1.0" encoding="UTF-8"?>
<!-- Generator: https://ezgif.com/webp-to-svg -->
<svg version="1.1" xmlns="http://www.w3.org/2000/svg" width="50" height="50">
<path d="M0 0 C4.08 1.53 7.85 3.44 11.69 5.5 C12.83 6.11 13.96 6.72 15.14 7.34 C18 9 18 9 20 11 C20 11.99 20 12.98 20 14 C20.66 14 21.32 14 22 14 C22.14 13.09 22.14 13.09 22.28 12.15 C23.18 9.45 24.06 8.96 26.5 7.56 C27.21 7.15 27.93 6.73 28.66 6.3 C29.43 5.87 30.21 5.44 31 5 C31.81 4.53 32.62 4.06 33.46 3.57 C39.69 0 39.69 0 42 0 C42.49 4.46 42.49 4.46 43 9 C43.99 8.67 44.98 8.34 46 8 C45.33 12.19 43.14 15.4 41 19 C41.33 19.33 41.66 19.66 42 20 C42.43 23.05 42.49 25.95 42 29 C39.62 31.56 39.62 31.56 37 33 C36.34 33 35.68 33 35 33 C34.51 27.55 34.51 27.55 34 22 C31.4 23.06 31.4 23.06 29 25 C28.4 27.96 28.4 27.96 28.69 31.19 C28.73 32.27 28.78 33.36 28.82 34.48 C28.88 35.31 28.94 36.14 29 37 C26.63 38.61 24.64 39.96 22 41 C18.27 40.28 16.16 39.1 13 37 C12.71 34.18 12.71 34.18 12.81 30.88 C12.84 29.78 12.87 28.68 12.89 27.55 C12.93 26.71 12.96 25.87 13 25 C10.52 24.01 10.52 24.01 8 23 C8.33 21.35 8.66 19.7 9 18 C9.99 17.67 10.98 17.34 12 17 C12 15.68 12 14.36 12 13 C10.68 12.34 9.36 11.68 8 11 C7.67 18.26 7.34 25.52 7 33 C2 31 2 31 0 29 C-0.2 26.91 -0.2 26.91 -0.12 24.5 C-0.11 23.71 -0.09 22.91 -0.07 22.09 C-0.05 21.4 -0.02 20.71 0 20 C0 17.04 -1.65 15.2 -3.22 12.75 C-4 11 -4 11 -3 8 C-2.34 8.33 -1.68 8.66 -1 9 C-0.67 6.03 -0.34 3.06 0 0 Z M29 13 C29 14.32 29 15.64 29 17 C31.52 16.37 31.52 16.37 34 15 C34.89 12.45 34.89 12.45 35 10 C32.64 10 30.82 11.69 29 13 Z M19 21 C19.66 21.66 20.32 22.32 21 23 C21 22.34 21 21.68 21 21 C20.34 21 19.68 21 19 21 Z " fill="#B18C39" transform="translate(4,9)"/>
<path d="M0 0 C3.37 1.44 5.51 3.33 8 6 C8.95 5.17 9.9 4.35 10.88 3.5 C13.75 1 13.75 1 16 1 C16.24 3.85 16.41 6.2 16 9 C14 11.25 14 11.25 11 13 C10.37 13.38 9.74 13.77 9.1 14.16 C5.96 15.94 3.7 16.99 0.06 17.06 C-5.06 15.28 -10.14 12.86 -14 9 C-14.27 6.31 -14.09 3.71 -14 1 C-10.35 2.28 -8.83 3.17 -6 6 C-4.02 4.02 -2.04 2.04 0 0 Z " fill="#B08D39" transform="translate(24,1)"/>
</svg>
