<?xml version="1.0" encoding="UTF-8"?>
<svg version="1.1" xmlns="http://www.w3.org/2000/svg" width="50" height="50">
<path d="M0 0 C1.53667625 0.15349676 3.07196186 0.33870129 4.59375 0.6015625 C3.93375 1.9215625 3.27375 3.2415625 2.59375 4.6015625 C3.69332031 4.45332031 4.79289062 4.30507813 5.92578125 4.15234375 C10.69451978 3.79764419 15.15846932 3.59757529 19.59375 5.6015625 C24.70940263 10.70396215 28.05537705 17.89426164 30.59375 24.6015625 C30.59375 25.2615625 30.59375 25.9215625 30.59375 26.6015625 C17.72375 26.6015625 4.85375 26.6015625 -8.40625 26.6015625 C-6.40625 21.6015625 -6.40625 21.6015625 -4.40625 18.6015625 C-2.25146484 18.16918945 -2.25146484 18.16918945 0.3828125 18.08984375 C1.32382812 18.05439453 2.26484375 18.01894531 3.234375 17.98242188 C4.71164063 17.94858398 4.71164063 17.94858398 6.21875 17.9140625 C7.21132813 17.87990234 8.20390625 17.84574219 9.2265625 17.81054688 C11.68217906 17.72790593 14.13743141 17.65881123 16.59375 17.6015625 C15.93375 16.6115625 15.27375 15.6215625 14.59375 14.6015625 C8.76778789 13.53005389 2.35005666 12.84970339 -3.40625 14.6015625 C-6.08155883 17.5564454 -7.33123004 20.27789674 -8.8828125 23.9296875 C-10.40625 26.6015625 -10.40625 26.6015625 -12.8046875 27.3984375 C-15.11510992 27.35578355 -17.16489231 27.15046642 -19.40625 26.6015625 C-17.75364843 20.67974021 -14.9117781 15.54695442 -11.90625 10.2265625 C-11.42671875 9.29972656 -10.9471875 8.37289063 -10.453125 7.41796875 C-7.59908252 2.42339441 -6.01556099 0.00636343 0 0 Z " fill="#FEFFFF" transform="translate(19.40625,19.3984375)"/>
<path d="M0 0 C0.66 0 1.32 0 2 0 C3.14501953 1.42114258 3.14501953 1.42114258 4.3828125 3.39453125 C5.04990234 4.45704102 5.04990234 4.45704102 5.73046875 5.54101562 C6.19066406 6.29060547 6.65085937 7.04019531 7.125 7.8125 C7.59292969 8.55048828 8.06085937 9.28847656 8.54296875 10.04882812 C12 15.61736972 12 15.61736972 12 19 C9.03 19 6.06 19 3 19 C2.34 17.68 1.68 16.36 1 15 C-1.67790463 14.16113831 -4.1737941 14.18233586 -7 14 C-5.58163643 8.8423143 -3.32608425 4.20024742 0 0 Z " fill="#FFFFFF" transform="translate(24,4)"/>
</svg>
