<?xml version="1.0" encoding="UTF-8"?>
<!-- Generator: https://ezgif.com/webp-to-svg -->
<svg version="1.1" xmlns="http://www.w3.org/2000/svg" width="100" height="100">
<path d="M0 0 C3.08 -0.45 5.21 -0.5 7.89 1.2 C11.06 3.85 13.43 6.1 15 10 C15 10.99 15 11.98 15 13 C17.64 13 20.28 13 23 13 C23 20.92 23 28.84 23 37 C21.35 37 19.7 37 18 37 C17.51 36.51 17.51 36.51 17 36 C17 33.33 17 30.67 17 28 C16.67 27.67 16.34 27.34 16 27 C15.67 29.97 15.34 32.94 15 36 C13.02 35.67 11.04 35.34 9 35 C9 28.4 9 21.8 9 15 C8.67 15 8.34 15 8 15 C8 21.6 8 28.2 8 35 C5.03 35.49 5.03 35.49 2 36 C2 33.03 2 30.06 2 27 C1.34 27 0.68 27 0 27 C-0.06 27.64 -0.12 28.28 -0.18 28.93 C-0.31 30.17 -0.31 30.17 -0.44 31.44 C-0.52 32.26 -0.6 33.08 -0.68 33.93 C-1 36 -1 36 -2 37 C-3.65 37 -5.3 37 -7 37 C-7 29.08 -7 21.16 -7 13 C-4.03 13 -1.06 13 2 13 C2.19 8.18 1.76 4.5 0 0 Z M-1 18 C-0.67 19.32 -0.34 20.64 0 22 C0.66 22 1.32 22 2 22 C2 20.68 2 19.36 2 18 C1.01 18 0.02 18 -1 18 Z M15 18 C15 19.32 15 20.64 15 22 C15.66 22 16.32 22 17 22 C17 20.68 17 19.36 17 18 C16.34 18 15.68 18 15 18 Z " fill="#2B5DFE" transform="translate(42,27)"/>
<path d="M0 0 C0 4.62 0 9.24 0 14 C-2.31 14.33 -4.62 14.66 -7 15 C-7 12.69 -7 10.38 -7 8 C-8.32 8.33 -9.64 8.66 -11 9 C-11 11.31 -11 13.62 -11 16 C-10.11 16.27 -9.23 16.54 -8.31 16.81 C-7.22 17.2 -6.13 17.6 -5 18 C-3.67 18.43 -3.67 18.43 -2.31 18.88 C0 21 0 21 0.4 23.31 C0.49 26.28 0.43 29.21 0.31 32.19 C0.29 33.22 0.27 34.26 0.24 35.33 C0.19 37.89 0.1 40.44 0 43 C-1.88 42.86 -3.75 42.71 -5.62 42.56 C-6.67 42.48 -7.71 42.4 -8.79 42.32 C-11.88 42.01 -14.94 41.51 -18 41 C-18 35.72 -18 30.44 -18 25 C-15.69 25 -13.38 25 -11 25 C-11 28.3 -11 31.6 -11 35 C-9.68 35 -8.36 35 -7 35 C-6.77 31.45 -6.83 28.38 -8 25 C-11.21 22.51 -14.15 21.46 -18 20 C-18 14.39 -18 8.78 -18 3 C-4.5 0 -4.5 0 0 0 Z " fill="#2C5EFE" transform="translate(100,30)"/>
<path d="M0 0 C6.2 0.51 12 1.33 18 3 C18 7.29 18 11.58 18 16 C15.69 15.67 13.38 15.34 11 15 C11 13.02 11 11.04 11 9 C9.68 8.67 8.36 8.34 7 8 C6.84 11.66 6.84 11.66 8 15 C9.66 15.79 11.35 16.51 13.06 17.19 C15.81 18.58 15.81 18.58 18 21 C19.38 27.5 18.6 34.43 18 41 C16.13 41.34 14.25 41.67 12.38 42 C11.33 42.19 10.29 42.37 9.21 42.56 C6 43 6 43 0 43 C0 37.39 0 31.78 0 26 C3.46 25.51 3.46 25.51 7 25 C7 28.3 7 31.6 7 35 C8.32 35 9.64 35 11 35 C11.17 31.48 11.08 28.37 10 25 C7.26 22.65 4.31 21.37 1 20 C0 19 0 19 -0.11 17.14 C-0.11 16.35 -0.1 15.56 -0.1 14.75 C-0.09 13.89 -0.09 13.04 -0.09 12.16 C-0.08 11.26 -0.07 10.36 -0.06 9.44 C-0.06 8.54 -0.05 7.63 -0.05 6.71 C-0.04 4.47 -0.02 2.24 0 0 Z " fill="#2C5EFE" transform="translate(0,30)"/>
<path d="M0 0 C1.98 0 3.96 0 6 0 C6 9.24 6 18.48 6 28 C4.02 28 2.04 28 0 28 C0 24.04 0 20.08 0 16 C-0.66 16 -1.32 16 -2 16 C-2.33 19.63 -2.66 23.26 -3 27 C-4.65 27 -6.3 27 -8 27 C-9.72 25.28 -9.13 23.03 -9.13 20.69 C-9.13 19.61 -9.14 18.54 -9.14 17.43 C-9.13 15.73 -9.13 15.73 -9.12 14 C-9.13 12.87 -9.13 11.74 -9.14 10.57 C-9.14 9.5 -9.13 8.42 -9.13 7.31 C-9.13 6.32 -9.13 5.32 -9.13 4.3 C-9 2 -9 2 -8 1 C-6.33 0.96 -4.67 0.96 -3 1 C-3 3.97 -3 6.94 -3 10 C-2.34 10 -1.68 10 -1 10 C-0.67 6.7 -0.34 3.4 0 0 Z " fill="#2B5DFF" transform="translate(75,38)"/>
<path d="M0 0 C1.65 0 3.3 0 5 0 C7.16 2.16 6.72 7.2 7 10 C7.33 7.03 7.66 4.06 8 1 C9.67 0.96 11.33 0.96 13 1 C14.72 2.72 14.13 4.97 14.13 7.31 C14.13 8.93 14.13 8.93 14.14 10.57 C14.13 11.7 14.13 12.83 14.12 14 C14.13 15.13 14.13 16.26 14.14 17.43 C14.14 18.5 14.13 19.58 14.13 20.69 C14.13 21.68 14.13 22.68 14.13 23.7 C14 26 14 26 13 27 C11.35 27 9.7 27 8 27 C8 23.37 8 19.74 8 16 C7.34 16 6.68 16 6 16 C6 19.96 6 23.92 6 28 C4.02 28 2.04 28 0 28 C0 18.76 0 9.52 0 0 Z " fill="#2B5DFF" transform="translate(20,38)"/>
</svg>
