<?xml version="1.0" encoding="UTF-8"?>
<!-- Generator: https://ezgif.com/webp-to-svg -->
<svg version="1.1" xmlns="http://www.w3.org/2000/svg" width="100" height="100">
<path d="M0 0 C3.69 0.14 7.38 0.29 11.06 0.44 C12.1 0.48 13.14 0.52 14.21 0.56 C19.54 0.78 24.74 1.11 30 2 C30 4.31 30 6.62 30 9 C30.85 9.27 31.69 9.54 32.56 9.81 C36.14 11.05 39.54 12.48 43 14 C43.08 16.4 43.14 18.79 43.19 21.19 C43.21 21.86 43.24 22.53 43.26 23.23 C43.33 27.73 42.74 30.42 40 34 C38.96 35.04 37.89 36.06 36.81 37.06 C33.21 41.13 33.64 44.71 33.92 49.93 C34.06 55.24 32.84 60.39 31.22 65.43 C30.91 69.09 32.35 70.67 34.44 73.62 C38 78.71 38 78.71 38 82 C37.11 82.06 36.21 82.11 35.29 82.17 C31.98 82.38 28.66 82.59 25.35 82.8 C23.91 82.89 22.48 82.98 21.04 83.07 C18.98 83.2 16.92 83.33 14.86 83.46 C12.99 83.58 12.99 83.58 11.09 83.7 C7.97 83.89 7.97 83.89 5 85 C4.42 86.13 3.84 87.27 3.25 88.44 C1.35 91.18 0.2 91.94 -3.02 92.99 C-13.97 94.78 -21.41 92.5 -31.44 88.12 C-32.86 87.53 -34.29 86.95 -35.71 86.36 C-39.16 84.94 -42.58 83.48 -46 82 C-46 78 -46 78 -45 76 C-48.96 75.34 -52.92 74.68 -57 74 C-56.42 65.5 -54.58 57.6 -52.44 49.38 C-52.1 48.07 -51.77 46.77 -51.44 45.46 C-50.63 42.31 -49.82 39.15 -49 36 C-44.97 35.07 -42.06 35.15 -38 36 C-37.63 35.08 -37.26 34.16 -36.88 33.22 C-33.01 25.13 -28.78 21.23 -20.27 18.15 C-11.69 15.4 -4.07 13.44 5 14 C4.64 13.16 4.28 12.31 3.91 11.45 C3.44 10.35 2.98 9.25 2.5 8.12 C2.04 7.03 1.57 5.94 1.09 4.82 C0 2 0 2 0 0 Z " fill="#F8F8F8" transform="translate(57,3)"/>
<path d="M0 0 C0.49 0.99 0.49 0.99 1 2 C0.43 2.44 -0.14 2.87 -0.72 3.32 C-3.16 5.2 -5.58 7.1 -8 9 C-8.91 9.7 -8.91 9.7 -9.84 10.41 C-16.27 15.59 -22.63 22.41 -26 30 C-21.94 27.75 -18.58 25 -15.12 21.94 C-5.74 13.83 4.37 6.49 16 2 C15.98 2.88 15.95 3.76 15.93 4.67 C15.91 5.83 15.89 6.99 15.88 8.19 C15.85 9.34 15.83 10.48 15.8 11.67 C16 14.97 16.73 16.99 18 20 C18.91 26.92 17.87 32.51 14.97 38.81 C14.04 40.91 13.3 42.71 13 45 C14.89 47.64 14.89 47.64 17 50 C17 50.66 17 51.32 17 52 C16.4 52.05 15.79 52.1 15.17 52.15 C12.4 52.39 9.64 52.63 6.88 52.88 C5.92 52.95 4.97 53.03 3.99 53.11 C-4.61 53.67 -4.61 53.67 -11.91 57.76 C-12.97 59.05 -14.04 60.34 -15.09 61.64 C-17 63 -17 63 -19.83 62.86 C-23.1 61.97 -26.13 60.88 -29.25 59.56 C-30.29 59.13 -31.32 58.7 -32.39 58.25 C-35 57 -35 57 -37 55 C-32.99 52.17 -30.18 51.66 -25.31 51.56 C-15.78 51.03 -8.67 48.56 -1.69 41.91 C3.87 35.64 4.7 29.19 5 21 C-6.45 27.39 -17.04 35.34 -27.07 43.76 C-31.88 46.85 -37.8 46.12 -43.31 46.06 C-44.57 46.06 -44.57 46.06 -45.85 46.05 C-47.9 46.04 -49.95 46.02 -52 46 C-50.65 39.55 -48.97 33.29 -47 27 C-46.01 27 -45.02 27 -44 27 C-42.31 29 -42.31 29 -41 31 C-40.58 30.26 -40.16 29.52 -39.73 28.75 C-38.16 25.99 -36.58 23.23 -34.98 20.48 C-34.29 19.3 -33.61 18.1 -32.94 16.91 C-26.62 5.69 -26.62 5.69 -22.34 3.81 C-21.24 3.54 -20.14 3.28 -19 3 C-17.61 2.53 -17.61 2.53 -16.19 2.05 C-10.6 0.48 -5.81 -0.33 0 0 Z " fill="#060606" transform="translate(59,26)"/>
<path d="M0 0 C2.97 0 5.94 0 9 0 C8.67 2.97 8.34 5.94 8 9 C6.35 9.33 4.7 9.66 3 10 C2.01 6.7 1.02 3.4 0 0 Z " fill="#030303" transform="translate(69,11)"/>
<path d="M0 0 C1.98 0.66 3.96 1.32 6 2 C6 6.72 4.71 8.27 2 12 C0.68 11.67 -0.64 11.34 -2 11 C-1.34 7.37 -0.68 3.74 0 0 Z " fill="#101010" transform="translate(83,17)"/>
<path d="M0 0 C0.66 0.33 1.32 0.66 2 1 C-3.28 6.28 -8.56 11.56 -14 17 C-14.66 16.67 -15.32 16.34 -16 16 C-5.63 4.29 -5.63 4.29 0 0 Z " fill="#DDDDDD" transform="translate(54,31)"/>
</svg>
