<?xml version="1.0" encoding="UTF-8"?>
<svg version="1.1" xmlns="http://www.w3.org/2000/svg" width="100" height="100">
<path d="M0 0 C0.67804688 0.37640625 1.35609375 0.7528125 2.0546875 1.140625 C2.67085938 1.47578125 3.28703125 1.8109375 3.921875 2.15625 C7.00797009 4.01676666 8.83462674 5.72445488 10.0546875 9.140625 C9.3328125 9.511875 8.6109375 9.883125 7.8671875 10.265625 C4.47513988 12.52699008 2.54970484 14.93274557 0.0546875 18.140625 C0.53550781 18.80835937 1.01632813 19.47609375 1.51171875 20.1640625 C3.35851064 23.72673445 3.61187293 26.83843903 3.7421875 30.765625 C3.77562256 31.46623047 3.80905762 32.16683594 3.84350586 32.88867188 C4.09664083 38.63779451 4.1643992 44.38685587 4.0546875 50.140625 C5.0240625 50.45 5.9934375 50.759375 6.9921875 51.078125 C10.0546875 52.140625 10.0546875 52.140625 11.0546875 53.140625 C13.40456012 53.37590273 15.76024789 53.55448917 18.1171875 53.703125 C19.40753906 53.78691406 20.69789062 53.87070312 22.02734375 53.95703125 C23.52587891 54.04791016 23.52587891 54.04791016 25.0546875 54.140625 C26.03827201 58.49380575 27.01576657 62.84833235 27.9921875 67.203125 C28.26998047 68.43224609 28.54777344 69.66136719 28.83398438 70.92773438 C29.10146484 72.12333984 29.36894531 73.31894531 29.64453125 74.55078125 C29.89066162 75.64527588 30.13679199 76.73977051 30.39038086 77.86743164 C31.08292806 81.2797728 31.59446709 84.68992672 32.0546875 88.140625 C26.32024874 87.62789871 20.63002328 86.9506409 14.9296875 86.140625 C-1.25310765 83.95243676 -17.35353757 83.68279818 -33.6328125 84.953125 C-34.75606934 85.03933105 -35.87932617 85.12553711 -37.03662109 85.21435547 C-46.13132451 85.96519878 -55.01687205 87.27535193 -63.9453125 89.140625 C-63.0703125 84.390625 -63.0703125 84.390625 -61.9453125 82.140625 C-61.71735665 80.49990572 -61.53540351 78.85256114 -61.3828125 77.203125 C-61.25712891 75.89021484 -61.25712891 75.89021484 -61.12890625 74.55078125 C-60.93673639 72.02804069 -60.91574691 69.57918125 -61.0859375 67.0546875 C-61.28421999 62.90491822 -61.32801268 60.75294528 -59.0703125 57.140625 C-56.9453125 55.140625 -56.9453125 55.140625 -54.9453125 54.140625 C-55.6053125 53.810625 -56.2653125 53.480625 -56.9453125 53.140625 C-55.9453125 50.140625 -55.9453125 50.140625 -53.0703125 47.828125 C-49.86063597 45.19711611 -48.24938573 43.19774173 -46.9453125 39.140625 C-46.89498533 37.09957871 -46.9014682 35.05682084 -46.9453125 33.015625 C-47.15945544 22.58210512 -45.27974028 13.8185857 -37.9453125 6.140625 C-27.72607969 -4.17257776 -13.21428067 -6.3179389 0 0 Z " fill="#100904" transform="translate(65.9453125,6.859375)"/>
<path d="M0 0 C0.67804688 0.37640625 1.35609375 0.7528125 2.0546875 1.140625 C2.67085938 1.47578125 3.28703125 1.8109375 3.921875 2.15625 C7.00797009 4.01676666 8.83462674 5.72445488 10.0546875 9.140625 C9.3328125 9.511875 8.6109375 9.883125 7.8671875 10.265625 C4.47513988 12.52699008 2.54970484 14.93274557 0.0546875 18.140625 C0.53550781 18.80835937 1.01632813 19.47609375 1.51171875 20.1640625 C3.35851064 23.72673445 3.61187293 26.83843903 3.7421875 30.765625 C3.77562256 31.46623047 3.80905762 32.16683594 3.84350586 32.88867188 C4.09664083 38.63779451 4.1643992 44.38685587 4.0546875 50.140625 C5.0240625 50.45 5.9934375 50.759375 6.9921875 51.078125 C10.0546875 52.140625 10.0546875 52.140625 11.0546875 53.140625 C13.40456012 53.37590273 15.76024789 53.55448917 18.1171875 53.703125 C19.40753906 53.78691406 20.69789062 53.87070312 22.02734375 53.95703125 C23.52587891 54.04791016 23.52587891 54.04791016 25.0546875 54.140625 C26.03827201 58.49380575 27.01576657 62.84833235 27.9921875 67.203125 C28.26998047 68.43224609 28.54777344 69.66136719 28.83398438 70.92773438 C29.10146484 72.12333984 29.36894531 73.31894531 29.64453125 74.55078125 C29.89066162 75.64527588 30.13679199 76.73977051 30.39038086 77.86743164 C31.08292806 81.2797728 31.59446709 84.68992672 32.0546875 88.140625 C26.32024874 87.62789871 20.63002328 86.9506409 14.9296875 86.140625 C-1.25310765 83.95243676 -17.35353757 83.68279818 -33.6328125 84.953125 C-34.75606934 85.03933105 -35.87932617 85.12553711 -37.03662109 85.21435547 C-46.13132451 85.96519878 -55.01687205 87.27535193 -63.9453125 89.140625 C-63.0703125 84.390625 -63.0703125 84.390625 -61.9453125 82.140625 C-61.71735665 80.49990572 -61.53540351 78.85256114 -61.3828125 77.203125 C-61.25712891 75.89021484 -61.25712891 75.89021484 -61.12890625 74.55078125 C-60.93673639 72.02804069 -60.91574691 69.57918125 -61.0859375 67.0546875 C-61.28421999 62.90491822 -61.32801268 60.75294528 -59.0703125 57.140625 C-56.9453125 55.140625 -56.9453125 55.140625 -54.9453125 54.140625 C-55.6053125 53.810625 -56.2653125 53.480625 -56.9453125 53.140625 C-55.9453125 50.140625 -55.9453125 50.140625 -53.0703125 47.828125 C-49.86063597 45.19711611 -48.24938573 43.19774173 -46.9453125 39.140625 C-46.89498533 37.09957871 -46.9014682 35.05682084 -46.9453125 33.015625 C-47.15945544 22.58210512 -45.27974028 13.8185857 -37.9453125 6.140625 C-27.72607969 -4.17257776 -13.21428067 -6.3179389 0 0 Z M-37.9453125 9.140625 C-41.8861635 14.35617102 -44.04193798 18.81512172 -44.0859375 25.40625 C-44.10527344 26.21449219 -44.12460937 27.02273437 -44.14453125 27.85546875 C-44.1780677 29.52971129 -44.1965899 31.20432992 -44.19921875 32.87890625 C-44.39128874 39.25765169 -46.23064324 43.03100869 -49.9453125 48.140625 C-50.2753125 48.800625 -50.6053125 49.460625 -50.9453125 50.140625 C-44.90148038 48.56397314 -39.93542392 46.94886793 -34.9453125 43.140625 C-35.2753125 44.130625 -35.6053125 45.120625 -35.9453125 46.140625 C-34.6253125 46.140625 -33.3053125 46.140625 -31.9453125 46.140625 C-31.9453125 46.800625 -31.9453125 47.460625 -31.9453125 48.140625 C-32.9353125 48.07875 -33.9253125 48.016875 -34.9453125 47.953125 C-41.76263379 47.96692525 -46.87280587 50.75359224 -51.9453125 55.140625 C-52.8321875 55.65625 -53.7190625 56.171875 -54.6328125 56.703125 C-57.20393934 58.08027874 -57.20393934 58.08027874 -58.9453125 61.140625 C-59.41062659 66.16601712 -58.92292094 69.04641339 -55.9453125 73.140625 C-56.9353125 73.140625 -57.9253125 73.140625 -58.9453125 73.140625 C-59.2753125 77.100625 -59.6053125 81.060625 -59.9453125 85.140625 C-58.83414063 85.00785156 -57.72296875 84.87507813 -56.578125 84.73828125 C-55.07552655 84.55984768 -53.57292206 84.38146502 -52.0703125 84.203125 C-51.34328125 84.11611328 -50.61625 84.02910156 -49.8671875 83.93945312 C-48.34475249 83.75916477 -46.82185522 83.58274893 -45.29858398 83.40966797 C-43.77618044 83.23561582 -42.25472962 83.05291983 -40.73461914 82.85986328 C-32.55579606 81.90334659 -24.35574458 81.90199064 -16.1328125 81.890625 C-15.36095612 81.88828857 -14.58909973 81.88595215 -13.79385376 81.88354492 C-1.92122208 81.87000662 9.45862059 82.71911901 21.15478516 84.859375 C23.79822285 85.25069346 26.38941281 85.2423207 29.0546875 85.140625 C27.42286671 75.39264292 25.23831434 65.77614345 23.0546875 56.140625 C21.75144531 56.10195312 21.75144531 56.10195312 20.421875 56.0625 C13.70439976 55.73188601 9.25624729 55.4986886 4.0546875 51.140625 C3.3946875 51.140625 2.7346875 51.140625 2.0546875 51.140625 C2.04010498 50.31336914 2.02552246 49.48611328 2.01049805 48.63378906 C1.9360289 44.88559619 1.8393629 41.13829503 1.7421875 37.390625 C1.70834961 35.43769531 1.70834961 35.43769531 1.67382812 33.4453125 C1.63837891 32.19492187 1.60292969 30.94453125 1.56640625 29.65625 C1.54022217 28.50415039 1.51403809 27.35205078 1.48706055 26.16503906 C1.01816494 22.88515271 0.16185282 21.61385672 -1.9453125 19.140625 C-1.8615783 16.26016863 -1.09691319 15.29831536 0.90234375 13.21875 C1.63324219 12.61546875 2.36414063 12.0121875 3.1171875 11.390625 C4.21740234 10.47023438 4.21740234 10.47023438 5.33984375 9.53125 C5.90574219 9.07234375 6.47164063 8.6134375 7.0546875 8.140625 C2.02024557 2.09929469 -3.86415087 -0.4755667 -11.68359375 -1.2109375 C-23.26777272 -1.46301657 -29.91073571 0.65126085 -37.9453125 9.140625 Z " fill="#E9B751" transform="translate(65.9453125,6.859375)"/>
<path d="M0 0 C0.67224609 -0.00386719 1.34449219 -0.00773438 2.03710938 -0.01171875 C5.11249752 -0.00561073 7.49776313 0.14508771 10.4375 1.125 C10.4375 1.785 10.4375 2.445 10.4375 3.125 C12.9125 4.115 12.9125 4.115 15.4375 5.125 C15.4375 8.62263204 14.88040244 9.22335528 12.6875 11.8125 C12.17703125 12.43511719 11.6665625 13.05773438 11.140625 13.69921875 C9.4375 15.125 9.4375 15.125 5.4375 15.125 C6.4275 15.785 7.4175 16.445 8.4375 17.125 C8.4375 17.785 8.4375 18.445 8.4375 19.125 C7.261875 18.8775 7.261875 18.8775 6.0625 18.625 C-2.34660451 17.46341157 -2.34660451 17.46341157 -10.4375 19.375 C-12.62634343 21.17757694 -14.63037857 23.04975846 -16.5625 25.125 C-15.1307479 20.11386765 -12.57804307 18.18030451 -8.5625 15.125 C-11.94280336 16.31267415 -14.40930363 17.2136359 -16.5625 20.125 C-17.17974783 23.50551437 -17.17974783 23.50551437 -17.4375 27.3125 C-18.31762241 35.56710098 -20.56265197 40.72294329 -26.875 46.125 C-27.761875 46.785 -28.64875 47.445 -29.5625 48.125 C-29.27767632 46.70694169 -28.98431856 45.29059621 -28.6875 43.875 C-28.52507813 43.08609375 -28.36265625 42.2971875 -28.1953125 41.484375 C-27.57099925 39.15668856 -26.71411458 37.23468048 -25.5625 35.125 C-25.8925 35.125 -26.2225 35.125 -26.5625 35.125 C-27.03448656 22.67853947 -26.13259065 14.48362199 -17.5625 5.125 C-11.58141314 0.45975225 -7.48298507 -0.01462949 0 0 Z " fill="#97110E" transform="translate(50.5625,5.875)"/>
<path d="M0 0 C1.15628906 -0.02126953 1.15628906 -0.02126953 2.3359375 -0.04296875 C4.84334888 0.20948393 6.45761902 0.93556533 8.625 2.1875 C8.295 3.5075 7.965 4.8275 7.625 6.1875 C8.24375 5.5275 8.8625 4.8675 9.5 4.1875 C11.625 2.1875 11.625 2.1875 13.625 2.1875 C17.10798526 6.20632915 16.91775927 10.0287277 16.828125 15.078125 C16.625 17.1875 16.625 17.1875 15.625 18.1875 C15.39424918 19.53497084 15.21346937 20.89127565 15.0625 22.25 C14.918125 23.549375 14.77375 24.84875 14.625 26.1875 C13.965 26.1875 13.305 26.1875 12.625 26.1875 C12.625 23.5475 12.625 20.9075 12.625 18.1875 C8.335 17.1975 4.045 16.2075 -0.375 15.1875 C3.27106356 20.67313372 3.27106356 20.67313372 9.625 22.1875 C9.955 28.1275 10.285 34.0675 10.625 40.1875 C6.66792696 38.60467078 3.51091548 37.04527529 -0.0625 34.8125 C-1.01511719 34.22726563 -1.96773437 33.64203125 -2.94921875 33.0390625 C-5.37118728 31.19041019 -6.3163563 29.99816807 -7.375 27.1875 C-6.715 27.1875 -6.055 27.1875 -5.375 27.1875 C-6.365 24.2175 -7.355 21.2475 -8.375 18.1875 C-8.705 20.4975 -9.035 22.8075 -9.375 25.1875 C-11.355 25.8475 -13.335 26.5075 -15.375 27.1875 C-15.05015625 26.33027344 -14.7253125 25.47304688 -14.390625 24.58984375 C-13.35889017 21.13353206 -13.1767217 18.34034805 -13.125 14.75 C-12.78816291 9.18901036 -11.79067436 6.27332909 -7.84765625 2.359375 C-5.18957216 0.24418872 -3.32987232 0.02765675 0 0 Z " fill="#884B07" transform="translate(48.375,23.8125)"/>
<path d="M0 0 C2.64 0 5.28 0 8 0 C8.50354867 2.43681587 9.00296756 4.87435439 9.5 7.3125 C9.64308594 8.00279297 9.78617188 8.69308594 9.93359375 9.40429688 C10.52625044 12.32524773 11 15.01108122 11 18 C11.66 18 12.32 18 13 18 C12.67 12.06 12.34 6.12 12 0 C20.3984375 -0.1953125 20.3984375 -0.1953125 23 0 C23.66 0.66 24.32 1.32 25 2 C25.33 1.34 25.66 0.68 26 0 C30.62 0 35.24 0 40 0 C40 1.65 40 3.3 40 5 C38.68 4.67 37.36 4.34 36 4 C36 9.28 36 14.56 36 20 C34.02 20 32.04 20 30 20 C30.33 14.72 30.66 9.44 31 4 C29.35 4.33 27.7 4.66 26 5 C26 6.98 26 8.96 26 11 C25.34 11 24.68 11 24 11 C24.99 13.97 25.98 16.94 27 20 C24.69 20 22.38 20 20 20 C19.505 17.525 19.505 17.525 19 15 C19 16.65 19 18.3 19 20 C14.71 20 10.42 20 6 20 C6 18.68 6 17.36 6 16 C4.68 16 3.36 16 2 16 C2 17.32 2 18.64 2 20 C0.02 20 -1.96 20 -4 20 C-2.68 13.4 -1.36 6.8 0 0 Z " fill="#D0A446" transform="translate(38,66)"/>
<path d="M0 0 C0.33 0 0.66 0 1 0 C1 6.27 1 12.54 1 19 C2.98 19 4.96 19 7 19 C6.67 18.34 6.34 17.68 6 17 C5.960008 15.00039988 5.95653201 12.99952758 6 11 C7.11375 10.690625 8.2275 10.38125 9.375 10.0625 C12.7945155 9.17673517 12.7945155 9.17673517 15 8 C14.125 15.75 14.125 15.75 13 18 C14.98 18 16.96 18 19 18 C19 16.68 19 15.36 19 14 C20.32 14 21.64 14 23 14 C23 15.32 23 16.64 23 18 C27.29 18 31.58 18 36 18 C35.505 14.535 35.505 14.535 35 11 C37 13 37 13 37.125 15.625 C37.08375 16.40875 37.0425 17.1925 37 18 C39.31 18 41.62 18 44 18 C43.505 17.2575 43.01 16.515 42.5 15.75 C41 13 41 13 41 9 C41.66 9 42.32 9 43 9 C43 7.02 43 5.04 43 3 C44.65 2.67 46.3 2.34 48 2 C48 6.95 48 11.9 48 17 C48.66 17.33 49.32 17.66 50 18 C50 18.99 50 19.98 50 21 C48.96931396 20.98428955 47.93862793 20.9685791 46.87670898 20.95239258 C18.79953378 20.52705537 18.79953378 20.52705537 -9.03759766 23.83813477 C-11.24113029 24.0198892 -12.89746243 23.64464873 -15 23 C-14.40832031 22.81824219 -13.81664062 22.63648437 -13.20703125 22.44921875 C-6.67744563 20.53865376 -6.67744563 20.53865376 -1 17 C0.00076997 14.0882504 0.00076997 14.0882504 -1 11 C-2.73123847 9.50873518 -4.47559489 8.38865524 -6.46875 7.2734375 C-6.9740625 6.85320312 -7.479375 6.43296875 -8 6 C-8 4.68 -8 3.36 -8 2 C-4.28400809 1.79913557 -3.22791555 1.8480563 0 4 C0 2.68 0 1.36 0 0 Z " fill="#040302" transform="translate(21,68)"/>
<path d="M0 0 C2.2734375 1.02734375 2.2734375 1.02734375 4 2 C3.67 3.32 3.34 4.64 3 6 C3.61875 5.34 4.2375 4.68 4.875 4 C7 2 7 2 9 2 C12.48298526 6.01882915 12.29275927 9.8412277 12.203125 14.890625 C12 17 12 17 11 18 C10.76924918 19.34747084 10.58846937 20.70377565 10.4375 22.0625 C10.293125 23.361875 10.14875 24.66125 10 26 C9.34 26 8.68 26 8 26 C8 23.36 8 20.72 8 18 C6.824375 17.731875 5.64875 17.46375 4.4375 17.1875 C0.39357312 16.18552881 -3.2167107 14.7340076 -7 13 C-6.34 12.34 -5.68 11.68 -5 11 C-7.97 10.505 -7.97 10.505 -11 10 C-11 8.35 -11 6.7 -11 5 C-11.45375 5.45375 -11.9075 5.9075 -12.375 6.375 C-14.1875 8.1875 -14.1875 8.1875 -16 10 C-15.78931408 6.31299634 -14.9954447 4.99487529 -12.5 2.1875 C-8.66720022 -0.75653461 -4.64843959 -0.80291229 0 0 Z " fill="#BC7610" transform="translate(53,24)"/>
<path d="M0 0 C1.01707031 0.56460937 1.01707031 0.56460937 2.0546875 1.140625 C2.97894531 1.64335937 2.97894531 1.64335937 3.921875 2.15625 C7.00797009 4.01676666 8.83462674 5.72445488 10.0546875 9.140625 C9.3328125 9.511875 8.6109375 9.883125 7.8671875 10.265625 C4.47513988 12.52699008 2.54970484 14.93274557 0.0546875 18.140625 C0.53550781 18.80835937 1.01632813 19.47609375 1.51171875 20.1640625 C3.35851064 23.72673445 3.61187293 26.83843903 3.7421875 30.765625 C3.77562256 31.46623047 3.80905762 32.16683594 3.84350586 32.88867188 C4.09664083 38.63779451 4.1643992 44.38685587 4.0546875 50.140625 C3.7246875 50.140625 3.3946875 50.140625 3.0546875 50.140625 C3.01504883 49.41472168 2.97541016 48.68881836 2.93457031 47.94091797 C2.74326384 44.63110462 2.52424862 41.32367923 2.3046875 38.015625 C2.2428125 36.87351563 2.1809375 35.73140625 2.1171875 34.5546875 C1.66338267 28.05015165 0.97950191 24.30225068 -2.9453125 19.140625 C-2.95081138 16.17122729 -2.04052146 15.25093052 -0.09765625 13 C0.63324219 12.30390625 1.36414063 11.6078125 2.1171875 10.890625 C3.21740234 9.83101562 3.21740234 9.83101562 4.33984375 8.75 C4.90574219 8.21890625 5.47164062 7.6878125 6.0546875 7.140625 C4.85178739 6.34072696 3.64202455 5.55114676 2.4296875 4.765625 C1.75679687 4.32476563 1.08390625 3.88390625 0.390625 3.4296875 C-7.32944193 -0.8305501 -16.63127741 -1.06518031 -25.1953125 0.5703125 C-32.75676681 3.40585787 -38.65129663 9.96945495 -41.9453125 17.140625 C-42.87468973 19.91856543 -43.55744128 22.72077564 -44.1953125 25.578125 C-44.45441406 26.67543945 -44.45441406 26.67543945 -44.71875 27.79492188 C-45.13748083 29.57452788 -45.54282763 31.35727451 -45.9453125 33.140625 C-46.2753125 33.140625 -46.6053125 33.140625 -46.9453125 33.140625 C-46.58849784 21.59767081 -44.83718023 13.52225374 -36.8828125 4.93359375 C-26.87380038 -4.32877835 -12.25442824 -5.85901956 0 0 Z " fill="#E8C56A" transform="translate(65.9453125,6.859375)"/>
<path d="M0 0 C2.31 0 4.62 0 7 0 C7.67332993 3.08191704 8.33748859 6.1657408 9 9.25 C9.19078125 10.12269531 9.3815625 10.99539062 9.578125 11.89453125 C9.75859375 12.73886719 9.9390625 13.58320312 10.125 14.453125 C10.29257813 15.22817383 10.46015625 16.00322266 10.6328125 16.80175781 C11 19 11 19 11 23 C9.35 23 7.7 23 6 23 C6 21.02 6 19.04 6 17 C4.35 17 2.7 17 1 17 C1 18.32 1 19.64 1 21 C-0.65 21 -2.3 21 -4 21 C-3.52380865 18.06198921 -3.04417738 15.12461186 -2.5625 12.1875 C-2.42779297 11.35412109 -2.29308594 10.52074219 -2.15429688 9.66210938 C-2.02216797 8.85966797 -1.89003906 8.05722656 -1.75390625 7.23046875 C-1.63345947 6.49207764 -1.5130127 5.75368652 -1.38891602 4.99291992 C-1 3 -1 3 0 0 Z " fill="#B68427" transform="translate(81,66)"/>
<path d="M0 0 C8.3984375 -0.1953125 8.3984375 -0.1953125 11 0 C13 2 13 2 13.265625 4.09375 C13.26046875 4.8878125 13.2553125 5.681875 13.25 6.5 C13.25515625 7.2940625 13.2603125 8.088125 13.265625 8.90625 C13 11 13 11 11 13 C7.875 13.125 7.875 13.125 5 13 C5.33 15.64 5.66 18.28 6 21 C4.02 21 2.04 21 0 21 C0 14.07 0 7.14 0 0 Z " fill="#C19439" transform="translate(22,66)"/>
<path d="M0 0 C0.33 0 0.66 0 1 0 C1.92255125 16.8929385 1.92255125 16.8929385 -4 24 C-0.83467782 24 0.27663837 23.5118648 3 22.0625 C5.36019778 20.81535003 7.45080496 19.84973168 10 19 C10 19.66 10 20.32 10 21 C10.99 21.33 11.98 21.66 13 22 C13 22.66 13 23.32 13 24 C12.31035156 24.07476562 11.62070312 24.14953125 10.91015625 24.2265625 C3.52423511 25.25998356 -1.09144451 27.57451566 -7 32 C-7.99 32.5775 -8.98 33.155 -10 33.75 C-12.14023845 34.84593522 -12.14023845 34.84593522 -13 37 C-13.25785684 41.55547083 -12.99851462 44.8780636 -11 49 C-11.99 49 -12.98 49 -14 49 C-14 51.97 -14 54.94 -14 58 C-14.33 58 -14.66 58 -15 58 C-14.98259766 56.84371094 -14.98259766 56.84371094 -14.96484375 55.6640625 C-14.95582031 54.66117188 -14.94679688 53.65828125 -14.9375 52.625 C-14.92589844 51.62726563 -14.91429687 50.62953125 -14.90234375 49.6015625 C-14.81993398 47.01567547 -14.81993398 47.01567547 -16 45 C-16.55512815 40.36786507 -16.6364242 37.01827873 -14.125 33 C-12 31 -12 31 -10 30 C-10.66 29.67 -11.32 29.34 -12 29 C-10.86026927 25.5808078 -9.43710855 24.62707521 -6.5703125 22.57421875 C-2.28876195 18.28201758 -1.42490785 12.92321007 -0.8125 7.125 C-0.73064453 6.43664063 -0.64878906 5.74828125 -0.56445312 5.0390625 C-0.36629262 3.36052643 -0.18172213 1.68039519 0 0 Z " fill="#C99B45" transform="translate(21,31)"/>
<path d="M0 0 C0.33 0 0.66 0 1 0 C1 4.29 1 8.58 1 13 C2.66675781 12.69255859 2.66675781 12.69255859 4.3671875 12.37890625 C5.86975455 12.10656597 7.37236087 11.83444227 8.875 11.5625 C9.60203125 11.42779297 10.3290625 11.29308594 11.078125 11.15429688 C21.87441714 9.21285838 32.48471737 8.84014528 43.43334961 8.86962891 C45.82477034 8.8750277 48.21600655 8.86963555 50.60742188 8.86328125 C52.14062541 8.86394145 53.67382883 8.86522139 55.20703125 8.8671875 C55.91543655 8.86516327 56.62384186 8.86313904 57.35371399 8.86105347 C61.02782326 8.878389 64.42693527 9.12721014 68 10 C68 10.33 68 10.66 68 11 C66.74678955 11.04487549 65.4935791 11.08975098 64.20239258 11.13598633 C59.44362774 11.30938634 54.68553296 11.49757795 49.92749023 11.68969727 C47.88857711 11.77007765 45.84951243 11.84672181 43.81030273 11.91918945 C28.05230869 12.48294695 12.45481416 13.71932062 -3 17 C-2.125 12.25 -2.125 12.25 -1 10 C-0.77377919 8.29636178 -0.59111527 6.58671299 -0.4375 4.875 C-0.31181641 3.50988281 -0.31181641 3.50988281 -0.18359375 2.1171875 C-0.12300781 1.41851562 -0.06242188 0.71984375 0 0 Z " fill="#D4AE5A" transform="translate(5,79)"/>
<path d="M0 0 C1.32 0.66 2.64 1.32 4 2 C4.33 1.34 4.66 0.68 5 0 C8.96 0 12.92 0 17 0 C15.7874262 3.72433382 14.49140021 7.37802806 13 11 C11.56344146 11.08131463 10.1255517 11.13933559 8.6875 11.1875 C7.48673828 11.23970703 7.48673828 11.23970703 6.26171875 11.29296875 C3.52148416 10.93801608 2.70828921 10.10633718 1 8 C0.67 9.32 0.34 10.64 0 12 C-0.99 11.34 -1.98 10.68 -3 10 C-2.67 9.34 -2.34 8.68 -2 8 C-2.99 7.67 -3.98 7.34 -5 7 C-3.75023244 3.34683329 -3.32901247 2.21934164 0 0 Z " fill="#B50D10" transform="translate(39,7)"/>
<path d="M0 0 C1.21816406 0.03480469 1.21816406 0.03480469 2.4609375 0.0703125 C3.68683594 0.09738281 3.68683594 0.09738281 4.9375 0.125 C5.87722656 0.15980469 5.87722656 0.15980469 6.8359375 0.1953125 C6.8359375 2.1753125 6.8359375 4.1553125 6.8359375 6.1953125 C4.5259375 5.5353125 2.2159375 4.8753125 -0.1640625 4.1953125 C-0.1640625 5.5153125 -0.1640625 6.8353125 -0.1640625 8.1953125 C0.5990625 8.4634375 1.3621875 8.7315625 2.1484375 9.0078125 C6.2131617 10.80385343 6.2131617 10.80385343 7.8359375 13.1953125 C8.47857606 18.33642097 8.47857606 18.33642097 6.60546875 20.83984375 C4.39216592 22.53524349 2.90866274 22.68279618 0.1484375 22.8828125 C-0.65980469 22.94855469 -1.46804687 23.01429687 -2.30078125 23.08203125 C-3.22310547 23.13810547 -3.22310547 23.13810547 -4.1640625 23.1953125 C-4.1640625 21.2153125 -4.1640625 19.2353125 -4.1640625 17.1953125 C-1.8540625 17.5253125 0.4559375 17.8553125 2.8359375 18.1953125 C0.86299397 14.4754228 0.86299397 14.4754228 -2.3515625 11.8828125 C-4.1640625 10.1953125 -4.1640625 10.1953125 -4.48828125 8.3046875 C-4.5390625 6.1328125 -4.5390625 6.1328125 -4.1640625 2.1953125 C-2.1640625 0.1953125 -2.1640625 0.1953125 0 0 Z " fill="#CB9735" transform="translate(13.1640625,65.8046875)"/>
<path d="M0 0 C1.32 0 2.64 0 4 0 C4 0.66 4 1.32 4 2 C4.99 2 5.98 2 7 2 C7.91813425 15.38435711 7.91813425 15.38435711 3.51171875 21.34375 C1.1942942 23.88273711 -1.24125791 25.94698263 -4 28 C-3.71517632 26.58194169 -3.42181856 25.16559621 -3.125 23.75 C-2.96257813 22.96109375 -2.80015625 22.1721875 -2.6328125 21.359375 C-2.00849925 19.03168856 -1.15161458 17.10968048 0 15 C-0.33 15 -0.66 15 -1 15 C-1.02685412 12.68756208 -1.04632841 10.3750373 -1.0625 8.0625 C-1.07410156 6.77472656 -1.08570313 5.48695312 -1.09765625 4.16015625 C-1 1 -1 1 0 0 Z " fill="#A7110F" transform="translate(25,26)"/>
<path d="M0 0 C0.804375 0.433125 0.804375 0.433125 1.625 0.875 C4.31784643 2.15055883 7.17323064 3.05774355 10 4 C10.33 9.94 10.66 15.88 11 22 C7.01127476 20.4045099 3.84674235 18.82261512 0.25 16.5625 C-0.71421875 15.96566406 -1.6784375 15.36882813 -2.671875 14.75390625 C-5 13 -5 13 -6 10 C-2.66666667 11.66666667 0.66666667 13.33333333 4 15 C3.34 14.34 2.68 13.68 2 13 C1.875 10.0625 1.875 10.0625 2 7 C2 3.89448334 1.4606285 2.64738916 0 0 Z " fill="#C0801F" transform="translate(48,42)"/>
<path d="M0 0 C0.7528125 0.07863281 1.505625 0.15726563 2.28125 0.23828125 C4.62887164 0.71359197 6.41514781 1.52661639 8.5 2.6875 C8.5 1.6975 8.5 0.7075 8.5 -0.3125 C10.48 1.3375 12.46 2.9875 14.5 4.6875 C14.17 5.3475 13.84 6.0075 13.5 6.6875 C4.63911833 6.97961698 -3.76047454 6.13546872 -12.5 4.6875 C-8.48835749 0.24603865 -5.8670553 -0.67310395 0 0 Z " fill="#A81A11" transform="translate(32.5,57.3125)"/>
<path d="M0 0 C0.66 0 1.32 0 2 0 C5.48298526 4.01882915 5.29275927 7.8412277 5.203125 12.890625 C5 15 5 15 4 16 C3.76924918 17.34747084 3.58846937 18.70377565 3.4375 20.0625 C3.293125 21.361875 3.14875 22.66125 3 24 C2.34 24 1.68 24 1 24 C1 21.36 1 18.72 1 16 C0.195625 15.731875 -0.60875 15.46375 -1.4375 15.1875 C-2.283125 14.795625 -3.12875 14.40375 -4 14 C-4.33 13.01 -4.66 12.02 -5 11 C-3.35 11.33 -1.7 11.66 0 12 C0 10.02 0 8.04 0 6 C-2.31 6.66 -4.62 7.32 -7 8 C-6.02133662 6.85373678 -5.04205413 5.70800212 -4.0625 4.5625 C-3.51722656 3.92441406 -2.97195312 3.28632813 -2.41015625 2.62890625 C-1.63204305 1.73008851 -0.84063472 0.84063472 0 0 Z " fill="#DFB961" transform="translate(60,26)"/>
<path d="M0 0 C2.31 0 4.62 0 7 0 C7.33 3.63 7.66 7.26 8 11 C7.34 11 6.68 11 6 11 C5.67 11.99 5.34 12.98 5 14 C4.34 12.68 3.68 11.36 3 10 C2.34 11.32 1.68 12.64 1 14 C1 13.01 1 12.02 1 11 C0.34 11 -0.32 11 -1 11 C-1.125 3.375 -1.125 3.375 0 0 Z " fill="#E4BB59" transform="translate(81,66)"/>
<path d="M0 0 C0.99 0.33 1.98 0.66 3 1 C2.67 1.33 2.34 1.66 2 2 C1.52039338 6.05097599 1.52039338 6.05097599 2 10 C3.79537273 12.05708887 5.77214014 13.37551885 8 15 C8 15.99 8 16.98 8 18 C6.35 18.33 4.7 18.66 3 19 C3 18.34 3 17.68 3 17 C2.34 17 1.68 17 1 17 C1 18.98 1 20.96 1 23 C1.66 23.33 2.32 23.66 3 24 C1.35 24.33 -0.3 24.66 -2 25 C-1.67 21.37 -1.34 17.74 -1 14 C-0.01 14 0.98 14 2 14 C1.505 13.319375 1.01 12.63875 0.5 11.9375 C-1.32021853 8.37290537 -1.29844362 5.95437795 -1 2 C-0.67 1.34 -0.34 0.68 0 0 Z " fill="#21190A" transform="translate(8,66)"/>
<path d="M0 0 C3.63 0 7.26 0 11 0 C11 2.64 11 5.28 11 8 C10.01 8 9.02 8 8 8 C8 6.35 8 4.7 8 3 C6.68 3 5.36 3 4 3 C4 4.98 4 6.96 4 9 C4.99 9.33 5.98 9.66 7 10 C4.69 10 2.38 10 0 10 C0 6.7 0 3.4 0 0 Z " fill="#F5C960" transform="translate(23,67)"/>
<path d="M0 0 C1.32 0 2.64 0 4 0 C4 1.65 4 3.3 4 5 C4.99 5 5.98 5 7 5 C7.48828125 6.98567708 7.9765625 8.97135417 8.46484375 10.95703125 C8.91010705 12.65683202 9.44433985 14.33301954 10 16 C7.69 16 5.38 16 3 16 C2.67 14.35 2.34 12.7 2 11 C1.01 12.485 1.01 12.485 0 14 C0 11.69 0 9.38 0 7 C0.99 7.33 1.98 7.66 3 8 C4.1875 11.0625 4.1875 11.0625 5 14 C5 12.68 5 11.36 5 10 C5 9.01 5 8.02 5 7 C2.69 6.67 0.38 6.34 -2 6 C-1.34 5.67 -0.68 5.34 0 5 C0 3.35 0 1.7 0 0 Z " fill="#A58238" transform="translate(55,70)"/>
<path d="M0 0 C-1.66751148 3.94139078 -4.22710649 6.7892812 -7 10 C-6.51917969 10.66773438 -6.03835937 11.33546875 -5.54296875 12.0234375 C-3.69617686 15.58610945 -3.44281457 18.69781403 -3.3125 22.625 C-3.27906494 23.32560547 -3.24562988 24.02621094 -3.21118164 24.74804688 C-2.95804667 30.49716951 -2.8902883 36.24623087 -3 42 C-3.33 42 -3.66 42 -4 42 C-4.03963867 41.27409668 -4.07927734 40.54819336 -4.12011719 39.80029297 C-4.31142366 36.49047962 -4.53043888 33.18305423 -4.75 29.875 C-4.8428125 28.16183594 -4.8428125 28.16183594 -4.9375 26.4140625 C-5.39130483 19.90952665 -6.07518559 16.16162568 -10 11 C-9.94128856 7.42512542 -8.04759701 5.66793222 -5.5625 3.25 C-4.94503906 2.63640625 -4.32757813 2.0228125 -3.69140625 1.390625 C-2 0 -2 0 0 0 Z " fill="#F3C765" transform="translate(73,15)"/>
<path d="M0 0 C2.64 0 5.28 0 8 0 C8 3.3 8 6.6 8 10 C7.01 10 6.02 10 5 10 C5 8.35 5 6.7 5 5 C4.34 5 3.68 5 3 5 C2.67 6.65 2.34 8.3 2 10 C1.34 10 0.68 10 0 10 C0 6.7 0 3.4 0 0 Z " fill="#E5BD5B" transform="translate(38,66)"/>
<path d="M0 0 C3.5625 1.5 3.5625 1.5 6 3 C6 3.66 6 4.32 6 5 C5.21625 4.835 4.4325 4.67 3.625 4.5 C-4.78410451 3.33841157 -4.78410451 3.33841157 -12.875 5.25 C-15.06384343 7.05257694 -17.06787857 8.92475846 -19 11 C-17.56314642 5.97101246 -15.05763331 4.04322498 -11 1 C-7.55389094 -0.72305453 -3.77537825 -0.379435 0 0 Z " fill="#824D0D" transform="translate(53,20)"/>
<path d="M0 0 C2.0625 0.4375 2.0625 0.4375 4 1 C3.20335937 1.63615234 3.20335937 1.63615234 2.390625 2.28515625 C1.68421875 2.87167969 0.9778125 3.45820313 0.25 4.0625 C-0.44609375 4.63097656 -1.1421875 5.19945312 -1.859375 5.78515625 C-6.84250068 10.94105454 -8.72703482 16.615365 -10.25 23.4375 C-10.50910156 24.53481445 -10.50910156 24.53481445 -10.7734375 25.65429688 C-11.19216833 27.43390288 -11.59751513 29.21664951 -12 31 C-12.33 31 -12.66 31 -13 31 C-12.57998369 17.41247246 -9.59797307 9.59797307 0 0 Z " fill="#EEBA53" transform="translate(32,9)"/>
<path d="M0 0 C4.7517398 0.43197635 6.92000054 1.32769295 10 5 C8.88200014 6.33920838 7.75538103 7.67122556 6.625 9 C5.68527344 10.11375 5.68527344 10.11375 4.7265625 11.25 C4.15679687 11.8275 3.58703125 12.405 3 13 C2.34 13 1.68 13 1 13 C0.3125 11.3125 0.3125 11.3125 0 9 C0.96432076 7.31243867 1.96210419 5.64333504 3 4 C2.67 3.34 2.34 2.68 2 2 C0.68 2.99 -0.64 3.98 -2 5 C-1.34 3.35 -0.68 1.7 0 0 Z " fill="#AA1710" transform="translate(57,8)"/>
<path d="M0 0 C0.33 0 0.66 0 1 0 C1 2.64 1 5.28 1 8 C3.97 8 6.94 8 10 8 C10.33 10.64 10.66 13.28 11 16 C10.34 16 9.68 16 9 16 C8.54625 15.030625 8.0925 14.06125 7.625 13.0625 C6.34213779 9.92920418 6.34213779 9.92920418 4 9 C4.33 11.64 4.66 14.28 5 17 C3.35 17 1.7 17 0 17 C0 11.39 0 5.78 0 0 Z " fill="#D4A240" transform="translate(51,68)"/>
<path d="M0 0 C0.33 0 0.66 0 1 0 C1 1.65 1 3.3 1 5 C1.66 4.67 2.32 4.34 3 4 C3.65213292 1.97536745 3.65213292 1.97536745 4 0 C4.66 0 5.32 0 6 0 C6 2.64 6 5.28 6 8 C4.35 7.67 2.7 7.34 1 7 C1 7.99 1 8.98 1 10 C2.98 10 4.96 10 7 10 C5.68 10.33 4.36 10.66 3 11 C3 12.32 3 13.64 3 15 C1.02 15 -0.96 15 -3 15 C-2.01 10.05 -1.02 5.1 0 0 Z " fill="#A9863A" transform="translate(37,71)"/>
<path d="M0 0 C1.32 0 2.64 0 4 0 C4 0.66 4 1.32 4 2 C4.99 2 5.98 2 7 2 C6.6875 3.875 6.6875 3.875 6 6 C5.01 6.66 4.02 7.32 3 8 C2.7497843 11.08365871 2.7497843 11.08365871 3 14 C1.68 13.67 0.36 13.34 -1 13 C-1.02686553 11.02090602 -1.04633375 9.04171029 -1.0625 7.0625 C-1.07410156 5.96035156 -1.08570312 4.85820312 -1.09765625 3.72265625 C-1 1 -1 1 0 0 Z " fill="#BE1512" transform="translate(25,26)"/>
<path d="M0 0 C0.33 0 0.66 0 1 0 C1 1.98 1 3.96 1 6 C1.99 6 2.98 6 4 6 C4 4.02 4 2.04 4 0 C4.33 0 4.66 0 5 0 C5 5.28 5 10.56 5 16 C3.02 16 1.04 16 -1 16 C-0.67 10.72 -0.34 5.44 0 0 Z " fill="#C29337" transform="translate(69,70)"/>
<path d="M0 0 C1.21816406 0.03480469 1.21816406 0.03480469 2.4609375 0.0703125 C3.68683594 0.09738281 3.68683594 0.09738281 4.9375 0.125 C5.87722656 0.15980469 5.87722656 0.15980469 6.8359375 0.1953125 C6.8359375 2.1753125 6.8359375 4.1553125 6.8359375 6.1953125 C4.5259375 5.5353125 2.2159375 4.8753125 -0.1640625 4.1953125 C-0.1640625 5.5153125 -0.1640625 6.8353125 -0.1640625 8.1953125 C-1.4840625 8.5253125 -2.8040625 8.8553125 -4.1640625 9.1953125 C-4.2890625 5.8203125 -4.2890625 5.8203125 -4.1640625 2.1953125 C-2.1640625 0.1953125 -2.1640625 0.1953125 0 0 Z " fill="#E1BA5A" transform="translate(13.1640625,65.8046875)"/>
<path d="M0 0 C0.33 0 0.66 0 1 0 C1.33 8.25 1.66 16.5 2 25 C3.65 25.33 5.3 25.66 7 26 C7.99 26.66 8.98 27.32 10 28 C10 28.66 10 29.32 10 30 C13.96 30 17.92 30 22 30 C22 30.33 22 30.66 22 31 C14.72182512 31.49926504 8.74848223 31.72177076 2.390625 27.875 C-1.28665432 22.91687058 -0.12542925 14.44439377 -0.0625 8.5 C-0.05798828 7.67757812 -0.05347656 6.85515625 -0.04882812 6.0078125 C-0.03718489 4.00517604 -0.01925556 2.00257773 0 0 Z " fill="#C6973F" transform="translate(67,32)"/>
<path d="M0 0 C1.15837626 4.05431692 0.83691257 6.21812119 -1 10 C-2.32 10 -3.64 10 -5 10 C-5 7.69 -5 5.38 -5 3 C-5.66 3 -6.32 3 -7 3 C-7.33 3.66 -7.66 4.32 -8 5 C-8 3.68 -8 2.36 -8 1 C-5.29120665 -0.35439668 -2.99066732 -0.06501451 0 0 Z " fill="#B60C10" transform="translate(53,8)"/>
<path d="M0 0 C0.66 0.99 1.32 1.98 2 3 C5.56769552 3.73606499 5.56769552 3.73606499 9 4 C9 5.65 9 7.3 9 9 C9.66 9 10.32 9 11 9 C11.33 7.68 11.66 6.36 12 5 C12.33 6.98 12.66 8.96 13 11 C11.35 11 9.7 11 8 11 C8 9.02 8 7.04 8 5 C6.35 5 4.7 5 3 5 C3 6.32 3 7.64 3 9 C1.35 9 -0.3 9 -2 9 C-1.125 1.125 -1.125 1.125 0 0 Z " fill="#D2A445" transform="translate(79,78)"/>
<path d="M0 0 C3.96 0 7.92 0 12 0 C12 0.99 12 1.98 12 3 C10.68 3 9.36 3 8 3 C8 4.98 8 6.96 8 9 C7.01 9 6.02 9 5 9 C5 7.02 5 5.04 5 3 C3.35 3.33 1.7 3.66 0 4 C0 2.68 0 1.36 0 0 Z " fill="#F5CA62" transform="translate(65,67)"/>
<path d="M0 0 C0.99 0.33 1.98 0.66 3 1 C3.38218767 2.65614657 3.71395102 4.32457024 4 6 C3.67 6.33 3.34 6.66 3 7 C2.76924918 8.34747084 2.58846937 9.70377565 2.4375 11.0625 C2.293125 12.361875 2.14875 13.66125 2 15 C1.34 15 0.68 15 0 15 C0 12.36 0 9.72 0 7 C-0.804375 6.731875 -1.60875 6.46375 -2.4375 6.1875 C-3.283125 5.795625 -4.12875 5.40375 -5 5 C-5.33 4.01 -5.66 3.02 -6 2 C-3.525 2.495 -3.525 2.495 -1 3 C-0.67 2.01 -0.34 1.02 0 0 Z " fill="#DCA949" transform="translate(61,35)"/>
<path d="M0 0 C3.465 2.475 3.465 2.475 7 5 C6.67 5.66 6.34 6.32 6 7 C-2.86088167 7.29211698 -11.26047454 6.44796872 -20 5 C-19.67 4.34 -19.34 3.68 -19 3 C-12.07 3.33 -5.14 3.66 2 4 C1.34 2.68 0.68 1.36 0 0 Z " fill="#B01712" transform="translate(40,57)"/>
<path d="M0 0 C0.53625 0.28875 1.0725 0.5775 1.625 0.875 C4.31784643 2.15055883 7.17323064 3.05774355 10 4 C10 8.95 10 13.9 10 19 C8.32640801 15.65281602 7.75379618 14.00258296 7.25 10.5 C6.47018818 6.6073328 6.21985078 6.17148361 2.875 3.5625 C1.92625 3.046875 0.9775 2.53125 0 2 C0 1.34 0 0.68 0 0 Z " fill="#DEAF59" transform="translate(48,42)"/>
<path d="M0 0 C1 2 1 2 0.9375 5.3125 C0.99710222 8.82903119 1.48701775 10.87947411 3 14 C2.01 14 1.02 14 0 14 C0 16.97 0 19.94 0 23 C-0.33 23 -0.66 23 -1 23 C-0.98259766 21.84371094 -0.98259766 21.84371094 -0.96484375 20.6640625 C-0.95582031 19.66117188 -0.94679688 18.65828125 -0.9375 17.625 C-0.92589844 16.62726563 -0.91429687 15.62953125 -0.90234375 14.6015625 C-0.81993398 12.01567547 -0.81993398 12.01567547 -2 10 C-2.06950541 8.45976004 -2.08452357 6.91665012 -2.0625 5.375 C-2.05347656 4.55773437 -2.04445313 3.74046875 -2.03515625 2.8984375 C-2.02355469 2.27195312 -2.01195312 1.64546875 -2 1 C-1.34 0.67 -0.68 0.34 0 0 Z " fill="#D8A23F" transform="translate(7,66)"/>
<path d="M0 0 C1.670625 0.061875 1.670625 0.061875 3.375 0.125 C2.80155063 2.99224686 2.5135485 3.9864515 0.375 6.125 C-1.625 5.9375 -1.625 5.9375 -3.625 5.125 C-4.285 4.135 -4.945 3.145 -5.625 2.125 C-3.625 0.125 -3.625 0.125 0 0 Z " fill="#F2BA4B" transform="translate(51.625,24.875)"/>
<path d="M0 0 C0.33 0 0.66 0 1 0 C1 4.29 1 8.58 1 13 C3.97 13.495 3.97 13.495 7 14 C7 14.33 7 14.66 7 15 C3.7 15.66 0.4 16.32 -3 17 C-2 12 -2 12 -1 10 C-0.77377919 8.29636178 -0.59111527 6.58671299 -0.4375 4.875 C-0.31181641 3.50988281 -0.31181641 3.50988281 -0.18359375 2.1171875 C-0.12300781 1.41851562 -0.06242188 0.71984375 0 0 Z " fill="#DEA849" transform="translate(5,79)"/>
<path d="M0 0 C0.99 0.33 1.98 0.66 3 1 C3 3.31 3 5.62 3 8 C0.69 7.67 -1.62 7.34 -4 7 C-3.6875 4.625 -3.6875 4.625 -3 2 C-2.01 1.34 -1.02 0.68 0 0 Z " fill="#CB7F0E" transform="translate(58,31)"/>
<path d="M0 0 C1.75288371 3.19958687 2.76776911 6.34861718 3.6875 9.875 C3.95949219 10.88304688 4.23148437 11.89109375 4.51171875 12.9296875 C5.03877168 16.2437963 4.72448553 18.74224626 4 22 C3.67 22 3.34 22 3 22 C2.30327929 18.5226132 1.61917458 15.04286493 0.9375 11.5625 C0.73833984 10.56927734 0.53917969 9.57605469 0.33398438 8.55273438 C0.15029297 7.60849609 -0.03339844 6.66425781 -0.22265625 5.69140625 C-0.48187866 4.37958374 -0.48187866 4.37958374 -0.74633789 3.04125977 C-0.83004639 2.36764404 -0.91375488 1.69402832 -1 1 C-0.67 0.67 -0.34 0.34 0 0 Z " fill="#241C0B" transform="translate(89,68)"/>
<path d="M0 0 C0 0.33 0 0.66 0 1 C-0.60328125 1.19335938 -1.2065625 1.38671875 -1.828125 1.5859375 C-2.62734375 1.84632812 -3.4265625 2.10671875 -4.25 2.375 C-5.03890625 2.63023438 -5.8278125 2.88546875 -6.640625 3.1484375 C-11.01536297 4.72739922 -13.38525776 6.07788664 -16 10 C-15.78931408 6.31299634 -14.9954447 4.99487529 -12.5 2.1875 C-8.63327614 -0.83043081 -4.69241308 -0.46924131 0 0 Z " fill="#B67819" transform="translate(53,24)"/>
<path d="M0 0 C2.64 0 5.28 0 8 0 C6.515 1.485 6.515 1.485 5 3 C6.32 3.66 7.64 4.32 9 5 C8.01 5 7.02 5 6 5 C6.33 5.99 6.66 6.98 7 8 C6.01 8 5.02 8 4 8 C3.67 6.35 3.34 4.7 3 3 C2.34 3 1.68 3 1 3 C0.67 2.01 0.34 1.02 0 0 Z " fill="#9C5D09" transform="translate(42,34)"/>
<path d="M0 0 C0 3 0 3 -1.42578125 5.16796875 C-3.47684047 8.85783955 -3.78304099 12.16030155 -4.1875 16.3125 C-4.3102832 17.42334961 -4.3102832 17.42334961 -4.43554688 18.55664062 C-4.63442588 20.36994923 -4.81869827 22.18484969 -5 24 C-5.33 24 -5.66 24 -6 24 C-7.38653334 16.07264632 -7.06901589 10.08114453 -3 3 C-1.359375 1.21875 -1.359375 1.21875 0 0 Z " fill="#481609" transform="translate(29,15)"/>
<path d="M0 0 C1.32 0.66 2.64 1.32 4 2 C4.25 4.3125 4.25 4.3125 4 7 C2 8.8125 2 8.8125 0 10 C-1 9 -1 9 -1.125 6.125 C-1 3 -1 3 0 0 Z " fill="#C5790B" transform="translate(51,46)"/>
<path d="M0 0 C0.66 0.33 1.32 0.66 2 1 C0.80100302 4.0831351 -0.47700477 7.06279492 -2 10 C-2.66 10 -3.32 10 -4 10 C-4.33 8.02 -4.66 6.04 -5 4 C-3.35 2.68 -1.7 1.36 0 0 Z " fill="#B40B10" transform="translate(59,9)"/>
<path d="M0 0 C1.32 0 2.64 0 4 0 C4 1.65 4 3.3 4 5 C4.99 5.33 5.98 5.66 7 6 C5.02 6.99 5.02 6.99 3 8 C3 7.34 3 6.68 3 6 C2.01 6 1.02 6 0 6 C0 4.02 0 2.04 0 0 Z " fill="#5C4416" transform="translate(27,70)"/>
<path d="M0 0 C2.64 0 5.28 0 8 0 C8.33 2.64 8.66 5.28 9 8 C8.34 8 7.68 8 7 8 C5.515 5.03 5.515 5.03 4 2 C3.34 2 2.68 2 2 2 C1.67 3.98 1.34 5.96 1 8 C0.67 8 0.34 8 0 8 C0 5.36 0 2.72 0 0 Z " fill="#D99117" transform="translate(53,76)"/>
<path d="M0 0 C2 2 2 2 2 6 C2.99 6 3.98 6 5 6 C4.67 6.66 4.34 7.32 4 8 C2.68 8 1.36 8 0 8 C0 7.34 0 6.68 0 6 C-3.3 6 -6.6 6 -10 6 C-10 5.67 -10 5.34 -10 5 C-7.03 5 -4.06 5 -1 5 C-0.67 3.35 -0.34 1.7 0 0 Z " fill="#91150E" transform="translate(53,13)"/>
<path d="M0 0 C1.42892578 0.00773437 1.42892578 0.00773437 2.88671875 0.015625 C4.30404297 0.00789063 4.30404297 0.00789063 5.75 0 C8.70031364 0.27748455 10.89341019 1.03508992 13.57421875 2.265625 C13.57421875 2.595625 13.57421875 2.925625 13.57421875 3.265625 C7.63421875 2.935625 1.69421875 2.605625 -4.42578125 2.265625 C-2.42578125 0.265625 -2.42578125 0.265625 0 0 Z " fill="#A90910" transform="translate(27.42578125,58.734375)"/>
<path d="M0 0 C1.32 0.66 2.64 1.32 4 2 C4 2.66 4 3.32 4 4 C3.195625 4.12375 2.39125 4.2475 1.5625 4.375 C0.2940625 4.684375 0.2940625 4.684375 -1 5 C-1.33 5.66 -1.66 6.32 -2 7 C-2.99 7 -3.98 7 -5 7 C-3.75023244 3.34683329 -3.32901247 2.21934164 0 0 Z " fill="#BB2C17" transform="translate(39,7)"/>
<path d="M0 0 C0 0.33 0 0.66 0 1 C-0.56847656 1.02578125 -1.13695312 1.0515625 -1.72265625 1.078125 C-7.52502403 1.50434233 -11.1456851 2.79821783 -16 6 C-16 5.01 -16 4.02 -16 3 C-10.62669111 -0.39366878 -6.13053511 -0.32712342 0 0 Z " fill="#040200" transform="translate(53,19)"/>
<path d="M0 0 C2.31 1.65 4.62 3.3 7 5 C6.67 5.66 6.34 6.32 6 7 C2.04 7 -1.92 7 -6 7 C-6 6.67 -6 6.34 -6 6 C-3.36 5.67 -0.72 5.34 2 5 C1.34 3.35 0.68 1.7 0 0 Z " fill="#783008" transform="translate(40,57)"/>
<path d="M0 0 C0.66 0 1.32 0 2 0 C2 0.66 2 1.32 2 2 C2.99 2.33 3.98 2.66 5 3 C5 3.66 5 4.32 5 5 C0.545 5.495 0.545 5.495 -4 6 C-2.7260411 3.96166576 -1.38938077 1.96147874 0 0 Z " fill="#BF8D38" transform="translate(29,50)"/>
<path d="M0 0 C2.97 0.495 2.97 0.495 6 1 C6 4 6 4 4 6.1875 C3.34 6.785625 2.68 7.38375 2 8 C2.33 6.02 2.66 4.04 3 2 C0.525 3.485 0.525 3.485 -2 5 C-1.34 3.35 -0.68 1.7 0 0 Z " fill="#D42C18" transform="translate(57,8)"/>
<path d="M0 0 C2.12046792 3.53411321 2.53199289 6.94393835 3 11 C1.35 11 -0.3 11 -2 11 C-2.33 10.34 -2.66 9.68 -3 9 C-1.68 9 -0.36 9 1 9 C0.67 8.34 0.34 7.68 0 7 C-0.04022391 4.6670134 -0.04320247 2.33293334 0 0 Z " fill="#FAC856" transform="translate(95,84)"/>
<path d="M0 0 C1.09054688 0.02320312 2.18109375 0.04640625 3.3046875 0.0703125 C4.40039062 0.08835937 5.49609375 0.10640625 6.625 0.125 C7.46804687 0.14820312 8.31109375 0.17140625 9.1796875 0.1953125 C9.1796875 0.8553125 9.1796875 1.5153125 9.1796875 2.1953125 C4.15842824 2.97447342 0.20264754 3.32547851 -4.8203125 2.1953125 C-2.8203125 0.1953125 -2.8203125 0.1953125 0 0 Z " fill="#DBAC4E" transform="translate(86.8203125,90.8046875)"/>
<path d="M0 0 C4 2 8 4 12 6 C10.02 6.99 10.02 6.99 8 8 C6.66102417 7.04956626 5.32894573 6.08940853 4 5.125 C3.2575 4.59132813 2.515 4.05765625 1.75 3.5078125 C1.1725 3.01023438 0.595 2.51265625 0 2 C0 1.34 0 0.68 0 0 Z " fill="#AC6C11" transform="translate(42,52)"/>
<path d="M0 0 C5.26053037 -0.31563182 8.44573816 0.33409063 13 3 C13 3.66 13 4.32 13 5 C10.02277453 4.29666462 7.14743457 3.41751463 4.25 2.4375 C3.45078125 2.16808594 2.6515625 1.89867188 1.828125 1.62109375 C1.22484375 1.41613281 0.6215625 1.21117188 0 1 C0 0.67 0 0.34 0 0 Z " fill="#BD8C2F" transform="translate(46,20)"/>
<path d="M0 0 C0.33 0.99 0.66 1.98 1 3 C3.64 3 6.28 3 9 3 C9 3.66 9 4.32 9 5 C4.71 5 0.42 5 -4 5 C-2.68 3.35 -1.36 1.7 0 0 Z " fill="#957735" transform="translate(48,81)"/>
<path d="M0 0 C1.32 0.33 2.64 0.66 4 1 C0.04 4.465 0.04 4.465 -4 8 C-4.66 7.34 -5.32 6.68 -6 6 C-5.09972412 4.96468274 -4.17906965 3.94705835 -3.25 2.9375 C-2.48429687 2.08478516 -2.48429687 2.08478516 -1.703125 1.21484375 C-1.14109375 0.81394531 -0.5790625 0.41304687 0 0 Z " fill="#DFAF4D" transform="translate(32,9)"/>
<path d="M0 0 C3.96 0 7.92 0 12 0 C11.34 1.32 10.68 2.64 10 4 C9.67 3.01 9.34 2.02 9 1 C7.700625 1.12375 6.40125 1.2475 5.0625 1.375 C4.33160156 1.44460938 3.60070313 1.51421875 2.84765625 1.5859375 C1.93306641 1.79089844 1.93306641 1.79089844 1 2 C0.67 2.66 0.34 3.32 0 4 C0 2.68 0 1.36 0 0 Z " fill="#E1321B" transform="translate(44,7)"/>
<path d="M0 0 C-1 3 -1 3 -2.84765625 4.16796875 C-3.57855469 4.50441406 -4.30945313 4.84085937 -5.0625 5.1875 C-5.79597656 5.53167969 -6.52945312 5.87585938 -7.28515625 6.23046875 C-8.13400391 6.61138672 -8.13400391 6.61138672 -9 7 C-7.21625256 3.00308443 -4.72261474 0 0 0 Z " fill="#E5B04A" transform="translate(15,60)"/>
<path d="M0 0 C1.32 0 2.64 0 4 0 C4 2.31 4 4.62 4 7 C3.34 7 2.68 7 2 7 C2 6.01 2 5.02 2 4 C1.34 4 0.68 4 0 4 C0 2.68 0 1.36 0 0 Z " fill="#B31A12" transform="translate(44,11)"/>
<path d="M0 0 C1.32 0.33 2.64 0.66 4 1 C4 1.66 4 2.32 4 3 C3.01 3 2.02 3 1 3 C1 5.97 1 8.94 1 12 C0.67 12 0.34 12 0 12 C0 8.04 0 4.08 0 0 Z " fill="#CE9436" transform="translate(6,77)"/>
<path d="M0 0 C3.31012244 3.31012244 3.50351065 4.53159589 4 9 C3.01 9.33 2.02 9.66 1 10 C0.67 6.7 0.34 3.4 0 0 Z " fill="#FAD676" transform="translate(61,29)"/>
<path d="M0 0 C0.33 0.99 0.66 1.98 1 3 C-3.75 7.875 -3.75 7.875 -6 9 C-4.68775452 5.06326356 -3.08089673 2.77280706 0 0 Z " fill="#5B3005" transform="translate(40,22)"/>
<path d="M0 0 C0.66 0.33 1.32 0.66 2 1 C1.34 2.32 0.68 3.64 0 5 C-1.32 5 -2.64 5 -4 5 C-3 2 -3 2 0 0 Z " fill="#EDBA4F" transform="translate(13,55)"/>
<path d="M0 0 C2.62187494 1.04874998 3.79371361 1.64931313 5.25 4.125 C5.4975 4.74375 5.745 5.3625 6 6 C5.01 6 4.02 6 3 6 C0 2.66666667 0 2.66666667 0 0 Z " fill="#F6D982" transform="translate(70,10)"/>
</svg>
