<?xml version="1.0" encoding="UTF-8"?>
<!-- Generator: https://ezgif.com/webp-to-svg -->
<svg version="1.1" xmlns="http://www.w3.org/2000/svg" width="50" height="50">
<path d="M0 0 C3.77 1.88 4.79 2.69 7 6 C7 5.01 7 4.02 7 3 C11.64 5.04 13.79 8.14 16.75 12.12 C17.26 12.76 17.76 13.4 18.29 14.06 C21.89 18.91 22.56 21.99 22 28 C23.32 28.33 24.64 28.66 26 29 C25.72 30.31 25.42 31.63 25.12 32.94 C24.96 33.67 24.8 34.4 24.63 35.15 C24 37 24 37 22 38 C21.67 38.99 21.34 39.98 21 41 C20.01 40.67 19.02 40.34 18 40 C17.6 38.79 17.6 38.79 17.2 37.55 C16.22 34.72 16.22 34.72 13.18 33.86 C11.54 33.52 11.54 33.52 9.88 33.19 C8.78 32.95 7.68 32.72 6.55 32.48 C5.71 32.32 4.87 32.16 4 32 C4 31.34 4 30.68 4 30 C3.34 30 2.68 30 2 30 C2.12 31.91 2.12 31.91 3 34 C5.27 35.65 5.27 35.65 8 37 C11.54 38.99 14.23 41.02 17 44 C16.34 45.32 15.68 46.64 15 48 C13.12 47.69 13.12 47.69 11 47 C10.34 46.01 9.68 45.02 9 44 C6.79 43.64 6.79 43.64 4.38 43.81 C3.15 43.85 3.15 43.85 1.9 43.89 C0.96 43.95 0.96 43.95 0 44 C0 42 0 42 1.5 40.38 C2 39.92 2.49 39.47 3 39 C0.69 39 -1.62 39 -4 39 C-4 37.02 -4 35.04 -4 33 C-5.27 36.8 -4.59 38.43 -3.17 42.06 C-1.17 45.39 1.52 46.42 5 48 C5 48.66 5 49.32 5 50 C0.4 49.89 -3.66 49.74 -7.38 46.81 C-10 44 -11.52 41.53 -13 38 C-14.32 38.66 -15.64 39.32 -17 40 C-18.86 34.42 -18.68 29.85 -16.12 24.62 C-14.89 22.32 -13.87 20.87 -12 19 C-12.33 18.01 -12.66 17.02 -13 16 C-7.63 12.13 -3.63 10.36 3 10 C1.52 5.05 1.52 5.05 0 0 Z M8 7 C9 9 9 9 9 9 Z M14 22 C14 22.66 14 23.32 14 24 C14.66 23.67 15.32 23.34 16 23 C15.34 22.67 14.68 22.34 14 22 Z M-4 29 C-3 31 -3 31 -3 31 Z " fill="#FEFFFF" transform="translate(21,0)"/>
</svg>
