<?xml version="1.0" encoding="UTF-8"?>
<svg version="1.1" xmlns="http://www.w3.org/2000/svg" width="50" height="50">
<path d="M0 0 C5.32134088 4.71349233 8.88255127 9.90714121 10 17 C10.27484811 24.68379714 8.36732039 31.12719272 3.30859375 36.9453125 C-2.05685976 42.12649791 -7.85983628 44.80394069 -15.35546875 45.08984375 C-22.8701167 44.58541816 -28.64375257 41.75214614 -33.8125 36.3125 C-38.36872614 30.67195459 -40.37170026 25.20757098 -39.9375 17.9375 C-38.75728056 9.99560667 -35.51042402 4.54033914 -29.26953125 -0.51953125 C-19.99417979 -6.57006172 -9.02973011 -6.3631092 0 0 Z M-34 15 C-30 16 -30 16 -30 16 Z M-35 16 C-34 19 -34 19 -34 19 Z M-24 16 C-24 18.64 -24 21.28 -24 24 C-23.34 24 -22.68 24 -22 24 C-22 21.36 -22 18.72 -22 16 C-22.66 16 -23.32 16 -24 16 Z M-16 16 C-15.01 16.495 -15.01 16.495 -14 17 C-13.67 17.66 -13.34 18.32 -13 19 C-13 18.01 -13 17.02 -13 16 C-13.99 16 -14.98 16 -16 16 Z M-8 16 C-7.67 18.64 -7.34 21.28 -7 24 C-6.67 24 -6.34 24 -6 24 C-6 21.36 -6 18.72 -6 16 C-6.66 16 -7.32 16 -8 16 Z M-1 16 C-1 18.64 -1 21.28 -1 24 C-0.34 23.67 0.32 23.34 1 23 C0.67 22.01 0.34 21.02 0 20 C1.65 20 3.3 20 5 20 C5 19.67 5 19.34 5 19 C3.35 19 1.7 19 0 19 C0.33 18.01 0.66 17.02 1 16 C0.34 16 -0.32 16 -1 16 Z M-17 18 C-16 20 -16 20 -16 20 Z M-13 19 C-13 19.99 -13 20.98 -13 22 C-14.32 22 -15.64 22 -17 22 C-17.33 21.34 -17.66 20.68 -18 20 C-18.33 21.32 -18.66 22.64 -19 24 C-16.36 24 -13.72 24 -11 24 C-11.33 22.35 -11.66 20.7 -12 19 C-12.33 19 -12.66 19 -13 19 Z M-29 21 C-29.33 21.99 -29.66 22.98 -30 24 C-29.34 24 -28.68 24 -28 24 C-28.33 23.01 -28.66 22.02 -29 21 Z M-34 24 C-30 25 -30 25 -30 25 Z " fill="#FEFFFF" transform="translate(40,5)"/>
</svg>
