<?xml version="1.0" encoding="UTF-8"?>
<!-- Generator: https://ezgif.com/webp-to-svg -->
<svg version="1.1" xmlns="http://www.w3.org/2000/svg" width="50" height="50">
<path d="M0 0 C11.22 0 22.44 0 34 0 C34.09 5.28 34.17 10.57 34.22 15.85 C34.24 17.65 34.27 19.44 34.3 21.24 C34.35 23.83 34.37 26.41 34.39 29 C34.41 29.8 34.43 30.59 34.45 31.41 C34.46 37.09 33.27 40.34 30 45 C24.53 49.24 19.9 50.72 13 50 C7.77 48.05 4.07 44.97 0.87 40.38 C-0.46 36.75 -0.24 33.12 -0.2 29.3 C-0.19 28.46 -0.19 27.62 -0.19 26.76 C-0.18 24.09 -0.15 21.42 -0.12 18.75 C-0.11 16.94 -0.11 15.13 -0.1 13.31 C-0.08 8.87 -0.04 4.44 0 0 Z " fill="#F6F1F2" transform="translate(8,0)"/>
<path d="M0 0 C11.22 0 22.44 0 34 0 C34.09 5.28 34.17 10.57 34.22 15.85 C34.24 17.65 34.27 19.44 34.3 21.24 C34.35 23.83 34.37 26.41 34.39 29 C34.41 29.8 34.43 30.59 34.45 31.41 C34.46 37.09 33.27 40.34 30 45 C24.53 49.24 19.9 50.72 13 50 C7.77 48.05 4.07 44.97 0.87 40.38 C-0.46 36.75 -0.24 33.12 -0.2 29.3 C-0.19 28.46 -0.19 27.62 -0.19 26.76 C-0.18 24.09 -0.15 21.42 -0.12 18.75 C-0.11 16.94 -0.11 15.13 -0.1 13.31 C-0.08 8.87 -0.04 4.44 0 0 Z M2 13 C1.9 16.98 1.79 20.96 1.69 25.06 C1.64 26.3 1.6 27.55 1.55 28.82 C1.46 35.95 2.05 39.76 7 45 C11.38 47.95 14.77 48.56 20 48 C24.99 46.04 28.74 43.63 31.1 38.71 C32.07 35.79 32.23 33.55 32.2 30.48 C32.19 29.56 32.19 28.64 32.18 27.69 C32.16 26.53 32.14 25.38 32.12 24.19 C32.08 20.5 32.04 16.8 32 13 C22.1 13 12.2 13 2 13 Z " fill="#19191A" transform="translate(8,0)"/>
<path d="M0 0 C4.62 0 9.24 0 14 0 C13.01 0.99 12.02 1.98 11 3 C10.28 5.61 10.28 5.61 10 8 C11.98 8 13.96 8 16 8 C16.66 6.35 17.32 4.7 18 3 C18.33 3 18.66 3 19 3 C19 8.28 19 13.56 19 19 C18.01 18.01 17.02 17.02 16 16 C12.89 15.27 12.89 15.27 10 15 C10.2 17.4 10.2 17.4 11 20 C12.32 20.99 13.64 21.98 15 23 C9.72 23 4.44 23 -1 23 C0.32 22.01 1.64 21.02 3 20 C3.8 17.4 3.8 17.4 4 15 C1.36 15.66 -1.28 16.32 -4 17 C-4 13.04 -4 9.08 -4 5 C-3.01 5.5 -3.01 5.5 -2 6 C-2 6.66 -2 7.32 -2 8 C-0.02 8 1.96 8 4 8 C3.45 3.92 3.09 3.09 0 0 Z " fill="#CB0D1C" transform="translate(18,16)"/>
<path d="M0 0 C9.9 0 19.8 0 30 0 C30 0.33 30 0.66 30 1 C20.43 1 10.86 1 1 1 C1.33 8.26 1.66 15.52 2 23 C3.42 21.81 3.42 21.81 3.1 18.4 C3.09 16.91 3.08 15.43 3.06 13.94 C3.06 13.18 3.05 12.42 3.05 11.64 C3.04 9.76 3.02 7.88 3 6 C5 8 5 8 5.2 10.6 C5.17 11.6 5.15 12.6 5.12 13.62 C5.11 14.63 5.09 15.63 5.07 16.66 C5.04 17.82 5.04 17.82 5 19 C5.33 18.67 5.66 18.34 6 18 C8 17.96 10 17.96 12 18 C12.19 20.38 12.19 20.38 12 23 C11.01 23.66 10.02 24.32 9 25 C13.95 25 18.9 25 24 25 C24 25.66 24 26.32 24 27 C23.34 27.33 22.68 27.66 22 28 C22.66 29.32 23.32 30.64 24 32 C19.45 34.66 16.27 35.65 11 35 C6.63 33.37 3.34 31.06 0.79 27.06 C-1.01 22.36 -0.39 17.08 -0.25 12.12 C-0.17 8.12 -0.09 4.12 0 0 Z " fill="#D4C9CB" transform="translate(10,13)"/>
<path d="M0 0 C0.66 0 1.32 0 2 0 C2.1 5.28 2.17 10.57 2.22 15.85 C2.24 17.65 2.27 19.44 2.3 21.24 C2.35 23.83 2.37 26.41 2.39 29 C2.41 29.8 2.43 30.59 2.45 31.41 C2.46 37.09 1.27 40.34 -2 45 C-7.47 49.24 -12.1 50.72 -19 50 C-24.22 48.05 -28.14 44.96 -31.13 40.21 C-32.24 37.4 -32.23 35.15 -32.2 32.14 C-32.19 31.03 -32.18 29.91 -32.18 28.76 C-32.16 27.6 -32.14 26.44 -32.12 25.25 C-32.12 24.08 -32.11 22.9 -32.1 21.69 C-32.07 18.79 -32.04 15.9 -32 13 C-31.67 13 -31.34 13 -31 13 C-30.98 13.9 -30.98 13.9 -30.96 14.82 C-30.88 17.57 -30.78 20.31 -30.69 23.06 C-30.66 24.01 -30.64 24.95 -30.62 25.92 C-30.34 33.18 -29.4 38.24 -24.5 43.88 C-20.47 47.3 -17.16 47.35 -12 47 C-7.35 45.12 -4.09 43.34 -1.95 38.74 C-0.95 35.85 -0.69 33.53 -0.59 30.48 C-0.55 29.56 -0.51 28.64 -0.48 27.69 C-0.44 26.53 -0.41 25.38 -0.38 24.19 C-0.19 18.65 -0.19 18.65 0 13 C-8.58 13 -17.16 13 -26 13 C-25.34 12.34 -24.68 11.68 -24 11 C-21.18 11.02 -21.18 11.02 -17.88 11.38 C-16.78 11.49 -15.68 11.6 -14.55 11.71 C-13.29 11.85 -13.29 11.85 -12 12 C-12 9.69 -12 7.38 -12 5 C-11.67 5 -11.34 5 -11 5 C-11 7.31 -11 9.62 -11 12 C-9.35 12 -7.7 12 -6 12 C-5.67 11.34 -5.34 10.68 -5 10 C-5 10.66 -5 11.32 -5 12 C-3.35 12 -1.7 12 0 12 C0 8.04 0 4.08 0 0 Z " fill="#0A0A0B" transform="translate(40,0)"/>
<path d="M0 0 C0.33 0 0.66 0 1 0 C1 1.65 1 3.3 1 5 C2.98 5 4.96 5 7 5 C7.66 3.35 8.32 1.7 9 0 C9.33 0 9.66 0 10 0 C10 5.28 10 10.56 10 16 C9.01 15.01 8.02 14.02 7 13 C3.89 12.27 3.89 12.27 1 12 C1 13.65 1 15.3 1 17 C0.34 16.34 -0.32 15.68 -1 15 C-1.99 15.33 -2.98 15.66 -4 16 C-4 14.02 -4 12.04 -4 10 C-5.32 10 -6.64 10 -8 10 C-8 9.01 -8 8.02 -8 7 C-6.68 7 -5.36 7 -4 7 C-4 5.68 -4 4.36 -4 3 C-2.68 3 -1.36 3 0 3 C0 2.01 0 1.02 0 0 Z " fill="#C80006" transform="translate(27,19)"/>
<path d="M0 0 C3.63 0 7.26 0 11 0 C11 1.65 11 3.3 11 5 C10.34 5 9.68 5 9 5 C9 5.66 9 6.32 9 7 C9.66 7 10.32 7 11 7 C11 7.99 11 8.98 11 10 C7.37 10 3.74 10 0 10 C0 8.35 0 6.7 0 5 C0.33 5.99 0.66 6.98 1 8 C1.66 8 2.32 8 3 8 C3 6.68 3 5.36 3 4 C2.01 4 1.02 4 0 4 C0 2.68 0 1.36 0 0 Z " fill="#BFBFBF" transform="translate(23,2)"/>
<path d="M0 0 C1.32 0 2.64 0 4 0 C4 1.32 4 2.64 4 4 C5.32 4 6.64 4 8 4 C8 4.99 8 5.98 8 7 C6.68 7 5.36 7 4 7 C3.67 8.65 3.34 10.3 3 12 C2.01 12.33 1.02 12.66 0 13 C0 11.02 0 9.04 0 7 C-1.32 7 -2.64 7 -4 7 C-4 6.01 -4 5.02 -4 4 C-2.68 4 -1.36 4 0 4 C0 2.68 0 1.36 0 0 Z " fill="#F2C7C9" transform="translate(23,22)"/>
<path d="M0 0 C1.65 0 3.3 0 5 0 C5 3.63 5 7.26 5 11 C3.35 11 1.7 11 0 11 C0 7.37 0 3.74 0 0 Z " fill="#BABABA" transform="translate(16,1)"/>
<path d="M0 0 C3.96 0 7.92 0 12 0 C12.33 1.32 12.66 2.64 13 4 C11.43 5.57 9.86 5.17 7.69 5.19 C6.91 5.2 6.13 5.22 5.32 5.23 C2.8 4.98 1.18 4.26 -1 3 C-0.67 2.01 -0.34 1.02 0 0 Z " fill="#F5F5F5" transform="translate(19,42)"/>
<path d="M0 0 C1.65 0 3.3 0 5 0 C5 3.3 5 6.6 5 10 C3.35 10 1.7 10 0 10 C0 6.7 0 3.4 0 0 Z " fill="#C2C2C2" transform="translate(35,2)"/>
<path d="M0 0 C0.99 0.5 0.99 0.5 2 1 C2 1.66 2 2.32 2 3 C3.98 3 5.96 3 8 3 C6.02 3.99 6.02 3.99 4 5 C4 5.99 4 6.98 4 8 C5.32 8.66 6.64 9.32 8 10 C5.36 10.66 2.72 11.32 0 12 C0 8.04 0 4.08 0 0 Z " fill="#BF1C26" transform="translate(14,21)"/>
<path d="M0 0 C0.33 0 0.66 0 1 0 C1 5.28 1 10.56 1 16 C-1 14 -1 14 -1.12 11.38 C-1.08 10.59 -1.04 9.81 -1 9 C-3.31 8.01 -5.62 7.02 -8 6 C-8 5.67 -8 5.34 -8 5 C-6.02 5 -4.04 5 -2 5 C-1.34 3.35 -0.68 1.7 0 0 Z " fill="#DA535B" transform="translate(36,19)"/>
<path d="M0 0 C1.65 0 3.3 0 5 0 C5.12 7.75 5.12 7.75 4 10 C3.01 9.67 2.02 9.34 1 9 C-0.48 6.04 -0.06 3.26 0 0 Z " fill="#CFCFCF" transform="translate(10,2)"/>
<path d="M0 0 C1.32 0 2.64 0 4 0 C4 3.3 4 6.6 4 10 C2.68 10 1.36 10 0 10 C0 8.35 0 6.7 0 5 C0.33 5.99 0.66 6.98 1 8 C1.66 8 2.32 8 3 8 C3 6.68 3 5.36 3 4 C2.01 4 1.02 4 0 4 C0 2.68 0 1.36 0 0 Z " fill="#E9E9E9" transform="translate(23,2)"/>
<path d="M0 0 C0.66 0 1.32 0 2 0 C2 1.32 2 2.64 2 4 C2.99 4 3.98 4 5 4 C5 5.32 5 6.64 5 8 C4.34 8 3.68 8 3 8 C2.67 8.66 2.34 9.32 2 10 C1.34 10 0.68 10 0 10 C0 6.7 0 3.4 0 0 Z " fill="#585858" transform="translate(21,2)"/>
<path d="M0 0 C0.99 0.33 1.98 0.66 3 1 C3 2.65 3 4.3 3 6 C1.02 6.99 1.02 6.99 -1 8 C-1.04 5.67 -1.04 3.33 -1 1 C-0.67 0.67 -0.34 0.34 0 0 Z " fill="#D1989C" transform="translate(24,27)"/>
<path d="M0 0 C1.19 1.69 1.19 1.69 2 4 C0.62 6.75 0.62 6.75 -1 9 C-2.32 8.67 -3.64 8.34 -5 8 C-4.32 7.41 -4.32 7.41 -3.62 6.81 C-1.72 4.69 -0.94 2.67 0 0 Z " fill="#292A2B" transform="translate(39,36)"/>
<path d="M0 0 C1.32 0.33 2.64 0.66 4 1 C4 2.65 4 4.3 4 6 C1.36 5.34 -1.28 4.68 -4 4 C-2.68 3.34 -1.36 2.68 0 2 C0 1.34 0 0.68 0 0 Z " fill="#BC212F" transform="translate(32,27)"/>
<path d="M0 0 C0.99 0.5 0.99 0.5 2 1 C2 1.66 2 2.32 2 3 C3.98 3 5.96 3 8 3 C4.38 6 4.38 6 1 6 C0.67 4.02 0.34 2.04 0 0 Z " fill="#DA2534" transform="translate(14,21)"/>
</svg>
