<?xml version="1.0" encoding="UTF-8"?>
<!-- Generator: https://ezgif.com/webp-to-svg -->
<svg version="1.1" xmlns="http://www.w3.org/2000/svg" width="50" height="50">
<path d="M0 0 C0.99 0 1.98 0 3 0 C4.17 3.1 5.34 6.21 6.5 9.31 C6.83 10.19 7.17 11.07 7.51 11.98 C7.83 12.83 8.14 13.68 8.47 14.55 C8.76 15.33 9.06 16.11 9.36 16.92 C10 19 10 19 10 22 C12.87 19.28 12.87 19.28 15 16 C15.66 16 16.32 16 17 16 C18.02 17.66 19.02 19.32 20 21 C20.66 21.33 21.32 21.66 22 22 C22.23 20.78 22.45 19.57 22.69 18.31 C24.08 11.96 26.56 6.02 29 0 C32.24 0.6 32.92 0.91 35.25 3.5 C37.45 7.91 37.85 11.16 37 16 C35.89 18.88 34.56 21.32 33 24 C33.99 24 34.98 24 36 24 C35.88 26.75 35.88 26.75 35 30 C31.94 32.37 31.94 32.37 29 34 C29.33 34.33 29.66 34.66 30 35 C30.23 36.51 30.41 38.04 30.56 39.56 C30.65 40.39 30.73 41.22 30.82 42.07 C30.88 42.7 30.94 43.34 31 44 C30.01 44 29.02 44 28 44 C27.51 40.53 27.51 40.53 27 37 C23.63 39.24 22.42 41.21 20.31 44.62 C19.69 45.63 19.07 46.63 18.43 47.66 C17.96 48.43 17.48 49.21 17 50 C14 49 14 49 12.5 46.53 C11.5 44.51 10.5 42.49 9.5 40.47 C8.18 37.7 8.18 37.7 5 37 C4.67 39.31 4.34 41.62 4 44 C3.01 44 2.02 44 1 44 C1.11 43.06 1.11 43.06 1.22 42.1 C1.36 40.88 1.36 40.88 1.5 39.62 C1.59 38.81 1.69 38 1.78 37.16 C2.03 35.03 2.03 35.03 2 33 C0.79 32.38 0.79 32.38 -0.44 31.75 C-3 30 -3 30 -3.81 26.81 C-3.91 25.42 -3.91 25.42 -4 24 C-3.01 24 -2.02 24 -1 24 C-1.66 22.87 -2.32 21.73 -3 20.56 C-5.26 16.01 -5.95 12.02 -5 7 C-3.74 4.3 -2.12 2.12 0 0 Z M-1 24 C-0.65 25.98 -0.65 25.98 0 28 C0.66 28.33 1.32 28.66 2 29 C1.34 27.35 0.68 25.7 0 24 C-0.33 24 -0.66 24 -1 24 Z M32 24 C31.34 25.65 30.68 27.3 30 29 C30.99 28.34 31.98 27.68 33 27 C32.67 26.01 32.34 25.02 32 24 Z M10 37 C14 38 14 38 14 38 Z M18 37 C22 38 22 38 22 38 Z " fill="#FEFF02" transform="translate(9,0)"/>
</svg>
