<?xml version="1.0" encoding="UTF-8"?>
<!-- Generator: https://ezgif.com/webp-to-svg -->
<svg version="1.1" xmlns="http://www.w3.org/2000/svg" width="50" height="50">
<path d="M0 0 C4.75 -0.46 9.27 -0.73 14 0 C16.64 2.3 17.87 4.71 19 8 C19.43 7.42 19.87 6.84 20.31 6.25 C20.87 5.51 21.43 4.77 22 4 C22.38 3.3 22.76 2.6 23.16 1.88 C25 0 25 0 28.36 -0.39 C29.62 -0.34 30.88 -0.3 32.19 -0.25 C34.1 -0.2 34.1 -0.2 36.04 -0.14 C37.02 -0.09 37.99 -0.05 39 0 C38.55 1.42 38.09 2.83 37.62 4.25 C37.24 5.43 37.24 5.43 36.85 6.64 C36.05 8.87 35.1 10.91 34 13 C34.66 13.95 35.32 14.9 36 15.88 C38 19 38 19 38 21 C38.61 20.95 39.23 20.91 39.86 20.86 C46.52 20.56 46.52 20.56 49.06 22.88 C50 25 50 25 50 27 C37.56 28.23 37.56 28.23 33.73 25.22 C32.27 23.2 31.06 21.25 30 19 C29.8 19.58 29.6 20.16 29.4 20.75 C28.18 23.43 27.23 25.05 25 27 C20.27 27.73 15.75 27.46 11 27 C11.8 21.32 11.8 21.32 13.62 18.44 C15.23 16.1 15.23 16.1 14.88 13.5 C13.49 9.45 13.49 9.45 11 6 C8.01 5.27 5.07 5.07 2 5 C1.34 3.35 0.68 1.7 0 0 Z M29 5 C27.61 6.96 26.27 8.96 25 11 C25.33 11.66 25.66 12.32 26 13 C26.45 12.2 26.91 11.39 27.38 10.56 C29 8 29 8 31 7 C31 6.34 31 5.68 31 5 C30.34 5 29.68 5 29 5 Z M24 13 C23.11 14.31 22.26 15.65 21.44 17 C20.98 17.74 20.53 18.48 20.06 19.25 C19.71 19.83 19.36 20.41 19 21 C20.99 20.21 20.99 20.21 23 19 C24.29 15.96 24.29 15.96 25 13 C24.67 13 24.34 13 24 13 Z " fill="#FEFEFE" transform="translate(0,11)"/>
<path d="M0 0 C0.66 0 1.32 0 2 0 C3.51 2.12 3.51 2.12 5.12 4.88 C5.66 5.78 6.2 6.68 6.76 7.62 C8 10 8 10 8 12 C4.69 11.81 4.69 11.81 1 11 C-1 8.75 -1 8.75 -2 6 C-1.6 1.6 -1.6 1.6 0 0 Z " fill="#FEFEFE" transform="translate(38,19)"/>
<path d="M0 0 C2.75 -0.38 2.75 -0.38 6 0 C8.44 2.75 8.44 2.75 10 6 C9.79 8.47 9.1 9.8 8 12 C7.34 12 6.68 12 6 12 C4.49 9.88 4.49 9.88 2.88 7.12 C2.34 6.22 1.8 5.32 1.24 4.38 C0 2 0 2 0 0 Z " fill="#FEFEFE" transform="translate(4,18)"/>
</svg>
