<?xml version="1.0" encoding="UTF-8"?>
<!-- Generator: https://ezgif.com/webp-to-svg -->
<svg version="1.1" xmlns="http://www.w3.org/2000/svg" width="50" height="50">
<path d="M0 0 C3.16 1.39 5.24 3.02 7.62 5.5 C8.22 6.11 8.81 6.72 9.41 7.34 C9.94 7.89 10.46 8.44 11 9 C11.66 9.66 12.32 10.32 13 11 C13.76 10.2 14.53 9.39 15.31 8.56 C18 6 18 6 21 5 C21.43 10.88 21.46 16.11 18.55 21.37 C15.43 24.65 11.31 25.09 7 26 C5.35 23.03 3.7 20.06 2 17 C1.34 17 0.68 17 0 17 C-1.65 19.97 -3.3 22.94 -5 26 C-13.93 24.12 -13.93 24.12 -16.55 21.37 C-19.46 16.11 -19.43 10.88 -19 5 C-15.67 6.55 -13.51 8.31 -11 11 C-10.3 10.3 -9.6 9.6 -8.88 8.88 C-5.92 5.92 -2.96 2.96 0 0 Z " fill="#F9293F" transform="translate(24,13)"/>
<path d="M0 0 C0.73 10.15 0.55 16.72 -6 25 C-14.65 23.42 -14.65 23.42 -17.55 20.37 C-20.46 15.11 -20.43 9.88 -20 4 C-16.67 5.55 -14.51 7.31 -12 10 C-11.28 9.28 -10.56 8.56 -9.81 7.81 C-8.42 6.42 -8.42 6.42 -7 5 C-6.11 4.07 -5.23 3.14 -4.31 2.19 C-2 0 -2 0 0 0 Z " fill="#20ABF7" transform="translate(25,14)"/>
<path d="M0 0 C0.66 0 1.32 0 2 0 C2.33 0.99 2.66 1.98 3 3 C5.02 3.73 5.02 3.73 7 4 C7 4.66 7 5.32 7 6 C6.01 6.5 6.01 6.5 5 7 C5 8.65 5 10.3 5 12 C4.24 11.81 3.47 11.63 2.69 11.44 C-0.09 10.77 -0.09 10.77 -3 12 C-3 10.35 -3 8.7 -3 7 C-3.66 6.67 -4.32 6.34 -5 6 C-5 5.34 -5 4.68 -5 4 C-4.04 3.85 -4.04 3.85 -3.06 3.69 C-2.38 3.46 -1.7 3.23 -1 3 C-0.67 2.01 -0.34 1.02 0 0 Z " fill="#FFFFFF" transform="translate(24,1)"/>
<path d="M0 0 C2.88 0.31 2.88 0.31 6 1 C6.66 1.99 7.32 2.98 8 4 C8.99 4.33 9.98 4.66 11 5 C11 5.66 11 6.32 11 7 C9.68 7.33 8.36 7.66 7 8 C7 8.66 7 9.32 7 10 C6.34 10 5.68 10 5 10 C1.98 6.8 0.5 4.38 0 0 Z " fill="#FFFFFF" transform="translate(11,39)"/>
<path d="M0 0 C0.33 0.99 0.66 1.98 1 3 C0.34 4.32 -0.32 5.64 -1 7 C-3.97 7 -6.94 7 -10 7 C-10 6.34 -10 5.68 -10 5 C-6.7 3.35 -3.4 1.7 0 0 Z " fill="#FFFFFF" transform="translate(37,39)"/>
<path d="M0 0 C2.31 1.98 4.62 3.96 7 6 C6.34 7.32 5.68 8.64 5 10 C4.34 10 3.68 10 3 10 C0.97 6.27 0 4.33 0 0 Z " fill="#127EC8" transform="translate(7,19)"/>
<path d="M0 0 C0.69 1.62 0.69 1.62 1 4 C-0.44 7.25 -0.44 7.25 -2 10 C-2.66 10 -3.32 10 -4 10 C-4.81 7.81 -4.81 7.81 -5 5 C-2.56 2.19 -2.56 2.19 0 0 Z " fill="#AC1B21" transform="translate(42,19)"/>
<path d="M0 0 C1.32 0.66 2.64 1.32 4 2 C3.67 2.99 3.34 3.98 3 5 C2.01 5.33 1.02 5.66 0 6 C-0.66 4.68 -1.32 3.36 -2 2 C-1.34 1.34 -0.68 0.68 0 0 Z " fill="#FFFFFF" transform="translate(42,12)"/>
<path d="M0 0 C1.32 0.66 2.64 1.32 4 2 C3.34 3.32 2.68 4.64 2 6 C0.68 5.34 -0.64 4.68 -2 4 C-1.34 2.68 -0.68 1.36 0 0 Z " fill="#FFFFFF" transform="translate(6,12)"/>
</svg>
