<?xml version="1.0" encoding="UTF-8"?>
<!-- Generator: https://ezgif.com/webp-to-svg -->
<svg version="1.1" xmlns="http://www.w3.org/2000/svg" width="50" height="50">
<path d="M0 0 C1.11 -0.01 2.22 -0.02 3.37 -0.02 C20.77 0.02 20.77 0.02 25 4.25 C25.25 6.78 25.37 9.16 25.38 11.69 C25.4 12.37 25.42 13.05 25.45 13.75 C25.46 15.75 25.46 15.75 25 19.25 C23.09 20.84 23.09 20.84 21 22.25 C19.87 25.08 19.87 25.08 19.12 28.31 C16.98 35.85 13.95 41.98 8.69 47.81 C4.87 49.86 1.32 50.45 -3 50.25 C-10.33 47.15 -14.61 40.15 -18 33.25 C-18.87 30.38 -19.58 27.54 -20.16 24.6 C-20.79 22.09 -20.79 22.09 -23.06 20.91 C-25 19.25 -25 19.25 -25.46 15.75 C-25.45 14.39 -25.42 13.04 -25.38 11.69 C-25.37 11 -25.37 10.32 -25.37 9.61 C-25.28 4.53 -25.28 4.53 -23 2.25 C-15.55 -0.16 -7.74 -0.05 0 0 Z " fill="#0F1518" transform="translate(25,-0.25)"/>
<path d="M0 0 C1.11 -0.01 2.22 -0.02 3.37 -0.02 C20.77 0.02 20.77 0.02 25 4.25 C25.25 6.78 25.37 9.16 25.38 11.69 C25.4 12.37 25.42 13.05 25.45 13.75 C25.46 15.75 25.46 15.75 25 19.25 C23.09 20.84 23.09 20.84 21 22.25 C19.87 25.08 19.87 25.08 19.12 28.31 C16.98 35.85 13.95 41.98 8.69 47.81 C4.87 49.86 1.32 50.45 -3 50.25 C-10.33 47.15 -14.61 40.15 -18 33.25 C-18.87 30.38 -19.58 27.54 -20.16 24.6 C-20.79 22.09 -20.79 22.09 -23.06 20.91 C-25 19.25 -25 19.25 -25.46 15.75 C-25.45 14.39 -25.42 13.04 -25.38 11.69 C-25.37 11 -25.37 10.32 -25.37 9.61 C-25.28 4.53 -25.28 4.53 -23 2.25 C-15.55 -0.16 -7.74 -0.05 0 0 Z M-23 5.25 C-23.07 7.44 -23.08 9.63 -23.06 11.81 C-23.05 13.01 -23.04 14.21 -23.04 15.44 C-23.02 16.37 -23.01 17.3 -23 18.25 C-21.68 18.58 -20.36 18.91 -19 19.25 C-18.93 19.94 -18.85 20.63 -18.77 21.34 C-17.74 28.73 -15.42 33.34 -11 39.25 C-10.23 40.64 -10.23 40.64 -9.44 42.06 C-6.97 45.81 -4.54 47.91 -0.12 48.88 C4.58 47.93 6.98 45.95 10 42.25 C15.11 34.16 19.38 25.05 19 15.25 C17.77 13.33 17.77 13.33 16 12.25 C15.34 12.25 14.68 12.25 14 12.25 C13.51 11.26 13.51 11.26 13 10.25 C7.35 9.05 1.75 9.15 -4 9.25 C-4 7.27 -4 5.29 -4 3.25 C-1.69 3.25 0.62 3.25 3 3.25 C3 4.57 3 5.89 3 7.25 C3.99 7.25 4.98 7.25 6 7.25 C6 5.93 6 4.61 6 3.25 C7.32 2.92 8.64 2.59 10 2.25 C6.35 2.19 2.71 2.16 -0.94 2.12 C-2.47 2.1 -2.47 2.1 -4.03 2.07 C-14.14 1.62 -14.14 1.62 -23 5.25 Z " fill="#AEAFBD" transform="translate(25,-0.25)"/>
<path d="M0 0 C2.74 0.18 3.78 0.77 5.69 2.75 C7.11 5.19 7.48 7.25 8 10 C8.66 10.33 9.32 10.66 10 11 C9.67 12.32 9.34 13.64 9 15 C7.68 15 6.36 15 5 15 C6.32 15.66 7.64 16.32 9 17 C9 18.32 9 19.64 9 21 C7.68 21 6.36 21 5 21 C4.88 21.64 4.75 22.28 4.62 22.94 C4.32 23.96 4.32 23.96 4 25 C1.75 26.12 0.49 26.13 -2 26.12 C-3.05 26.13 -3.05 26.13 -4.12 26.13 C-6 26 -6 26 -8 25 C-8 24.01 -8 23.02 -8 22 C-8.66 22.33 -9.32 22.66 -10 23 C-9.67 23.99 -9.34 24.98 -9 26 C-7.42 26.2 -5.83 26.38 -4.25 26.56 C-3.37 26.67 -2.49 26.77 -1.58 26.88 C0.93 27 2.68 26.96 5 26 C5.33 25.01 5.66 24.02 6 23 C6.33 23 6.66 23 7 23 C7.38 25.69 7.38 25.69 7 29 C4.14 32.13 2.18 33.75 -2 34.62 C-5.95 33.8 -8.5 32.1 -11 29 C-12.63 24.84 -13.08 21.42 -13 17 C-12.35 17.07 -11.7 17.14 -11.02 17.22 C-6.33 17.72 -1.73 18.12 3 18 C2.01 17.67 1.02 17.34 0 17 C0 16.34 0 15.68 0 15 C-1.32 15 -2.64 15 -4 15 C-4 15.66 -4 16.32 -4 17 C-7.35 16.05 -10.69 15.1 -14 14 C-14 13.01 -14 12.02 -14 11 C-12.68 11 -11.36 11 -10 11 C-10 10.34 -10 9.68 -10 9 C-8.32 7.34 -8.32 7.34 -6.12 5.5 C-4.01 3.71 -1.96 1.96 0 0 Z " fill="#C5C9D3" transform="translate(27,12)"/>
<path d="M0 0 C2.31 0 4.62 0 7 0 C7 1.32 7 2.64 7 4 C7.99 4 8.98 4 10 4 C10 2.68 10 1.36 10 0 C12.08 -0.05 14.17 -0.09 16.25 -0.12 C17.99 -0.16 17.99 -0.16 19.77 -0.2 C23 0 23 0 27 2 C27 6.29 27 10.58 27 15 C25.68 15.33 24.36 15.66 23 16 C22.75 15.24 22.5 14.47 22.25 13.69 C20.78 10.54 20.01 9.71 17 8 C14.1 7.36 11.2 7.08 8.25 6.81 C7.46 6.73 6.66 6.65 5.85 6.56 C3.9 6.36 1.95 6.18 0 6 C0 4.02 0 2.04 0 0 Z " fill="#A5A7AD" transform="translate(21,3)"/>
<path d="M0 0 C-1.2 4.4 -2.43 7.1 -6 10 C-6.66 10 -7.32 10 -8 10 C-8 10.66 -8 11.32 -8 12 C-9.32 12 -10.64 12 -12 12 C-11.67 12.99 -11.34 13.98 -11 15 C-10.26 15.12 -9.52 15.25 -8.75 15.38 C-6.2 15.95 -4.27 16.74 -2 18 C-2 17.34 -2 16.68 -2 16 C-0.68 16 0.64 16 2 16 C2 16.66 2 17.32 2 18 C3.65 18.33 5.3 18.66 7 19 C7 19.33 7 19.66 7 20 C4.75 20.05 2.5 20.09 0.25 20.12 C-1 20.15 -2.26 20.17 -3.55 20.2 C-6.73 20.02 -8.37 19.69 -11 18 C-11 18.99 -11 19.98 -11 21 C-11.99 21 -12.98 21 -14 21 C-16.25 15.21 -17.86 10.23 -17 4 C-14.69 1.94 -14.69 1.94 -12 1 C-11.01 1.33 -10.02 1.66 -9 2 C-9.99 4.31 -10.98 6.62 -12 9 C-11.34 7.35 -10.68 5.7 -10 4 C-9.34 4 -8.68 4 -8 4 C-8 3.34 -8 2.68 -8 2 C-7.34 2 -6.68 2 -6 2 C-6 1.34 -6 0.68 -6 0 C-3.51 -1.25 -2.59 -0.78 0 0 Z " fill="#1D2829" transform="translate(25,11)"/>
<path d="M0 0 C3.63 0 7.26 0 11 0 C11 0.66 11 1.32 11 2 C12.65 2.66 14.3 3.32 16 4 C15.75 15.66 12.1 26.4 4 35 C1.57 37.03 0.33 37.93 -2.81 38.56 C-7.27 37.78 -10.12 35.46 -13 32 C-13.82 29.92 -13.82 29.92 -14 28 C-13.34 27.34 -12.68 26.68 -12 26 C-11.75 26.93 -11.5 27.86 -11.25 28.81 C-9.9 32.25 -9.26 33.37 -6 35 C-2.17 35.57 -0.49 35.29 2.88 33.31 C5.25 31.18 5.25 31.18 5.31 28.25 C5.21 27.51 5.11 26.77 5 26 C4.55 26.47 4.09 26.95 3.62 27.44 C1.36 29.62 0.31 29.98 -2.88 30.19 C-5.96 30 -7.51 29.78 -10 28 C-11.25 25.88 -11.25 25.88 -12 24 C-11.01 24 -10.02 24 -9 24 C-9 24.99 -9 25.98 -9 27 C-5.04 27 -1.08 27 3 27 C3.33 25.35 3.66 23.7 4 22 C6.31 22 8.62 22 11 22 C12.72 13.57 12.72 13.57 13 5 C11.68 4.67 10.36 4.34 9 4 C9.33 5.98 9.66 7.96 10 10 C9.59 9.42 9.17 8.84 8.75 8.25 C6.14 4.9 3.54 2.36 0 0 Z " fill="#0B1013" transform="translate(28,10)"/>
<path d="M0 0 C4.45 0.99 4.45 0.99 9 2 C8.01 2.66 7.02 3.32 6 4 C6.33 5.32 6.66 6.64 7 8 C6.34 8 5.68 8 5 8 C5 7.01 5 6.02 5 5 C4.01 5.49 4.01 5.49 3 6 C3.33 6.99 3.66 7.98 4 9 C5.58 9.2 7.17 9.38 8.75 9.56 C9.63 9.67 10.51 9.77 11.42 9.88 C13.93 10 15.68 9.96 18 9 C18.33 8.01 18.66 7.02 19 6 C19.33 6 19.66 6 20 6 C20.38 8.69 20.38 8.69 20 12 C17.14 15.13 15.18 16.75 11 17.62 C7.05 16.8 4.5 15.1 2 12 C0.39 7.91 -0.27 4.38 0 0 Z " fill="#E7E8EA" transform="translate(14,29)"/>
<path d="M0 0 C1.11 -0.01 2.22 -0.02 3.37 -0.02 C20.77 0.02 20.77 0.02 25 4.25 C25.14 6.83 25.19 9.3 25.12 11.88 C25.12 12.58 25.11 13.29 25.1 14.02 C25.07 15.76 25.04 17.51 25 19.25 C24.67 19.25 24.34 19.25 24 19.25 C23.97 18.33 23.95 17.42 23.92 16.48 C23.87 15.29 23.81 14.1 23.75 12.88 C23.7 11.69 23.66 10.51 23.61 9.29 C23.31 7.78 23.31 7.78 23 6.25 C16.21 1.87 6.24 3.07 -1.5 3.06 C-2.48 3.05 -3.46 3.04 -4.47 3.03 C-10.63 3.01 -16.06 3.62 -22 5.25 C-23.81 7.06 -23.38 9.86 -23.56 12.31 C-23.65 13.42 -23.73 14.52 -23.82 15.66 C-23.88 16.51 -23.94 17.37 -24 18.25 C-24.33 18.25 -24.66 18.25 -25 18.25 C-25.05 15.96 -25.09 13.67 -25.12 11.38 C-25.15 10.1 -25.17 8.82 -25.2 7.51 C-25 4.25 -25 4.25 -23 2.25 C-15.55 -0.16 -7.74 -0.05 0 0 Z " fill="#EDEDF3" transform="translate(25,-0.25)"/>
<path d="M0 0 C2.19 -0.31 2.19 -0.31 5 0 C7.81 2.5 7.81 2.5 10 5 C9.67 3.68 9.34 2.36 9 1 C14.88 2.88 14.88 2.88 16 4 C15.87 9.88 15.22 15.52 13 21 C12.01 21 11.02 21 10 21 C10 20.01 10 19.02 10 18 C8.35 17.67 6.7 17.34 5 17 C5.33 16.34 5.66 15.68 6 15 C7.32 15 8.64 15 10 15 C10.33 14.01 10.66 13.02 11 12 C10.01 11.67 9.02 11.34 8 11 C7.28 8.68 6.62 6.35 6 4 C5.34 3.34 4.68 2.68 4 2 C2.68 2 1.36 2 0 2 C0 1.34 0 0.68 0 0 Z " fill="#1F292E" transform="translate(26,11)"/>
<path d="M0 0 C1.42 -0.05 2.83 -0.09 4.25 -0.12 C5.04 -0.15 5.83 -0.17 6.64 -0.2 C9 0 9 0 13 2 C13 6.29 13 10.58 13 15 C11.68 15.33 10.36 15.66 9 16 C8.73 15.24 8.46 14.47 8.19 13.69 C7.06 11.13 6.09 9.8 4 8 C4.66 8 5.32 8 6 8 C5.67 6.02 5.34 4.04 5 2 C3.35 1.67 1.7 1.34 0 1 C0 0.67 0 0.34 0 0 Z " fill="#0E1415" transform="translate(35,3)"/>
<path d="M0 0 C0 0.66 0 1.32 0 2 C-1.32 2 -2.64 2 -4 2 C-4 3.32 -4 4.64 -4 6 C-5.6 6.84 -7.21 7.67 -8.81 8.5 C-9.71 8.96 -10.6 9.43 -11.52 9.91 C-14 11 -14 11 -17 11 C-16.84 10.2 -16.67 9.39 -16.5 8.56 C-15.85 5.31 -15.85 5.31 -17 2 C-11.22 -0.01 -6.1 -0.22 0 0 Z " fill="#7D8188" transform="translate(20,4)"/>
<path d="M0 0 C2.64 1.24 3.64 2.36 5 4.94 C4.57 7.58 4.57 7.58 4 9.94 C2.23 9.99 0.46 10.03 -1.31 10.06 C-2.79 10.1 -2.79 10.1 -4.3 10.13 C-7 9.94 -7 9.94 -10 7.94 C-8.33 6.27 -6.67 4.6 -5 2.94 C-4.48 2.32 -3.97 1.7 -3.44 1.06 C-2 -0.06 -2 -0.06 0 0 Z " fill="#F3F4F6" transform="translate(29,12.0625)"/>
<path d="M0 0 C-1.2 4.4 -2.43 7.1 -6 10 C-6.66 10 -7.32 10 -8 10 C-8 10.66 -8 11.32 -8 12 C-9.32 11.67 -10.64 11.34 -12 11 C-11.34 8.69 -10.68 6.38 -10 4 C-9.34 4 -8.68 4 -8 4 C-8 3.34 -8 2.68 -8 2 C-7.34 2 -6.68 2 -6 2 C-6 1.34 -6 0.68 -6 0 C-3.51 -1.25 -2.59 -0.78 0 0 Z " fill="#803653" transform="translate(25,11)"/>
<path d="M0 0 C0 1.65 0 3.3 0 5 C-3.21 6.61 -6.44 6.06 -10 6 C-10.66 4.02 -11.32 2.04 -12 0 C-7.45 -2.48 -4.78 -1.69 0 0 Z " fill="#A3A6AE" transform="translate(31,32)"/>
<path d="M0 0 C7.59 0 15.18 0 23 0 C21.68 0.33 20.36 0.66 19 1 C19 2.32 19 3.64 19 5 C18.01 5 17.02 5 16 5 C16 3.68 16 2.36 16 1 C13.69 1 11.38 1 9 1 C9 2.98 9 4.96 9 7 C8.01 7.33 7.02 7.66 6 8 C6 7.01 6 6.02 6 5 C5.34 4.67 4.68 4.34 4 4 C5.32 4 6.64 4 8 4 C8 3.34 8 2.68 8 2 C7.42 2.23 6.84 2.45 6.25 2.69 C4 3 4 3 0 0 Z " fill="#7F8185" transform="translate(12,2)"/>
<path d="M0 0 C-0.66 0.93 -1.32 1.86 -2 2.81 C-4.83 7.66 -4.35 12.56 -4 18 C-7.39 14.61 -8.14 10.48 -8.44 5.81 C-8 2 -8 2 -5.69 -0.06 C-3 -1 -3 -1 0 0 Z " fill="#7A839D" transform="translate(16,13)"/>
<path d="M0 0 C4.45 0.99 4.45 0.99 9 2 C8.01 2.66 7.02 3.32 6 4 C6.33 5.32 6.66 6.64 7 8 C6.34 8 5.68 8 5 8 C5 7.01 5 6.02 5 5 C4.01 5.49 4.01 5.49 3 6 C3.33 6.99 3.66 7.98 4 9 C4.66 9.33 5.32 9.66 6 10 C6 11.65 6 13.3 6 15 C2.83 13.21 2.04 12.11 0.75 8.62 C0.12 5.59 -0.19 3.07 0 0 Z " fill="#555D6D" transform="translate(14,29)"/>
<path d="M0 0 C5.88 1.88 5.88 1.88 7 3 C6.96 4.75 6.84 6.5 6.69 8.25 C6.61 9.2 6.53 10.16 6.45 11.14 C6 14.02 5.18 16.35 4 19 C3.07 15.9 2.98 13.29 3.12 10.06 C3.19 5.86 2.7 3.38 0 0 Z " fill="#7B849E" transform="translate(35,12)"/>
<path d="M0 0 C0 0.66 0 1.32 0 2 C-1.83 2.22 -1.83 2.22 -3.69 2.44 C-8.21 3 -12.59 3.86 -17 5 C-16.67 3.68 -16.34 2.36 -16 1 C-10.64 -0.13 -5.45 -0.1 0 0 Z " fill="#D8D9D9" transform="translate(20,4)"/>
<path d="M0 0 C2.48 0.5 2.48 0.5 5 1 C4.81 1.56 4.63 2.11 4.44 2.69 C3.92 5.4 4.34 7.34 5 10 C3.35 9.67 1.7 9.34 0 9 C0 6.03 0 3.06 0 0 Z " fill="#A9ABB2" transform="translate(42,5)"/>
<path d="M0 0 C2.69 0.31 2.69 0.31 5 1 C3.68 1.33 2.36 1.66 1 2 C2.32 2.66 3.64 3.32 5 4 C5 5.32 5 6.64 5 8 C2.03 7.67 -0.94 7.34 -4 7 C-3.01 6.34 -2.02 5.68 -1 5 C-1.66 4.34 -2.32 3.68 -3 3 C-1.81 1.44 -1.81 1.44 0 0 Z " fill="#949AAB" transform="translate(31,25)"/>
<path d="M0 0 C1.32 0 2.64 0 4 0 C4 0.66 4 1.32 4 2 C5.65 2.33 7.3 2.66 9 3 C9 3.33 9 3.66 9 4 C4.38 4 -0.24 4 -5 4 C-5.33 3.01 -5.66 2.02 -6 1 C-3.03 1.5 -3.03 1.5 0 2 C0 1.34 0 0.68 0 0 Z " fill="#333E3B" transform="translate(23,27)"/>
<path d="M0 0 C1.05 0.46 1.05 0.46 2.12 0.94 C5.09 2.03 7.88 2.56 11 3 C11 3.66 11 4.32 11 5 C1.59 5.18 1.59 5.18 -3 4 C-3 3.34 -3 2.68 -3 2 C-2.01 2 -1.02 2 0 2 C0 1.34 0 0.68 0 0 Z " fill="#E7E8EA" transform="translate(17,21)"/>
<path d="M0 0 C0.33 0 0.66 0 1 0 C1.31 2.75 1.31 2.75 1 6 C-1.5 8.38 -1.5 8.38 -4 10 C-4.33 8.02 -4.66 6.04 -5 4 C-4.04 3.85 -4.04 3.85 -3.06 3.69 C-2.38 3.46 -1.7 3.23 -1 3 C-0.67 2.01 -0.34 1.02 0 0 Z " fill="#787F8F" transform="translate(33,35)"/>
<path d="M0 0 C5.61 0 11.22 0 17 0 C15.68 0.33 14.36 0.66 13 1 C13 2.32 13 3.64 13 5 C12.01 5 11.02 5 10 5 C10 3.68 10 2.36 10 1 C6.7 1 3.4 1 0 1 C0 0.67 0 0.34 0 0 Z " fill="#0B0F12" transform="translate(18,2)"/>
<path d="M0 0 C2.97 0.33 5.94 0.66 9 1 C8.67 1.66 8.34 2.32 8 3 C5.44 3.62 5.44 3.62 3 4 C3 4.66 3 5.32 3 6 C2.34 6 1.68 6 1 6 C0.67 4.02 0.34 2.04 0 0 Z " fill="#B1B3BA" transform="translate(19,39)"/>
<path d="M0 0 C2.19 -0.31 2.19 -0.31 5 0 C7.75 2.44 7.75 2.44 10 5 C10.33 5.33 10.66 5.66 11 6 C11.04 7.67 11.04 9.33 11 11 C10.34 10.67 9.68 10.34 9 10 C9 8.68 9 7.36 9 6 C8.34 6 7.68 6 7 6 C6.55 5.34 6.09 4.68 5.62 4 C5.09 3.34 4.55 2.68 4 2 C2.68 2 1.36 2 0 2 C0 1.34 0 0.68 0 0 Z " fill="#717A91" transform="translate(26,11)"/>
<path d="M0 0 C0 0.66 0 1.32 0 2 C1.98 2 3.96 2 6 2 C6 2.33 6 2.66 6 3 C-1.92 2.67 -9.84 2.34 -18 2 C-18 1.67 -18 1.34 -18 1 C-15.38 0.83 -12.75 0.67 -10.12 0.5 C-9.01 0.43 -9.01 0.43 -7.86 0.36 C-2.23 0 -2.23 0 0 0 Z " fill="#DADADF" transform="translate(37,0)"/>
<path d="M0 0 C0.33 0.66 0.66 1.32 1 2 C0.67 2.66 0.34 3.32 0 4 C1.65 4 3.3 4 5 4 C5 4.66 5 5.32 5 6 C2.69 6 0.38 6 -2 6 C-2.66 4.35 -3.32 2.7 -4 1 C-2.68 0.67 -1.36 0.34 0 0 Z " fill="#EFEFF1" transform="translate(23,31)"/>
<path d="M0 0 C1.32 0 2.64 0 4 0 C4 1.98 4 3.96 4 6 C2.68 6 1.36 6 0 6 C0 4.02 0 2.04 0 0 Z " fill="#BEC1C9" transform="translate(21,3)"/>
<path d="M0 0 C0.66 0.66 1.32 1.32 2 2 C1.67 2.66 1.34 3.32 1 4 C1.33 4.99 1.66 5.98 2 7 C0.35 7.33 -1.3 7.66 -3 8 C-2.45 4.63 -1.95 2.92 0 0 Z " fill="#9DA1AD" transform="translate(6,7)"/>
<path d="M0 0 C2.97 0 5.94 0 9 0 C8.34 3.3 7.68 6.6 7 10 C6.01 9.34 5.02 8.68 4 8 C4.66 8 5.32 8 6 8 C5.67 6.02 5.34 4.04 5 2 C3.35 1.67 1.7 1.34 0 1 C0 0.67 0 0.34 0 0 Z " fill="#505355" transform="translate(35,3)"/>
<path d="M0 0 C3.96 0 7.92 0 12 0 C10.35 1.32 8.7 2.64 7 4 C4.08 2.93 2.22 2.22 0 0 Z " fill="#606570" transform="translate(19,21)"/>
<path d="M0 0 C3.63 0 7.26 0 11 0 C8 2 8 2 6 2 C5.67 3.32 5.34 4.64 5 6 C4.88 5.07 4.88 5.07 4.75 4.12 C4.09 1.47 4.09 1.47 0 0 Z " fill="#1F272C" transform="translate(20,9)"/>
<path d="M0 0 C4.45 0.99 4.45 0.99 9 2 C5.23 3.88 3.97 4.22 0 4 C0 2.68 0 1.36 0 0 Z " fill="#989DAF" transform="translate(14,29)"/>
<path d="M0 0 C1.65 0.33 3.3 0.66 5 1 C3.68 1.33 2.36 1.66 1 2 C1.33 2.99 1.66 3.98 2 5 C0.35 4.67 -1.3 4.34 -3 4 C-2.01 2.68 -1.02 1.36 0 0 Z " fill="#799470" transform="translate(31,25)"/>
<path d="M0 0 C1.98 0.49 1.98 0.49 4 1 C3.67 2.32 3.34 3.64 3 5 C1.68 5.33 0.36 5.66 -1 6 C-0.67 4.02 -0.34 2.04 0 0 Z " fill="#A7194B" transform="translate(21,10)"/>
<path d="M0 0 C2.31 0 4.62 0 7 0 C7 0.99 7 1.98 7 3 C5.02 3 3.04 3 1 3 C0.67 2.01 0.34 1.02 0 0 Z " fill="#527139" transform="translate(17,28)"/>
<path d="M0 0 C1.32 0.66 2.64 1.32 4 2 C4 2.99 4 3.98 4 5 C2.02 4.34 0.04 3.68 -2 3 C-1.34 2.01 -0.68 1.02 0 0 Z " fill="#B6B9C1" transform="translate(33,21)"/>
</svg>
